<svg xmlns="http://www.w3.org/2000/svg" viewBox="5.0 -6.3 1150.5 696.8" width="1150" height="697"><defs><pattern id="hatch-E0F2FE-0284C7" width="5.5" height="5.5" patternUnits="userSpaceOnUse" patternTransform="rotate(45)"><rect width="5.5" height="5.5" fill="#E0F2FE"/><line x1="0" y1="0" x2="0" y2="5.5" stroke="#0284C7" stroke-width="1.4" stroke-opacity="0.55"/></pattern><marker id="arr-334155" viewBox="0 0 10 10" refX="8.5" refY="5" markerWidth="6.5" markerHeight="6.5" orient="auto-start-reverse"><path d="M0.5,1 L9,5 L0.5,9 Z" fill="#334155"/></marker><marker id="arr-DB2777" viewBox="0 0 10 10" refX="8.5" refY="5" markerWidth="6.5" markerHeight="6.5" orient="auto-start-reverse"><path d="M0.5,1 L9,5 L0.5,9 Z" fill="#DB2777"/></marker><marker id="arr-0D9488" viewBox="0 0 10 10" refX="8.5" refY="5" markerWidth="6.5" markerHeight="6.5" orient="auto-start-reverse"><path d="M0.5,1 L9,5 L0.5,9 Z" fill="#0D9488"/></marker></defs><rect x="5.0" y="-6.3" width="1150.5" height="696.8" fill="#FFFFFF"/><g id="frames"><rect x="170.0" y="272.0" width="240.7" height="44.0" rx="10" fill="#FFFFFF" stroke="#94A3B8" stroke-width="1.1" stroke-dasharray="5 4"/><rect x="160.0" y="281.0" width="240.7" height="44.0" rx="10" fill="#FFFFFF" stroke="#94A3B8" stroke-width="1.1" stroke-dasharray="5 4"/><rect x="631.2" y="96.0" width="216.2" height="444.0" rx="10" fill="rgba(148,163,184,0.05)" stroke="#94A3B8" stroke-width="1.2"/></g><g id="edges"><path d="M 280.4,422.0 L 280.4,400.0" fill="none" stroke="#334155" stroke-width="1.5" stroke-linejoin="round" stroke-linecap="round" marker-end="url(#arr-334155)"/><path d="M 280.4,356.0 L 280.4,334.0" fill="none" stroke="#334155" stroke-width="1.5" stroke-linejoin="round" stroke-linecap="round" marker-end="url(#arr-334155)"/><path d="M 280.4,272.0 L 280.4,250.0" fill="none" stroke="#334155" stroke-width="1.5" stroke-linejoin="round" stroke-linecap="round" marker-end="url(#arr-334155)"/><path d="M 280.4,220.0 L 280.4,198.0" fill="none" stroke="#334155" stroke-width="1.5" stroke-linejoin="round" stroke-linecap="round" marker-end="url(#arr-334155)"/><path d="M 280.4,154.0 L 280.4,132.0" fill="none" stroke="#334155" stroke-width="1.5" stroke-linejoin="round" stroke-linecap="round" marker-end="url(#arr-334155)"/><path d="M 201.8,542.0 L 102.9,562.6 Q 96.0,564.0 96.0,557.0 L 96.0,322.0 Q 96.0,315.0 103.0,314.4 L 150.0,310.4" fill="none" stroke="#DB2777" stroke-width="1.2" stroke-linejoin="round" stroke-linecap="round" stroke-dasharray="5 3" marker-end="url(#arr-DB2777)"/><path d="M 350.4,542.0 L 350.4,597.0 Q 350.4,604.0 343.4,604.0 L 87.0,604.0 Q 80.0,604.0 80.0,597.0 L 80.0,298.0 Q 80.0,291.0 87.0,291.5 L 150.0,295.6" fill="none" stroke="#DB2777" stroke-width="1.2" stroke-linejoin="round" stroke-linecap="round" stroke-dasharray="5 3" marker-end="url(#arr-DB2777)"/><path d="M 159.5,121.0 L 144.6,121.0 Q 137.6,121.0 137.6,128.0 L 137.6,426.0 Q 137.6,433.0 144.6,433.0 L 177.6,433.0" fill="none" stroke="#0D9488" stroke-width="1.5" stroke-linejoin="round" stroke-linecap="round" marker-end="url(#arr-0D9488)"/><path d="M 739.3,500.0 L 739.3,487.0" fill="none" stroke="#334155" stroke-width="1.5" stroke-linejoin="round" stroke-linecap="round" marker-end="url(#arr-334155)"/><path d="M 739.3,457.0 L 739.3,444.0" fill="none" stroke="#334155" stroke-width="1.5" stroke-linejoin="round" stroke-linecap="round" marker-end="url(#arr-334155)"/><path d="M 739.3,414.0 L 739.3,401.0" fill="none" stroke="#334155" stroke-width="1.5" stroke-linejoin="round" stroke-linecap="round" marker-end="url(#arr-334155)"/><path d="M 739.3,371.0 L 739.3,358.0" fill="none" stroke="#334155" stroke-width="1.5" stroke-linejoin="round" stroke-linecap="round" marker-end="url(#arr-334155)"/><path d="M 739.3,339.0 L 739.3,326.0" fill="none" stroke="#334155" stroke-width="1.5" stroke-linejoin="round" stroke-linecap="round" marker-end="url(#arr-334155)"/><path d="M 739.3,307.0 L 739.3,294.0" fill="none" stroke="#334155" stroke-width="1.5" stroke-linejoin="round" stroke-linecap="round" marker-end="url(#arr-334155)"/><path d="M 739.3,264.0 L 739.3,251.0" fill="none" stroke="#334155" stroke-width="1.5" stroke-linejoin="round" stroke-linecap="round" marker-end="url(#arr-334155)"/><path d="M 739.3,221.0 L 739.3,208.0" fill="none" stroke="#334155" stroke-width="1.5" stroke-linejoin="round" stroke-linecap="round" marker-end="url(#arr-334155)"/><path d="M 739.3,178.0 L 739.3,165.0" fill="none" stroke="#334155" stroke-width="1.5" stroke-linejoin="round" stroke-linecap="round" marker-end="url(#arr-334155)"/><path d="M 739.3,146.0 L 739.3,133.0" fill="none" stroke="#334155" stroke-width="1.5" stroke-linejoin="round" stroke-linecap="round" marker-end="url(#arr-334155)"/><path d="M 883.4,386.0 L 865.4,386.0" fill="none" stroke="#DB2777" stroke-width="1.2" stroke-linejoin="round" stroke-linecap="round" stroke-dasharray="5 3"/><line x1="865.4" y1="155.5" x2="865.4" y2="429.0" stroke="#DB2777" stroke-width="1.2" stroke-linecap="butt" stroke-dasharray="5 3"/><path d="M 865.4,429.0 L 829.1,429.0" fill="none" stroke="#DB2777" stroke-width="1.2" stroke-linejoin="round" stroke-linecap="round" stroke-dasharray="5 3" marker-end="url(#arr-DB2777)"/><path d="M 865.4,348.5 L 748.8,348.5" fill="none" stroke="#DB2777" stroke-width="1.2" stroke-linejoin="round" stroke-linecap="round" stroke-dasharray="5 3" marker-end="url(#arr-DB2777)"/><path d="M 865.4,236.0 L 829.1,236.0" fill="none" stroke="#DB2777" stroke-width="1.2" stroke-linejoin="round" stroke-linecap="round" stroke-dasharray="5 3" marker-end="url(#arr-DB2777)"/><path d="M 865.4,155.5 L 748.8,155.5" fill="none" stroke="#DB2777" stroke-width="1.2" stroke-linejoin="round" stroke-linecap="round" stroke-dasharray="5 3" marker-end="url(#arr-DB2777)"/></g><g id="nodes"><rect x="159.5" y="110.0" width="241.8" height="22.0" rx="11.0" fill="#E0F2FE" stroke="#0284C7" stroke-width="1.1"/><text x="280.4" y="124.6" font-family="SF Mono, Menlo, Consolas, monospace" font-size="10.0px" fill="#0C4A6E" text-anchor="middle">predicted noise  e_theta  (32, 32, 4)</text><rect x="191.5" y="154.0" width="177.8" height="44.0" rx="7" fill="#E0E7FF" stroke="#4F46E5" stroke-width="1.3"/><text x="280.4" y="177.0" font-family="Helvetica Neue, Helvetica, Arial, sans-serif" font-size="12.5px" fill="#312E81" text-anchor="middle" font-weight="500">Linear &amp; Reshape</text><text x="280.4" y="190.5" font-family="SF Mono, Menlo, Consolas, monospace" font-size="9.5px" fill="#475569" text-anchor="middle">tokens (T, d) → (32, 32, 4)</text><rect x="232.1" y="220.0" width="96.6" height="30.0" rx="7" fill="#FEF9C3" stroke="#CA8A04" stroke-width="1.3"/><text x="280.4" y="239.5" font-family="Helvetica Neue, Helvetica, Arial, sans-serif" font-size="12.5px" fill="#713F12" text-anchor="middle" font-weight="500">Layer Norm</text><rect x="150.0" y="290.0" width="240.7" height="44.0" rx="7" fill="#F1F5F9" stroke="#475569" stroke-width="1.3"/><text x="270.4" y="313.0" font-family="Helvetica Neue, Helvetica, Arial, sans-serif" font-size="12.5px" fill="#0F172A" text-anchor="middle" font-weight="500">DiT block</text><text x="270.4" y="326.5" font-family="SF Mono, Menlo, Consolas, monospace" font-size="9.5px" fill="#475569" text-anchor="middle">adaLN-Zero self-attn + MLP  (detail →)</text><rect x="195.3" y="356.0" width="170.2" height="44.0" rx="7" fill="#EDE9FE" stroke="#7C3AED" stroke-width="1.3"/><text x="280.4" y="379.0" font-family="Helvetica Neue, Helvetica, Arial, sans-serif" font-size="12.5px" fill="#4C1D95" text-anchor="middle" font-weight="500">Patchify → tokens (T, d)</text><text x="280.4" y="392.5" font-family="SF Mono, Menlo, Consolas, monospace" font-size="9.5px" fill="#475569" text-anchor="middle">T = (32/p)^2 patches</text><rect x="177.6" y="422.0" width="205.6" height="22.0" rx="11.0" fill="url(#hatch-E0F2FE-0284C7)" stroke="#0284C7" stroke-width="1.1"/><text x="280.4" y="436.6" font-family="SF Mono, Menlo, Consolas, monospace" font-size="10.0px" fill="#0C4A6E" text-anchor="middle" paint-order="stroke" stroke="#FFFFFF" stroke-width="3px">noised latent  x_t  (32, 32, 4)</text><rect x="143.7" y="542.0" width="116.1" height="44.0" rx="7" fill="#FCE7F3" stroke="#DB2777" stroke-width="1.3"/><text x="201.8" y="565.0" font-family="Helvetica Neue, Helvetica, Arial, sans-serif" font-size="12.5px" fill="#831843" text-anchor="middle" font-weight="500">timestep  t</text><text x="201.8" y="578.5" font-family="SF Mono, Menlo, Consolas, monospace" font-size="9.5px" fill="#475569" text-anchor="middle">sinusoidal → MLP</text><rect x="283.8" y="542.0" width="133.2" height="44.0" rx="7" fill="#FCE7F3" stroke="#DB2777" stroke-width="1.3"/><text x="350.4" y="565.0" font-family="Helvetica Neue, Helvetica, Arial, sans-serif" font-size="12.5px" fill="#831843" text-anchor="middle" font-weight="500">condition  c</text><text x="350.4" y="578.5" font-family="SF Mono, Menlo, Consolas, monospace" font-size="9.5px" fill="#475569" text-anchor="middle">class / text / pose</text><g transform="translate(398.89,179.54) scale(1,-1)"><path d="M 0.48 -0.27 Q 0.40 -0.27 0.40 -0.18 Q 0.40 -0.13 0.44 -0.06 Q 0.54 0.09 0.73 0.28 Q 0.92 0.47 1.00 0.57 Q 1.33 1.05 1.52 1.42 Q 1.85 2.10 2.09 2.99 Q 2.45 4.41 2.74 5.29 Q 3.03 6.17 3.50 6.96 Q 3.87 7.57 4.40 8.07 Q 4.94 8.58 5.60 8.88 Q 6.26 9.18 6.94 9.18 L 7.02 9.18 Q 7.36 9.18 7.58 9.01 Q 7.81 8.84 7.93 8.56 Q 8.05 8.28 8.05 7.95 Q 8.05 7.46 7.89 7.27 Q 7.44 6.78 6.82 6.70 L 6.75 6.70 Q 6.67 6.70 6.67 6.79 Q 6.67 6.80 6.70 6.98 Q 6.74 7.17 6.74 7.29 Q 6.74 7.71 6.52 8.03 Q 6.32 8.34 5.90 8.34 Q 5.42 8.34 5.42 8.25 Q 5.07 8.01 4.74 7.43 Q 4.41 6.86 4.17 6.19 Q 3.92 5.52 3.73 4.84 Q 3.54 4.17 3.40 3.58 Q 3.24 2.94 2.99 2.35 Q 2.74 1.76 2.39 1.24 Q 2.55 1.29 2.77 1.29 L 2.85 1.29 Q 3.30 1.29 3.75 1.20 Q 4.20 1.11 4.83 0.93 Q 5.46 0.75 5.88 0.66 Q 6.30 0.58 6.76 0.57 Q 6.90 0.57 6.99 0.70 Q 7.08 0.83 7.16 1.05 Q 7.25 1.28 7.31 1.35 Q 7.50 1.57 7.79 1.73 Q 8.07 1.89 8.36 1.93 L 8.44 1.93 Q 8.47 1.93 8.50 1.90 Q 8.53 1.87 8.53 1.84 Q 8.53 1.84 8.51 1.80 Q 8.38 1.29 7.92 0.80 Q 7.45 0.31 6.85 0.02 Q 6.25 -0.27 5.74 -0.27 L 5.67 -0.27 Q 5.22 -0.27 4.79 -0.19 Q 4.36 -0.11 3.73 0.07 Q 3.10 0.25 2.65 0.34 Q 2.20 0.44 1.75 0.45 Q 1.17 -0.19 0.56 -0.27 L 0.48 -0.27 Z M 12.22 1.74 Q 12.11 1.74 12.04 1.82 Q 11.97 1.91 11.97 2.00 Q 11.97 2.11 12.04 2.18 Q 12.11 2.26 12.22 2.26 L 20.38 2.26 Q 20.48 2.26 20.54 2.18 Q 20.62 2.11 20.62 2.00 Q 20.62 1.91 20.54 1.82 Q 20.48 1.74 20.38 1.74 L 12.22 1.74 Z M 12.22 4.27 Q 12.11 4.27 12.04 4.34 Q 11.97 4.42 11.97 4.53 Q 11.97 4.62 12.04 4.70 Q 12.11 4.79 12.22 4.79 L 20.38 4.79 Q 20.48 4.79 20.54 4.70 Q 20.62 4.62 20.62 4.53 Q 20.62 4.42 20.54 4.34 Q 20.48 4.27 20.38 4.27 L 12.22 4.27 Z M 32.25 8.50 L 32.14 8.02 L 27.99 8.02 L 27.09 4.62 L 30.76 4.62 L 30.61 4.14 L 26.96 4.14 L 25.99 0.50 L 30.61 0.50 L 30.51 0.01 L 23.84 0.01 L 26.12 8.50 L 32.25 8.50 Z M 27.51 8.02 L 26.49 8.02 L 24.47 0.50 L 25.51 0.50 L 27.51 8.02 Z M 33.22 -1.93 Q 33.38 -2.06 33.67 -2.06 Q 33.96 -2.06 34.17 -1.79 Q 34.39 -1.51 34.47 -1.19 L 34.89 0.43 Q 34.98 0.86 34.98 1.03 Q 34.98 1.25 34.86 1.42 Q 34.73 1.59 34.50 1.59 Q 34.21 1.59 33.96 1.41 Q 33.71 1.23 33.53 0.95 Q 33.36 0.67 33.29 0.39 Q 33.27 0.33 33.22 0.33 L 33.11 0.33 Q 33.04 0.33 33.04 0.42 L 33.04 0.44 Q 33.13 0.78 33.34 1.10 Q 33.55 1.42 33.86 1.62 Q 34.17 1.82 34.52 1.82 Q 34.85 1.82 35.12 1.65 Q 35.39 1.47 35.50 1.16 Q 35.66 1.44 35.90 1.63 Q 36.14 1.82 36.43 1.82 Q 36.63 1.82 36.83 1.75 Q 37.04 1.69 37.16 1.54 Q 37.29 1.40 37.29 1.19 Q 37.29 0.96 37.14 0.79 Q 37.00 0.62 36.77 0.62 Q 36.62 0.62 36.52 0.72 Q 36.42 0.81 36.42 0.95 Q 36.42 1.14 36.55 1.29 Q 36.69 1.43 36.87 1.46 Q 36.70 1.59 36.41 1.59 Q 36.12 1.59 35.91 1.32 Q 35.69 1.05 35.60 0.71 L 35.20 -0.89 Q 35.10 -1.26 35.10 -1.49 Q 35.10 -1.73 35.23 -1.89 Q 35.36 -2.06 35.58 -2.06 Q 36.01 -2.06 36.34 -1.68 Q 36.68 -1.31 36.79 -0.86 Q 36.81 -0.81 36.86 -0.81 L 36.97 -0.81 Q 37.01 -0.81 37.03 -0.83 Q 37.05 -0.85 37.05 -0.89 Q 37.05 -0.89 37.04 -0.91 Q 36.91 -1.45 36.50 -1.88 Q 36.09 -2.30 35.57 -2.30 Q 35.23 -2.30 34.96 -2.12 Q 34.70 -1.94 34.58 -1.63 Q 34.44 -1.90 34.19 -2.10 Q 33.94 -2.30 33.65 -2.30 Q 33.46 -2.30 33.25 -2.23 Q 33.05 -2.16 32.92 -2.02 Q 32.79 -1.88 32.79 -1.66 Q 32.79 -1.45 32.94 -1.27 Q 33.09 -1.09 33.31 -1.09 Q 33.46 -1.09 33.56 -1.19 Q 33.66 -1.28 33.66 -1.42 Q 33.66 -1.62 33.54 -1.76 Q 33.41 -1.90 33.22 -1.93 Z M 39.30 -3.88 Q 38.51 -3.88 38.23 -3.24 Q 37.95 -2.60 37.95 -1.71 Q 37.95 -1.16 38.05 -0.67 Q 38.15 -0.18 38.45 0.16 Q 38.75 0.50 39.30 0.50 Q 39.72 0.50 39.98 0.29 Q 40.25 0.09 40.39 -0.24 Q 40.53 -0.56 40.58 -0.93 Q 40.63 -1.31 40.63 -1.71 Q 40.63 -2.26 40.53 -2.74 Q 40.43 -3.22 40.14 -3.55 Q 39.84 -3.88 39.30 -3.88 Z M 39.30 -3.72 Q 39.65 -3.72 39.82 -3.36 Q 40.00 -2.99 40.04 -2.55 Q 40.08 -2.11 40.08 -1.61 Q 40.08 -1.13 40.04 -0.73 Q 40.00 -0.32 39.82 0.01 Q 39.65 0.33 39.30 0.33 Q 38.93 0.33 38.76 0.00 Q 38.59 -0.33 38.55 -0.73 Q 38.50 -1.13 38.50 -1.61 Q 38.50 -1.96 38.52 -2.28 Q 38.54 -2.59 38.61 -2.93 Q 38.69 -3.26 38.86 -3.49 Q 39.02 -3.72 39.30 -3.72 Z M 42.37 -3.84 Q 42.37 -3.80 42.40 -3.76 Q 42.73 -3.44 42.92 -3.03 Q 43.10 -2.62 43.10 -2.16 L 43.10 -2.05 Q 42.95 -2.20 42.73 -2.20 Q 42.53 -2.20 42.38 -2.05 Q 42.23 -1.90 42.23 -1.69 Q 42.23 -1.48 42.38 -1.34 Q 42.53 -1.20 42.73 -1.20 Q 43.06 -1.20 43.20 -1.50 Q 43.33 -1.80 43.33 -2.16 Q 43.33 -2.67 43.13 -3.12 Q 42.93 -3.58 42.56 -3.94 Q 42.53 -3.96 42.50 -3.96 Q 42.46 -3.96 42.41 -3.92 Q 42.37 -3.88 42.37 -3.84 Z M 46.71 -0.91 Q 46.71 -1.22 46.82 -1.48 Q 46.93 -1.74 47.15 -1.90 Q 47.38 -2.06 47.68 -2.06 Q 47.88 -2.06 48.11 -1.97 Q 48.34 -1.88 48.54 -1.77 Q 48.74 -1.67 48.74 -1.67 Q 48.79 -1.67 48.82 -1.72 Q 48.85 -1.78 48.85 -1.83 Q 48.85 -1.88 48.82 -1.89 Q 48.26 -2.30 47.67 -2.30 Q 47.19 -2.30 46.80 -2.07 Q 46.42 -1.85 46.21 -1.45 Q 45.99 -1.05 45.99 -0.57 Q 45.99 -0.10 46.19 0.32 Q 46.38 0.75 46.71 1.06 Q 47.05 1.38 47.48 1.55 Q 47.90 1.73 48.37 1.73 L 48.89 1.73 Q 49.02 1.73 49.02 1.59 Q 49.02 1.51 48.97 1.46 Q 48.92 1.41 48.85 1.41 L 48.35 1.41 Q 47.99 1.41 47.69 1.25 Q 47.40 1.09 47.20 0.80 Q 47.00 0.52 46.89 0.16 L 48.50 0.16 Q 48.56 0.16 48.60 0.12 Q 48.63 0.08 48.63 0.03 Q 48.63 -0.05 48.58 -0.11 Q 48.54 -0.16 48.46 -0.16 L 46.80 -0.16 Q 46.71 -0.63 46.71 -0.91 Z M 50.17 -3.84 Q 50.17 -3.80 50.21 -3.76 Q 50.54 -3.44 50.72 -3.03 Q 50.90 -2.62 50.90 -2.16 L 50.90 -2.05 Q 50.75 -2.20 50.54 -2.20 Q 50.33 -2.20 50.18 -2.05 Q 50.03 -1.90 50.03 -1.69 Q 50.03 -1.48 50.18 -1.34 Q 50.33 -1.20 50.54 -1.20 Q 50.86 -1.20 51.00 -1.50 Q 51.14 -1.80 51.14 -2.16 Q 51.14 -2.67 50.93 -3.12 Q 50.73 -3.58 50.36 -3.94 Q 50.33 -3.96 50.30 -3.96 Q 50.26 -3.96 50.21 -3.92 Q 50.17 -3.88 50.17 -3.84 Z M 53.95 -1.46 Q 53.95 -1.32 53.98 -1.21 L 54.63 1.41 L 53.68 1.41 Q 53.59 1.41 53.59 1.53 Q 53.62 1.73 53.71 1.73 L 54.71 1.73 L 55.08 3.21 Q 55.11 3.33 55.22 3.42 Q 55.33 3.50 55.46 3.50 Q 55.58 3.50 55.65 3.43 Q 55.73 3.36 55.73 3.25 Q 55.73 3.22 55.73 3.20 Q 55.73 3.19 55.72 3.17 L 55.36 1.73 L 56.30 1.73 Q 56.39 1.73 56.39 1.61 Q 56.38 1.58 56.37 1.53 Q 56.36 1.48 56.34 1.44 Q 56.31 1.41 56.27 1.41 L 55.28 1.41 L 54.63 -1.22 Q 54.56 -1.48 54.56 -1.67 Q 54.56 -2.06 54.83 -2.06 Q 55.23 -2.06 55.53 -1.68 Q 55.84 -1.31 56.01 -0.86 Q 56.04 -0.81 56.08 -0.81 L 56.19 -0.81 Q 56.23 -0.81 56.25 -0.83 Q 56.27 -0.85 56.27 -0.89 Q 56.27 -0.90 56.26 -0.91 Q 56.06 -1.46 55.68 -1.88 Q 55.30 -2.30 54.80 -2.30 Q 54.44 -2.30 54.20 -2.06 Q 53.95 -1.83 53.95 -1.46 Z M 61.13 -3.00 L 61.13 9.53 Q 61.13 9.63 61.21 9.70 Q 61.29 9.76 61.39 9.76 Q 61.49 9.76 61.57 9.70 Q 61.65 9.63 61.65 9.53 L 61.65 -3.00 Q 61.65 -3.10 61.57 -3.17 Q 61.49 -3.24 61.39 -3.24 Q 61.29 -3.24 61.21 -3.17 Q 61.13 -3.10 61.13 -3.00 Z M 63.65 -3.00 L 63.65 9.53 Q 63.65 9.63 63.73 9.70 Q 63.81 9.76 63.91 9.76 Q 64.01 9.76 64.09 9.70 Q 64.17 9.63 64.17 9.53 L 64.17 -3.00 Q 64.17 -3.10 64.09 -3.17 Q 64.01 -3.24 63.91 -3.24 Q 63.81 -3.24 63.73 -3.17 Q 63.65 -3.10 63.65 -3.00 Z M 67.50 1.85 Q 67.50 1.41 67.66 1.04 Q 67.82 0.66 68.14 0.44 Q 68.46 0.21 68.89 0.21 Q 69.18 0.21 69.51 0.34 Q 69.84 0.47 70.13 0.62 Q 70.41 0.77 70.41 0.77 Q 70.48 0.77 70.52 0.69 Q 70.57 0.61 70.57 0.53 Q 70.57 0.47 70.53 0.45 Q 69.72 -0.13 68.88 -0.13 Q 68.19 -0.13 67.64 0.19 Q 67.09 0.51 66.79 1.08 Q 66.49 1.65 66.49 2.33 Q 66.49 3.00 66.76 3.61 Q 67.03 4.22 67.51 4.67 Q 67.99 5.12 68.60 5.37 Q 69.21 5.62 69.88 5.62 L 70.62 5.62 Q 70.81 5.62 70.81 5.42 Q 70.81 5.31 70.74 5.24 Q 70.67 5.16 70.57 5.16 L 69.86 5.16 Q 69.34 5.16 68.91 4.93 Q 68.49 4.70 68.20 4.30 Q 67.92 3.89 67.76 3.38 L 70.06 3.38 Q 70.15 3.38 70.20 3.32 Q 70.26 3.27 70.26 3.19 Q 70.26 3.08 70.18 3.00 Q 70.12 2.93 70.01 2.93 L 67.64 2.93 Q 67.50 2.25 67.50 1.85 Z M 72.63 -2.30 Q 72.22 -2.30 71.97 -2.00 Q 71.72 -1.69 71.62 -1.27 Q 71.53 -0.84 71.53 -0.42 L 71.53 -0.41 Q 71.53 0.04 71.61 0.53 Q 71.70 1.02 71.86 1.50 Q 72.03 1.99 72.22 2.37 Q 72.35 2.64 72.56 2.97 Q 72.78 3.30 73.04 3.58 Q 73.30 3.87 73.60 4.04 Q 73.90 4.22 74.20 4.22 L 74.21 4.22 Q 74.54 4.22 74.76 4.04 Q 74.98 3.85 75.10 3.57 Q 75.22 3.29 75.27 2.96 Q 75.32 2.64 75.32 2.34 Q 75.32 1.66 75.14 0.94 Q 74.95 0.22 74.62 -0.45 Q 74.50 -0.70 74.28 -1.05 Q 74.06 -1.39 73.81 -1.66 Q 73.56 -1.93 73.26 -2.11 Q 72.95 -2.30 72.64 -2.30 L 72.63 -2.30 Z M 72.65 -2.06 Q 72.95 -2.06 73.23 -1.74 Q 73.50 -1.41 73.71 -0.96 Q 73.92 -0.49 74.08 -0.01 Q 74.24 0.47 74.31 0.81 L 72.46 0.81 Q 72.31 0.23 72.23 -0.18 Q 72.15 -0.60 72.15 -1.00 Q 72.15 -2.06 72.65 -2.06 Z M 72.53 1.13 L 74.39 1.13 Q 74.49 1.53 74.55 1.80 Q 74.61 2.06 74.65 2.36 Q 74.69 2.66 74.69 2.92 Q 74.69 3.98 74.20 3.98 Q 73.62 3.98 73.20 3.05 Q 72.79 2.12 72.53 1.13 Z M 80.29 -3.21 Q 79.57 -2.64 79.04 -1.90 Q 78.52 -1.16 78.19 -0.32 Q 77.85 0.52 77.69 1.43 Q 77.53 2.34 77.53 3.26 Q 77.53 4.20 77.69 5.11 Q 77.85 6.02 78.19 6.87 Q 78.54 7.71 79.06 8.45 Q 79.59 9.19 80.29 9.74 Q 80.29 9.76 80.36 9.76 L 80.48 9.76 Q 80.52 9.76 80.55 9.73 Q 80.58 9.70 80.58 9.65 Q 80.58 9.59 80.55 9.57 Q 79.92 8.95 79.50 8.23 Q 79.07 7.52 78.82 6.72 Q 78.56 5.92 78.45 5.06 Q 78.33 4.20 78.33 3.26 Q 78.33 -0.87 80.54 -3.01 Q 80.58 -3.05 80.58 -3.12 Q 80.58 -3.15 80.54 -3.19 Q 80.51 -3.24 80.48 -3.24 L 80.36 -3.24 Q 80.29 -3.24 80.29 -3.21 Z M 82.32 0.39 Q 82.55 0.21 82.97 0.21 Q 83.38 0.21 83.69 0.60 Q 84.00 0.99 84.11 1.45 L 84.70 3.76 Q 84.84 4.39 84.84 4.62 Q 84.84 4.94 84.66 5.18 Q 84.48 5.42 84.16 5.42 Q 83.75 5.42 83.38 5.17 Q 83.02 4.91 82.78 4.51 Q 82.53 4.12 82.43 3.71 Q 82.40 3.63 82.32 3.63 L 82.17 3.63 Q 82.06 3.63 82.06 3.75 L 82.06 3.78 Q 82.19 4.27 82.49 4.73 Q 82.80 5.19 83.24 5.47 Q 83.68 5.76 84.18 5.76 Q 84.66 5.76 85.04 5.50 Q 85.43 5.25 85.59 4.81 Q 85.81 5.21 86.16 5.48 Q 86.50 5.76 86.91 5.76 Q 87.19 5.76 87.48 5.66 Q 87.78 5.56 87.96 5.36 Q 88.15 5.16 88.15 4.85 Q 88.15 4.52 87.93 4.28 Q 87.72 4.04 87.39 4.04 Q 87.18 4.04 87.04 4.18 Q 86.90 4.31 86.90 4.52 Q 86.90 4.79 87.09 4.99 Q 87.28 5.20 87.54 5.24 Q 87.30 5.42 86.89 5.42 Q 86.47 5.42 86.16 5.04 Q 85.85 4.65 85.73 4.17 L 85.16 1.87 Q 85.02 1.35 85.02 1.02 Q 85.02 0.69 85.20 0.45 Q 85.39 0.21 85.70 0.21 Q 86.31 0.21 86.79 0.75 Q 87.27 1.28 87.42 1.93 Q 87.45 2.00 87.52 2.00 L 87.68 2.00 Q 87.73 2.00 87.76 1.97 Q 87.80 1.93 87.80 1.89 Q 87.80 1.87 87.78 1.85 Q 87.60 1.07 87.01 0.47 Q 86.42 -0.13 85.68 -0.13 Q 85.20 -0.13 84.82 0.12 Q 84.43 0.38 84.27 0.82 Q 84.07 0.44 83.71 0.15 Q 83.35 -0.13 82.95 -0.13 Q 82.67 -0.13 82.37 -0.03 Q 82.08 0.07 81.89 0.27 Q 81.71 0.47 81.71 0.78 Q 81.71 1.09 81.92 1.34 Q 82.13 1.59 82.45 1.59 Q 82.67 1.59 82.81 1.46 Q 82.96 1.33 82.96 1.12 Q 82.96 0.84 82.78 0.64 Q 82.60 0.44 82.32 0.39 Z M 89.29 -1.46 Q 89.29 -1.32 89.32 -1.21 L 89.98 1.41 L 89.02 1.41 Q 88.93 1.41 88.93 1.53 Q 88.96 1.73 89.05 1.73 L 90.06 1.73 L 90.42 3.21 Q 90.46 3.33 90.56 3.42 Q 90.67 3.50 90.80 3.50 Q 90.92 3.50 91.00 3.43 Q 91.07 3.36 91.07 3.25 Q 91.07 3.22 91.07 3.20 Q 91.07 3.19 91.07 3.17 L 90.70 1.73 L 91.64 1.73 Q 91.73 1.73 91.73 1.61 Q 91.73 1.58 91.71 1.53 Q 91.70 1.48 91.68 1.44 Q 91.66 1.41 91.61 1.41 L 90.62 1.41 L 89.97 -1.22 Q 89.90 -1.48 89.90 -1.67 Q 89.90 -2.06 90.17 -2.06 Q 90.57 -2.06 90.88 -1.68 Q 91.19 -1.31 91.35 -0.86 Q 91.39 -0.81 91.42 -0.81 L 91.53 -0.81 Q 91.57 -0.81 91.59 -0.83 Q 91.61 -0.85 91.61 -0.89 Q 91.61 -0.90 91.60 -0.91 Q 91.40 -1.46 91.02 -1.88 Q 90.64 -2.30 90.15 -2.30 Q 89.79 -2.30 89.54 -2.06 Q 89.29 -1.83 89.29 -1.46 Z M 94.13 -2.33 Q 94.13 -2.27 94.18 -2.22 Q 94.65 -1.77 94.91 -1.18 Q 95.17 -0.59 95.17 0.07 L 95.17 0.22 Q 94.96 0.01 94.65 0.01 Q 94.35 0.01 94.14 0.22 Q 93.93 0.43 93.93 0.73 Q 93.93 1.04 94.14 1.24 Q 94.35 1.44 94.65 1.44 Q 95.11 1.44 95.31 1.01 Q 95.51 0.58 95.51 0.07 Q 95.51 -0.66 95.22 -1.31 Q 94.93 -1.96 94.40 -2.48 Q 94.35 -2.51 94.32 -2.51 Q 94.26 -2.51 94.19 -2.45 Q 94.13 -2.39 94.13 -2.33 Z M 99.53 1.07 Q 99.53 1.26 99.57 1.43 L 100.51 5.16 L 99.14 5.16 Q 99.01 5.16 99.01 5.33 Q 99.06 5.62 99.18 5.62 L 100.62 5.62 L 101.14 7.74 Q 101.19 7.91 101.35 8.03 Q 101.50 8.15 101.69 8.15 Q 101.85 8.15 101.96 8.05 Q 102.07 7.95 102.07 7.79 Q 102.07 7.75 102.07 7.73 Q 102.07 7.71 102.06 7.68 L 101.54 5.62 L 102.88 5.62 Q 103.02 5.62 103.02 5.45 Q 103.01 5.42 102.99 5.34 Q 102.97 5.26 102.94 5.21 Q 102.91 5.16 102.84 5.16 L 101.43 5.16 L 100.49 1.40 Q 100.40 1.04 100.40 0.77 Q 100.40 0.21 100.78 0.21 Q 101.35 0.21 101.79 0.75 Q 102.23 1.28 102.47 1.93 Q 102.52 2.00 102.57 2.00 L 102.73 2.00 Q 102.78 2.00 102.81 1.97 Q 102.84 1.93 102.84 1.89 Q 102.84 1.86 102.83 1.85 Q 102.54 1.06 102.00 0.47 Q 101.45 -0.13 100.75 -0.13 Q 100.23 -0.13 99.88 0.20 Q 99.53 0.54 99.53 1.07 Z M 104.70 -2.33 Q 104.70 -2.27 104.75 -2.22 Q 105.22 -1.77 105.48 -1.18 Q 105.74 -0.59 105.74 0.07 L 105.74 0.22 Q 105.53 0.01 105.22 0.01 Q 104.93 0.01 104.72 0.22 Q 104.51 0.43 104.51 0.73 Q 104.51 1.04 104.72 1.24 Q 104.93 1.44 105.22 1.44 Q 105.69 1.44 105.88 1.01 Q 106.08 0.58 106.08 0.07 Q 106.08 -0.66 105.79 -1.31 Q 105.50 -1.96 104.98 -2.48 Q 104.93 -2.51 104.89 -2.51 Q 104.83 -2.51 104.77 -2.45 Q 104.70 -2.39 104.70 -2.33 Z M 110.82 1.56 Q 110.82 1.00 111.11 0.60 Q 111.40 0.21 111.94 0.21 Q 112.71 0.21 113.42 0.57 Q 114.14 0.92 114.59 1.55 Q 114.63 1.59 114.69 1.59 Q 114.76 1.59 114.82 1.52 Q 114.89 1.44 114.89 1.38 Q 114.89 1.33 114.86 1.30 Q 114.39 0.64 113.58 0.25 Q 112.78 -0.13 111.91 -0.13 Q 111.29 -0.13 110.81 0.16 Q 110.34 0.46 110.08 0.95 Q 109.82 1.45 109.82 2.07 Q 109.82 2.95 110.31 3.81 Q 110.80 4.67 111.61 5.22 Q 112.42 5.76 113.31 5.76 Q 113.90 5.76 114.36 5.48 Q 114.83 5.19 114.83 4.64 Q 114.83 4.29 114.62 4.03 Q 114.42 3.78 114.07 3.78 Q 113.86 3.78 113.72 3.91 Q 113.57 4.04 113.57 4.26 Q 113.57 4.56 113.80 4.78 Q 114.02 4.99 114.32 4.99 L 114.34 4.99 Q 114.19 5.21 113.90 5.32 Q 113.61 5.42 113.30 5.42 Q 112.54 5.42 111.97 4.77 Q 111.40 4.12 111.11 3.22 Q 110.82 2.31 110.82 1.56 Z M 115.76 -3.24 Q 115.64 -3.24 115.64 -3.12 Q 115.64 -3.07 115.67 -3.04 Q 117.89 -0.87 117.89 3.26 Q 117.89 7.40 115.69 9.54 Q 115.64 9.57 115.64 9.65 Q 115.64 9.70 115.68 9.73 Q 115.71 9.76 115.76 9.76 L 115.88 9.76 Q 115.92 9.76 115.94 9.74 Q 116.88 9.00 117.50 7.95 Q 118.12 6.90 118.41 5.70 Q 118.70 4.51 118.70 3.26 Q 118.70 2.34 118.54 1.45 Q 118.39 0.56 118.05 -0.30 Q 117.71 -1.17 117.19 -1.91 Q 116.67 -2.64 115.94 -3.21 Q 115.92 -3.24 115.88 -3.24 L 115.76 -3.24 Z M 123.57 3.00 Q 123.46 3.00 123.39 3.09 Q 123.32 3.17 123.32 3.26 Q 123.32 3.36 123.39 3.44 Q 123.46 3.52 123.57 3.52 L 131.03 3.52 Q 131.13 3.52 131.20 3.44 Q 131.26 3.36 131.26 3.26 Q 131.26 3.17 131.20 3.09 Q 131.13 3.00 131.03 3.00 L 123.57 3.00 Z M 136.23 1.85 Q 136.23 1.41 136.38 1.04 Q 136.54 0.66 136.86 0.44 Q 137.18 0.21 137.61 0.21 Q 137.91 0.21 138.24 0.34 Q 138.57 0.47 138.85 0.62 Q 139.13 0.77 139.14 0.77 Q 139.21 0.77 139.25 0.69 Q 139.29 0.61 139.29 0.53 Q 139.29 0.47 139.25 0.45 Q 138.44 -0.13 137.60 -0.13 Q 136.92 -0.13 136.36 0.19 Q 135.81 0.51 135.51 1.08 Q 135.21 1.65 135.21 2.33 Q 135.21 3.00 135.48 3.61 Q 135.75 4.22 136.24 4.67 Q 136.72 5.12 137.33 5.37 Q 137.94 5.62 138.60 5.62 L 139.34 5.62 Q 139.54 5.62 139.54 5.42 Q 139.54 5.31 139.46 5.24 Q 139.39 5.16 139.29 5.16 L 138.58 5.16 Q 138.06 5.16 137.64 4.93 Q 137.21 4.70 136.93 4.30 Q 136.64 3.89 136.49 3.38 L 138.78 3.38 Q 138.87 3.38 138.92 3.32 Q 138.98 3.27 138.98 3.19 Q 138.98 3.08 138.91 3.00 Q 138.84 2.93 138.73 2.93 L 136.36 2.93 Q 136.23 2.25 136.23 1.85 Z M 141.61 -3.00 L 141.61 9.53 Q 141.61 9.63 141.69 9.70 Q 141.78 9.76 141.87 9.76 Q 141.98 9.76 142.06 9.70 Q 142.13 9.63 142.13 9.53 L 142.13 -3.00 Q 142.13 -3.10 142.06 -3.17 Q 141.98 -3.24 141.87 -3.24 Q 141.78 -3.24 141.69 -3.17 Q 141.61 -3.10 141.61 -3.00 Z M 144.14 -3.00 L 144.14 9.53 Q 144.14 9.63 144.22 9.70 Q 144.29 9.76 144.40 9.76 Q 144.50 9.76 144.58 9.70 Q 144.66 9.63 144.66 9.53 L 144.66 -3.00 Q 144.66 -3.10 144.58 -3.17 Q 144.50 -3.24 144.40 -3.24 Q 144.29 -3.24 144.22 -3.17 Q 144.14 -3.10 144.14 -3.00 Z M 147.42 4.99 L 147.42 5.23 Q 147.42 5.26 147.44 5.28 L 148.85 6.85 Q 149.17 7.19 149.37 7.43 Q 149.57 7.66 149.77 7.97 Q 149.96 8.28 150.08 8.59 Q 150.19 8.91 150.19 9.27 Q 150.19 9.64 150.05 9.98 Q 149.91 10.32 149.64 10.53 Q 149.37 10.73 148.98 10.73 Q 148.59 10.73 148.27 10.49 Q 147.95 10.25 147.82 9.88 Q 147.86 9.89 147.92 9.89 Q 148.13 9.89 148.27 9.75 Q 148.42 9.61 148.42 9.39 Q 148.42 9.18 148.27 9.04 Q 148.13 8.89 147.92 8.89 Q 147.71 8.89 147.56 9.04 Q 147.42 9.19 147.42 9.39 Q 147.42 9.73 147.55 10.03 Q 147.68 10.33 147.92 10.57 Q 148.16 10.80 148.47 10.92 Q 148.77 11.05 149.11 11.05 Q 149.63 11.05 150.08 10.83 Q 150.53 10.61 150.79 10.21 Q 151.05 9.81 151.05 9.27 Q 151.05 8.87 150.88 8.52 Q 150.71 8.16 150.44 7.87 Q 150.17 7.58 149.74 7.21 Q 149.32 6.84 149.19 6.72 L 148.16 5.73 L 149.03 5.73 Q 149.68 5.73 150.11 5.74 Q 150.54 5.75 150.57 5.77 Q 150.68 5.89 150.79 6.61 L 151.05 6.61 L 150.80 4.99 L 147.42 4.99 Z" fill="#0F172A"/></g><g transform="translate(440.41,300.38) scale(1,-1)"><path d="M 0.86 0.33 Q 1.05 0.18 1.41 0.18 Q 1.75 0.18 2.01 0.51 Q 2.28 0.84 2.37 1.23 L 2.87 3.18 Q 2.99 3.72 2.99 3.91 Q 2.99 4.18 2.84 4.39 Q 2.69 4.59 2.41 4.59 Q 2.06 4.59 1.76 4.37 Q 1.45 4.16 1.24 3.82 Q 1.03 3.49 0.95 3.14 Q 0.92 3.07 0.86 3.07 L 0.73 3.07 Q 0.64 3.07 0.64 3.17 L 0.64 3.21 Q 0.75 3.61 1.00 4.00 Q 1.26 4.39 1.63 4.63 Q 2.01 4.88 2.43 4.88 Q 2.84 4.88 3.16 4.66 Q 3.49 4.45 3.62 4.08 Q 3.81 4.41 4.10 4.64 Q 4.39 4.88 4.74 4.88 Q 4.98 4.88 5.22 4.79 Q 5.47 4.71 5.63 4.54 Q 5.79 4.37 5.79 4.11 Q 5.79 3.83 5.60 3.63 Q 5.42 3.43 5.15 3.43 Q 4.97 3.43 4.85 3.54 Q 4.73 3.65 4.73 3.82 Q 4.73 4.05 4.89 4.23 Q 5.05 4.40 5.27 4.44 Q 5.07 4.59 4.72 4.59 Q 4.37 4.59 4.11 4.26 Q 3.85 3.94 3.74 3.53 L 3.26 1.59 Q 3.14 1.15 3.14 0.86 Q 3.14 0.58 3.29 0.38 Q 3.45 0.18 3.72 0.18 Q 4.23 0.18 4.64 0.64 Q 5.04 1.09 5.17 1.63 Q 5.19 1.70 5.26 1.70 L 5.39 1.70 Q 5.44 1.70 5.46 1.67 Q 5.49 1.64 5.49 1.60 Q 5.49 1.59 5.48 1.57 Q 5.32 0.91 4.82 0.40 Q 4.32 -0.11 3.70 -0.11 Q 3.29 -0.11 2.97 0.11 Q 2.64 0.33 2.51 0.70 Q 2.34 0.37 2.03 0.13 Q 1.73 -0.11 1.39 -0.11 Q 1.15 -0.11 0.90 -0.02 Q 0.65 0.06 0.49 0.23 Q 0.34 0.40 0.34 0.66 Q 0.34 0.92 0.52 1.13 Q 0.70 1.35 0.97 1.35 Q 1.15 1.35 1.27 1.24 Q 1.40 1.13 1.40 0.95 Q 1.40 0.72 1.24 0.55 Q 1.09 0.37 0.86 0.33 Z M 6.76 -1.23 Q 6.76 -1.12 6.78 -1.02 L 7.34 1.19 L 6.53 1.19 Q 6.45 1.19 6.45 1.30 Q 6.48 1.46 6.55 1.46 L 7.40 1.46 L 7.71 2.72 Q 7.74 2.82 7.83 2.89 Q 7.92 2.96 8.03 2.96 Q 8.13 2.96 8.20 2.91 Q 8.26 2.85 8.26 2.75 Q 8.26 2.73 8.26 2.71 Q 8.26 2.70 8.26 2.69 L 7.95 1.46 L 8.74 1.46 Q 8.82 1.46 8.82 1.36 Q 8.82 1.34 8.81 1.30 Q 8.79 1.25 8.78 1.22 Q 8.76 1.19 8.72 1.19 L 7.88 1.19 L 7.33 -1.03 Q 7.27 -1.25 7.27 -1.41 Q 7.27 -1.74 7.50 -1.74 Q 7.84 -1.74 8.10 -1.42 Q 8.36 -1.10 8.50 -0.72 Q 8.53 -0.68 8.56 -0.68 L 8.65 -0.68 Q 8.68 -0.68 8.70 -0.70 Q 8.72 -0.72 8.72 -0.75 Q 8.72 -0.76 8.71 -0.77 Q 8.54 -1.23 8.22 -1.59 Q 7.90 -1.94 7.48 -1.94 Q 7.17 -1.94 6.96 -1.74 Q 6.76 -1.54 6.76 -1.23 Z M 12.52 1.48 Q 12.43 1.48 12.37 1.54 Q 12.31 1.62 12.31 1.70 Q 12.31 1.79 12.37 1.85 Q 12.43 1.92 12.52 1.92 L 19.42 1.92 Q 19.51 1.92 19.56 1.85 Q 19.62 1.79 19.62 1.70 Q 19.62 1.62 19.56 1.54 Q 19.51 1.48 19.42 1.48 L 12.52 1.48 Z M 12.52 3.61 Q 12.43 3.61 12.37 3.68 Q 12.31 3.74 12.31 3.83 Q 12.31 3.91 12.37 3.98 Q 12.43 4.05 12.52 4.05 L 19.42 4.05 Q 19.51 4.05 19.56 3.98 Q 19.62 3.91 19.62 3.83 Q 19.62 3.74 19.56 3.68 Q 19.51 3.61 19.42 3.61 L 12.52 3.61 Z M 26.41 -1.94 L 24.15 3.32 L 23.45 2.77 L 23.27 2.95 L 24.70 4.06 L 26.81 -0.85 L 32.01 9.98 Q 32.05 10.07 32.18 10.07 Q 32.26 10.07 32.32 10.01 Q 32.38 9.95 32.38 9.87 Q 32.38 9.82 32.37 9.80 L 26.78 -1.85 Q 26.74 -1.94 26.63 -1.94 L 26.41 -1.94 Z M 35.43 6.25 L 35.43 6.63 L 39.40 6.63 L 39.40 6.25 L 35.43 6.25 Z M 35.76 -0.11 Q 35.24 -0.11 34.84 0.14 Q 34.43 0.39 34.21 0.80 Q 33.99 1.22 33.99 1.76 Q 33.99 2.50 34.41 3.23 Q 34.82 3.96 35.51 4.42 Q 36.20 4.88 36.96 4.88 Q 37.52 4.88 37.94 4.58 Q 38.37 4.29 38.59 3.81 Q 38.81 3.32 38.81 2.77 L 38.82 2.03 Q 39.19 2.55 39.46 3.11 Q 39.72 3.67 39.86 4.27 Q 39.88 4.34 39.94 4.34 L 40.07 4.34 Q 40.17 4.34 40.17 4.24 Q 40.17 4.23 40.16 4.21 Q 40.03 3.70 39.84 3.23 Q 39.65 2.77 39.39 2.34 Q 39.13 1.90 38.82 1.55 Q 38.82 0.18 39.14 0.18 Q 39.34 0.18 39.47 0.30 Q 39.60 0.42 39.70 0.60 Q 39.80 0.78 39.83 0.78 L 39.96 0.78 Q 40.05 0.78 40.05 0.68 Q 40.05 0.40 39.73 0.15 Q 39.42 -0.11 39.12 -0.11 Q 38.72 -0.11 38.45 0.15 Q 38.19 0.41 38.09 0.82 Q 37.58 0.38 36.98 0.14 Q 36.38 -0.11 35.76 -0.11 Z M 35.78 0.18 Q 36.96 0.18 38.04 1.15 Q 38.03 1.21 38.02 1.31 Q 38.01 1.40 38.01 1.41 L 38.01 2.60 Q 38.01 4.59 36.94 4.59 Q 36.30 4.59 35.81 4.04 Q 35.33 3.49 35.08 2.72 Q 34.84 1.96 34.84 1.33 Q 34.84 0.85 35.08 0.51 Q 35.33 0.18 35.78 0.18 Z M 41.55 -1.23 Q 41.55 -1.12 41.57 -1.02 L 42.13 1.19 L 41.32 1.19 Q 41.24 1.19 41.24 1.30 Q 41.27 1.46 41.34 1.46 L 42.20 1.46 L 42.51 2.72 Q 42.54 2.82 42.63 2.89 Q 42.72 2.96 42.83 2.96 Q 42.93 2.96 42.99 2.91 Q 43.06 2.85 43.06 2.75 Q 43.06 2.73 43.05 2.71 Q 43.05 2.70 43.05 2.69 L 42.74 1.46 L 43.53 1.46 Q 43.61 1.46 43.61 1.36 Q 43.61 1.34 43.60 1.30 Q 43.59 1.25 43.57 1.22 Q 43.55 1.19 43.51 1.19 L 42.67 1.19 L 42.12 -1.03 Q 42.06 -1.25 42.06 -1.41 Q 42.06 -1.74 42.29 -1.74 Q 42.63 -1.74 42.89 -1.42 Q 43.15 -1.10 43.29 -0.72 Q 43.32 -0.68 43.35 -0.68 L 43.44 -0.68 Q 43.47 -0.68 43.49 -0.70 Q 43.51 -0.72 43.51 -0.75 Q 43.51 -0.76 43.50 -0.77 Q 43.34 -1.23 43.01 -1.59 Q 42.69 -1.94 42.27 -1.94 Q 41.97 -1.94 41.76 -1.74 Q 41.55 -1.54 41.55 -1.23 Z M 48.40 0.33 Q 48.59 0.18 48.94 0.18 Q 49.29 0.18 49.55 0.51 Q 49.81 0.84 49.91 1.23 L 50.41 3.18 Q 50.53 3.72 50.53 3.91 Q 50.53 4.18 50.38 4.39 Q 50.22 4.59 49.95 4.59 Q 49.60 4.59 49.29 4.37 Q 48.99 4.16 48.78 3.82 Q 48.57 3.49 48.48 3.14 Q 48.46 3.07 48.40 3.07 L 48.26 3.07 Q 48.18 3.07 48.18 3.17 L 48.18 3.21 Q 48.28 3.61 48.54 4.00 Q 48.80 4.39 49.17 4.63 Q 49.55 4.88 49.97 4.88 Q 50.37 4.88 50.70 4.66 Q 51.02 4.45 51.16 4.08 Q 51.35 4.41 51.64 4.64 Q 51.93 4.88 52.28 4.88 Q 52.52 4.88 52.76 4.79 Q 53.01 4.71 53.17 4.54 Q 53.32 4.37 53.32 4.11 Q 53.32 3.83 53.14 3.63 Q 52.96 3.43 52.68 3.43 Q 52.51 3.43 52.39 3.54 Q 52.27 3.65 52.27 3.82 Q 52.27 4.05 52.43 4.23 Q 52.59 4.40 52.81 4.44 Q 52.61 4.59 52.26 4.59 Q 51.90 4.59 51.64 4.26 Q 51.38 3.94 51.28 3.53 L 50.79 1.59 Q 50.67 1.15 50.67 0.86 Q 50.67 0.58 50.83 0.38 Q 50.99 0.18 51.25 0.18 Q 51.77 0.18 52.17 0.64 Q 52.58 1.09 52.71 1.63 Q 52.73 1.70 52.79 1.70 L 52.93 1.70 Q 52.97 1.70 53.00 1.67 Q 53.03 1.64 53.03 1.60 Q 53.03 1.59 53.02 1.57 Q 52.86 0.91 52.36 0.40 Q 51.86 -0.11 51.23 -0.11 Q 50.83 -0.11 50.51 0.11 Q 50.18 0.33 50.04 0.70 Q 49.87 0.37 49.57 0.13 Q 49.27 -0.11 48.92 -0.11 Q 48.69 -0.11 48.44 -0.02 Q 48.19 0.06 48.03 0.23 Q 47.88 0.40 47.88 0.66 Q 47.88 0.92 48.05 1.13 Q 48.23 1.35 48.50 1.35 Q 48.69 1.35 48.81 1.24 Q 48.93 1.13 48.93 0.95 Q 48.93 0.72 48.78 0.55 Q 48.63 0.37 48.40 0.33 Z M 55.74 -2.03 Q 54.80 -2.03 54.46 -1.25 Q 54.12 -0.47 54.12 0.60 Q 54.12 1.27 54.24 1.86 Q 54.36 2.45 54.72 2.86 Q 55.09 3.27 55.74 3.27 Q 56.25 3.27 56.57 3.02 Q 56.89 2.78 57.06 2.38 Q 57.23 1.99 57.29 1.54 Q 57.36 1.09 57.36 0.60 Q 57.36 -0.06 57.23 -0.64 Q 57.11 -1.22 56.76 -1.62 Q 56.40 -2.03 55.74 -2.03 Z M 55.74 -1.83 Q 56.17 -1.83 56.38 -1.39 Q 56.59 -0.95 56.64 -0.41 Q 56.69 0.12 56.69 0.72 Q 56.69 1.30 56.64 1.79 Q 56.59 2.28 56.38 2.68 Q 56.17 3.07 55.74 3.07 Q 55.31 3.07 55.09 2.67 Q 54.88 2.28 54.83 1.79 Q 54.79 1.30 54.79 0.72 Q 54.79 0.30 54.81 -0.08 Q 54.83 -0.46 54.92 -0.87 Q 55.01 -1.27 55.21 -1.55 Q 55.41 -1.83 55.74 -1.83 Z M 61.13 2.55 Q 61.03 2.55 60.97 2.61 Q 60.92 2.68 60.92 2.77 Q 60.92 2.85 60.97 2.91 Q 61.03 2.99 61.13 2.99 L 64.36 2.99 L 64.36 6.23 Q 64.36 6.32 64.42 6.37 Q 64.49 6.43 64.58 6.43 Q 64.66 6.43 64.73 6.37 Q 64.80 6.32 64.80 6.23 L 64.80 2.99 L 68.03 2.99 Q 68.11 2.99 68.17 2.91 Q 68.23 2.85 68.23 2.77 Q 68.23 2.68 68.17 2.61 Q 68.11 2.55 68.03 2.55 L 64.80 2.55 L 64.80 -0.70 Q 64.80 -0.79 64.73 -0.84 Q 64.66 -0.90 64.58 -0.90 Q 64.49 -0.90 64.42 -0.84 Q 64.36 -0.79 64.36 -0.70 L 64.36 2.55 L 61.13 2.55 Z M 75.27 -1.94 L 72.88 3.63 L 72.13 3.05 L 71.94 3.24 L 73.46 4.42 L 75.69 -0.78 L 81.19 10.68 Q 81.25 10.78 81.38 10.78 Q 81.46 10.78 81.52 10.72 Q 81.59 10.66 81.59 10.57 Q 81.59 10.52 81.58 10.49 L 75.66 -1.84 Q 75.62 -1.94 75.50 -1.94 L 75.27 -1.94 Z M 83.77 0.02 L 83.77 0.40 Q 85.15 0.40 85.15 0.75 L 85.15 6.53 Q 84.58 6.25 83.71 6.25 L 83.71 6.64 Q 85.05 6.64 85.74 7.34 L 85.90 7.34 Q 85.93 7.34 85.97 7.31 Q 86.01 7.28 86.01 7.24 L 86.01 0.75 Q 86.01 0.40 87.38 0.40 L 87.38 0.02 L 83.77 0.02 Z M 91.30 2.55 Q 91.21 2.55 91.15 2.61 Q 91.09 2.68 91.09 2.77 Q 91.09 2.85 91.15 2.92 Q 91.21 2.99 91.30 2.99 L 97.61 2.99 Q 97.70 2.99 97.76 2.92 Q 97.81 2.85 97.81 2.77 Q 97.81 2.68 97.76 2.61 Q 97.70 2.55 97.61 2.55 L 91.30 2.55 Z M 102.53 6.25 L 102.53 6.63 L 106.51 6.63 L 106.51 6.25 L 102.53 6.25 Z M 102.87 -0.11 Q 102.35 -0.11 101.94 0.14 Q 101.54 0.39 101.32 0.80 Q 101.10 1.22 101.10 1.76 Q 101.10 2.50 101.51 3.23 Q 101.93 3.96 102.62 4.42 Q 103.31 4.88 104.07 4.88 Q 104.63 4.88 105.05 4.58 Q 105.48 4.29 105.70 3.81 Q 105.92 3.32 105.92 2.77 L 105.93 2.03 Q 106.30 2.55 106.56 3.11 Q 106.83 3.67 106.96 4.27 Q 106.98 4.34 107.05 4.34 L 107.18 4.34 Q 107.28 4.34 107.28 4.24 Q 107.28 4.23 107.27 4.21 Q 107.14 3.70 106.95 3.23 Q 106.75 2.77 106.49 2.34 Q 106.23 1.90 105.93 1.55 Q 105.93 0.18 106.24 0.18 Q 106.45 0.18 106.58 0.30 Q 106.71 0.42 106.81 0.60 Q 106.91 0.78 106.94 0.78 L 107.07 0.78 Q 107.16 0.78 107.16 0.68 Q 107.16 0.40 106.84 0.15 Q 106.53 -0.11 106.22 -0.11 Q 105.82 -0.11 105.56 0.15 Q 105.30 0.41 105.20 0.82 Q 104.69 0.38 104.09 0.14 Q 103.48 -0.11 102.87 -0.11 Z M 102.89 0.18 Q 104.07 0.18 105.15 1.15 Q 105.14 1.21 105.13 1.31 Q 105.12 1.40 105.12 1.41 L 105.12 2.60 Q 105.12 4.59 104.05 4.59 Q 103.40 4.59 102.92 4.04 Q 102.44 3.49 102.19 2.72 Q 101.95 1.96 101.95 1.33 Q 101.95 0.85 102.19 0.51 Q 102.44 0.18 102.89 0.18 Z M 108.66 -1.23 Q 108.66 -1.12 108.68 -1.02 L 109.24 1.19 L 108.43 1.19 Q 108.35 1.19 108.35 1.30 Q 108.38 1.46 108.45 1.46 L 109.30 1.46 L 109.61 2.72 Q 109.64 2.82 109.73 2.89 Q 109.82 2.96 109.94 2.96 Q 110.03 2.96 110.10 2.91 Q 110.17 2.85 110.17 2.75 Q 110.17 2.73 110.16 2.71 Q 110.16 2.70 110.16 2.69 L 109.85 1.46 L 110.64 1.46 Q 110.72 1.46 110.72 1.36 Q 110.72 1.34 110.71 1.30 Q 110.70 1.25 110.68 1.22 Q 110.66 1.19 110.62 1.19 L 109.78 1.19 L 109.23 -1.03 Q 109.17 -1.25 109.17 -1.41 Q 109.17 -1.74 109.40 -1.74 Q 109.74 -1.74 110.00 -1.42 Q 110.26 -1.10 110.40 -0.72 Q 110.43 -0.68 110.46 -0.68 L 110.55 -0.68 Q 110.58 -0.68 110.60 -0.70 Q 110.62 -0.72 110.62 -0.75 Q 110.62 -0.76 110.61 -0.77 Q 110.44 -1.23 110.12 -1.59 Q 109.80 -1.94 109.38 -1.94 Q 109.08 -1.94 108.87 -1.74 Q 108.66 -1.54 108.66 -1.23 Z M 116.00 1.57 Q 116.00 1.20 116.13 0.88 Q 116.27 0.56 116.54 0.37 Q 116.81 0.18 117.17 0.18 Q 117.42 0.18 117.70 0.29 Q 117.98 0.40 118.22 0.53 Q 118.46 0.65 118.46 0.65 Q 118.52 0.65 118.56 0.59 Q 118.59 0.52 118.59 0.46 Q 118.59 0.40 118.56 0.38 Q 117.87 -0.11 117.16 -0.11 Q 116.58 -0.11 116.12 0.16 Q 115.65 0.43 115.39 0.92 Q 115.14 1.40 115.14 1.98 Q 115.14 2.55 115.37 3.06 Q 115.60 3.57 116.01 3.95 Q 116.42 4.33 116.93 4.55 Q 117.45 4.76 118.01 4.76 L 118.64 4.76 Q 118.80 4.76 118.80 4.59 Q 118.80 4.50 118.74 4.43 Q 118.68 4.37 118.59 4.37 L 117.99 4.37 Q 117.55 4.37 117.19 4.18 Q 116.84 3.98 116.59 3.64 Q 116.35 3.30 116.22 2.86 L 118.16 2.86 Q 118.24 2.86 118.28 2.81 Q 118.33 2.77 118.33 2.70 Q 118.33 2.61 118.27 2.54 Q 118.21 2.48 118.12 2.48 L 116.12 2.48 Q 116.00 1.91 116.00 1.57 Z M 32.18 9.36 L 32.18 10.04 L 45.93 10.04 L 45.93 9.36 L 32.18 9.36 Z M 81.37 10.06 L 81.37 10.75 L 113.03 10.75 L 113.03 10.06 L 81.37 10.06 Z" fill="#0F172A"/></g><circle cx="739.3" cy="123.5" r="9.5" fill="#FFFFFF" stroke="#475569" stroke-width="1.3"/><line x1="734.8" y1="123.5" x2="743.9" y2="123.5" stroke="#475569" stroke-width="1.5" stroke-linecap="butt" /><line x1="739.3" y1="118.9" x2="739.3" y2="128.1" stroke="#475569" stroke-width="1.5" stroke-linecap="butt" /><circle cx="739.3" cy="155.5" r="9.5" fill="#FFFFFF" stroke="#475569" stroke-width="1.3"/><circle cx="739.3" cy="155.5" r="3.61" fill="#475569" /><rect x="657.2" y="178.0" width="164.3" height="30.0" rx="7" fill="#DCFCE7" stroke="#16A34A" stroke-width="1.3"/><text x="739.3" y="197.5" font-family="Helvetica Neue, Helvetica, Arial, sans-serif" font-size="12.5px" fill="#14532D" text-anchor="middle" font-weight="500">Pointwise Feedforward</text><rect x="649.6" y="221.0" width="179.5" height="30.0" rx="7" fill="#FCE7F3" stroke="#DB2777" stroke-width="1.3"/><text x="739.3" y="239.8" font-family="Helvetica Neue, Helvetica, Arial, sans-serif" font-size="10.5px" fill="#831843" text-anchor="middle" font-weight="500">scale, shift  (gamma2, beta2)</text><rect x="691.0" y="264.0" width="96.6" height="30.0" rx="7" fill="#FEF9C3" stroke="#CA8A04" stroke-width="1.3"/><text x="739.3" y="283.5" font-family="Helvetica Neue, Helvetica, Arial, sans-serif" font-size="12.5px" fill="#713F12" text-anchor="middle" font-weight="500">Layer Norm</text><circle cx="739.3" cy="316.5" r="9.5" fill="#FFFFFF" stroke="#475569" stroke-width="1.3"/><line x1="734.8" y1="316.5" x2="743.9" y2="316.5" stroke="#475569" stroke-width="1.5" stroke-linecap="butt" /><line x1="739.3" y1="311.9" x2="739.3" y2="321.1" stroke="#475569" stroke-width="1.5" stroke-linecap="butt" /><circle cx="739.3" cy="348.5" r="9.5" fill="#FFFFFF" stroke="#475569" stroke-width="1.3"/><circle cx="739.3" cy="348.5" r="3.61" fill="#475569" /><rect x="649.2" y="371.0" width="180.2" height="30.0" rx="7" fill="#DBEAFE" stroke="#2563EB" stroke-width="1.3"/><text x="739.3" y="390.5" font-family="Helvetica Neue, Helvetica, Arial, sans-serif" font-size="12.5px" fill="#1E3A8A" text-anchor="middle" font-weight="500">Multi-Head Self-Attention</text><rect x="649.6" y="414.0" width="179.5" height="30.0" rx="7" fill="#FCE7F3" stroke="#DB2777" stroke-width="1.3"/><text x="739.3" y="432.8" font-family="Helvetica Neue, Helvetica, Arial, sans-serif" font-size="10.5px" fill="#831843" text-anchor="middle" font-weight="500">scale, shift  (gamma1, beta1)</text><rect x="691.0" y="457.0" width="96.6" height="30.0" rx="7" fill="#FEF9C3" stroke="#CA8A04" stroke-width="1.3"/><text x="739.3" y="476.5" font-family="Helvetica Neue, Helvetica, Arial, sans-serif" font-size="12.5px" fill="#713F12" text-anchor="middle" font-weight="500">Layer Norm</text><rect x="693.1" y="500.0" width="92.4" height="22.0" rx="11.0" fill="#F8FAFC" stroke="#64748B" stroke-width="1.1"/><text x="739.3" y="514.6" font-family="SF Mono, Menlo, Consolas, monospace" font-size="10.0px" fill="#334155" text-anchor="middle">input tokens</text><rect x="883.4" y="364.0" width="116.0" height="44.0" rx="7" fill="#FCE7F3" stroke="#DB2777" stroke-width="1.3"/><text x="941.4" y="387.0" font-family="Helvetica Neue, Helvetica, Arial, sans-serif" font-size="12.5px" fill="#831843" text-anchor="middle" font-weight="500">MLP</text><text x="941.4" y="400.5" font-family="SF Mono, Menlo, Consolas, monospace" font-size="9.5px" fill="#475569" text-anchor="middle">t + c → 6 params</text><rect x="110.0" y="630.0" width="13.0" height="13.0" rx="3.5" fill="#E0F2FE" stroke="#0284C7" stroke-width="1.1"/><text x="129.0" y="640.3" font-family="Helvetica Neue, Helvetica, Arial, sans-serif" font-size="10.5px" fill="#475569" text-anchor="start">latent / output</text><rect x="219.3" y="630.0" width="13.0" height="13.0" rx="3.5" fill="#F1F5F9" stroke="#475569" stroke-width="1.1"/><text x="238.3" y="640.3" font-family="Helvetica Neue, Helvetica, Arial, sans-serif" font-size="10.5px" fill="#475569" text-anchor="start">DiT</text><rect x="270.7" y="630.0" width="13.0" height="13.0" rx="3.5" fill="#DBEAFE" stroke="#2563EB" stroke-width="1.1"/><text x="289.7" y="640.3" font-family="Helvetica Neue, Helvetica, Arial, sans-serif" font-size="10.5px" fill="#475569" text-anchor="start">attention</text><rect x="352.1" y="630.0" width="13.0" height="13.0" rx="3.5" fill="#DCFCE7" stroke="#16A34A" stroke-width="1.1"/><text x="371.1" y="640.3" font-family="Helvetica Neue, Helvetica, Arial, sans-serif" font-size="10.5px" fill="#475569" text-anchor="start">FFN</text><rect x="405.0" y="630.0" width="13.0" height="13.0" rx="3.5" fill="#FEF9C3" stroke="#CA8A04" stroke-width="1.1"/><text x="424.0" y="640.3" font-family="Helvetica Neue, Helvetica, Arial, sans-serif" font-size="10.5px" fill="#475569" text-anchor="start">norm</text><rect x="465.6" y="630.0" width="13.0" height="13.0" rx="3.5" fill="#EDE9FE" stroke="#7C3AED" stroke-width="1.1"/><text x="484.6" y="640.3" font-family="Helvetica Neue, Helvetica, Arial, sans-serif" font-size="10.5px" fill="#475569" text-anchor="start">patchify / linear</text><rect x="581.8" y="630.0" width="13.0" height="13.0" rx="3.5" fill="#FCE7F3" stroke="#DB2777" stroke-width="1.1"/><text x="600.8" y="640.3" font-family="Helvetica Neue, Helvetica, Arial, sans-serif" font-size="10.5px" fill="#475569" text-anchor="start">conditioning / modulation</text><rect x="749.8" y="630.0" width="13.0" height="13.0" rx="3.5" fill="#E0E7FF" stroke="#4F46E5" stroke-width="1.1"/><text x="768.8" y="640.3" font-family="Helvetica Neue, Helvetica, Arial, sans-serif" font-size="10.5px" fill="#475569" text-anchor="start">output head</text><circle cx="116.5" cy="657.5" r="6.5" fill="#FFFFFF" stroke="#475569" stroke-width="1.2"/><line x1="113.2" y1="657.5" x2="119.8" y2="657.5" stroke="#475569" stroke-width="1.5" stroke-linecap="butt" /><line x1="116.5" y1="654.2" x2="116.5" y2="660.8" stroke="#475569" stroke-width="1.5" stroke-linecap="butt" /><text x="129.0" y="661.3" font-family="Helvetica Neue, Helvetica, Arial, sans-serif" font-size="10.5px" fill="#475569" text-anchor="start">add (residual)</text><circle cx="222.9" cy="657.5" r="6.5" fill="#FFFFFF" stroke="#475569" stroke-width="1.2"/><circle cx="222.9" cy="657.5" r="2.6" fill="#475569" /><text x="235.4" y="661.3" font-family="Helvetica Neue, Helvetica, Arial, sans-serif" font-size="10.5px" fill="#475569" text-anchor="start">gate  α·</text><path d="M 290.3,657.5 L 303.3,657.5" fill="none" stroke="#0D9488" stroke-width="1.7" stroke-linejoin="round" stroke-linecap="round" stroke-dasharray="5 3" marker-end="url(#arr-0D9488)"/><text x="309.3" y="661.3" font-family="Helvetica Neue, Helvetica, Arial, sans-serif" font-size="10.5px" fill="#475569" text-anchor="start">sampling loop ×T</text><rect x="417.0" y="651.0" width="13.0" height="13.0" rx="3.5" fill="url(#hatch-E0F2FE-0284C7)" stroke="#0284C7" stroke-width="1.1"/><text x="436.0" y="661.3" font-family="Helvetica Neue, Helvetica, Arial, sans-serif" font-size="10.5px" fill="#475569" text-anchor="start">hatched = noised</text></g><g id="labels"><rect x="386.0" y="263.0" width="32.8" height="19.0" rx="9.5" fill="#FFFFFF" stroke="#64748B" stroke-width="1.2"/><text x="402.4" y="276.6" font-family="Helvetica Neue, Helvetica, Arial, sans-serif" font-size="11.5px" fill="#1E293B" text-anchor="middle" font-weight="600">×N</text><text x="143.7" y="614.0" font-family="Helvetica Neue, Helvetica, Arial, sans-serif" font-size="9.5px" fill="#94A3B8" text-anchor="start">t + c are SUMMED, drive adaLN in every block (they</text><text x="143.7" y="627.3" font-family="Helvetica Neue, Helvetica, Arial, sans-serif" font-size="9.5px" fill="#94A3B8" text-anchor="start">are not tokens)</text><text x="431.2" y="117.0" font-family="Helvetica Neue, Helvetica, Arial, sans-serif" font-size="10.5px" fill="#166534" text-anchor="start">same shape in → out</text><text x="440.7" y="319.0" font-family="Helvetica Neue, Helvetica, Arial, sans-serif" font-size="9.5px" fill="#94A3B8" text-anchor="start">the net sees x_t, predicts ε</text><rect x="31.0" y="270.8" width="103.6" height="15.5" rx="3" fill="#FFFFFF"/><text x="130.6" y="280.3" font-family="SF Mono, Menlo, Consolas, monospace" font-size="9.5px" fill="#475569" text-anchor="end" paint-order="stroke" stroke="#FFFFFF" stroke-width="3px">×T sampling steps</text><rect x="645.2" y="86.0" width="149.2" height="19.0" rx="4" fill="#FFFFFF" stroke="#94A3B8" stroke-width="1.1"/><text x="719.9" y="99.4" font-family="Helvetica Neue, Helvetica, Arial, sans-serif" font-size="10.5px" fill="#475569" text-anchor="middle" font-weight="600">DiT block · adaLN-Zero</text><text x="883.4" y="422.0" font-family="Helvetica Neue, Helvetica, Arial, sans-serif" font-size="9.5px" fill="#94A3B8" text-anchor="start">adaLN-Zero: scale/shift AFTER each norm, gate</text><text x="883.4" y="435.3" font-family="Helvetica Neue, Helvetica, Arial, sans-serif" font-size="9.5px" fill="#94A3B8" text-anchor="start">BEFORE each residual; gates init 0 → block starts as</text><text x="883.4" y="448.6" font-family="Helvetica Neue, Helvetica, Arial, sans-serif" font-size="9.5px" fill="#94A3B8" text-anchor="start">identity.</text><text x="31.0" y="70.0" font-family="Helvetica Neue, Helvetica, Arial, sans-serif" font-size="11.5px" fill="#475569" text-anchor="start">repeats; training regresses it to the true noise.</text><text x="31.0" y="53.3" font-family="Helvetica Neue, Helvetica, Arial, sans-serif" font-size="11.5px" fill="#475569" text-anchor="start">A denoiser is a function f(x_t, t, c). IN: a noised latent x_t at level t + the timestep + the condition. OUT: the predicted noise (same shape as x_t). The sampler subtracts a bit of it and</text><text x="31.0" y="36.7" font-family="Helvetica Neue, Helvetica, Arial, sans-serif" font-size="17px" fill="#0F172A" text-anchor="start" font-weight="600">DiT — what a diffusion transformer actually predicts</text></g></svg>