<svg xmlns="http://www.w3.org/2000/svg" viewBox="14.0 -55.9 939.1 543.3" width="939" height="543"><defs><pattern id="hatch-E0F2FE-0284C7" width="5.5" height="5.5" patternUnits="userSpaceOnUse" patternTransform="rotate(45)"><rect width="5.5" height="5.5" fill="#E0F2FE"/><line x1="0" y1="0" x2="0" y2="5.5" stroke="#0284C7" stroke-width="1.4" stroke-opacity="0.55"/></pattern><pattern id="hatch-F1F5F9-94A3B8" width="5.5" height="5.5" patternUnits="userSpaceOnUse" patternTransform="rotate(45)"><rect width="5.5" height="5.5" fill="#F1F5F9"/><line x1="0" y1="0" x2="0" y2="5.5" stroke="#94A3B8" stroke-width="1.4" stroke-opacity="0.55"/></pattern><marker id="arr-334155" viewBox="0 0 10 10" refX="8.5" refY="5" markerWidth="6.5" markerHeight="6.5" orient="auto-start-reverse"><path d="M0.5,1 L9,5 L0.5,9 Z" fill="#334155"/></marker></defs><rect x="14.0" y="-55.9" width="939.1" height="543.3" fill="#FFFFFF"/><g id="frames"><rect x="40.0" y="56.0" width="428.5" height="194.6" rx="10" fill="#FFFFFF" stroke="#CBD5E1" stroke-width="1.2"/><text x="53.0" y="72.5" font-family="Helvetica Neue, Helvetica, Arial, sans-serif" font-size="11.0px" fill="#475569" text-anchor="start" font-weight="600">1 · one straight path, data → noise</text><rect x="494.5" y="56.0" width="432.5" height="207.9" rx="10" fill="#FFFFFF" stroke="#CBD5E1" stroke-width="1.2"/><text x="507.5" y="72.5" font-family="Helvetica Neue, Helvetica, Arial, sans-serif" font-size="11.0px" fill="#475569" text-anchor="start" font-weight="600">2 · training = regress the velocity</text><rect x="268.3" y="289.9" width="430.4" height="171.5" rx="10" fill="#FFFFFF" stroke="#CBD5E1" stroke-width="1.2"/><text x="281.3" y="306.4" font-family="Helvetica Neue, Helvetica, Arial, sans-serif" font-size="11.0px" fill="#475569" text-anchor="start" font-weight="600">3 · sampling = integrate it back</text></g><g id="edges"><path d="M 316.3,343.9 L 350.3,343.9" fill="none" stroke="#334155" stroke-width="1.5" stroke-linejoin="round" stroke-linecap="round" marker-end="url(#arr-334155)"/><path d="M 486.3,343.9 L 520.3,343.9" fill="none" stroke="#334155" stroke-width="1.5" stroke-linejoin="round" stroke-linecap="round" marker-end="url(#arr-334155)"/><path d="M 539.3,343.9 L 573.3,343.9" fill="none" stroke="#334155" stroke-width="1.5" stroke-linejoin="round" stroke-linecap="round" marker-end="url(#arr-334155)"/></g><g id="nodes"><rect x="137.3" y="95.0" width="44.0" height="26.0" rx="4.5" fill="#E0F2FE" stroke="#0284C7" stroke-width="1.1"/><text x="159.3" y="111.4" font-family="Helvetica Neue, Helvetica, Arial, sans-serif" font-size="10.0px" fill="#0C4A6E" text-anchor="middle" font-weight="500">x₀</text><text x="159.3" y="132.0" font-family="SF Mono, Menlo, Consolas, monospace" font-size="8.5px" fill="#94A3B8" text-anchor="middle">data</text><rect x="184.8" y="95.0" width="44.0" height="26.0" rx="4.5" fill="url(#hatch-E0F2FE-0284C7)" stroke="#0284C7" stroke-width="1.1"/><text x="206.8" y="111.4" font-family="Helvetica Neue, Helvetica, Arial, sans-serif" font-size="10.0px" fill="#0C4A6E" text-anchor="middle" font-weight="500" paint-order="stroke" stroke="#FFFFFF" stroke-width="3px">x.₂₅</text><text x="206.8" y="132.0" font-family="SF Mono, Menlo, Consolas, monospace" font-size="8.5px" fill="#94A3B8" text-anchor="middle">σ=.25</text><rect x="232.3" y="95.0" width="44.0" height="26.0" rx="4.5" fill="url(#hatch-E0F2FE-0284C7)" stroke="#0284C7" stroke-width="1.1"/><text x="254.3" y="111.4" font-family="Helvetica Neue, Helvetica, Arial, sans-serif" font-size="10.0px" fill="#0C4A6E" text-anchor="middle" font-weight="500" paint-order="stroke" stroke="#FFFFFF" stroke-width="3px">x.₅</text><text x="254.3" y="132.0" font-family="SF Mono, Menlo, Consolas, monospace" font-size="8.5px" fill="#94A3B8" text-anchor="middle">σ=.5</text><rect x="279.8" y="95.0" width="44.0" height="26.0" rx="4.5" fill="url(#hatch-F1F5F9-94A3B8)" stroke="#94A3B8" stroke-width="1.1"/><text x="301.8" y="111.4" font-family="Helvetica Neue, Helvetica, Arial, sans-serif" font-size="10.0px" fill="#334155" text-anchor="middle" font-weight="500" paint-order="stroke" stroke="#FFFFFF" stroke-width="3px">x.₇₅</text><text x="301.8" y="132.0" font-family="SF Mono, Menlo, Consolas, monospace" font-size="8.5px" fill="#94A3B8" text-anchor="middle">σ=.75</text><rect x="327.3" y="95.0" width="44.0" height="26.0" rx="4.5" fill="#F1F5F9" stroke="#94A3B8" stroke-width="1.1"/><text x="349.3" y="111.4" font-family="Helvetica Neue, Helvetica, Arial, sans-serif" font-size="10.0px" fill="#334155" text-anchor="middle" font-weight="500">ε</text><text x="349.3" y="132.0" font-family="SF Mono, Menlo, Consolas, monospace" font-size="8.5px" fill="#94A3B8" text-anchor="middle">noise</text><g transform="translate(196.42,157.12) scale(1,-1)"><path d="M 1.05 0.39 Q 1.29 0.20 1.73 0.20 Q 2.15 0.20 2.47 0.61 Q 2.79 1.01 2.91 1.50 L 3.53 3.89 Q 3.67 4.54 3.67 4.78 Q 3.67 5.12 3.48 5.37 Q 3.30 5.62 2.96 5.62 Q 2.53 5.62 2.16 5.35 Q 1.78 5.08 1.52 4.67 Q 1.27 4.26 1.16 3.84 Q 1.13 3.75 1.05 3.75 L 0.89 3.75 Q 0.78 3.75 0.78 3.88 L 0.78 3.92 Q 0.92 4.42 1.23 4.89 Q 1.55 5.37 2.01 5.67 Q 2.47 5.97 2.99 5.97 Q 3.48 5.97 3.88 5.70 Q 4.28 5.44 4.44 4.98 Q 4.67 5.40 5.03 5.68 Q 5.39 5.97 5.82 5.97 Q 6.11 5.97 6.41 5.86 Q 6.72 5.76 6.91 5.55 Q 7.10 5.34 7.10 5.02 Q 7.10 4.68 6.88 4.43 Q 6.66 4.19 6.32 4.19 Q 6.10 4.19 5.95 4.32 Q 5.81 4.46 5.81 4.67 Q 5.81 4.96 6.00 5.17 Q 6.20 5.39 6.47 5.43 Q 6.22 5.62 5.79 5.62 Q 5.36 5.62 5.04 5.21 Q 4.72 4.81 4.59 4.32 L 4.00 1.93 Q 3.85 1.39 3.85 1.04 Q 3.85 0.70 4.04 0.45 Q 4.24 0.20 4.56 0.20 Q 5.20 0.20 5.69 0.76 Q 6.19 1.32 6.35 1.98 Q 6.37 2.06 6.45 2.06 L 6.62 2.06 Q 6.67 2.06 6.70 2.03 Q 6.74 1.99 6.74 1.94 Q 6.74 1.93 6.72 1.90 Q 6.53 1.10 5.92 0.47 Q 5.31 -0.15 4.54 -0.15 Q 4.04 -0.15 3.64 0.11 Q 3.24 0.38 3.08 0.84 Q 2.87 0.44 2.49 0.14 Q 2.12 -0.15 1.70 -0.15 Q 1.41 -0.15 1.10 -0.05 Q 0.80 0.05 0.61 0.26 Q 0.42 0.47 0.42 0.80 Q 0.42 1.11 0.63 1.37 Q 0.86 1.63 1.19 1.63 Q 1.41 1.63 1.56 1.50 Q 1.71 1.36 1.71 1.15 Q 1.71 0.86 1.53 0.65 Q 1.34 0.44 1.05 0.39 Z M 9.47 -2.40 Q 9.05 -2.40 8.73 -2.20 Q 8.40 -2.00 8.22 -1.66 Q 8.05 -1.32 8.05 -0.91 Q 8.05 -0.47 8.24 0.02 Q 8.44 0.50 8.79 0.90 Q 9.13 1.30 9.56 1.54 Q 10.00 1.78 10.46 1.78 L 12.84 1.78 Q 12.93 1.78 13.00 1.71 Q 13.07 1.65 13.07 1.54 Q 13.07 1.40 12.97 1.30 Q 12.87 1.19 12.73 1.19 L 11.58 1.19 Q 11.85 0.79 11.85 0.21 Q 11.85 -0.27 11.67 -0.73 Q 11.48 -1.19 11.16 -1.57 Q 10.83 -1.95 10.39 -2.18 Q 9.96 -2.40 9.47 -2.40 Z M 9.48 -2.15 Q 10.00 -2.15 10.40 -1.75 Q 10.80 -1.34 11.01 -0.76 Q 11.22 -0.18 11.22 0.32 Q 11.22 0.73 11.00 0.96 Q 10.77 1.19 10.37 1.19 Q 9.82 1.19 9.44 0.82 Q 9.05 0.45 8.86 -0.10 Q 8.67 -0.66 8.67 -1.18 Q 8.67 -1.59 8.88 -1.87 Q 9.10 -2.15 9.48 -2.15 Z M 17.35 1.79 Q 17.23 1.79 17.16 1.88 Q 17.09 1.96 17.09 2.06 Q 17.09 2.17 17.16 2.25 Q 17.23 2.33 17.35 2.33 L 25.82 2.33 Q 25.92 2.33 25.99 2.25 Q 26.07 2.17 26.07 2.06 Q 26.07 1.96 25.99 1.88 Q 25.92 1.79 25.82 1.79 L 17.35 1.79 Z M 17.35 4.42 Q 17.23 4.42 17.16 4.50 Q 17.09 4.58 17.09 4.69 Q 17.09 4.79 17.16 4.87 Q 17.23 4.96 17.35 4.96 L 25.82 4.96 Q 25.92 4.96 25.99 4.87 Q 26.07 4.79 26.07 4.69 Q 26.07 4.58 25.99 4.50 Q 25.92 4.42 25.82 4.42 L 17.35 4.42 Z M 33.37 -3.35 Q 32.62 -2.75 32.08 -1.99 Q 31.54 -1.22 31.19 -0.35 Q 30.84 0.52 30.67 1.47 Q 30.50 2.42 30.50 3.38 Q 30.50 4.34 30.67 5.29 Q 30.84 6.24 31.20 7.12 Q 31.55 8.00 32.10 8.76 Q 32.64 9.53 33.37 10.10 Q 33.37 10.12 33.44 10.12 L 33.57 10.12 Q 33.61 10.12 33.64 10.09 Q 33.67 10.05 33.67 10.01 Q 33.67 9.95 33.65 9.92 Q 32.99 9.27 32.55 8.54 Q 32.11 7.80 31.84 6.96 Q 31.57 6.13 31.46 5.24 Q 31.34 4.34 31.34 3.38 Q 31.34 -0.92 33.63 -3.15 Q 33.67 -3.18 33.67 -3.26 Q 33.67 -3.29 33.64 -3.33 Q 33.60 -3.38 33.57 -3.38 L 33.44 -3.38 Q 33.37 -3.38 33.37 -3.35 Z M 35.68 0.00 L 35.68 0.47 Q 37.37 0.47 37.37 0.90 L 37.37 7.99 Q 36.67 7.65 35.60 7.65 L 35.60 8.13 Q 37.26 8.13 38.10 8.99 L 38.29 8.99 Q 38.34 8.99 38.38 8.95 Q 38.42 8.92 38.42 8.87 L 38.42 0.90 Q 38.42 0.47 40.11 0.47 L 40.11 0.00 L 35.68 0.00 Z M 44.93 3.11 Q 44.82 3.11 44.74 3.19 Q 44.67 3.28 44.67 3.38 Q 44.67 3.47 44.74 3.56 Q 44.82 3.65 44.93 3.65 L 52.67 3.65 Q 52.78 3.65 52.85 3.56 Q 52.92 3.47 52.92 3.38 Q 52.92 3.28 52.85 3.19 Q 52.78 3.11 52.67 3.11 L 44.93 3.11 Z M 58.93 -0.15 Q 58.33 -0.15 57.87 0.14 Q 57.40 0.42 57.15 0.91 Q 56.90 1.40 56.90 1.98 Q 56.90 2.61 57.18 3.30 Q 57.46 4.00 57.95 4.57 Q 58.45 5.14 59.06 5.48 Q 59.68 5.82 60.34 5.82 L 63.74 5.82 Q 63.88 5.82 63.97 5.73 Q 64.07 5.64 64.07 5.48 Q 64.07 5.28 63.93 5.13 Q 63.79 4.98 63.59 4.98 L 61.95 4.98 Q 62.33 4.40 62.33 3.58 Q 62.33 2.90 62.07 2.24 Q 61.81 1.58 61.34 1.04 Q 60.87 0.49 60.25 0.17 Q 59.62 -0.15 58.93 -0.15 Z M 58.95 0.20 Q 59.68 0.20 60.25 0.78 Q 60.83 1.36 61.13 2.19 Q 61.43 3.02 61.43 3.74 Q 61.43 4.32 61.11 4.65 Q 60.79 4.98 60.22 4.98 Q 59.43 4.98 58.88 4.46 Q 58.33 3.93 58.06 3.13 Q 57.79 2.33 57.79 1.59 Q 57.79 1.01 58.09 0.61 Q 58.40 0.20 58.95 0.20 Z M 64.99 -3.38 Q 64.87 -3.38 64.87 -3.26 Q 64.87 -3.20 64.90 -3.17 Q 67.21 -0.92 67.21 3.38 Q 67.21 7.67 64.92 9.90 Q 64.87 9.93 64.87 10.01 Q 64.87 10.05 64.91 10.09 Q 64.94 10.12 64.99 10.12 L 65.12 10.12 Q 65.16 10.12 65.18 10.10 Q 66.15 9.33 66.80 8.24 Q 67.44 7.15 67.74 5.91 Q 68.04 4.67 68.04 3.38 Q 68.04 2.42 67.88 1.49 Q 67.72 0.57 67.37 -0.33 Q 67.01 -1.23 66.47 -1.99 Q 65.93 -2.75 65.18 -3.35 Q 65.16 -3.38 65.12 -3.38 L 64.99 -3.38 Z M 72.38 0.39 Q 72.62 0.20 73.06 0.20 Q 73.48 0.20 73.80 0.61 Q 74.12 1.01 74.24 1.50 L 74.86 3.89 Q 75.00 4.54 75.00 4.78 Q 75.00 5.12 74.81 5.37 Q 74.63 5.62 74.29 5.62 Q 73.86 5.62 73.49 5.35 Q 73.11 5.08 72.85 4.67 Q 72.60 4.26 72.49 3.84 Q 72.46 3.75 72.38 3.75 L 72.22 3.75 Q 72.11 3.75 72.11 3.88 L 72.11 3.92 Q 72.25 4.42 72.56 4.89 Q 72.88 5.37 73.34 5.67 Q 73.80 5.97 74.32 5.97 Q 74.81 5.97 75.21 5.70 Q 75.61 5.44 75.77 4.98 Q 76.00 5.40 76.36 5.68 Q 76.72 5.97 77.15 5.97 Q 77.44 5.97 77.74 5.86 Q 78.05 5.76 78.24 5.55 Q 78.43 5.34 78.43 5.02 Q 78.43 4.68 78.21 4.43 Q 77.99 4.19 77.65 4.19 Q 77.43 4.19 77.28 4.32 Q 77.14 4.46 77.14 4.67 Q 77.14 4.96 77.33 5.17 Q 77.53 5.39 77.80 5.43 Q 77.55 5.62 77.12 5.62 Q 76.69 5.62 76.37 5.21 Q 76.05 4.81 75.92 4.32 L 75.32 1.93 Q 75.18 1.39 75.18 1.04 Q 75.18 0.70 75.37 0.45 Q 75.57 0.20 75.89 0.20 Q 76.53 0.20 77.02 0.76 Q 77.52 1.32 77.68 1.98 Q 77.70 2.06 77.78 2.06 L 77.95 2.06 Q 78.00 2.06 78.03 2.03 Q 78.07 1.99 78.07 1.94 Q 78.07 1.93 78.05 1.90 Q 77.86 1.10 77.25 0.47 Q 76.64 -0.15 75.86 -0.15 Q 75.37 -0.15 74.97 0.11 Q 74.57 0.38 74.41 0.84 Q 74.20 0.44 73.82 0.14 Q 73.45 -0.15 73.03 -0.15 Q 72.74 -0.15 72.43 -0.05 Q 72.13 0.05 71.94 0.26 Q 71.75 0.47 71.75 0.80 Q 71.75 1.11 71.96 1.37 Q 72.19 1.63 72.52 1.63 Q 72.74 1.63 72.89 1.50 Q 73.04 1.36 73.04 1.15 Q 73.04 0.86 72.85 0.65 Q 72.67 0.44 72.38 0.39 Z M 81.40 -2.50 Q 80.24 -2.50 79.82 -1.55 Q 79.40 -0.60 79.40 0.72 Q 79.40 1.54 79.55 2.26 Q 79.70 2.99 80.15 3.49 Q 80.59 4.00 81.40 4.00 Q 82.02 4.00 82.42 3.69 Q 82.81 3.39 83.02 2.91 Q 83.23 2.42 83.31 1.87 Q 83.38 1.32 83.38 0.72 Q 83.38 -0.09 83.23 -0.80 Q 83.08 -1.51 82.64 -2.01 Q 82.21 -2.50 81.40 -2.50 Z M 81.40 -2.26 Q 81.92 -2.26 82.18 -1.72 Q 82.44 -1.18 82.50 -0.52 Q 82.56 0.13 82.56 0.87 Q 82.56 1.58 82.50 2.18 Q 82.44 2.78 82.18 3.27 Q 81.93 3.75 81.40 3.75 Q 80.86 3.75 80.61 3.26 Q 80.35 2.77 80.29 2.18 Q 80.23 1.58 80.23 0.87 Q 80.23 0.34 80.25 -0.12 Q 80.28 -0.59 80.39 -1.09 Q 80.50 -1.58 80.75 -1.92 Q 80.99 -2.26 81.40 -2.26 Z M 88.01 3.11 Q 87.89 3.11 87.82 3.19 Q 87.75 3.28 87.75 3.38 Q 87.75 3.47 87.82 3.56 Q 87.89 3.65 88.01 3.65 L 91.98 3.65 L 91.98 7.63 Q 91.98 7.73 92.05 7.80 Q 92.13 7.87 92.25 7.87 Q 92.35 7.87 92.43 7.80 Q 92.52 7.73 92.52 7.63 L 92.52 3.65 L 96.48 3.65 Q 96.58 3.65 96.65 3.56 Q 96.73 3.47 96.73 3.38 Q 96.73 3.28 96.65 3.19 Q 96.58 3.11 96.48 3.11 L 92.52 3.11 L 92.52 -0.88 Q 92.52 -0.98 92.43 -1.05 Q 92.35 -1.12 92.25 -1.12 Q 92.13 -1.12 92.05 -1.05 Q 91.98 -0.98 91.98 -0.88 L 91.98 3.11 L 88.01 3.11 Z M 102.37 -0.15 Q 101.78 -0.15 101.31 0.14 Q 100.85 0.42 100.59 0.91 Q 100.34 1.40 100.34 1.98 Q 100.34 2.61 100.62 3.30 Q 100.90 4.00 101.40 4.57 Q 101.89 5.14 102.51 5.48 Q 103.13 5.82 103.78 5.82 L 107.18 5.82 Q 107.32 5.82 107.42 5.73 Q 107.52 5.64 107.52 5.48 Q 107.52 5.28 107.37 5.13 Q 107.23 4.98 107.03 4.98 L 105.39 4.98 Q 105.78 4.40 105.78 3.58 Q 105.78 2.90 105.51 2.24 Q 105.25 1.58 104.78 1.04 Q 104.31 0.49 103.69 0.17 Q 103.07 -0.15 102.37 -0.15 Z M 102.39 0.20 Q 103.13 0.20 103.70 0.78 Q 104.27 1.36 104.57 2.19 Q 104.87 3.02 104.87 3.74 Q 104.87 4.32 104.55 4.65 Q 104.23 4.98 103.66 4.98 Q 102.87 4.98 102.32 4.46 Q 101.78 3.93 101.50 3.13 Q 101.23 2.33 101.23 1.59 Q 101.23 1.01 101.53 0.61 Q 101.84 0.20 102.39 0.20 Z M 109.89 1.40 Q 109.89 1.77 110.05 2.12 Q 110.22 2.47 110.48 2.75 Q 110.74 3.02 111.09 3.24 Q 110.57 3.60 110.57 4.16 Q 110.57 4.76 111.07 5.21 Q 111.58 5.66 112.30 5.89 Q 113.02 6.12 113.60 6.12 Q 113.85 6.12 114.26 6.01 Q 114.67 5.90 114.98 5.72 Q 115.29 5.54 115.29 5.33 Q 115.29 5.17 115.17 5.05 Q 115.05 4.93 114.90 4.93 Q 114.84 4.93 114.60 5.07 Q 114.36 5.21 114.09 5.33 Q 113.82 5.44 113.50 5.44 Q 113.01 5.44 112.43 5.32 Q 111.85 5.21 111.40 4.92 Q 110.96 4.63 110.96 4.17 Q 110.96 3.73 111.46 3.43 Q 112.03 3.69 112.62 3.69 Q 113.68 3.69 113.68 3.31 Q 113.68 3.01 113.32 2.93 Q 112.96 2.85 112.49 2.85 Q 111.86 2.85 111.45 3.04 Q 111.00 2.80 110.65 2.37 Q 110.30 1.94 110.30 1.48 Q 110.30 1.05 110.60 0.80 Q 110.89 0.56 111.32 0.47 Q 111.75 0.38 112.17 0.38 Q 112.92 0.38 113.49 0.54 Q 114.07 0.70 114.32 1.21 Q 114.36 1.30 114.48 1.30 Q 114.62 1.25 114.62 1.12 Q 114.62 1.11 114.58 0.99 Q 114.36 0.56 113.96 0.27 Q 113.57 -0.02 113.07 -0.16 Q 112.58 -0.30 112.07 -0.30 Q 111.23 -0.30 110.56 0.15 Q 109.89 0.60 109.89 1.40 Z M 111.98 3.24 Q 112.21 3.20 112.52 3.20 Q 113.11 3.20 113.26 3.28 Q 113.07 3.33 112.61 3.33 Q 112.27 3.33 111.98 3.24 Z" fill="#0F172A"/></g><text x="58.0" y="183.0" font-family="Helvetica Neue, Helvetica, Arial, sans-serif" font-size="10.5px" fill="#475569" text-anchor="start">linear interpolation — so the true velocity is CONSTANT along the path and</text><text x="58.0" y="197.5" font-family="Helvetica Neue, Helvetica, Arial, sans-serif" font-size="10.5px" fill="#475569" text-anchor="start">independent of σ:</text><g transform="translate(207.41,226.84) scale(1,-1)"><path d="M 1.44 1.59 Q 1.44 1.89 1.51 2.25 Q 1.59 2.61 1.66 2.85 Q 1.73 3.08 1.99 3.76 Q 2.25 4.44 2.25 4.47 Q 2.43 4.96 2.43 5.28 Q 2.43 5.68 2.14 5.68 Q 1.60 5.68 1.26 5.13 Q 0.91 4.58 0.74 3.90 Q 0.72 3.81 0.63 3.81 L 0.47 3.81 Q 0.36 3.81 0.36 3.94 L 0.36 3.98 Q 0.58 4.78 1.03 5.41 Q 1.48 6.03 2.16 6.03 Q 2.64 6.03 2.98 5.71 Q 3.31 5.40 3.31 4.91 Q 3.31 4.66 3.20 4.38 Q 2.93 3.70 2.78 3.28 Q 2.63 2.87 2.50 2.36 Q 2.37 1.85 2.37 1.42 Q 2.37 0.91 2.61 0.59 Q 2.84 0.27 3.33 0.27 Q 4.27 0.27 5.02 1.71 Q 5.26 2.18 5.47 2.81 Q 5.68 3.44 5.68 3.84 Q 5.68 4.25 5.55 4.48 Q 5.42 4.70 5.21 4.95 Q 5.00 5.20 5.00 5.34 Q 5.00 5.61 5.21 5.82 Q 5.43 6.04 5.70 6.04 Q 6.02 6.04 6.16 5.74 Q 6.30 5.45 6.30 5.07 Q 6.30 4.63 6.17 4.01 Q 6.05 3.39 5.82 2.72 Q 5.59 2.05 5.40 1.67 Q 4.51 -0.09 3.32 -0.09 Q 2.47 -0.09 1.96 0.34 Q 1.44 0.76 1.44 1.59 Z M 8.28 6.43 Q 8.17 6.43 8.08 6.52 Q 8.00 6.61 8.00 6.71 Q 8.00 6.88 8.13 6.94 L 9.49 7.59 L 8.13 8.23 Q 8.00 8.29 8.00 8.46 Q 8.00 8.56 8.08 8.65 Q 8.17 8.74 8.28 8.74 Q 8.35 8.74 8.41 8.70 L 9.61 7.82 L 9.48 9.36 Q 9.48 9.47 9.56 9.55 Q 9.63 9.62 9.75 9.62 Q 9.86 9.62 9.93 9.55 Q 10.01 9.48 10.01 9.38 L 10.01 9.36 L 9.87 7.82 L 11.08 8.70 Q 11.14 8.74 11.21 8.74 Q 11.33 8.74 11.41 8.65 Q 11.49 8.56 11.49 8.46 Q 11.49 8.29 11.36 8.23 L 9.99 7.59 L 11.36 6.94 Q 11.49 6.88 11.49 6.71 Q 11.49 6.61 11.41 6.52 Q 11.33 6.43 11.21 6.43 Q 11.14 6.43 11.08 6.48 L 9.87 7.36 L 10.01 5.82 L 10.01 5.80 Q 10.01 5.69 9.93 5.62 Q 9.85 5.55 9.75 5.55 Q 9.64 5.55 9.56 5.63 Q 9.48 5.70 9.48 5.82 L 9.61 7.36 L 8.41 6.48 Q 8.35 6.43 8.28 6.43 Z M 16.36 1.86 Q 16.25 1.86 16.17 1.94 Q 16.10 2.03 16.10 2.13 Q 16.10 2.24 16.17 2.32 Q 16.25 2.40 16.36 2.40 L 24.83 2.40 Q 24.93 2.40 25.01 2.32 Q 25.08 2.24 25.08 2.13 Q 25.08 2.03 25.01 1.94 Q 24.93 1.86 24.83 1.86 L 16.36 1.86 Z M 16.36 4.48 Q 16.25 4.48 16.17 4.56 Q 16.10 4.64 16.10 4.75 Q 16.10 4.85 16.17 4.93 Q 16.25 5.02 16.36 5.02 L 24.83 5.02 Q 24.93 5.02 25.01 4.93 Q 25.08 4.85 25.08 4.75 Q 25.08 4.64 25.01 4.56 Q 24.93 4.48 24.83 4.48 L 16.36 4.48 Z M 29.84 6.70 Q 29.25 6.70 28.90 7.15 Q 28.56 7.60 28.56 8.21 Q 28.56 8.82 28.87 9.47 Q 29.19 10.12 29.72 10.55 Q 30.25 10.98 30.87 10.98 Q 31.14 10.98 31.37 10.83 Q 31.59 10.67 31.72 10.42 L 32.25 12.52 Q 32.28 12.69 32.29 12.78 Q 32.29 12.93 31.68 12.93 Q 31.58 12.93 31.58 13.05 Q 31.59 13.08 31.60 13.14 Q 31.62 13.20 31.65 13.23 Q 31.67 13.26 31.72 13.26 L 32.99 13.37 Q 33.11 13.37 33.11 13.24 L 31.74 7.81 Q 31.68 7.65 31.68 7.36 Q 31.68 6.95 31.95 6.95 Q 32.25 6.95 32.40 7.33 Q 32.56 7.70 32.66 8.20 Q 32.68 8.25 32.74 8.25 L 32.85 8.25 Q 32.89 8.25 32.91 8.22 Q 32.93 8.19 32.93 8.16 Q 32.77 7.50 32.57 7.10 Q 32.38 6.70 31.93 6.70 Q 31.62 6.70 31.37 6.89 Q 31.13 7.07 31.07 7.38 Q 30.46 6.70 29.84 6.70 Z M 29.85 6.95 Q 30.19 6.95 30.51 7.21 Q 30.83 7.46 31.07 7.81 Q 31.08 7.82 31.08 7.85 L 31.59 9.93 Q 31.54 10.26 31.35 10.50 Q 31.16 10.74 30.84 10.74 Q 30.53 10.74 30.25 10.48 Q 29.98 10.22 29.79 9.86 Q 29.60 9.48 29.43 8.82 Q 29.27 8.16 29.27 7.80 Q 29.27 7.47 29.41 7.21 Q 29.55 6.95 29.85 6.95 Z M 33.85 7.08 Q 34.02 6.95 34.32 6.95 Q 34.62 6.95 34.85 7.23 Q 35.07 7.52 35.15 7.85 L 35.58 9.53 Q 35.69 9.99 35.69 10.15 Q 35.69 10.39 35.55 10.56 Q 35.42 10.74 35.19 10.74 Q 34.89 10.74 34.62 10.55 Q 34.36 10.36 34.18 10.08 Q 34.00 9.79 33.93 9.49 Q 33.91 9.43 33.85 9.43 L 33.74 9.43 Q 33.66 9.43 33.66 9.52 L 33.66 9.55 Q 33.76 9.90 33.98 10.23 Q 34.20 10.57 34.52 10.78 Q 34.84 10.98 35.21 10.98 Q 35.55 10.98 35.83 10.80 Q 36.11 10.61 36.22 10.30 Q 36.39 10.59 36.64 10.78 Q 36.89 10.98 37.19 10.98 Q 37.39 10.98 37.60 10.91 Q 37.82 10.84 37.95 10.69 Q 38.08 10.54 38.08 10.32 Q 38.08 10.08 37.93 9.91 Q 37.77 9.74 37.54 9.74 Q 37.38 9.74 37.28 9.83 Q 37.18 9.93 37.18 10.08 Q 37.18 10.28 37.32 10.43 Q 37.45 10.58 37.64 10.61 Q 37.47 10.74 37.17 10.74 Q 36.87 10.74 36.64 10.46 Q 36.42 10.18 36.33 9.83 L 35.91 8.16 Q 35.81 7.78 35.81 7.54 Q 35.81 7.30 35.95 7.12 Q 36.08 6.95 36.31 6.95 Q 36.75 6.95 37.10 7.34 Q 37.45 7.73 37.56 8.20 Q 37.58 8.25 37.63 8.25 L 37.75 8.25 Q 37.78 8.25 37.81 8.23 Q 37.83 8.20 37.83 8.17 Q 37.83 8.16 37.82 8.14 Q 37.69 7.58 37.26 7.14 Q 36.83 6.70 36.29 6.70 Q 35.94 6.70 35.66 6.89 Q 35.39 7.07 35.27 7.39 Q 35.12 7.12 34.86 6.91 Q 34.60 6.70 34.30 6.70 Q 34.10 6.70 33.89 6.77 Q 33.67 6.84 33.54 6.99 Q 33.41 7.14 33.41 7.37 Q 33.41 7.59 33.56 7.77 Q 33.71 7.95 33.95 7.95 Q 34.10 7.95 34.21 7.86 Q 34.32 7.76 34.32 7.61 Q 34.32 7.41 34.18 7.26 Q 34.05 7.12 33.85 7.08 Z M 39.75 5.13 Q 39.45 5.13 39.22 5.27 Q 39.00 5.41 38.87 5.65 Q 38.75 5.89 38.75 6.17 Q 38.75 6.48 38.89 6.82 Q 39.03 7.16 39.27 7.44 Q 39.51 7.72 39.81 7.89 Q 40.11 8.05 40.43 8.05 L 42.10 8.05 Q 42.17 8.05 42.22 8.01 Q 42.26 7.96 42.26 7.88 Q 42.26 7.79 42.20 7.72 Q 42.13 7.64 42.03 7.64 L 41.22 7.64 Q 41.41 7.36 41.41 6.95 Q 41.41 6.62 41.28 6.30 Q 41.15 5.98 40.92 5.71 Q 40.70 5.44 40.39 5.28 Q 40.08 5.13 39.75 5.13 Z M 39.75 5.30 Q 40.11 5.30 40.39 5.58 Q 40.67 5.87 40.82 6.27 Q 40.97 6.68 40.97 7.03 Q 40.97 7.32 40.81 7.48 Q 40.66 7.64 40.38 7.64 Q 39.99 7.64 39.72 7.38 Q 39.45 7.13 39.32 6.73 Q 39.18 6.34 39.18 5.98 Q 39.18 5.70 39.33 5.50 Q 39.48 5.30 39.75 5.30 Z M 32.00 -5.76 Q 31.41 -5.76 31.06 -5.31 Q 30.72 -4.86 30.72 -4.24 Q 30.72 -3.64 31.03 -2.99 Q 31.35 -2.34 31.88 -1.91 Q 32.41 -1.47 33.03 -1.47 Q 33.30 -1.47 33.53 -1.63 Q 33.75 -1.78 33.88 -2.04 L 34.41 0.07 Q 34.44 0.23 34.45 0.32 Q 34.45 0.47 33.84 0.47 Q 33.74 0.47 33.74 0.60 Q 33.75 0.62 33.76 0.68 Q 33.78 0.74 33.81 0.77 Q 33.83 0.81 33.88 0.81 L 35.15 0.91 Q 35.27 0.91 35.27 0.79 L 33.90 -4.65 Q 33.84 -4.81 33.84 -5.10 Q 33.84 -5.51 34.11 -5.51 Q 34.41 -5.51 34.56 -5.13 Q 34.72 -4.76 34.82 -4.26 Q 34.84 -4.21 34.90 -4.21 L 35.01 -4.21 Q 35.05 -4.21 35.07 -4.24 Q 35.09 -4.27 35.09 -4.30 Q 34.93 -4.96 34.73 -5.36 Q 34.54 -5.76 34.09 -5.76 Q 33.78 -5.76 33.53 -5.57 Q 33.29 -5.38 33.23 -5.07 Q 32.62 -5.76 32.00 -5.76 Z M 32.01 -5.51 Q 32.35 -5.51 32.67 -5.25 Q 32.99 -4.99 33.23 -4.65 Q 33.24 -4.64 33.24 -4.61 L 33.75 -2.53 Q 33.70 -2.20 33.51 -1.96 Q 33.32 -1.72 33.00 -1.72 Q 32.69 -1.72 32.41 -1.98 Q 32.14 -2.24 31.95 -2.60 Q 31.76 -2.97 31.59 -3.63 Q 31.43 -4.29 31.43 -4.66 Q 31.43 -4.99 31.57 -5.25 Q 31.71 -5.51 32.01 -5.51 Z M 37.04 -5.76 Q 36.62 -5.76 36.30 -5.56 Q 35.97 -5.35 35.79 -5.01 Q 35.62 -4.67 35.62 -4.26 Q 35.62 -3.82 35.81 -3.34 Q 36.01 -2.85 36.36 -2.45 Q 36.70 -2.05 37.13 -1.81 Q 37.57 -1.58 38.03 -1.58 L 40.41 -1.58 Q 40.50 -1.58 40.57 -1.64 Q 40.64 -1.70 40.64 -1.82 Q 40.64 -1.95 40.54 -2.06 Q 40.44 -2.16 40.30 -2.16 L 39.15 -2.16 Q 39.42 -2.57 39.42 -3.14 Q 39.42 -3.62 39.24 -4.08 Q 39.05 -4.54 38.73 -4.92 Q 38.40 -5.30 37.96 -5.53 Q 37.53 -5.76 37.04 -5.76 Z M 37.05 -5.51 Q 37.57 -5.51 37.97 -5.10 Q 38.37 -4.70 38.58 -4.12 Q 38.79 -3.53 38.79 -3.03 Q 38.79 -2.63 38.57 -2.39 Q 38.34 -2.16 37.94 -2.16 Q 37.39 -2.16 37.01 -2.53 Q 36.62 -2.90 36.43 -3.46 Q 36.24 -4.02 36.24 -4.53 Q 36.24 -4.94 36.45 -5.22 Q 36.67 -5.51 37.05 -5.51 Z M 47.96 1.86 Q 47.85 1.86 47.77 1.94 Q 47.70 2.03 47.70 2.13 Q 47.70 2.24 47.77 2.32 Q 47.85 2.40 47.96 2.40 L 56.44 2.40 Q 56.54 2.40 56.61 2.32 Q 56.68 2.24 56.68 2.13 Q 56.68 2.03 56.61 1.94 Q 56.54 1.86 56.44 1.86 L 47.96 1.86 Z M 47.96 4.48 Q 47.85 4.48 47.77 4.56 Q 47.70 4.64 47.70 4.75 Q 47.70 4.85 47.77 4.93 Q 47.85 5.02 47.96 5.02 L 56.44 5.02 Q 56.54 5.02 56.61 4.93 Q 56.68 4.85 56.68 4.75 Q 56.68 4.64 56.61 4.56 Q 56.54 4.48 56.44 4.48 L 47.96 4.48 Z M 60.17 1.47 Q 60.17 1.84 60.33 2.19 Q 60.49 2.54 60.75 2.81 Q 61.01 3.09 61.36 3.31 Q 60.85 3.66 60.85 4.22 Q 60.85 4.82 61.34 5.27 Q 61.85 5.73 62.57 5.95 Q 63.30 6.18 63.88 6.18 Q 64.12 6.18 64.53 6.07 Q 64.95 5.96 65.25 5.78 Q 65.56 5.61 65.56 5.40 Q 65.56 5.24 65.44 5.12 Q 65.32 5.00 65.18 5.00 Q 65.12 5.00 64.88 5.14 Q 64.64 5.28 64.36 5.39 Q 64.09 5.50 63.77 5.50 Q 63.28 5.50 62.70 5.39 Q 62.12 5.27 61.67 4.98 Q 61.23 4.70 61.23 4.24 Q 61.23 3.80 61.74 3.49 Q 62.30 3.75 62.90 3.75 Q 63.95 3.75 63.95 3.37 Q 63.95 3.08 63.59 2.99 Q 63.23 2.91 62.76 2.91 Q 62.13 2.91 61.72 3.10 Q 61.27 2.86 60.92 2.44 Q 60.58 2.01 60.58 1.55 Q 60.58 1.11 60.87 0.87 Q 61.16 0.62 61.59 0.53 Q 62.02 0.44 62.45 0.44 Q 63.19 0.44 63.76 0.60 Q 64.34 0.76 64.60 1.28 Q 64.64 1.36 64.75 1.36 Q 64.89 1.32 64.89 1.18 Q 64.89 1.17 64.85 1.05 Q 64.64 0.62 64.24 0.33 Q 63.84 0.04 63.35 -0.09 Q 62.86 -0.23 62.34 -0.23 Q 61.50 -0.23 60.83 0.21 Q 60.17 0.66 60.17 1.47 Z M 62.25 3.31 Q 62.49 3.26 62.79 3.26 Q 63.38 3.26 63.53 3.35 Q 63.34 3.40 62.88 3.40 Q 62.55 3.40 62.25 3.31 Z M 69.84 3.17 Q 69.73 3.17 69.65 3.25 Q 69.58 3.34 69.58 3.44 Q 69.58 3.54 69.65 3.62 Q 69.73 3.71 69.84 3.71 L 77.59 3.71 Q 77.69 3.71 77.76 3.62 Q 77.83 3.54 77.83 3.44 Q 77.83 3.34 77.76 3.25 Q 77.69 3.17 77.59 3.17 L 69.84 3.17 Z M 82.37 0.45 Q 82.61 0.27 83.05 0.27 Q 83.47 0.27 83.79 0.67 Q 84.11 1.08 84.23 1.56 L 84.85 3.95 Q 84.99 4.61 84.99 4.84 Q 84.99 5.18 84.80 5.43 Q 84.62 5.68 84.28 5.68 Q 83.85 5.68 83.48 5.41 Q 83.10 5.15 82.84 4.73 Q 82.59 4.32 82.48 3.90 Q 82.45 3.81 82.37 3.81 L 82.21 3.81 Q 82.10 3.81 82.10 3.94 L 82.10 3.98 Q 82.24 4.48 82.55 4.96 Q 82.87 5.44 83.33 5.73 Q 83.79 6.03 84.31 6.03 Q 84.80 6.03 85.20 5.77 Q 85.60 5.50 85.76 5.05 Q 85.99 5.46 86.35 5.74 Q 86.71 6.03 87.14 6.03 Q 87.43 6.03 87.73 5.93 Q 88.04 5.82 88.23 5.61 Q 88.42 5.40 88.42 5.09 Q 88.42 4.74 88.20 4.50 Q 87.98 4.25 87.64 4.25 Q 87.42 4.25 87.27 4.39 Q 87.13 4.53 87.13 4.74 Q 87.13 5.02 87.32 5.23 Q 87.52 5.45 87.79 5.49 Q 87.54 5.68 87.11 5.68 Q 86.68 5.68 86.36 5.28 Q 86.04 4.88 85.91 4.38 L 85.32 2.00 Q 85.17 1.45 85.17 1.11 Q 85.17 0.76 85.36 0.51 Q 85.56 0.27 85.88 0.27 Q 86.52 0.27 87.01 0.83 Q 87.51 1.38 87.67 2.05 Q 87.69 2.13 87.77 2.13 L 87.94 2.13 Q 87.99 2.13 88.02 2.09 Q 88.06 2.05 88.06 2.01 Q 88.06 2.00 88.04 1.97 Q 87.85 1.16 87.24 0.54 Q 86.63 -0.09 85.86 -0.09 Q 85.36 -0.09 84.96 0.18 Q 84.56 0.45 84.40 0.90 Q 84.19 0.50 83.81 0.21 Q 83.44 -0.09 83.02 -0.09 Q 82.73 -0.09 82.42 0.02 Q 82.12 0.12 81.93 0.33 Q 81.74 0.54 81.74 0.86 Q 81.74 1.18 81.95 1.44 Q 82.18 1.70 82.51 1.70 Q 82.73 1.70 82.88 1.56 Q 83.03 1.43 83.03 1.21 Q 83.03 0.93 82.85 0.72 Q 82.66 0.50 82.37 0.45 Z M 91.39 -2.44 Q 90.23 -2.44 89.81 -1.49 Q 89.39 -0.53 89.39 0.78 Q 89.39 1.60 89.54 2.33 Q 89.69 3.05 90.14 3.56 Q 90.59 4.06 91.39 4.06 Q 92.01 4.06 92.41 3.76 Q 92.80 3.45 93.01 2.97 Q 93.22 2.49 93.30 1.94 Q 93.37 1.39 93.37 0.78 Q 93.37 -0.03 93.22 -0.74 Q 93.07 -1.45 92.63 -1.94 Q 92.20 -2.44 91.39 -2.44 Z M 91.39 -2.20 Q 91.91 -2.20 92.17 -1.66 Q 92.43 -1.12 92.49 -0.46 Q 92.55 0.20 92.55 0.93 Q 92.55 1.64 92.49 2.24 Q 92.43 2.84 92.17 3.33 Q 91.92 3.82 91.39 3.82 Q 90.85 3.82 90.60 3.33 Q 90.34 2.84 90.28 2.24 Q 90.22 1.64 90.22 0.93 Q 90.22 0.41 90.24 -0.06 Q 90.27 -0.53 90.38 -1.02 Q 90.49 -1.52 90.74 -1.86 Q 90.98 -2.20 91.39 -2.20 Z M 28.20 1.75 L 28.20 2.59 L 42.89 2.59 L 42.89 1.75 L 28.20 1.75 Z" fill="#0F172A"/></g><text x="545.2" y="105.5" font-family="Helvetica Neue, Helvetica, Arial, sans-serif" font-size="10.5px" fill="#475569" text-anchor="start">per step: draw x₀ from data, ε from N(0,I), σ from a schedule —</text><g transform="translate(612.65,132.97) scale(1,-1)"><path d="M 0.50 -0.28 Q 0.42 -0.28 0.42 -0.19 Q 0.42 -0.14 0.46 -0.07 Q 0.56 0.09 0.76 0.29 Q 0.96 0.48 1.04 0.59 Q 1.38 1.09 1.58 1.47 Q 1.93 2.18 2.17 3.11 Q 2.54 4.58 2.84 5.49 Q 3.15 6.41 3.63 7.23 Q 4.01 7.86 4.57 8.38 Q 5.13 8.91 5.82 9.22 Q 6.50 9.53 7.21 9.53 L 7.29 9.53 Q 7.64 9.53 7.88 9.36 Q 8.11 9.18 8.24 8.89 Q 8.36 8.60 8.36 8.26 Q 8.36 7.75 8.19 7.55 Q 7.73 7.04 7.09 6.96 L 7.01 6.96 Q 6.93 6.96 6.93 7.05 Q 6.93 7.06 6.96 7.25 Q 6.99 7.44 6.99 7.57 Q 6.99 8.01 6.78 8.33 Q 6.56 8.66 6.13 8.66 Q 5.63 8.66 5.63 8.57 Q 5.26 8.31 4.92 7.72 Q 4.58 7.12 4.33 6.43 Q 4.07 5.73 3.87 5.03 Q 3.68 4.33 3.53 3.71 Q 3.36 3.05 3.10 2.44 Q 2.84 1.83 2.48 1.29 Q 2.64 1.34 2.88 1.34 L 2.96 1.34 Q 3.43 1.34 3.90 1.24 Q 4.36 1.15 5.02 0.96 Q 5.67 0.78 6.10 0.69 Q 6.54 0.60 7.02 0.59 Q 7.17 0.59 7.26 0.73 Q 7.35 0.86 7.44 1.09 Q 7.53 1.33 7.59 1.40 Q 7.79 1.63 8.09 1.80 Q 8.38 1.96 8.68 2.00 L 8.76 2.00 Q 8.80 2.00 8.83 1.97 Q 8.85 1.95 8.85 1.91 Q 8.85 1.91 8.84 1.87 Q 8.71 1.34 8.22 0.83 Q 7.73 0.32 7.11 0.02 Q 6.49 -0.28 5.97 -0.28 L 5.89 -0.28 Q 5.42 -0.28 4.97 -0.20 Q 4.52 -0.11 3.87 0.07 Q 3.22 0.26 2.75 0.36 Q 2.29 0.46 1.82 0.46 Q 1.22 -0.20 0.58 -0.28 L 0.50 -0.28 Z M 12.69 1.81 Q 12.57 1.81 12.50 1.89 Q 12.43 1.98 12.43 2.08 Q 12.43 2.19 12.50 2.27 Q 12.57 2.35 12.69 2.35 L 21.16 2.35 Q 21.26 2.35 21.33 2.27 Q 21.41 2.19 21.41 2.08 Q 21.41 1.98 21.33 1.89 Q 21.26 1.81 21.16 1.81 L 12.69 1.81 Z M 12.69 4.43 Q 12.57 4.43 12.50 4.51 Q 12.43 4.59 12.43 4.70 Q 12.43 4.80 12.50 4.89 Q 12.57 4.97 12.69 4.97 L 21.16 4.97 Q 21.26 4.97 21.33 4.89 Q 21.41 4.80 21.41 4.70 Q 21.41 4.59 21.33 4.51 Q 21.26 4.43 21.16 4.43 L 12.69 4.43 Z M 33.49 8.83 L 33.37 8.33 L 29.06 8.33 L 28.13 4.79 L 31.94 4.79 L 31.79 4.29 L 28.00 4.29 L 26.99 0.51 L 31.79 0.51 L 31.68 0.01 L 24.76 0.01 L 27.12 8.83 L 33.49 8.83 Z M 28.57 8.33 L 27.51 8.33 L 25.41 0.51 L 26.49 0.51 L 28.57 8.33 Z M 35.88 -2.01 Q 36.05 -2.14 36.35 -2.14 Q 36.65 -2.14 36.87 -1.85 Q 37.10 -1.57 37.18 -1.23 L 37.61 0.44 Q 37.71 0.90 37.71 1.06 Q 37.71 1.30 37.58 1.48 Q 37.45 1.65 37.21 1.65 Q 36.91 1.65 36.65 1.46 Q 36.39 1.28 36.21 0.99 Q 36.03 0.70 35.95 0.40 Q 35.94 0.34 35.88 0.34 L 35.76 0.34 Q 35.69 0.34 35.69 0.43 L 35.69 0.46 Q 35.78 0.81 36.00 1.14 Q 36.23 1.48 36.55 1.69 Q 36.87 1.89 37.23 1.89 Q 37.58 1.89 37.86 1.71 Q 38.14 1.53 38.25 1.21 Q 38.41 1.50 38.66 1.70 Q 38.92 1.89 39.22 1.89 Q 39.42 1.89 39.63 1.82 Q 39.84 1.75 39.98 1.60 Q 40.11 1.46 40.11 1.23 Q 40.11 1.00 39.96 0.82 Q 39.80 0.65 39.56 0.65 Q 39.41 0.65 39.31 0.75 Q 39.21 0.84 39.21 0.99 Q 39.21 1.19 39.34 1.34 Q 39.48 1.49 39.67 1.52 Q 39.50 1.65 39.20 1.65 Q 38.89 1.65 38.67 1.37 Q 38.45 1.09 38.35 0.74 L 37.94 -0.93 Q 37.84 -1.31 37.84 -1.55 Q 37.84 -1.79 37.97 -1.97 Q 38.11 -2.14 38.34 -2.14 Q 38.78 -2.14 39.13 -1.75 Q 39.47 -1.36 39.58 -0.89 Q 39.60 -0.84 39.66 -0.84 L 39.77 -0.84 Q 39.81 -0.84 39.83 -0.86 Q 39.86 -0.89 39.86 -0.92 Q 39.86 -0.93 39.85 -0.95 Q 39.71 -1.51 39.28 -1.95 Q 38.86 -2.39 38.32 -2.39 Q 37.97 -2.39 37.69 -2.20 Q 37.41 -2.01 37.30 -1.69 Q 37.15 -1.97 36.89 -2.18 Q 36.63 -2.39 36.33 -2.39 Q 36.13 -2.39 35.91 -2.32 Q 35.70 -2.24 35.57 -2.10 Q 35.43 -1.95 35.43 -1.72 Q 35.43 -1.50 35.59 -1.32 Q 35.74 -1.14 35.97 -1.14 Q 36.13 -1.14 36.24 -1.23 Q 36.34 -1.33 36.34 -1.48 Q 36.34 -1.68 36.21 -1.82 Q 36.08 -1.97 35.88 -2.01 Z M 42.19 -4.03 Q 41.38 -4.03 41.09 -3.37 Q 40.79 -2.70 40.79 -1.78 Q 40.79 -1.20 40.90 -0.70 Q 41.00 -0.19 41.31 0.16 Q 41.63 0.52 42.19 0.52 Q 42.63 0.52 42.90 0.30 Q 43.18 0.09 43.33 -0.25 Q 43.47 -0.58 43.52 -0.97 Q 43.58 -1.36 43.58 -1.78 Q 43.58 -2.35 43.47 -2.84 Q 43.37 -3.34 43.06 -3.69 Q 42.75 -4.03 42.19 -4.03 Z M 42.19 -3.86 Q 42.56 -3.86 42.74 -3.49 Q 42.92 -3.11 42.96 -2.65 Q 43.00 -2.19 43.00 -1.67 Q 43.00 -1.17 42.96 -0.76 Q 42.92 -0.33 42.74 0.01 Q 42.56 0.35 42.19 0.35 Q 41.81 0.35 41.63 0.00 Q 41.45 -0.34 41.41 -0.76 Q 41.37 -1.17 41.37 -1.67 Q 41.37 -2.04 41.39 -2.37 Q 41.40 -2.69 41.48 -3.04 Q 41.56 -3.39 41.73 -3.63 Q 41.90 -3.86 42.19 -3.86 Z M 45.38 -3.98 Q 45.38 -3.94 45.42 -3.91 Q 45.76 -3.58 45.95 -3.15 Q 46.14 -2.72 46.14 -2.24 L 46.14 -2.13 Q 45.99 -2.28 45.76 -2.28 Q 45.54 -2.28 45.39 -2.13 Q 45.24 -1.98 45.24 -1.76 Q 45.24 -1.54 45.39 -1.39 Q 45.54 -1.24 45.76 -1.24 Q 46.10 -1.24 46.24 -1.55 Q 46.38 -1.87 46.38 -2.24 Q 46.38 -2.77 46.17 -3.24 Q 45.96 -3.72 45.58 -4.09 Q 45.54 -4.11 45.52 -4.11 Q 45.47 -4.11 45.43 -4.07 Q 45.38 -4.03 45.38 -3.98 Z M 48.98 -1.30 Q 48.98 -1.04 49.09 -0.80 Q 49.20 -0.55 49.38 -0.36 Q 49.57 -0.16 49.81 -0.01 Q 49.45 0.24 49.45 0.63 Q 49.45 1.05 49.80 1.37 Q 50.15 1.68 50.66 1.84 Q 51.17 2.00 51.57 2.00 Q 51.74 2.00 52.03 1.92 Q 52.32 1.85 52.54 1.72 Q 52.75 1.60 52.75 1.45 Q 52.75 1.34 52.67 1.26 Q 52.58 1.17 52.48 1.17 Q 52.44 1.17 52.27 1.27 Q 52.10 1.37 51.91 1.45 Q 51.72 1.53 51.50 1.53 Q 51.16 1.53 50.75 1.44 Q 50.34 1.36 50.03 1.16 Q 49.72 0.96 49.72 0.64 Q 49.72 0.33 50.07 0.12 Q 50.47 0.30 50.89 0.30 Q 51.62 0.30 51.62 0.04 Q 51.62 -0.17 51.37 -0.23 Q 51.12 -0.29 50.79 -0.29 Q 50.35 -0.29 50.06 -0.15 Q 49.75 -0.32 49.51 -0.62 Q 49.26 -0.92 49.26 -1.24 Q 49.26 -1.55 49.47 -1.72 Q 49.67 -1.89 49.97 -1.95 Q 50.27 -2.02 50.57 -2.02 Q 51.09 -2.02 51.49 -1.91 Q 51.90 -1.79 52.08 -1.43 Q 52.10 -1.37 52.18 -1.37 Q 52.28 -1.40 52.28 -1.50 Q 52.28 -1.51 52.26 -1.59 Q 52.10 -1.89 51.82 -2.09 Q 51.55 -2.29 51.20 -2.39 Q 50.86 -2.49 50.50 -2.49 Q 49.91 -2.49 49.44 -2.18 Q 48.98 -1.86 48.98 -1.30 Z M 50.43 -0.01 Q 50.60 -0.04 50.81 -0.04 Q 51.23 -0.04 51.33 0.02 Q 51.20 0.05 50.88 0.05 Q 50.64 0.05 50.43 -0.01 Z M 54.06 -3.98 Q 54.06 -3.94 54.10 -3.91 Q 54.44 -3.58 54.63 -3.15 Q 54.82 -2.72 54.82 -2.24 L 54.82 -2.13 Q 54.66 -2.28 54.44 -2.28 Q 54.22 -2.28 54.07 -2.13 Q 53.92 -1.98 53.92 -1.76 Q 53.92 -1.54 54.07 -1.39 Q 54.22 -1.24 54.44 -1.24 Q 54.78 -1.24 54.92 -1.55 Q 55.06 -1.87 55.06 -2.24 Q 55.06 -2.77 54.85 -3.24 Q 54.64 -3.72 54.26 -4.09 Q 54.22 -4.11 54.20 -4.11 Q 54.15 -4.11 54.11 -4.07 Q 54.06 -4.03 54.06 -3.98 Z M 59.17 -2.39 Q 58.75 -2.39 58.42 -2.19 Q 58.10 -1.99 57.92 -1.64 Q 57.74 -1.30 57.74 -0.89 Q 57.74 -0.45 57.94 0.03 Q 58.14 0.52 58.48 0.92 Q 58.83 1.32 59.26 1.56 Q 59.69 1.79 60.15 1.79 L 62.53 1.79 Q 62.63 1.79 62.70 1.73 Q 62.76 1.66 62.76 1.55 Q 62.76 1.41 62.67 1.31 Q 62.57 1.21 62.43 1.21 L 61.27 1.21 Q 61.55 0.80 61.55 0.22 Q 61.55 -0.25 61.36 -0.71 Q 61.18 -1.17 60.85 -1.55 Q 60.52 -1.94 60.09 -2.16 Q 59.65 -2.39 59.17 -2.39 Z M 59.17 -2.14 Q 59.69 -2.14 60.09 -1.73 Q 60.49 -1.33 60.70 -0.75 Q 60.91 -0.16 60.91 0.34 Q 60.91 0.74 60.69 0.97 Q 60.47 1.21 60.07 1.21 Q 59.52 1.21 59.13 0.84 Q 58.75 0.47 58.55 -0.09 Q 58.36 -0.65 58.36 -1.16 Q 58.36 -1.57 58.58 -1.85 Q 58.79 -2.14 59.17 -2.14 Z M 68.74 -3.12 L 68.74 9.90 Q 68.74 10.00 68.82 10.07 Q 68.91 10.14 69.01 10.14 Q 69.12 10.14 69.20 10.07 Q 69.28 10.00 69.28 9.90 L 69.28 -3.12 Q 69.28 -3.22 69.20 -3.29 Q 69.12 -3.36 69.01 -3.36 Q 68.91 -3.36 68.82 -3.29 Q 68.74 -3.22 68.74 -3.12 Z M 71.36 -3.12 L 71.36 9.90 Q 71.36 10.00 71.44 10.07 Q 71.52 10.14 71.63 10.14 Q 71.73 10.14 71.82 10.07 Q 71.90 10.00 71.90 9.90 L 71.90 -3.12 Q 71.90 -3.22 71.82 -3.29 Q 71.73 -3.36 71.63 -3.36 Q 71.52 -3.36 71.44 -3.29 Q 71.36 -3.22 71.36 -3.12 Z M 75.14 1.54 Q 75.14 1.84 75.21 2.20 Q 75.28 2.57 75.36 2.80 Q 75.43 3.03 75.69 3.71 Q 75.94 4.39 75.95 4.42 Q 76.13 4.91 76.13 5.23 Q 76.13 5.63 75.83 5.63 Q 75.30 5.63 74.95 5.08 Q 74.61 4.53 74.44 3.85 Q 74.42 3.77 74.33 3.77 L 74.17 3.77 Q 74.06 3.77 74.06 3.89 L 74.06 3.93 Q 74.28 4.74 74.72 5.36 Q 75.17 5.98 75.86 5.98 Q 76.34 5.98 76.67 5.66 Q 77.01 5.35 77.01 4.86 Q 77.01 4.61 76.89 4.33 Q 76.63 3.65 76.48 3.23 Q 76.33 2.82 76.20 2.31 Q 76.07 1.80 76.07 1.37 Q 76.07 0.86 76.30 0.54 Q 76.54 0.22 77.03 0.22 Q 77.97 0.22 78.72 1.66 Q 78.96 2.13 79.17 2.76 Q 79.38 3.40 79.38 3.79 Q 79.38 4.20 79.25 4.43 Q 79.11 4.66 78.90 4.90 Q 78.69 5.15 78.69 5.29 Q 78.69 5.56 78.91 5.78 Q 79.13 5.99 79.39 5.99 Q 79.71 5.99 79.86 5.70 Q 80.00 5.40 80.00 5.02 Q 80.00 4.58 79.87 3.96 Q 79.74 3.34 79.51 2.67 Q 79.29 2.01 79.09 1.62 Q 78.21 -0.14 77.02 -0.14 Q 76.17 -0.14 75.65 0.29 Q 75.14 0.71 75.14 1.54 Z M 81.75 -2.39 Q 81.32 -2.39 81.06 -2.07 Q 80.81 -1.76 80.71 -1.32 Q 80.61 -0.87 80.61 -0.44 L 80.61 -0.43 Q 80.61 0.04 80.70 0.55 Q 80.79 1.05 80.96 1.56 Q 81.13 2.07 81.33 2.46 Q 81.47 2.74 81.68 3.08 Q 81.90 3.42 82.17 3.72 Q 82.44 4.02 82.75 4.20 Q 83.07 4.38 83.39 4.38 L 83.39 4.38 Q 83.74 4.38 83.96 4.19 Q 84.19 4.00 84.32 3.71 Q 84.45 3.41 84.50 3.08 Q 84.55 2.74 84.55 2.44 Q 84.55 1.72 84.35 0.97 Q 84.16 0.23 83.82 -0.47 Q 83.69 -0.73 83.46 -1.09 Q 83.23 -1.44 82.98 -1.72 Q 82.72 -2.00 82.40 -2.20 Q 82.08 -2.39 81.76 -2.39 L 81.75 -2.39 Z M 81.77 -2.14 Q 82.08 -2.14 82.37 -1.80 Q 82.66 -1.47 82.88 -0.99 Q 83.09 -0.51 83.26 -0.01 Q 83.42 0.49 83.50 0.84 L 81.57 0.84 Q 81.42 0.24 81.34 -0.19 Q 81.26 -0.62 81.26 -1.03 Q 81.26 -2.14 81.77 -2.14 Z M 81.64 1.17 L 83.58 1.17 Q 83.69 1.59 83.74 1.87 Q 83.80 2.14 83.85 2.45 Q 83.89 2.76 83.89 3.03 Q 83.89 4.14 83.39 4.14 Q 82.78 4.14 82.35 3.17 Q 81.91 2.20 81.64 1.17 Z M 89.71 -3.33 Q 88.96 -2.74 88.41 -1.97 Q 87.87 -1.20 87.52 -0.33 Q 87.18 0.54 87.01 1.49 Q 86.84 2.43 86.84 3.39 Q 86.84 4.36 87.01 5.31 Q 87.18 6.26 87.53 7.13 Q 87.88 8.01 88.43 8.78 Q 88.98 9.54 89.71 10.11 Q 89.71 10.14 89.78 10.14 L 89.90 10.14 Q 89.94 10.14 89.97 10.10 Q 90.01 10.07 90.01 10.02 Q 90.01 9.96 89.98 9.94 Q 89.32 9.29 88.88 8.55 Q 88.44 7.81 88.18 6.98 Q 87.91 6.14 87.79 5.25 Q 87.67 4.36 87.67 3.39 Q 87.67 -0.90 89.97 -3.13 Q 90.01 -3.17 90.01 -3.24 Q 90.01 -3.27 89.97 -3.32 Q 89.93 -3.36 89.90 -3.36 L 89.78 -3.36 Q 89.71 -3.36 89.71 -3.33 Z M 91.82 0.40 Q 92.06 0.22 92.49 0.22 Q 92.91 0.22 93.24 0.62 Q 93.56 1.03 93.68 1.51 L 94.29 3.90 Q 94.44 4.56 94.44 4.79 Q 94.44 5.13 94.25 5.38 Q 94.06 5.63 93.72 5.63 Q 93.30 5.63 92.92 5.36 Q 92.54 5.10 92.29 4.68 Q 92.03 4.27 91.92 3.85 Q 91.90 3.77 91.82 3.77 L 91.65 3.77 Q 91.55 3.77 91.55 3.89 L 91.55 3.93 Q 91.68 4.43 92.00 4.91 Q 92.31 5.39 92.77 5.68 Q 93.23 5.98 93.75 5.98 Q 94.24 5.98 94.64 5.72 Q 95.04 5.45 95.21 5.00 Q 95.44 5.41 95.80 5.70 Q 96.16 5.98 96.58 5.98 Q 96.88 5.98 97.18 5.88 Q 97.48 5.78 97.67 5.56 Q 97.86 5.35 97.86 5.04 Q 97.86 4.70 97.64 4.45 Q 97.42 4.20 97.08 4.20 Q 96.86 4.20 96.72 4.34 Q 96.57 4.48 96.57 4.69 Q 96.57 4.97 96.77 5.18 Q 96.96 5.40 97.23 5.44 Q 96.99 5.63 96.56 5.63 Q 96.12 5.63 95.80 5.23 Q 95.48 4.83 95.35 4.33 L 94.76 1.95 Q 94.61 1.40 94.61 1.06 Q 94.61 0.71 94.81 0.47 Q 95.00 0.22 95.33 0.22 Q 95.96 0.22 96.46 0.78 Q 96.95 1.33 97.11 2.00 Q 97.14 2.08 97.22 2.08 L 97.38 2.08 Q 97.44 2.08 97.47 2.04 Q 97.50 2.01 97.50 1.96 Q 97.50 1.95 97.49 1.92 Q 97.30 1.12 96.68 0.49 Q 96.07 -0.14 95.30 -0.14 Q 94.81 -0.14 94.41 0.13 Q 94.01 0.40 93.84 0.85 Q 93.63 0.46 93.26 0.16 Q 92.89 -0.14 92.46 -0.14 Q 92.18 -0.14 91.87 -0.03 Q 91.56 0.07 91.37 0.28 Q 91.18 0.49 91.18 0.81 Q 91.18 1.13 91.40 1.39 Q 91.62 1.65 91.95 1.65 Q 92.18 1.65 92.33 1.51 Q 92.48 1.38 92.48 1.16 Q 92.48 0.88 92.29 0.67 Q 92.10 0.46 91.82 0.40 Z M 100.24 -2.39 Q 99.82 -2.39 99.49 -2.19 Q 99.17 -1.99 98.99 -1.64 Q 98.81 -1.30 98.81 -0.89 Q 98.81 -0.45 99.01 0.03 Q 99.21 0.52 99.55 0.92 Q 99.90 1.32 100.33 1.56 Q 100.76 1.79 101.22 1.79 L 103.60 1.79 Q 103.70 1.79 103.77 1.73 Q 103.84 1.66 103.84 1.55 Q 103.84 1.41 103.74 1.31 Q 103.64 1.21 103.50 1.21 L 102.35 1.21 Q 102.62 0.80 102.62 0.22 Q 102.62 -0.25 102.43 -0.71 Q 102.25 -1.17 101.92 -1.55 Q 101.59 -1.94 101.16 -2.16 Q 100.72 -2.39 100.24 -2.39 Z M 100.25 -2.14 Q 100.76 -2.14 101.16 -1.73 Q 101.56 -1.33 101.77 -0.75 Q 101.99 -0.16 101.99 0.34 Q 101.99 0.74 101.76 0.97 Q 101.54 1.21 101.14 1.21 Q 100.59 1.21 100.20 0.84 Q 99.82 0.47 99.63 -0.09 Q 99.43 -0.65 99.43 -1.16 Q 99.43 -1.57 99.65 -1.85 Q 99.86 -2.14 100.25 -2.14 Z M 106.06 -2.42 Q 106.06 -2.36 106.12 -2.31 Q 106.60 -1.84 106.87 -1.22 Q 107.14 -0.61 107.14 0.07 L 107.14 0.23 Q 106.93 0.01 106.60 0.01 Q 106.29 0.01 106.08 0.23 Q 105.86 0.45 105.86 0.76 Q 105.86 1.08 106.08 1.29 Q 106.29 1.50 106.60 1.50 Q 107.09 1.50 107.29 1.05 Q 107.49 0.61 107.49 0.07 Q 107.49 -0.68 107.19 -1.36 Q 106.89 -2.04 106.35 -2.58 Q 106.29 -2.60 106.26 -2.60 Q 106.20 -2.60 106.13 -2.54 Q 106.06 -2.48 106.06 -2.42 Z M 113.36 -0.14 Q 112.76 -0.14 112.29 0.15 Q 111.83 0.44 111.57 0.92 Q 111.32 1.41 111.32 2.00 Q 111.32 2.63 111.60 3.32 Q 111.89 4.01 112.38 4.58 Q 112.87 5.16 113.49 5.49 Q 114.11 5.83 114.76 5.83 L 118.16 5.83 Q 118.30 5.83 118.40 5.74 Q 118.50 5.65 118.50 5.49 Q 118.50 5.29 118.36 5.15 Q 118.22 5.00 118.02 5.00 L 116.37 5.00 Q 116.76 4.42 116.76 3.59 Q 116.76 2.92 116.49 2.25 Q 116.23 1.60 115.76 1.05 Q 115.30 0.51 114.67 0.19 Q 114.05 -0.14 113.36 -0.14 Z M 113.37 0.22 Q 114.11 0.22 114.68 0.80 Q 115.25 1.37 115.55 2.21 Q 115.86 3.04 115.86 3.75 Q 115.86 4.33 115.53 4.67 Q 115.22 5.00 114.64 5.00 Q 113.86 5.00 113.31 4.47 Q 112.76 3.94 112.48 3.15 Q 112.21 2.35 112.21 1.61 Q 112.21 1.03 112.52 0.62 Q 112.82 0.22 113.37 0.22 Z M 119.42 -3.36 Q 119.30 -3.36 119.30 -3.24 Q 119.30 -3.18 119.32 -3.16 Q 121.63 -0.90 121.63 3.39 Q 121.63 7.68 119.35 9.91 Q 119.30 9.94 119.30 10.02 Q 119.30 10.07 119.33 10.10 Q 119.37 10.14 119.42 10.14 L 119.54 10.14 Q 119.58 10.14 119.61 10.11 Q 120.58 9.35 121.22 8.25 Q 121.87 7.16 122.17 5.92 Q 122.47 4.68 122.47 3.39 Q 122.47 2.43 122.31 1.51 Q 122.14 0.58 121.79 -0.32 Q 121.44 -1.22 120.90 -1.98 Q 120.36 -2.74 119.61 -3.33 Q 119.58 -3.36 119.54 -3.36 L 119.42 -3.36 Z M 127.53 3.12 Q 127.42 3.12 127.34 3.20 Q 127.27 3.29 127.27 3.39 Q 127.27 3.49 127.34 3.57 Q 127.42 3.66 127.53 3.66 L 135.27 3.66 Q 135.38 3.66 135.45 3.57 Q 135.52 3.49 135.52 3.39 Q 135.52 3.29 135.45 3.20 Q 135.38 3.12 135.27 3.12 L 127.53 3.12 Z M 143.19 -3.33 Q 142.44 -2.74 141.90 -1.97 Q 141.36 -1.20 141.01 -0.33 Q 140.66 0.54 140.49 1.49 Q 140.32 2.43 140.32 3.39 Q 140.32 4.36 140.49 5.31 Q 140.66 6.26 141.01 7.13 Q 141.37 8.01 141.91 8.78 Q 142.46 9.54 143.19 10.11 Q 143.19 10.14 143.26 10.14 L 143.38 10.14 Q 143.42 10.14 143.46 10.10 Q 143.49 10.07 143.49 10.02 Q 143.49 9.96 143.46 9.94 Q 142.80 9.29 142.37 8.55 Q 141.93 7.81 141.66 6.98 Q 141.39 6.14 141.28 5.25 Q 141.16 4.36 141.16 3.39 Q 141.16 -0.90 143.45 -3.13 Q 143.49 -3.17 143.49 -3.24 Q 143.49 -3.27 143.45 -3.32 Q 143.42 -3.36 143.38 -3.36 L 143.26 -3.36 Q 143.19 -3.36 143.19 -3.33 Z M 144.61 1.42 Q 144.61 1.79 144.77 2.14 Q 144.93 2.49 145.19 2.76 Q 145.45 3.04 145.80 3.26 Q 145.29 3.61 145.29 4.17 Q 145.29 4.77 145.79 5.22 Q 146.29 5.68 147.02 5.90 Q 147.74 6.13 148.32 6.13 Q 148.57 6.13 148.98 6.02 Q 149.39 5.91 149.70 5.74 Q 150.01 5.56 150.01 5.35 Q 150.01 5.19 149.89 5.07 Q 149.77 4.95 149.62 4.95 Q 149.56 4.95 149.32 5.09 Q 149.08 5.23 148.81 5.34 Q 148.54 5.45 148.22 5.45 Q 147.73 5.45 147.14 5.34 Q 146.56 5.22 146.12 4.94 Q 145.68 4.65 145.68 4.19 Q 145.68 3.75 146.18 3.44 Q 146.75 3.70 147.34 3.70 Q 148.40 3.70 148.40 3.32 Q 148.40 3.03 148.03 2.94 Q 147.68 2.86 147.21 2.86 Q 146.57 2.86 146.17 3.05 Q 145.72 2.82 145.37 2.39 Q 145.02 1.96 145.02 1.50 Q 145.02 1.06 145.31 0.82 Q 145.61 0.58 146.03 0.48 Q 146.46 0.39 146.89 0.39 Q 147.64 0.39 148.21 0.55 Q 148.78 0.71 149.04 1.23 Q 149.08 1.31 149.19 1.31 Q 149.34 1.27 149.34 1.13 Q 149.34 1.12 149.30 1.00 Q 149.08 0.58 148.68 0.28 Q 148.28 -0.00 147.79 -0.14 Q 147.30 -0.28 146.79 -0.28 Q 145.95 -0.28 145.28 0.16 Q 144.61 0.61 144.61 1.42 Z M 146.69 3.26 Q 146.93 3.21 147.23 3.21 Q 147.83 3.21 147.97 3.30 Q 147.79 3.35 147.33 3.35 Q 146.99 3.35 146.69 3.26 Z M 154.28 3.12 Q 154.17 3.12 154.10 3.20 Q 154.03 3.29 154.03 3.39 Q 154.03 3.49 154.10 3.57 Q 154.17 3.66 154.28 3.66 L 162.03 3.66 Q 162.14 3.66 162.21 3.57 Q 162.27 3.49 162.27 3.39 Q 162.27 3.29 162.21 3.20 Q 162.14 3.12 162.03 3.12 L 154.28 3.12 Z M 166.82 0.40 Q 167.06 0.22 167.49 0.22 Q 167.91 0.22 168.24 0.62 Q 168.56 1.03 168.68 1.51 L 169.29 3.90 Q 169.44 4.56 169.44 4.79 Q 169.44 5.13 169.25 5.38 Q 169.06 5.63 168.72 5.63 Q 168.30 5.63 167.92 5.36 Q 167.55 5.10 167.29 4.68 Q 167.03 4.27 166.93 3.85 Q 166.90 3.77 166.82 3.77 L 166.66 3.77 Q 166.55 3.77 166.55 3.89 L 166.55 3.93 Q 166.68 4.43 167.00 4.91 Q 167.31 5.39 167.77 5.68 Q 168.23 5.98 168.75 5.98 Q 169.25 5.98 169.64 5.72 Q 170.04 5.45 170.21 5.00 Q 170.44 5.41 170.80 5.70 Q 171.16 5.98 171.58 5.98 Q 171.88 5.98 172.18 5.88 Q 172.48 5.78 172.67 5.56 Q 172.87 5.35 172.87 5.04 Q 172.87 4.70 172.64 4.45 Q 172.42 4.20 172.08 4.20 Q 171.86 4.20 171.72 4.34 Q 171.57 4.48 171.57 4.69 Q 171.57 4.97 171.77 5.18 Q 171.96 5.40 172.23 5.44 Q 171.99 5.63 171.56 5.63 Q 171.12 5.63 170.80 5.23 Q 170.49 4.83 170.35 4.33 L 169.76 1.95 Q 169.61 1.40 169.61 1.06 Q 169.61 0.71 169.81 0.47 Q 170.00 0.22 170.33 0.22 Q 170.96 0.22 171.46 0.78 Q 171.95 1.33 172.11 2.00 Q 172.14 2.08 172.22 2.08 L 172.38 2.08 Q 172.44 2.08 172.47 2.04 Q 172.50 2.01 172.50 1.96 Q 172.50 1.95 172.49 1.92 Q 172.30 1.12 171.68 0.49 Q 171.07 -0.14 170.30 -0.14 Q 169.81 -0.14 169.41 0.13 Q 169.01 0.40 168.84 0.85 Q 168.63 0.46 168.26 0.16 Q 167.89 -0.14 167.47 -0.14 Q 167.18 -0.14 166.87 -0.03 Q 166.56 0.07 166.37 0.28 Q 166.18 0.49 166.18 0.81 Q 166.18 1.13 166.40 1.39 Q 166.62 1.65 166.95 1.65 Q 167.18 1.65 167.33 1.51 Q 167.48 1.38 167.48 1.16 Q 167.48 0.88 167.29 0.67 Q 167.10 0.46 166.82 0.40 Z M 175.83 -2.49 Q 174.68 -2.49 174.26 -1.54 Q 173.84 -0.58 173.84 0.73 Q 173.84 1.55 173.99 2.28 Q 174.14 3.00 174.58 3.51 Q 175.03 4.01 175.83 4.01 Q 176.46 4.01 176.85 3.71 Q 177.25 3.40 177.46 2.92 Q 177.67 2.44 177.74 1.89 Q 177.82 1.34 177.82 0.73 Q 177.82 -0.08 177.67 -0.79 Q 177.52 -1.50 177.08 -1.99 Q 176.64 -2.49 175.83 -2.49 Z M 175.83 -2.24 Q 176.36 -2.24 176.62 -1.71 Q 176.88 -1.16 176.94 -0.51 Q 177.00 0.15 177.00 0.88 Q 177.00 1.59 176.94 2.19 Q 176.88 2.80 176.62 3.28 Q 176.36 3.77 175.83 3.77 Q 175.30 3.77 175.04 3.28 Q 174.78 2.79 174.72 2.19 Q 174.66 1.59 174.66 0.88 Q 174.66 0.36 174.69 -0.11 Q 174.71 -0.57 174.82 -1.07 Q 174.93 -1.57 175.18 -1.91 Q 175.43 -2.24 175.83 -2.24 Z M 179.93 -3.36 Q 179.81 -3.36 179.81 -3.24 Q 179.81 -3.18 179.84 -3.16 Q 182.15 -0.90 182.15 3.39 Q 182.15 7.68 179.87 9.91 Q 179.81 9.94 179.81 10.02 Q 179.81 10.07 179.85 10.10 Q 179.89 10.14 179.93 10.14 L 180.06 10.14 Q 180.10 10.14 180.12 10.11 Q 181.09 9.35 181.74 8.25 Q 182.39 7.16 182.68 5.92 Q 182.99 4.68 182.99 3.39 Q 182.99 2.43 182.82 1.51 Q 182.66 0.58 182.31 -0.32 Q 181.96 -1.22 181.42 -1.98 Q 180.88 -2.74 180.12 -3.33 Q 180.10 -3.36 180.06 -3.36 L 179.93 -3.36 Z M 186.09 -3.12 L 186.09 9.90 Q 186.09 10.00 186.17 10.07 Q 186.26 10.14 186.36 10.14 Q 186.47 10.14 186.55 10.07 Q 186.63 10.00 186.63 9.90 L 186.63 -3.12 Q 186.63 -3.22 186.55 -3.29 Q 186.47 -3.36 186.36 -3.36 Q 186.26 -3.36 186.17 -3.29 Q 186.09 -3.22 186.09 -3.12 Z M 188.71 -3.12 L 188.71 9.90 Q 188.71 10.00 188.79 10.07 Q 188.87 10.14 188.98 10.14 Q 189.08 10.14 189.17 10.07 Q 189.25 10.00 189.25 9.90 L 189.25 -3.12 Q 189.25 -3.22 189.17 -3.29 Q 189.08 -3.36 188.98 -3.36 Q 188.87 -3.36 188.79 -3.29 Q 188.71 -3.22 188.71 -3.12 Z M 192.12 5.18 L 192.12 5.43 Q 192.12 5.46 192.14 5.48 L 193.61 7.11 Q 193.94 7.47 194.15 7.71 Q 194.35 7.96 194.56 8.28 Q 194.76 8.60 194.88 8.92 Q 195.00 9.25 195.00 9.62 Q 195.00 10.01 194.85 10.36 Q 194.71 10.72 194.43 10.93 Q 194.14 11.14 193.74 11.14 Q 193.33 11.14 193.00 10.89 Q 192.67 10.65 192.54 10.26 Q 192.58 10.27 192.64 10.27 Q 192.85 10.27 193.00 10.12 Q 193.15 9.98 193.15 9.75 Q 193.15 9.54 193.00 9.39 Q 192.85 9.24 192.64 9.24 Q 192.42 9.24 192.27 9.39 Q 192.12 9.55 192.12 9.75 Q 192.12 10.11 192.25 10.42 Q 192.39 10.73 192.64 10.97 Q 192.89 11.22 193.21 11.35 Q 193.52 11.48 193.88 11.48 Q 194.42 11.48 194.88 11.25 Q 195.35 11.02 195.62 10.60 Q 195.90 10.18 195.90 9.62 Q 195.90 9.21 195.71 8.84 Q 195.53 8.47 195.25 8.17 Q 194.97 7.87 194.53 7.49 Q 194.10 7.10 193.96 6.98 L 192.89 5.95 L 193.80 5.95 Q 194.46 5.95 194.91 5.96 Q 195.36 5.97 195.39 5.99 Q 195.50 6.11 195.62 6.87 L 195.90 6.87 L 195.63 5.18 L 192.12 5.18 Z" fill="#0F172A"/></g><text x="518.1" y="159.6" font-family="Helvetica Neue, Helvetica, Arial, sans-serif" font-size="10.5px" fill="#475569" text-anchor="start">σ sampling is the main tuning knob: uniform is the baseline; logit-normal</text><text x="518.1" y="174.1" font-family="Helvetica Neue, Helvetica, Arial, sans-serif" font-size="10.5px" fill="#475569" text-anchor="start">(SD3) concentrates training where the task is hardest — mid noise. The σ</text><text x="518.1" y="188.6" font-family="Helvetica Neue, Helvetica, Arial, sans-serif" font-size="10.5px" fill="#475569" text-anchor="start">also conditions the net (AdaLN / time embedding).</text><text x="512.5" y="214.5" font-family="Helvetica Neue, Helvetica, Arial, sans-serif" font-size="10.0px" fill="#94A3B8" text-anchor="start">relation to diffusion: DDPM's ε-prediction, x₀-prediction and v-prediction are the</text><text x="512.5" y="228.3" font-family="Helvetica Neue, Helvetica, Arial, sans-serif" font-size="10.0px" fill="#94A3B8" text-anchor="start">same regression with different output parameterizations and σ-weightings —</text><text x="512.5" y="242.1" font-family="Helvetica Neue, Helvetica, Arial, sans-serif" font-size="10.0px" fill="#94A3B8" text-anchor="start">rectified flow picks the straight path + velocity target.</text><rect x="289.9" y="332.9" width="26.4" height="22.0" rx="11.0" fill="#F1F5F9" stroke="#94A3B8" stroke-width="1.1"/><text x="303.1" y="347.5" font-family="SF Mono, Menlo, Consolas, monospace" font-size="10.0px" fill="#334155" text-anchor="middle">ε</text><rect x="350.3" y="328.9" width="136.0" height="30.0" rx="7" fill="#F1F5F9" stroke="#475569" stroke-width="1.3"/><text x="418.3" y="348.4" font-family="Helvetica Neue, Helvetica, Arial, sans-serif" font-size="12.5px" fill="#0F172A" text-anchor="middle" font-weight="500">v_θ(x, σ)</text><circle cx="529.8" cy="343.9" r="9.5" fill="#FFFFFF" stroke="#475569" stroke-width="1.3"/><line x1="525.2" y1="343.9" x2="534.4" y2="343.9" stroke="#475569" stroke-width="1.5" stroke-linecap="butt" /><line x1="529.8" y1="339.4" x2="529.8" y2="348.5" stroke="#475569" stroke-width="1.5" stroke-linecap="butt" /><rect x="573.3" y="332.9" width="103.8" height="22.0" rx="11.0" fill="#E0F2FE" stroke="#0284C7" stroke-width="1.1"/><text x="625.2" y="347.5" font-family="SF Mono, Menlo, Consolas, monospace" font-size="10.0px" fill="#0C4A6E" text-anchor="middle">x₀ (generated)</text><g transform="translate(391.45,382.70) scale(1,-1)"><path d="M 1.02 0.37 Q 1.25 0.20 1.66 0.20 Q 2.07 0.20 2.38 0.59 Q 2.69 0.98 2.81 1.44 L 3.40 3.75 Q 3.54 4.37 3.54 4.60 Q 3.54 4.93 3.36 5.17 Q 3.17 5.41 2.85 5.41 Q 2.44 5.41 2.08 5.15 Q 1.71 4.89 1.47 4.50 Q 1.22 4.10 1.12 3.69 Q 1.09 3.61 1.02 3.61 L 0.86 3.61 Q 0.76 3.61 0.76 3.73 L 0.76 3.77 Q 0.88 4.25 1.19 4.71 Q 1.49 5.17 1.93 5.46 Q 2.37 5.74 2.88 5.74 Q 3.35 5.74 3.74 5.49 Q 4.12 5.24 4.28 4.80 Q 4.50 5.20 4.85 5.47 Q 5.19 5.74 5.60 5.74 Q 5.88 5.74 6.17 5.64 Q 6.47 5.55 6.65 5.34 Q 6.84 5.14 6.84 4.84 Q 6.84 4.51 6.62 4.27 Q 6.41 4.03 6.08 4.03 Q 5.87 4.03 5.73 4.16 Q 5.59 4.30 5.59 4.50 Q 5.59 4.77 5.78 4.98 Q 5.97 5.19 6.23 5.22 Q 5.99 5.41 5.58 5.41 Q 5.16 5.41 4.85 5.02 Q 4.55 4.63 4.42 4.16 L 3.85 1.86 Q 3.71 1.34 3.71 1.00 Q 3.71 0.67 3.89 0.43 Q 4.08 0.20 4.39 0.20 Q 5.00 0.20 5.48 0.73 Q 5.96 1.27 6.11 1.91 Q 6.14 1.99 6.21 1.99 L 6.37 1.99 Q 6.42 1.99 6.46 1.95 Q 6.49 1.92 6.49 1.87 Q 6.49 1.86 6.48 1.83 Q 6.29 1.06 5.70 0.46 Q 5.11 -0.15 4.37 -0.15 Q 3.89 -0.15 3.51 0.11 Q 3.12 0.37 2.96 0.81 Q 2.76 0.42 2.40 0.14 Q 2.04 -0.15 1.64 -0.15 Q 1.36 -0.15 1.06 -0.05 Q 0.77 0.05 0.58 0.25 Q 0.40 0.46 0.40 0.77 Q 0.40 1.07 0.61 1.32 Q 0.82 1.57 1.14 1.57 Q 1.36 1.57 1.51 1.44 Q 1.65 1.31 1.65 1.10 Q 1.65 0.83 1.47 0.63 Q 1.29 0.42 1.02 0.37 Z M 13.20 -0.03 Q 13.11 0.51 12.87 1.00 Q 12.64 1.50 12.29 1.91 Q 11.94 2.32 11.50 2.63 Q 11.06 2.95 10.53 3.12 Q 10.43 3.14 10.43 3.25 Q 10.43 3.35 10.53 3.40 Q 11.06 3.58 11.50 3.88 Q 11.94 4.18 12.29 4.59 Q 12.64 5.01 12.87 5.50 Q 13.11 6.00 13.20 6.53 Q 13.23 6.65 13.33 6.65 L 13.59 6.65 Q 13.72 6.65 13.72 6.48 Q 13.57 5.61 13.08 4.83 Q 12.59 4.05 11.85 3.51 L 21.71 3.51 Q 21.82 3.51 21.89 3.43 Q 21.96 3.35 21.96 3.25 Q 21.96 3.15 21.89 3.07 Q 21.82 2.99 21.71 2.99 L 11.85 2.99 Q 12.58 2.47 13.08 1.68 Q 13.57 0.89 13.72 0.03 Q 13.72 -0.15 13.59 -0.15 L 13.33 -0.15 Q 13.23 -0.15 13.20 -0.03 Z M 26.00 0.37 Q 26.23 0.20 26.65 0.20 Q 27.06 0.20 27.37 0.59 Q 27.68 0.98 27.79 1.44 L 28.38 3.75 Q 28.52 4.37 28.52 4.60 Q 28.52 4.93 28.34 5.17 Q 28.16 5.41 27.84 5.41 Q 27.42 5.41 27.06 5.15 Q 26.70 4.89 26.45 4.50 Q 26.20 4.10 26.10 3.69 Q 26.08 3.61 26.00 3.61 L 25.84 3.61 Q 25.74 3.61 25.74 3.73 L 25.74 3.77 Q 25.87 4.25 26.17 4.71 Q 26.48 5.17 26.92 5.46 Q 27.36 5.74 27.86 5.74 Q 28.34 5.74 28.72 5.49 Q 29.11 5.24 29.26 4.80 Q 29.49 5.20 29.83 5.47 Q 30.18 5.74 30.59 5.74 Q 30.87 5.74 31.16 5.64 Q 31.45 5.55 31.64 5.34 Q 31.82 5.14 31.82 4.84 Q 31.82 4.51 31.61 4.27 Q 31.40 4.03 31.07 4.03 Q 30.86 4.03 30.72 4.16 Q 30.58 4.30 30.58 4.50 Q 30.58 4.77 30.76 4.98 Q 30.95 5.19 31.21 5.22 Q 30.98 5.41 30.57 5.41 Q 30.15 5.41 29.84 5.02 Q 29.53 4.63 29.40 4.16 L 28.83 1.86 Q 28.69 1.34 28.69 1.00 Q 28.69 0.67 28.88 0.43 Q 29.07 0.20 29.38 0.20 Q 29.99 0.20 30.47 0.73 Q 30.95 1.27 31.10 1.91 Q 31.12 1.99 31.20 1.99 L 31.36 1.99 Q 31.41 1.99 31.44 1.95 Q 31.47 1.92 31.47 1.87 Q 31.47 1.86 31.46 1.83 Q 31.28 1.06 30.69 0.46 Q 30.10 -0.15 29.35 -0.15 Q 28.88 -0.15 28.49 0.11 Q 28.11 0.37 27.95 0.81 Q 27.75 0.42 27.39 0.14 Q 27.03 -0.15 26.62 -0.15 Q 26.34 -0.15 26.05 -0.05 Q 25.75 0.05 25.57 0.25 Q 25.39 0.46 25.39 0.77 Q 25.39 1.07 25.60 1.32 Q 25.81 1.57 26.13 1.57 Q 26.34 1.57 26.49 1.44 Q 26.64 1.31 26.64 1.10 Q 26.64 0.83 26.45 0.63 Q 26.27 0.42 26.00 0.37 Z M 35.67 2.99 Q 35.56 2.99 35.49 3.07 Q 35.42 3.15 35.42 3.25 Q 35.42 3.35 35.49 3.43 Q 35.56 3.51 35.67 3.51 L 39.49 3.51 L 39.49 7.35 Q 39.49 7.45 39.56 7.51 Q 39.64 7.58 39.75 7.58 Q 39.84 7.58 39.93 7.51 Q 40.01 7.45 40.01 7.35 L 40.01 3.51 L 43.83 3.51 Q 43.92 3.51 43.99 3.43 Q 44.06 3.35 44.06 3.25 Q 44.06 3.15 43.99 3.07 Q 43.92 2.99 43.83 2.99 L 40.01 2.99 L 40.01 -0.84 Q 40.01 -0.95 39.93 -1.01 Q 39.84 -1.08 39.75 -1.08 Q 39.64 -1.08 39.56 -1.01 Q 39.49 -0.95 39.49 -0.84 L 39.49 2.99 L 35.67 2.99 Z M 48.46 1.47 Q 48.46 1.76 48.53 2.11 Q 48.60 2.46 48.67 2.68 Q 48.74 2.91 48.99 3.56 Q 49.24 4.21 49.24 4.24 Q 49.41 4.72 49.41 5.02 Q 49.41 5.41 49.13 5.41 Q 48.61 5.41 48.28 4.88 Q 47.95 4.35 47.79 3.69 Q 47.76 3.61 47.68 3.61 L 47.53 3.61 Q 47.42 3.61 47.42 3.73 L 47.42 3.77 Q 47.63 4.55 48.06 5.15 Q 48.49 5.74 49.15 5.74 Q 49.62 5.74 49.94 5.44 Q 50.26 5.13 50.26 4.67 Q 50.26 4.42 50.15 4.16 Q 49.90 3.50 49.75 3.10 Q 49.60 2.70 49.48 2.21 Q 49.36 1.72 49.36 1.30 Q 49.36 0.81 49.58 0.50 Q 49.81 0.20 50.28 0.20 Q 51.18 0.20 51.91 1.59 Q 52.14 2.04 52.34 2.65 Q 52.54 3.26 52.54 3.64 Q 52.54 4.03 52.41 4.25 Q 52.29 4.47 52.09 4.71 Q 51.88 4.94 51.88 5.08 Q 51.88 5.34 52.09 5.55 Q 52.30 5.76 52.55 5.76 Q 52.87 5.76 53.00 5.47 Q 53.14 5.19 53.14 4.82 Q 53.14 4.39 53.02 3.80 Q 52.89 3.20 52.67 2.56 Q 52.45 1.92 52.27 1.55 Q 51.41 -0.15 50.27 -0.15 Q 49.45 -0.15 48.96 0.26 Q 48.46 0.67 48.46 1.47 Z M 54.83 -2.31 Q 54.41 -2.31 54.17 -2.01 Q 53.92 -1.71 53.82 -1.28 Q 53.72 -0.86 53.72 -0.44 L 53.72 -0.43 Q 53.72 0.02 53.81 0.51 Q 53.90 1.00 54.06 1.49 Q 54.23 1.98 54.42 2.36 Q 54.55 2.62 54.76 2.95 Q 54.97 3.28 55.23 3.57 Q 55.49 3.85 55.79 4.03 Q 56.09 4.21 56.40 4.21 L 56.41 4.21 Q 56.74 4.21 56.96 4.02 Q 57.18 3.84 57.30 3.56 Q 57.42 3.27 57.47 2.95 Q 57.52 2.62 57.52 2.33 Q 57.52 1.64 57.33 0.92 Q 57.15 0.21 56.82 -0.46 Q 56.69 -0.72 56.47 -1.06 Q 56.25 -1.40 56.01 -1.67 Q 55.76 -1.94 55.45 -2.13 Q 55.15 -2.31 54.84 -2.31 L 54.83 -2.31 Z M 54.85 -2.07 Q 55.15 -2.07 55.42 -1.75 Q 55.70 -1.43 55.91 -0.97 Q 56.12 -0.51 56.28 -0.03 Q 56.44 0.46 56.51 0.79 L 54.65 0.79 Q 54.51 0.22 54.43 -0.20 Q 54.35 -0.61 54.35 -1.01 Q 54.35 -2.07 54.85 -2.07 Z M 54.72 1.11 L 56.59 1.11 Q 56.69 1.51 56.75 1.78 Q 56.80 2.05 56.84 2.35 Q 56.88 2.65 56.88 2.90 Q 56.88 3.97 56.40 3.97 Q 55.82 3.97 55.40 3.04 Q 54.98 2.11 54.72 1.11 Z M 62.49 -3.23 Q 61.77 -2.65 61.24 -1.91 Q 60.72 -1.17 60.39 -0.34 Q 60.05 0.50 59.89 1.42 Q 59.72 2.33 59.72 3.25 Q 59.72 4.18 59.89 5.10 Q 60.05 6.01 60.39 6.86 Q 60.73 7.70 61.26 8.44 Q 61.79 9.17 62.49 9.73 Q 62.49 9.75 62.56 9.75 L 62.67 9.75 Q 62.71 9.75 62.74 9.72 Q 62.78 9.68 62.78 9.64 Q 62.78 9.58 62.75 9.55 Q 62.12 8.93 61.69 8.22 Q 61.27 7.51 61.01 6.71 Q 60.76 5.90 60.64 5.04 Q 60.53 4.18 60.53 3.25 Q 60.53 -0.88 62.74 -3.03 Q 62.78 -3.07 62.78 -3.14 Q 62.78 -3.17 62.74 -3.21 Q 62.71 -3.25 62.67 -3.25 L 62.56 -3.25 Q 62.49 -3.25 62.49 -3.23 Z M 64.52 0.37 Q 64.75 0.20 65.17 0.20 Q 65.58 0.20 65.89 0.59 Q 66.20 0.98 66.31 1.44 L 66.90 3.75 Q 67.04 4.37 67.04 4.60 Q 67.04 4.93 66.86 5.17 Q 66.68 5.41 66.36 5.41 Q 65.94 5.41 65.58 5.15 Q 65.22 4.89 64.97 4.50 Q 64.73 4.10 64.62 3.69 Q 64.60 3.61 64.52 3.61 L 64.36 3.61 Q 64.26 3.61 64.26 3.73 L 64.26 3.77 Q 64.39 4.25 64.69 4.71 Q 65.00 5.17 65.44 5.46 Q 65.88 5.74 66.38 5.74 Q 66.86 5.74 67.24 5.49 Q 67.63 5.24 67.78 4.80 Q 68.01 5.20 68.35 5.47 Q 68.70 5.74 69.11 5.74 Q 69.39 5.74 69.68 5.64 Q 69.97 5.55 70.16 5.34 Q 70.34 5.14 70.34 4.84 Q 70.34 4.51 70.13 4.27 Q 69.92 4.03 69.59 4.03 Q 69.38 4.03 69.24 4.16 Q 69.10 4.30 69.10 4.50 Q 69.10 4.77 69.29 4.98 Q 69.47 5.19 69.73 5.22 Q 69.50 5.41 69.09 5.41 Q 68.67 5.41 68.36 5.02 Q 68.05 4.63 67.92 4.16 L 67.35 1.86 Q 67.21 1.34 67.21 1.00 Q 67.21 0.67 67.40 0.43 Q 67.59 0.20 67.90 0.20 Q 68.51 0.20 68.99 0.73 Q 69.47 1.27 69.62 1.91 Q 69.64 1.99 69.72 1.99 L 69.88 1.99 Q 69.93 1.99 69.96 1.95 Q 69.99 1.92 69.99 1.87 Q 69.99 1.86 69.98 1.83 Q 69.80 1.06 69.21 0.46 Q 68.62 -0.15 67.87 -0.15 Q 67.40 -0.15 67.01 0.11 Q 66.63 0.37 66.47 0.81 Q 66.27 0.42 65.91 0.14 Q 65.55 -0.15 65.14 -0.15 Q 64.87 -0.15 64.57 -0.05 Q 64.27 0.05 64.09 0.25 Q 63.91 0.46 63.91 0.77 Q 63.91 1.07 64.12 1.32 Q 64.33 1.57 64.65 1.57 Q 64.87 1.57 65.01 1.44 Q 65.16 1.31 65.16 1.10 Q 65.16 0.83 64.98 0.63 Q 64.79 0.42 64.52 0.37 Z M 72.21 -2.34 Q 72.21 -2.29 72.27 -2.23 Q 72.74 -1.78 73.00 -1.19 Q 73.26 -0.60 73.26 0.05 L 73.26 0.21 Q 73.05 0.00 72.74 0.00 Q 72.44 0.00 72.23 0.21 Q 72.02 0.42 72.02 0.72 Q 72.02 1.02 72.23 1.22 Q 72.44 1.43 72.74 1.43 Q 73.20 1.43 73.40 1.00 Q 73.59 0.57 73.59 0.05 Q 73.59 -0.67 73.30 -1.32 Q 73.01 -1.97 72.49 -2.49 Q 72.44 -2.52 72.41 -2.52 Q 72.34 -2.52 72.28 -2.46 Q 72.21 -2.41 72.21 -2.34 Z M 79.24 -0.15 Q 78.66 -0.15 78.21 0.13 Q 77.77 0.41 77.52 0.88 Q 77.28 1.35 77.28 1.91 Q 77.28 2.51 77.55 3.18 Q 77.82 3.85 78.30 4.40 Q 78.77 4.95 79.37 5.28 Q 79.96 5.60 80.59 5.60 L 83.87 5.60 Q 84.00 5.60 84.09 5.51 Q 84.19 5.43 84.19 5.28 Q 84.19 5.08 84.05 4.94 Q 83.92 4.80 83.73 4.80 L 82.14 4.80 Q 82.51 4.24 82.51 3.45 Q 82.51 2.79 82.26 2.16 Q 82.01 1.52 81.56 1.00 Q 81.11 0.48 80.51 0.16 Q 79.91 -0.15 79.24 -0.15 Z M 79.25 0.20 Q 79.96 0.20 80.51 0.75 Q 81.06 1.31 81.35 2.11 Q 81.65 2.91 81.65 3.60 Q 81.65 4.16 81.34 4.48 Q 81.03 4.80 80.48 4.80 Q 79.72 4.80 79.19 4.29 Q 78.66 3.78 78.40 3.01 Q 78.14 2.25 78.14 1.54 Q 78.14 0.98 78.43 0.59 Q 78.73 0.20 79.25 0.20 Z M 85.07 -3.25 Q 84.96 -3.25 84.96 -3.14 Q 84.96 -3.08 84.98 -3.05 Q 87.21 -0.88 87.21 3.25 Q 87.21 7.38 85.01 9.53 Q 84.96 9.56 84.96 9.64 Q 84.96 9.68 84.99 9.72 Q 85.03 9.75 85.07 9.75 L 85.19 9.75 Q 85.23 9.75 85.26 9.73 Q 86.19 8.99 86.81 7.93 Q 87.43 6.88 87.72 5.69 Q 88.01 4.50 88.01 3.25 Q 88.01 2.33 87.86 1.44 Q 87.70 0.55 87.36 -0.32 Q 87.02 -1.19 86.50 -1.92 Q 85.98 -2.65 85.26 -3.23 Q 85.23 -3.25 85.19 -3.25 L 85.07 -3.25 Z M 91.88 0.00 Q 91.77 0.00 91.77 0.10 Q 91.78 0.11 91.78 0.12 Q 91.79 0.13 91.79 0.15 L 96.26 9.17 Q 96.32 9.31 96.50 9.31 L 96.67 9.31 Q 96.85 9.31 96.91 9.17 L 101.38 0.15 Q 101.39 0.13 101.39 0.12 Q 101.40 0.11 101.40 0.10 Q 101.40 0.00 101.29 0.00 L 91.88 0.00 Z M 92.74 1.04 L 99.59 1.04 L 96.17 7.94 L 92.74 1.04 Z M 104.44 -0.15 Q 103.86 -0.15 103.41 0.13 Q 102.97 0.41 102.72 0.88 Q 102.48 1.35 102.48 1.91 Q 102.48 2.51 102.75 3.18 Q 103.02 3.85 103.50 4.40 Q 103.97 4.95 104.56 5.28 Q 105.16 5.60 105.79 5.60 L 109.07 5.60 Q 109.20 5.60 109.29 5.51 Q 109.39 5.43 109.39 5.28 Q 109.39 5.08 109.25 4.94 Q 109.12 4.80 108.93 4.80 L 107.34 4.80 Q 107.71 4.24 107.71 3.45 Q 107.71 2.79 107.46 2.16 Q 107.20 1.52 106.75 1.00 Q 106.30 0.48 105.70 0.16 Q 105.10 -0.15 104.44 -0.15 Z M 104.45 0.20 Q 105.16 0.20 105.71 0.75 Q 106.26 1.31 106.55 2.11 Q 106.84 2.91 106.84 3.60 Q 106.84 4.16 106.53 4.48 Q 106.23 4.80 105.68 4.80 Q 104.92 4.80 104.39 4.29 Q 103.86 3.78 103.60 3.01 Q 103.33 2.25 103.33 1.54 Q 103.33 0.98 103.63 0.59 Q 103.92 0.20 104.45 0.20 Z M 110.71 -2.34 Q 110.71 -2.29 110.77 -2.23 Q 111.24 -1.78 111.50 -1.19 Q 111.76 -0.60 111.76 0.05 L 111.76 0.21 Q 111.55 0.00 111.24 0.00 Q 110.94 0.00 110.73 0.21 Q 110.52 0.42 110.52 0.72 Q 110.52 1.02 110.73 1.22 Q 110.94 1.43 111.24 1.43 Q 111.70 1.43 111.90 1.00 Q 112.09 0.57 112.09 0.05 Q 112.09 -0.67 111.80 -1.32 Q 111.52 -1.97 110.99 -2.49 Q 110.94 -2.52 110.91 -2.52 Q 110.84 -2.52 110.78 -2.46 Q 110.71 -2.41 110.71 -2.34 Z M 140.57 -0.15 Q 139.99 -0.15 139.54 0.13 Q 139.09 0.41 138.85 0.88 Q 138.60 1.35 138.60 1.91 Q 138.60 2.51 138.88 3.18 Q 139.15 3.85 139.62 4.40 Q 140.10 4.95 140.69 5.28 Q 141.29 5.60 141.92 5.60 L 145.19 5.60 Q 145.33 5.60 145.42 5.51 Q 145.52 5.43 145.52 5.28 Q 145.52 5.08 145.38 4.94 Q 145.24 4.80 145.05 4.80 L 143.47 4.80 Q 143.84 4.24 143.84 3.45 Q 143.84 2.79 143.59 2.16 Q 143.33 1.52 142.88 1.00 Q 142.43 0.48 141.83 0.16 Q 141.23 -0.15 140.57 -0.15 Z M 140.58 0.20 Q 141.29 0.20 141.84 0.75 Q 142.39 1.31 142.68 2.11 Q 142.97 2.91 142.97 3.60 Q 142.97 4.16 142.66 4.48 Q 142.36 4.80 141.80 4.80 Q 141.05 4.80 140.52 4.29 Q 139.99 3.78 139.73 3.01 Q 139.46 2.25 139.46 1.54 Q 139.46 0.98 139.76 0.59 Q 140.05 0.20 140.58 0.20 Z M 148.93 0.72 Q 148.93 1.01 149.15 1.22 Q 149.36 1.43 149.65 1.43 Q 149.82 1.43 150.00 1.33 Q 150.17 1.24 150.26 1.07 Q 150.36 0.90 150.36 0.72 Q 150.36 0.43 150.15 0.22 Q 149.94 0.00 149.65 0.00 Q 149.36 0.00 149.15 0.22 Q 148.93 0.43 148.93 0.72 Z M 148.93 4.89 Q 148.93 5.07 149.02 5.24 Q 149.12 5.40 149.29 5.50 Q 149.46 5.60 149.65 5.60 Q 149.83 5.60 150.00 5.50 Q 150.17 5.40 150.26 5.24 Q 150.36 5.07 150.36 4.89 Q 150.36 4.60 150.15 4.38 Q 149.95 4.17 149.65 4.17 Q 149.36 4.17 149.14 4.38 Q 148.93 4.60 148.93 4.89 Z M 154.93 0.00 L 154.93 0.46 Q 156.55 0.46 156.55 0.87 L 156.55 7.69 Q 155.88 7.37 154.85 7.37 L 154.85 7.83 Q 156.44 7.83 157.26 8.66 L 157.44 8.66 Q 157.48 8.66 157.52 8.62 Q 157.57 8.59 157.57 8.54 L 157.57 0.87 Q 157.57 0.46 159.19 0.46 L 159.19 0.00 L 154.93 0.00 Z M 163.48 2.99 Q 163.37 2.99 163.30 3.07 Q 163.23 3.15 163.23 3.25 Q 163.23 3.35 163.30 3.43 Q 163.37 3.51 163.48 3.51 L 173.35 3.51 Q 172.85 3.87 172.47 4.33 Q 172.09 4.80 171.83 5.34 Q 171.58 5.87 171.47 6.48 Q 171.47 6.65 171.60 6.65 L 171.86 6.65 Q 171.91 6.65 171.94 6.61 Q 171.98 6.57 171.99 6.53 Q 172.10 5.97 172.33 5.49 Q 172.56 5.01 172.91 4.59 Q 173.26 4.18 173.69 3.88 Q 174.13 3.59 174.67 3.40 Q 174.76 3.34 174.76 3.25 Q 174.76 3.15 174.67 3.12 Q 173.99 2.89 173.43 2.42 Q 172.86 1.96 172.49 1.32 Q 172.13 0.69 171.99 -0.03 Q 171.98 -0.07 171.94 -0.11 Q 171.90 -0.15 171.86 -0.15 L 171.60 -0.15 Q 171.47 -0.15 171.47 0.03 Q 171.64 0.91 172.13 1.70 Q 172.63 2.48 173.35 2.99 L 163.48 2.99 Z M 181.04 -0.29 Q 179.44 -0.29 178.87 1.02 Q 178.29 2.34 178.29 4.15 Q 178.29 5.28 178.50 6.27 Q 178.71 7.27 179.32 7.96 Q 179.93 8.66 181.04 8.66 Q 181.89 8.66 182.44 8.24 Q 182.98 7.82 183.27 7.16 Q 183.56 6.49 183.66 5.73 Q 183.77 4.98 183.77 4.15 Q 183.77 3.03 183.56 2.05 Q 183.35 1.08 182.75 0.40 Q 182.15 -0.29 181.04 -0.29 Z M 181.04 0.05 Q 181.76 0.05 182.11 0.79 Q 182.47 1.54 182.55 2.44 Q 182.64 3.34 182.64 4.36 Q 182.64 5.33 182.55 6.16 Q 182.47 6.98 182.12 7.65 Q 181.76 8.32 181.04 8.32 Q 180.30 8.32 179.94 7.65 Q 179.59 6.98 179.51 6.15 Q 179.42 5.33 179.42 4.36 Q 179.42 3.63 179.46 2.99 Q 179.49 2.35 179.65 1.67 Q 179.80 0.98 180.14 0.52 Q 180.48 0.05 181.04 0.05 Z" fill="#0F172A"/></g><text x="286.3" y="410.4" font-family="Helvetica Neue, Helvetica, Arial, sans-serif" font-size="10.5px" fill="#475569" text-anchor="start">Euler steps along the learned field. Because the target path is straight, few</text><text x="286.3" y="424.9" font-family="Helvetica Neue, Helvetica, Arial, sans-serif" font-size="10.5px" fill="#475569" text-anchor="start">steps go far (4-30 typical; distilled models: 1-4). Same loop powers image,</text><text x="286.3" y="439.4" font-family="Helvetica Neue, Helvetica, Arial, sans-serif" font-size="10.5px" fill="#475569" text-anchor="start">video and action-chunk generation.</text><rect x="40.0" y="20.0" width="13.0" height="13.0" rx="3.5" fill="#E0F2FE" stroke="#0284C7" stroke-width="1.1"/><text x="59.0" y="30.3" font-family="Helvetica Neue, Helvetica, Arial, sans-serif" font-size="10.5px" fill="#475569" text-anchor="start">data</text><rect x="97.1" y="20.0" width="13.0" height="13.0" rx="3.5" fill="url(#hatch-F1F5F9-94A3B8)" stroke="#94A3B8" stroke-width="1.1"/><text x="116.1" y="30.3" font-family="Helvetica Neue, Helvetica, Arial, sans-serif" font-size="10.5px" fill="#475569" text-anchor="start">noised (hatched)</text><rect x="219.1" y="20.0" width="13.0" height="13.0" rx="3.5" fill="#F1F5F9" stroke="#475569" stroke-width="1.1"/><text x="238.1" y="30.3" font-family="Helvetica Neue, Helvetica, Arial, sans-serif" font-size="10.5px" fill="#475569" text-anchor="start">network</text></g><g id="labels"><text x="333.3" y="337.9" font-family="SF Mono, Menlo, Consolas, monospace" font-size="9.5px" fill="#475569" text-anchor="middle" paint-order="stroke" stroke="#FFFFFF" stroke-width="3px">σ=1</text><text x="503.3" y="337.9" font-family="SF Mono, Menlo, Consolas, monospace" font-size="9.5px" fill="#475569" text-anchor="middle" paint-order="stroke" stroke="#FFFFFF" stroke-width="3px">v·Δσ</text><text x="556.3" y="337.9" font-family="SF Mono, Menlo, Consolas, monospace" font-size="9.5px" fill="#475569" text-anchor="middle" paint-order="stroke" stroke="#FFFFFF" stroke-width="3px">… ×N steps</text><text x="40.0" y="3.8" font-family="Helvetica Neue, Helvetica, Arial, sans-serif" font-size="11.5px" fill="#475569" text-anchor="start">One straight path between data and noise; the network learns its constant velocity. The recipe behind SD3, FLUX and Wan.</text><text x="40.0" y="-12.9" font-family="Helvetica Neue, Helvetica, Arial, sans-serif" font-size="17px" fill="#0F172A" text-anchor="start" font-weight="600">Flow matching (rectified flow) — train &amp; sample</text></g></svg>