<svg xmlns="http://www.w3.org/2000/svg" viewBox="126.1 -6.6 525.5 388.6" width="526" height="389"><defs><marker id="arr-334155" viewBox="0 0 10 10" refX="8.5" refY="5" markerWidth="6.5" markerHeight="6.5" orient="auto-start-reverse"><path d="M0.5,1 L9,5 L0.5,9 Z" fill="#334155"/></marker><marker id="arr-94A3B8" viewBox="0 0 10 10" refX="8.5" refY="5" markerWidth="6.5" markerHeight="6.5" orient="auto-start-reverse"><path d="M0.5,1 L9,5 L0.5,9 Z" fill="#94A3B8"/></marker></defs><rect x="126.1" y="-6.6" width="525.5" height="388.6" fill="#FFFFFF"/><g id="frames"></g><g id="edges"><path d="M 338.2,164.0 L 338.2,142.0" fill="none" stroke="#334155" stroke-width="1.5" stroke-linejoin="round" stroke-linecap="round" marker-end="url(#arr-334155)"/><path d="M 338.2,205.0 L 338.2,183.0" fill="none" stroke="#334155" stroke-width="1.5" stroke-linejoin="round" stroke-linecap="round" marker-end="url(#arr-334155)"/><path d="M 338.2,282.0 L 338.2,260.0" fill="none" stroke="#334155" stroke-width="1.5" stroke-linejoin="round" stroke-linecap="round" marker-end="url(#arr-334155)"/><path d="M 338.2,334.0 L 338.2,312.0" fill="none" stroke="#334155" stroke-width="1.5" stroke-linejoin="round" stroke-linecap="round" marker-end="url(#arr-334155)"/><path d="M 286.2,345.0 L 213.2,345.0 Q 206.2,345.0 206.2,338.0 L 206.2,180.5 Q 206.2,173.5 213.2,173.5 L 328.7,173.5" fill="none" stroke="#94A3B8" stroke-width="1.3" stroke-linejoin="round" stroke-linecap="round" marker-end="url(#arr-94A3B8)"/></g><g id="nodes"><rect x="286.3" y="120.0" width="103.7" height="22.0" rx="11.0" fill="#F8FAFC" stroke="#64748B" stroke-width="1.1"/><text x="338.2" y="134.6" font-family="SF Mono, Menlo, Consolas, monospace" font-size="10.0px" fill="#334155" text-anchor="middle">y  (B, T, 768)</text><circle cx="338.2" cy="173.5" r="9.5" fill="#FFFFFF" stroke="#475569" stroke-width="1.3"/><line x1="333.6" y1="173.5" x2="342.7" y2="173.5" stroke="#475569" stroke-width="1.5" stroke-linecap="butt" /><line x1="338.2" y1="168.9" x2="338.2" y2="178.1" stroke="#475569" stroke-width="1.5" stroke-linecap="butt" /><rect x="240.0" y="205.0" width="196.3" height="55.0" rx="7" fill="#DCFCE7" stroke="#16A34A" stroke-width="1.3"/><text x="338.2" y="223.0" font-family="Helvetica Neue, Helvetica, Arial, sans-serif" font-size="12.5px" fill="#14532D" text-anchor="middle" font-weight="500">MLP</text><text x="338.2" y="236.5" font-family="SF Mono, Menlo, Consolas, monospace" font-size="9.5px" fill="#475569" text-anchor="middle">768 → 3072 · GELU · 3072 → 768</text><text x="338.2" y="248.5" font-family="SF Mono, Menlo, Consolas, monospace" font-size="8.5px" fill="#94A3B8" text-anchor="middle">model.py:42</text><rect x="291.8" y="282.0" width="92.7" height="30.0" rx="7" fill="#FEF9C3" stroke="#CA8A04" stroke-width="1.3"/><text x="338.2" y="301.5" font-family="Helvetica Neue, Helvetica, Arial, sans-serif" font-size="12.5px" fill="#713F12" text-anchor="middle" font-weight="500">LayerNorm</text><rect x="286.2" y="334.0" width="103.8" height="22.0" rx="11.0" fill="#F8FAFC" stroke="#64748B" stroke-width="1.1"/><text x="338.2" y="348.6" font-family="SF Mono, Menlo, Consolas, monospace" font-size="10.0px" fill="#334155" text-anchor="middle">x  (B, T, 768)</text><g transform="translate(475.96,236.00) scale(1,-1)"><path d="M 1.18 -2.00 Q 1.47 -2.51 2.20 -2.51 Q 2.86 -2.51 3.35 -2.04 Q 3.83 -1.58 4.13 -0.92 Q 4.43 -0.26 4.59 0.43 Q 3.97 -0.16 3.25 -0.16 Q 2.69 -0.16 2.30 0.03 Q 1.91 0.23 1.70 0.60 Q 1.48 0.98 1.48 1.52 Q 1.48 1.98 1.61 2.46 Q 1.73 2.95 1.95 3.54 Q 2.17 4.13 2.34 4.57 Q 2.52 5.08 2.52 5.41 Q 2.52 5.83 2.22 5.83 Q 1.66 5.83 1.30 5.25 Q 0.94 4.68 0.77 3.98 Q 0.75 3.89 0.66 3.89 L 0.49 3.89 Q 0.38 3.89 0.38 4.02 L 0.38 4.06 Q 0.60 4.90 1.07 5.54 Q 1.53 6.19 2.24 6.19 Q 2.74 6.19 3.09 5.86 Q 3.43 5.53 3.43 5.02 Q 3.43 4.76 3.32 4.48 Q 3.26 4.31 3.04 3.73 Q 2.82 3.16 2.70 2.78 Q 2.58 2.41 2.51 2.04 Q 2.43 1.68 2.43 1.32 Q 2.43 0.86 2.63 0.53 Q 2.83 0.21 3.26 0.21 Q 4.13 0.21 4.82 1.27 L 5.88 5.58 Q 5.93 5.77 6.10 5.90 Q 6.27 6.04 6.47 6.04 Q 6.64 6.04 6.76 5.93 Q 6.89 5.82 6.89 5.64 Q 6.89 5.56 6.88 5.53 L 5.49 -0.04 Q 5.30 -0.76 4.81 -1.42 Q 4.32 -2.07 3.63 -2.47 Q 2.93 -2.87 2.18 -2.87 Q 1.82 -2.87 1.46 -2.73 Q 1.11 -2.59 0.89 -2.31 Q 0.67 -2.03 0.67 -1.65 Q 0.67 -1.27 0.89 -0.99 Q 1.12 -0.71 1.50 -0.71 Q 1.72 -0.71 1.88 -0.85 Q 2.03 -0.99 2.03 -1.22 Q 2.03 -1.54 1.79 -1.78 Q 1.55 -2.02 1.23 -2.02 Q 1.22 -2.01 1.20 -2.01 Q 1.19 -2.00 1.18 -2.00 Z M 10.37 1.86 Q 10.26 1.86 10.18 1.95 Q 10.11 2.04 10.11 2.14 Q 10.11 2.26 10.18 2.34 Q 10.26 2.42 10.37 2.42 L 19.17 2.42 Q 19.27 2.42 19.34 2.34 Q 19.42 2.26 19.42 2.14 Q 19.42 2.04 19.34 1.95 Q 19.27 1.86 19.17 1.86 L 10.37 1.86 Z M 10.37 4.58 Q 10.26 4.58 10.18 4.66 Q 10.11 4.74 10.11 4.86 Q 10.11 4.96 10.18 5.05 Q 10.26 5.14 10.37 5.14 L 19.17 5.14 Q 19.27 5.14 19.34 5.05 Q 19.42 4.96 19.42 4.86 Q 19.42 4.74 19.34 4.66 Q 19.27 4.58 19.17 4.58 L 10.37 4.58 Z M 23.75 0.40 Q 24.00 0.21 24.45 0.21 Q 24.88 0.21 25.22 0.63 Q 25.55 1.05 25.68 1.55 L 26.31 4.03 Q 26.46 4.71 26.46 4.96 Q 26.46 5.30 26.27 5.57 Q 26.07 5.83 25.72 5.83 Q 25.28 5.83 24.89 5.55 Q 24.50 5.27 24.24 4.84 Q 23.97 4.42 23.86 3.98 Q 23.83 3.89 23.75 3.89 L 23.58 3.89 Q 23.47 3.89 23.47 4.02 L 23.47 4.06 Q 23.61 4.58 23.93 5.08 Q 24.26 5.57 24.74 5.88 Q 25.21 6.19 25.75 6.19 Q 26.27 6.19 26.68 5.91 Q 27.09 5.64 27.26 5.17 Q 27.50 5.60 27.88 5.89 Q 28.25 6.19 28.69 6.19 Q 28.99 6.19 29.31 6.08 Q 29.62 5.97 29.82 5.76 Q 30.02 5.54 30.02 5.21 Q 30.02 4.85 29.79 4.60 Q 29.56 4.34 29.21 4.34 Q 28.98 4.34 28.83 4.48 Q 28.68 4.63 28.68 4.85 Q 28.68 5.14 28.88 5.36 Q 29.08 5.58 29.36 5.63 Q 29.11 5.83 28.66 5.83 Q 28.21 5.83 27.88 5.41 Q 27.55 4.99 27.41 4.48 L 26.80 2.00 Q 26.65 1.44 26.65 1.08 Q 26.65 0.72 26.85 0.47 Q 27.05 0.21 27.39 0.21 Q 28.04 0.21 28.56 0.79 Q 29.07 1.37 29.24 2.06 Q 29.27 2.14 29.35 2.14 L 29.52 2.14 Q 29.57 2.14 29.61 2.10 Q 29.64 2.07 29.64 2.02 Q 29.64 2.00 29.63 1.98 Q 29.43 1.14 28.79 0.49 Q 28.16 -0.16 27.36 -0.16 Q 26.85 -0.16 26.43 0.12 Q 26.02 0.40 25.85 0.87 Q 25.63 0.46 25.24 0.15 Q 24.86 -0.16 24.42 -0.16 Q 24.12 -0.16 23.80 -0.05 Q 23.48 0.05 23.28 0.27 Q 23.09 0.49 23.09 0.83 Q 23.09 1.16 23.31 1.42 Q 23.54 1.70 23.89 1.70 Q 24.12 1.70 24.28 1.56 Q 24.43 1.42 24.43 1.19 Q 24.43 0.89 24.24 0.68 Q 24.04 0.46 23.75 0.40 Z M 34.16 3.22 Q 34.04 3.22 33.96 3.31 Q 33.89 3.40 33.89 3.50 Q 33.89 3.60 33.96 3.69 Q 34.04 3.78 34.16 3.78 L 38.27 3.78 L 38.27 7.91 Q 38.27 8.02 38.36 8.09 Q 38.44 8.16 38.55 8.16 Q 38.66 8.16 38.74 8.09 Q 38.83 8.02 38.83 7.91 L 38.83 3.78 L 42.95 3.78 Q 43.05 3.78 43.13 3.69 Q 43.20 3.60 43.20 3.50 Q 43.20 3.40 43.13 3.31 Q 43.05 3.22 42.95 3.22 L 38.83 3.22 L 38.83 -0.91 Q 38.83 -1.02 38.74 -1.09 Q 38.66 -1.16 38.55 -1.16 Q 38.44 -1.16 38.36 -1.09 Q 38.27 -1.02 38.27 -0.91 L 38.27 3.22 L 34.16 3.22 Z M 46.93 0.00 L 46.93 0.49 Q 48.37 0.49 48.37 1.32 L 48.37 8.63 Q 48.37 9.07 46.93 9.07 L 46.93 9.56 L 49.58 9.56 Q 49.75 9.56 49.80 9.41 L 52.85 1.48 L 55.90 9.41 Q 55.95 9.56 56.13 9.56 L 58.77 9.56 L 58.77 9.07 Q 57.33 9.07 57.33 8.63 L 57.33 0.94 Q 57.33 0.49 58.77 0.49 L 58.77 0.00 L 54.70 0.00 L 54.70 0.49 Q 56.14 0.49 56.14 0.94 L 56.14 9.08 L 52.69 0.16 Q 52.63 0.00 52.46 0.00 Q 52.28 0.00 52.22 0.16 L 48.82 8.98 L 48.82 1.32 Q 48.82 0.49 50.26 0.49 L 50.26 0.00 L 46.93 0.00 Z M 59.69 0.00 L 59.69 0.49 Q 61.14 0.49 61.14 0.94 L 61.14 8.63 Q 61.14 9.07 59.69 9.07 L 59.69 9.56 L 64.23 9.56 L 64.23 9.07 Q 62.44 9.07 62.44 8.63 L 62.44 0.94 Q 62.44 0.64 62.61 0.56 Q 62.78 0.49 63.15 0.49 L 64.23 0.49 Q 65.28 0.49 65.85 0.88 Q 66.41 1.26 66.65 1.92 Q 66.88 2.58 67.01 3.67 L 67.41 3.67 L 67.02 0.00 L 59.69 0.00 Z M 68.48 0.00 L 68.48 0.49 Q 69.92 0.49 69.92 0.94 L 69.92 8.63 Q 69.92 9.07 68.48 9.07 L 68.48 9.56 L 73.46 9.56 Q 74.23 9.56 74.99 9.25 Q 75.76 8.93 76.25 8.33 Q 76.75 7.73 76.75 6.93 Q 76.75 6.15 76.25 5.57 Q 75.75 4.98 74.99 4.67 Q 74.23 4.37 73.46 4.37 L 71.22 4.37 L 71.22 0.94 Q 71.22 0.49 72.66 0.49 L 72.66 0.00 L 68.48 0.00 Z M 71.18 4.79 L 73.08 4.79 Q 73.85 4.79 74.33 5.01 Q 74.81 5.23 75.03 5.70 Q 75.25 6.17 75.25 6.93 Q 75.25 8.07 74.75 8.57 Q 74.25 9.07 73.08 9.07 L 71.89 9.07 Q 71.64 9.07 71.50 9.05 Q 71.36 9.03 71.27 8.93 Q 71.18 8.83 71.18 8.63 L 71.18 4.79 Z M 81.88 -3.47 Q 81.10 -2.86 80.53 -2.06 Q 79.97 -1.26 79.61 -0.36 Q 79.25 0.54 79.07 1.52 Q 78.90 2.51 78.90 3.50 Q 78.90 4.50 79.07 5.49 Q 79.25 6.47 79.62 7.38 Q 79.98 8.29 80.55 9.08 Q 81.12 9.88 81.88 10.47 Q 81.88 10.50 81.95 10.50 L 82.08 10.50 Q 82.12 10.50 82.15 10.46 Q 82.18 10.43 82.18 10.38 Q 82.18 10.32 82.16 10.29 Q 81.47 9.62 81.02 8.85 Q 80.56 8.09 80.29 7.22 Q 80.01 6.36 79.89 5.43 Q 79.77 4.50 79.77 3.50 Q 79.77 -0.95 82.14 -3.26 Q 82.18 -3.30 82.18 -3.38 Q 82.18 -3.41 82.15 -3.45 Q 82.11 -3.50 82.08 -3.50 L 81.95 -3.50 Q 81.88 -3.50 81.88 -3.47 Z M 83.40 0.00 L 83.40 0.49 Q 84.84 0.49 84.84 0.94 L 84.84 8.63 Q 84.84 9.07 83.40 9.07 L 83.40 9.56 L 87.94 9.56 L 87.94 9.07 Q 86.15 9.07 86.15 8.63 L 86.15 0.94 Q 86.15 0.64 86.32 0.56 Q 86.49 0.49 86.86 0.49 L 87.94 0.49 Q 88.99 0.49 89.55 0.88 Q 90.12 1.26 90.36 1.92 Q 90.59 2.58 90.72 3.67 L 91.12 3.67 L 90.73 0.00 L 83.40 0.00 Z M 92.15 0.00 L 92.15 0.49 Q 93.59 0.49 93.59 1.32 L 93.59 8.99 Q 93.14 9.07 92.15 9.07 L 92.15 9.56 L 94.83 9.56 Q 94.90 9.56 94.93 9.51 L 99.88 2.22 L 99.88 8.24 Q 99.88 9.07 98.44 9.07 L 98.44 9.56 L 101.77 9.56 L 101.77 9.07 Q 100.33 9.07 100.33 8.24 L 100.33 0.12 Q 100.33 0.08 100.28 0.04 Q 100.23 0.00 100.19 0.00 L 100.02 0.00 Q 99.95 0.00 99.92 0.05 L 94.05 8.71 L 94.05 1.32 Q 94.05 0.49 95.49 0.49 L 95.49 0.00 L 92.15 0.00 Z M 106.56 -3.47 Q 105.78 -2.86 105.22 -2.06 Q 104.66 -1.26 104.29 -0.36 Q 103.94 0.54 103.76 1.52 Q 103.58 2.51 103.58 3.50 Q 103.58 4.50 103.76 5.49 Q 103.94 6.47 104.30 7.38 Q 104.67 8.29 105.23 9.08 Q 105.80 9.88 106.56 10.47 Q 106.56 10.50 106.63 10.50 L 106.76 10.50 Q 106.80 10.50 106.83 10.46 Q 106.87 10.43 106.87 10.38 Q 106.87 10.32 106.84 10.29 Q 106.16 9.62 105.70 8.85 Q 105.25 8.09 104.97 7.22 Q 104.69 6.36 104.57 5.43 Q 104.45 4.50 104.45 3.50 Q 104.45 -0.95 106.83 -3.26 Q 106.87 -3.30 106.87 -3.38 Q 106.87 -3.41 106.83 -3.45 Q 106.79 -3.50 106.76 -3.50 L 106.63 -3.50 Q 106.56 -3.50 106.56 -3.47 Z M 108.75 0.40 Q 109.00 0.21 109.45 0.21 Q 109.88 0.21 110.22 0.63 Q 110.55 1.05 110.68 1.55 L 111.31 4.03 Q 111.46 4.71 111.46 4.96 Q 111.46 5.30 111.27 5.57 Q 111.07 5.83 110.72 5.83 Q 110.28 5.83 109.89 5.55 Q 109.50 5.27 109.23 4.84 Q 108.97 4.42 108.86 3.98 Q 108.83 3.89 108.75 3.89 L 108.58 3.89 Q 108.47 3.89 108.47 4.02 L 108.47 4.06 Q 108.60 4.58 108.93 5.08 Q 109.26 5.57 109.74 5.88 Q 110.21 6.19 110.75 6.19 Q 111.26 6.19 111.68 5.91 Q 112.09 5.64 112.26 5.17 Q 112.50 5.60 112.87 5.89 Q 113.25 6.19 113.69 6.19 Q 113.99 6.19 114.31 6.08 Q 114.62 5.97 114.82 5.76 Q 115.02 5.54 115.02 5.21 Q 115.02 4.85 114.79 4.60 Q 114.56 4.34 114.20 4.34 Q 113.98 4.34 113.83 4.48 Q 113.68 4.63 113.68 4.85 Q 113.68 5.14 113.88 5.36 Q 114.08 5.58 114.36 5.63 Q 114.11 5.83 113.66 5.83 Q 113.21 5.83 112.88 5.41 Q 112.55 4.99 112.41 4.48 L 111.80 2.00 Q 111.65 1.44 111.65 1.08 Q 111.65 0.72 111.85 0.47 Q 112.05 0.21 112.39 0.21 Q 113.04 0.21 113.56 0.79 Q 114.07 1.37 114.24 2.06 Q 114.27 2.14 114.35 2.14 L 114.52 2.14 Q 114.57 2.14 114.61 2.10 Q 114.64 2.07 114.64 2.02 Q 114.64 2.00 114.63 1.98 Q 114.43 1.14 113.79 0.49 Q 113.16 -0.16 112.36 -0.16 Q 111.85 -0.16 111.43 0.12 Q 111.02 0.40 110.85 0.87 Q 110.63 0.46 110.24 0.15 Q 109.86 -0.16 109.42 -0.16 Q 109.12 -0.16 108.80 -0.05 Q 108.48 0.05 108.28 0.27 Q 108.09 0.49 108.09 0.83 Q 108.09 1.16 108.31 1.42 Q 108.54 1.70 108.89 1.70 Q 109.12 1.70 109.28 1.56 Q 109.43 1.42 109.43 1.19 Q 109.43 0.89 109.24 0.68 Q 109.04 0.46 108.75 0.40 Z M 116.56 -3.50 Q 116.43 -3.50 116.43 -3.38 Q 116.43 -3.32 116.46 -3.29 Q 118.85 -0.95 118.85 3.50 Q 118.85 7.95 116.49 10.26 Q 116.43 10.29 116.43 10.38 Q 116.43 10.43 116.47 10.46 Q 116.51 10.50 116.56 10.50 L 116.69 10.50 Q 116.73 10.50 116.75 10.47 Q 117.76 9.68 118.43 8.54 Q 119.10 7.41 119.41 6.13 Q 119.72 4.84 119.72 3.50 Q 119.72 2.51 119.55 1.55 Q 119.38 0.59 119.02 -0.34 Q 118.65 -1.28 118.09 -2.07 Q 117.53 -2.86 116.75 -3.47 Q 116.73 -3.50 116.69 -3.50 L 116.56 -3.50 Z M 121.99 -3.50 Q 121.87 -3.50 121.87 -3.38 Q 121.87 -3.32 121.89 -3.29 Q 124.29 -0.95 124.29 3.50 Q 124.29 7.95 121.92 10.26 Q 121.87 10.29 121.87 10.38 Q 121.87 10.43 121.90 10.46 Q 121.94 10.50 121.99 10.50 L 122.12 10.50 Q 122.16 10.50 122.19 10.47 Q 123.19 9.68 123.86 8.54 Q 124.53 7.41 124.84 6.13 Q 125.16 4.84 125.16 3.50 Q 125.16 2.51 124.99 1.55 Q 124.82 0.59 124.45 -0.34 Q 124.09 -1.28 123.53 -2.07 Q 122.97 -2.86 122.19 -3.47 Q 122.16 -3.50 122.12 -3.50 L 121.99 -3.50 Z" fill="#0F172A"/></g><rect x="160.0" y="86.0" width="13.0" height="13.0" rx="3.5" fill="#DCFCE7" stroke="#16A34A" stroke-width="1.1"/><text x="179.0" y="96.3" font-family="Helvetica Neue, Helvetica, Arial, sans-serif" font-size="10.5px" fill="#475569" text-anchor="start">MLP / FFN</text><rect x="244.3" y="86.0" width="13.0" height="13.0" rx="3.5" fill="#FEF9C3" stroke="#CA8A04" stroke-width="1.1"/><text x="263.3" y="96.3" font-family="Helvetica Neue, Helvetica, Arial, sans-serif" font-size="10.5px" fill="#475569" text-anchor="start">Normalization</text><path d="M 350.4,92.5 L 363.4,92.5" fill="none" stroke="#334155" stroke-width="1.7" stroke-linejoin="round" stroke-linecap="round" marker-end="url(#arr-334155)"/><text x="369.4" y="96.3" font-family="Helvetica Neue, Helvetica, Arial, sans-serif" font-size="10.5px" fill="#475569" text-anchor="start">data flow</text><path d="M 433.0,92.5 L 446.0,92.5" fill="none" stroke="#94A3B8" stroke-width="1.7" stroke-linejoin="round" stroke-linecap="round" marker-end="url(#arr-94A3B8)"/><text x="452.0" y="96.3" font-family="Helvetica Neue, Helvetica, Arial, sans-serif" font-size="10.5px" fill="#475569" text-anchor="start">residual</text><circle cx="514.1" cy="92.5" r="6.5" fill="#FFFFFF" stroke="#475569" stroke-width="1.2"/><line x1="510.9" y1="92.5" x2="517.4" y2="92.5" stroke="#475569" stroke-width="1.5" stroke-linecap="butt" /><line x1="514.1" y1="89.2" x2="514.1" y2="95.8" stroke="#475569" stroke-width="1.5" stroke-linecap="butt" /><text x="526.6" y="96.3" font-family="Helvetica Neue, Helvetica, Arial, sans-serif" font-size="10.5px" fill="#475569" text-anchor="start">add</text></g><g id="labels"><rect x="152.1" y="253.1" width="51.2" height="15.5" rx="3" fill="#FFFFFF"/><text x="199.2" y="262.6" font-family="SF Mono, Menlo, Consolas, monospace" font-size="9.5px" fill="#475569" text-anchor="end" paint-order="stroke" stroke="#FFFFFF" stroke-width="3px">residual</text><text x="152.1" y="69.8" font-family="Helvetica Neue, Helvetica, Arial, sans-serif" font-size="11.5px" fill="#475569" text-anchor="start">overlaps. Edges meet boxes perpendicular by default.</text><text x="152.1" y="53.1" font-family="Helvetica Neue, Helvetica, Arial, sans-serif" font-size="11.5px" fill="#475569" text-anchor="start">d.flow() stacks + auto-connects; d.auto_legend() builds the key; d.check() catches</text><text x="152.1" y="36.4" font-family="Helvetica Neue, Helvetica, Arial, sans-serif" font-size="17px" fill="#0F172A" text-anchor="start" font-weight="600">Quickstart — a residual MLP block</text></g></svg>