<svg xmlns="http://www.w3.org/2000/svg" viewBox="-3.0 -32.4 744.0 1149.3" width="744" height="1149"><defs><marker id="arr-334155" viewBox="0 0 10 10" refX="8.5" refY="5" markerWidth="6.5" markerHeight="6.5" orient="auto-start-reverse"><path d="M0.5,1 L9,5 L0.5,9 Z" fill="#334155"/></marker><marker id="arr-94A3B8" viewBox="0 0 10 10" refX="8.5" refY="5" markerWidth="6.5" markerHeight="6.5" orient="auto-start-reverse"><path d="M0.5,1 L9,5 L0.5,9 Z" fill="#94A3B8"/></marker></defs><rect x="-3.0" y="-32.4" width="744.0" height="1149.3" fill="#FFFFFF"/><g id="frames"><rect x="320.0" y="110.0" width="387.0" height="913.0" rx="10" fill="#FFFFFF" stroke="#94A3B8" stroke-width="1.1" stroke-dasharray="5 4"/><rect x="310.0" y="119.0" width="387.0" height="913.0" rx="10" fill="#FFFFFF" stroke="#94A3B8" stroke-width="1.1" stroke-dasharray="5 4"/><rect x="300.0" y="128.0" width="387.0" height="913.0" rx="10" fill="#FFFFFF" stroke="#94A3B8" stroke-width="1.2"/><rect x="320.0" y="185.0" width="347.0" height="247.0" rx="10" fill="rgba(34,197,94,0.04)" stroke="#16A34A" stroke-width="1.2"/><text x="333.0" y="201.5" font-family="Helvetica Neue, Helvetica, Arial, sans-serif" font-size="11.0px" fill="#475569" text-anchor="start" font-weight="600">SwiGLU MLP   (fused gate_up_proj · qwen3.py:100-111)</text><rect x="341.3" y="560.0" width="304.4" height="388.0" rx="10" fill="rgba(37,99,235,0.04)" stroke="#2563EB" stroke-width="1.2"/><text x="354.3" y="576.5" font-family="Helvetica Neue, Helvetica, Arial, sans-serif" font-size="11.0px" fill="#475569" text-anchor="start" font-weight="600">self-attention</text></g><g id="edges"><path d="M 503.5,1069.0 L 503.5,1041.0" fill="none" stroke="#334155" stroke-width="1.5" stroke-linejoin="round" stroke-linecap="round" marker-end="url(#arr-334155)"/><path d="M 493.5,966.0 L 493.5,934.0" fill="none" stroke="#334155" stroke-width="1.5" stroke-linejoin="round" stroke-linecap="round" marker-end="url(#arr-334155)"/><path d="M 493.5,879.0 L 493.5,863.0" fill="none" stroke="#334155" stroke-width="1.5" stroke-linejoin="round" stroke-linecap="round" marker-end="url(#arr-334155)"/><path d="M 493.5,808.0 L 493.5,792.0" fill="none" stroke="#334155" stroke-width="1.5" stroke-linejoin="round" stroke-linecap="round" marker-end="url(#arr-334155)"/><path d="M 493.5,737.0 L 493.5,721.0" fill="none" stroke="#334155" stroke-width="1.5" stroke-linejoin="round" stroke-linecap="round" marker-end="url(#arr-334155)"/><path d="M 493.5,666.0 L 493.5,650.0" fill="none" stroke="#334155" stroke-width="1.5" stroke-linejoin="round" stroke-linecap="round" marker-end="url(#arr-334155)"/><path d="M 493.5,560.0 L 493.5,542.0" fill="none" stroke="#334155" stroke-width="1.5" stroke-linejoin="round" stroke-linecap="round" marker-end="url(#arr-334155)"/><path d="M 493.5,523.0 L 493.5,505.0" fill="none" stroke="#334155" stroke-width="1.5" stroke-linejoin="round" stroke-linecap="round" marker-end="url(#arr-334155)"/><path d="M 493.5,450.0 L 493.5,432.0" fill="none" stroke="#334155" stroke-width="1.5" stroke-linejoin="round" stroke-linecap="round" marker-end="url(#arr-334155)"/><path d="M 424.1,432.0 L 424.1,432.5 Q 424.1,433.0 423.6,433.0 L 416.0,433.0 Q 409.0,433.0 409.0,426.0 L 409.0,418.0" fill="none" stroke="#334155" stroke-width="1.5" stroke-linejoin="round" stroke-linecap="round" marker-end="url(#arr-334155)"/><path d="M 569.8,432.0 L 569.8,424.1 Q 569.8,421.5 572.4,421.5 L 572.4,421.5 Q 575.0,421.5 575.0,418.9 L 575.0,395.0" fill="none" stroke="#334155" stroke-width="1.5" stroke-linejoin="round" stroke-linecap="round" marker-end="url(#arr-334155)"/><path d="M 409.0,374.0 L 409.0,358.0" fill="none" stroke="#334155" stroke-width="1.5" stroke-linejoin="round" stroke-linecap="round" marker-end="url(#arr-334155)"/><path d="M 409.0,328.0 L 409.0,324.0 Q 409.0,320.0 413.0,320.0 L 488.0,320.0 Q 492.0,320.0 492.0,316.0 L 492.0,312.0" fill="none" stroke="#334155" stroke-width="1.5" stroke-linejoin="round" stroke-linecap="round" marker-end="url(#arr-334155)"/><path d="M 575.0,351.0 L 575.0,309.5 Q 575.0,302.5 568.0,302.5 L 501.5,302.5" fill="none" stroke="#334155" stroke-width="1.5" stroke-linejoin="round" stroke-linecap="round" marker-end="url(#arr-334155)"/><path d="M 492.0,293.0 L 492.0,275.0" fill="none" stroke="#334155" stroke-width="1.5" stroke-linejoin="round" stroke-linecap="round" marker-end="url(#arr-334155)"/><path d="M 493.5,185.0 L 493.5,167.0" fill="none" stroke="#334155" stroke-width="1.5" stroke-linejoin="round" stroke-linecap="round" marker-end="url(#arr-334155)"/><path d="M 493.5,1030.0 L 316.0,1030.0 Q 309.0,1030.0 309.0,1023.0 L 309.0,539.5 Q 309.0,532.5 316.0,532.5 L 484.0,532.5" fill="none" stroke="#94A3B8" stroke-width="1.3" stroke-linejoin="round" stroke-linecap="round" marker-end="url(#arr-94A3B8)"/><path d="M 493.5,514.0 L 316.0,514.0 Q 309.0,514.0 309.0,507.0 L 309.0,164.5 Q 309.0,157.5 316.0,157.5 L 484.0,157.5" fill="none" stroke="#94A3B8" stroke-width="1.3" stroke-linejoin="round" stroke-linecap="round" marker-end="url(#arr-94A3B8)"/><path d="M 246.0,693.5 L 300.0,693.5" fill="none" stroke="#CBD5E1" stroke-width="1.1" stroke-linejoin="round" stroke-linecap="round" stroke-dasharray="3 3"/></g><g id="nodes"><rect x="421.8" y="60.0" width="163.5" height="22.0" rx="11.0" fill="#F8FAFC" stroke="#64748B" stroke-width="1.1"/><text x="503.5" y="74.6" font-family="SF Mono, Menlo, Consolas, monospace" font-size="10.0px" fill="#334155" text-anchor="middle">hidden states  (T, 4096)</text><circle cx="493.5" cy="157.5" r="9.5" fill="#FFFFFF" stroke="#475569" stroke-width="1.3"/><line x1="488.9" y1="157.5" x2="498.1" y2="157.5" stroke="#475569" stroke-width="1.5" stroke-linecap="butt" /><line x1="493.5" y1="152.9" x2="493.5" y2="162.1" stroke="#475569" stroke-width="1.5" stroke-linecap="butt" /><rect x="445.6" y="220.0" width="92.9" height="55.0" rx="7" fill="#EDE9FE" stroke="#7C3AED" stroke-width="1.3"/><text x="492.0" y="238.0" font-family="Helvetica Neue, Helvetica, Arial, sans-serif" font-size="12.5px" fill="#4C1D95" text-anchor="middle" font-weight="500">down_proj</text><text x="492.0" y="251.5" font-family="SF Mono, Menlo, Consolas, monospace" font-size="9.5px" fill="#475569" text-anchor="middle">12288 → 4096</text><text x="492.0" y="263.5" font-family="SF Mono, Menlo, Consolas, monospace" font-size="8.5px" fill="#94A3B8" text-anchor="middle">qwen3.py:105</text><circle cx="492.0" cy="302.5" r="9.5" fill="#FFFFFF" stroke="#475569" stroke-width="1.3"/><line x1="488.1" y1="298.6" x2="495.9" y2="306.4" stroke="#475569" stroke-width="1.5" stroke-linecap="butt" /><line x1="488.1" y1="306.4" x2="495.9" y2="298.6" stroke="#475569" stroke-width="1.5" stroke-linecap="butt" /><rect x="331.0" y="328.0" width="156.0" height="30.0" rx="7" fill="#DCFCE7" stroke="#16A34A" stroke-width="1.3"/><text x="409.0" y="347.5" font-family="Helvetica Neue, Helvetica, Arial, sans-serif" font-size="12.5px" fill="#14532D" text-anchor="middle" font-weight="500">SiLU</text><rect x="331.0" y="374.0" width="156.0" height="44.0" rx="7" fill="#EDE9FE" stroke="#7C3AED" stroke-width="1.3"/><text x="409.0" y="397.0" font-family="Helvetica Neue, Helvetica, Arial, sans-serif" font-size="12.5px" fill="#4C1D95" text-anchor="middle" font-weight="500">gate</text><text x="409.0" y="410.5" font-family="SF Mono, Menlo, Consolas, monospace" font-size="9.5px" fill="#475569" text-anchor="middle">4096 → 12288</text><rect x="497.0" y="351.0" width="156.0" height="44.0" rx="7" fill="#EDE9FE" stroke="#7C3AED" stroke-width="1.3"/><text x="575.0" y="374.0" font-family="Helvetica Neue, Helvetica, Arial, sans-serif" font-size="12.5px" fill="#4C1D95" text-anchor="middle" font-weight="500">up</text><text x="575.0" y="387.5" font-family="SF Mono, Menlo, Consolas, monospace" font-size="9.5px" fill="#475569" text-anchor="middle">4096 → 12288</text><rect x="412.5" y="450.0" width="161.9" height="55.0" rx="7" fill="#FEF9C3" stroke="#CA8A04" stroke-width="1.3"/><text x="493.5" y="468.0" font-family="Helvetica Neue, Helvetica, Arial, sans-serif" font-size="12.5px" fill="#713F12" text-anchor="middle" font-weight="500">RMSNorm</text><text x="493.5" y="481.5" font-family="SF Mono, Menlo, Consolas, monospace" font-size="9.5px" fill="#475569" text-anchor="middle">post_attention_layernorm</text><text x="493.5" y="493.5" font-family="SF Mono, Menlo, Consolas, monospace" font-size="8.5px" fill="#94A3B8" text-anchor="middle">qwen3.py:144</text><circle cx="493.5" cy="532.5" r="9.5" fill="#FFFFFF" stroke="#475569" stroke-width="1.3"/><line x1="488.9" y1="532.5" x2="498.1" y2="532.5" stroke="#475569" stroke-width="1.5" stroke-linecap="butt" /><line x1="493.5" y1="527.9" x2="493.5" y2="537.1" stroke="#475569" stroke-width="1.5" stroke-linecap="butt" /><rect x="401.9" y="595.0" width="183.2" height="55.0" rx="7" fill="#EDE9FE" stroke="#7C3AED" stroke-width="1.3"/><text x="493.5" y="613.0" font-family="Helvetica Neue, Helvetica, Arial, sans-serif" font-size="12.5px" fill="#4C1D95" text-anchor="middle" font-weight="500">o_proj</text><text x="493.5" y="626.5" font-family="SF Mono, Menlo, Consolas, monospace" font-size="9.5px" fill="#475569" text-anchor="middle">Linear 4096 → 4096 (no bias)</text><text x="493.5" y="638.5" font-family="SF Mono, Menlo, Consolas, monospace" font-size="8.5px" fill="#94A3B8" text-anchor="middle">qwen3.py:49</text><rect x="378.3" y="666.0" width="230.5" height="55.0" rx="7" fill="#DBEAFE" stroke="#2563EB" stroke-width="1.3"/><text x="493.5" y="684.0" font-family="Helvetica Neue, Helvetica, Arial, sans-serif" font-size="12.5px" fill="#1E3A8A" text-anchor="middle" font-weight="500">attention</text><text x="493.5" y="697.5" font-family="SF Mono, Menlo, Consolas, monospace" font-size="9.5px" fill="#475569" text-anchor="middle">GQA: 8 KV heads shared by 32 Q heads</text><text x="493.5" y="709.5" font-family="SF Mono, Menlo, Consolas, monospace" font-size="8.5px" fill="#94A3B8" text-anchor="middle">qwen3.py:62</text><rect x="418.7" y="737.0" width="149.5" height="55.0" rx="7" fill="#FCE7F3" stroke="#DB2777" stroke-width="1.3"/><text x="493.5" y="755.0" font-family="Helvetica Neue, Helvetica, Arial, sans-serif" font-size="12.5px" fill="#831843" text-anchor="middle" font-weight="500">RoPE</text><text x="493.5" y="768.5" font-family="SF Mono, Menlo, Consolas, monospace" font-size="9.5px" fill="#475569" text-anchor="middle">rotary on q, k · θ=1e6</text><text x="493.5" y="780.5" font-family="SF Mono, Menlo, Consolas, monospace" font-size="8.5px" fill="#94A3B8" text-anchor="middle">qwen3.py:56</text><rect x="355.3" y="808.0" width="276.4" height="55.0" rx="7" fill="#FEF9C3" stroke="#CA8A04" stroke-width="1.3"/><text x="493.5" y="826.0" font-family="Helvetica Neue, Helvetica, Arial, sans-serif" font-size="12.5px" fill="#713F12" text-anchor="middle" font-weight="500">q_norm · k_norm</text><text x="493.5" y="839.5" font-family="SF Mono, Menlo, Consolas, monospace" font-size="9.5px" fill="#475569" text-anchor="middle">RMSNorm per HEAD (dim 128) — Qwen3 signature</text><text x="493.5" y="851.5" font-family="SF Mono, Menlo, Consolas, monospace" font-size="8.5px" fill="#94A3B8" text-anchor="middle">qwen3.py:68-70</text><rect x="378.4" y="879.0" width="230.3" height="55.0" rx="7" fill="#EDE9FE" stroke="#7C3AED" stroke-width="1.3"/><text x="493.5" y="897.0" font-family="Helvetica Neue, Helvetica, Arial, sans-serif" font-size="12.5px" fill="#4C1D95" text-anchor="middle" font-weight="500">qkv_proj  (fused)</text><text x="493.5" y="910.5" font-family="SF Mono, Menlo, Consolas, monospace" font-size="9.5px" fill="#475569" text-anchor="middle">Linear 4096 → 32·128 + 8·128 + 8·128</text><text x="493.5" y="922.5" font-family="SF Mono, Menlo, Consolas, monospace" font-size="8.5px" fill="#94A3B8" text-anchor="middle">qwen3.py:42</text><rect x="438.2" y="966.0" width="110.5" height="55.0" rx="7" fill="#FEF9C3" stroke="#CA8A04" stroke-width="1.3"/><text x="493.5" y="984.0" font-family="Helvetica Neue, Helvetica, Arial, sans-serif" font-size="12.5px" fill="#713F12" text-anchor="middle" font-weight="500">RMSNorm</text><text x="493.5" y="997.5" font-family="SF Mono, Menlo, Consolas, monospace" font-size="9.5px" fill="#475569" text-anchor="middle">input_layernorm</text><text x="493.5" y="1009.5" font-family="SF Mono, Menlo, Consolas, monospace" font-size="8.5px" fill="#94A3B8" text-anchor="middle">qwen3.py:143</text><rect x="421.8" y="1069.0" width="163.5" height="22.0" rx="11.0" fill="#F8FAFC" stroke="#64748B" stroke-width="1.1"/><text x="503.5" y="1083.6" font-family="SF Mono, Menlo, Consolas, monospace" font-size="10.0px" fill="#334155" text-anchor="middle">hidden states  (T, 4096)</text><rect x="31.9" y="683.0" width="214.1" height="21.0" rx="10.5" fill="#F0FDF4" stroke="#16A34A" stroke-width="1.1" stroke-dasharray="3 2.2"/><path d="M 40.44382812500001,693.5 L 42.94382812500001,696.3 L 47.74382812500001,690.5" fill="none" stroke="#16A34A" stroke-width="1.7" stroke-linejoin="round" stroke-linecap="round"/><text x="51.9" y="697.3" font-family="Helvetica Neue, Helvetica, Arial, sans-serif" font-size="10.5px" fill="#166534" text-anchor="start" font-weight="500">scaled dot-product attention</text><text x="237.0" y="696.6" font-family="SF Mono, Menlo, Consolas, monospace" font-size="8.5px" fill="#475569" text-anchor="end">known</text><rect x="31.9" y="70.0" width="13.0" height="13.0" rx="3.5" fill="#DBEAFE" stroke="#2563EB" stroke-width="1.1"/><text x="50.9" y="80.3" font-family="Helvetica Neue, Helvetica, Arial, sans-serif" font-size="10.5px" fill="#475569" text-anchor="start">attention</text><rect x="113.3" y="70.0" width="13.0" height="13.0" rx="3.5" fill="#DCFCE7" stroke="#16A34A" stroke-width="1.1"/><text x="132.3" y="80.3" font-family="Helvetica Neue, Helvetica, Arial, sans-serif" font-size="10.5px" fill="#475569" text-anchor="start">activation</text><rect x="198.8" y="70.0" width="13.0" height="13.0" rx="3.5" fill="#EDE9FE" stroke="#7C3AED" stroke-width="1.1"/><text x="217.8" y="80.3" font-family="Helvetica Neue, Helvetica, Arial, sans-serif" font-size="10.5px" fill="#475569" text-anchor="start">linear</text><rect x="31.9" y="91.0" width="13.0" height="13.0" rx="3.5" fill="#FEF9C3" stroke="#CA8A04" stroke-width="1.1"/><text x="50.9" y="101.3" font-family="Helvetica Neue, Helvetica, Arial, sans-serif" font-size="10.5px" fill="#475569" text-anchor="start">RMSNorm</text><rect x="116.7" y="91.0" width="13.0" height="13.0" rx="3.5" fill="#FCE7F3" stroke="#DB2777" stroke-width="1.1"/><text x="135.7" y="101.3" font-family="Helvetica Neue, Helvetica, Arial, sans-serif" font-size="10.5px" fill="#475569" text-anchor="start">position</text><rect x="31.9" y="112.0" width="13.0" height="13.0" rx="3.5" fill="#F0FDF4" stroke="#16A34A" stroke-width="1.1" stroke-dasharray="3 2"/><text x="50.9" y="122.3" font-family="Helvetica Neue, Helvetica, Arial, sans-serif" font-size="10.5px" fill="#475569" text-anchor="start">known concept</text></g><g id="labels"><rect x="675.4" y="101.0" width="39.6" height="19.0" rx="9.5" fill="#FFFFFF" stroke="#64748B" stroke-width="1.2"/><text x="695.2" y="114.6" font-family="Helvetica Neue, Helvetica, Arial, sans-serif" font-size="11.5px" fill="#1E293B" text-anchor="middle" font-weight="600">×36</text><text x="500.5" y="662.1" font-family="SF Mono, Menlo, Consolas, monospace" font-size="9.5px" fill="#475569" text-anchor="start" paint-order="stroke" stroke="#FFFFFF" stroke-width="3px">(T, 32, 128)</text><text x="288.0" y="898.5" font-family="SF Mono, Menlo, Consolas, monospace" font-size="9.0px" fill="#475569" text-anchor="end">q: (T, 32, 128)</text><text x="288.0" y="910.5" font-family="SF Mono, Menlo, Consolas, monospace" font-size="9.0px" fill="#475569" text-anchor="end">k,v: (T, 8, 128)</text><text x="288.0" y="922.5" font-family="Helvetica Neue, Helvetica, Arial, sans-serif" font-size="9.0px" fill="#94A3B8" text-anchor="end">= 4x smaller KV cache</text><text x="303.0" y="506.5" font-family="Helvetica Neue, Helvetica, Arial, sans-serif" font-size="8.5px" fill="#94A3B8" text-anchor="end">fused residual: RMSNorm(x, res) returns both (qwen3.py:152-157)</text><text x="23.0" y="44.0" font-family="Helvetica Neue, Helvetica, Arial, sans-serif" font-size="11.5px" fill="#475569" text-anchor="start">SwiGLU MLP. nanovllm/models/qwen3.py:14-159</text><text x="23.0" y="27.3" font-family="Helvetica Neue, Helvetica, Arial, sans-serif" font-size="11.5px" fill="#475569" text-anchor="start">Grounded in nano-vllm: fused QKV with grouped-query KV heads, per-head QK-RMSNorm, RoPE, and a fused-gate</text><text x="23.0" y="10.6" font-family="Helvetica Neue, Helvetica, Arial, sans-serif" font-size="17px" fill="#0F172A" text-anchor="start" font-weight="600">Qwen3 decoder layer (8B config) — as implemented</text></g></svg>