<svg xmlns="http://www.w3.org/2000/svg" viewBox="14.0 -72.6 722.3 569.2" width="722" height="569"><defs><pattern id="hatch-F1F5F9-94A3B8" width="5.5" height="5.5" patternUnits="userSpaceOnUse" patternTransform="rotate(45)"><rect width="5.5" height="5.5" fill="#F1F5F9"/><line x1="0" y1="0" x2="0" y2="5.5" stroke="#94A3B8" stroke-width="1.4" stroke-opacity="0.55"/></pattern></defs><rect x="14.0" y="-72.6" width="722.3" height="569.2" fill="#FFFFFF"/><g id="frames"><rect x="40.0" y="60.0" width="317.5" height="395.7" rx="10" fill="#FFFFFF" stroke="#CBD5E1" stroke-width="1.2"/><text x="53.0" y="76.5" font-family="Helvetica Neue, Helvetica, Arial, sans-serif" font-size="11.0px" fill="#475569" text-anchor="start" font-weight="600">GPT — next-token prediction</text><rect x="387.5" y="60.0" width="322.8" height="410.6" rx="10" fill="#FFFFFF" stroke="#CBD5E1" stroke-width="1.2"/><text x="400.5" y="76.5" font-family="Helvetica Neue, Helvetica, Arial, sans-serif" font-size="11.0px" fill="#475569" text-anchor="start" font-weight="600">BERT — masked language modeling</text></g><g id="edges"></g><g id="nodes"><text x="73.7" y="109.5" font-family="Helvetica Neue, Helvetica, Arial, sans-serif" font-size="10.5px" fill="#475569" text-anchor="start">input — every position predicts the NEXT token:</text><rect x="58.0" y="125.5" width="44.0" height="24.0" rx="4.5" fill="#E0F2FE" stroke="#0284C7" stroke-width="1.1"/><text x="80.0" y="140.9" font-family="Helvetica Neue, Helvetica, Arial, sans-serif" font-size="10.0px" fill="#0C4A6E" text-anchor="middle" font-weight="500">the</text><rect x="105.5" y="125.5" width="44.0" height="24.0" rx="4.5" fill="#E0F2FE" stroke="#0284C7" stroke-width="1.1"/><text x="127.5" y="140.9" font-family="Helvetica Neue, Helvetica, Arial, sans-serif" font-size="10.0px" fill="#0C4A6E" text-anchor="middle" font-weight="500">cat</text><rect x="153.0" y="125.5" width="44.0" height="24.0" rx="4.5" fill="#E0F2FE" stroke="#0284C7" stroke-width="1.1"/><text x="175.0" y="140.9" font-family="Helvetica Neue, Helvetica, Arial, sans-serif" font-size="10.0px" fill="#0C4A6E" text-anchor="middle" font-weight="500">sat</text><rect x="200.5" y="125.5" width="44.0" height="24.0" rx="4.5" fill="#E0F2FE" stroke="#0284C7" stroke-width="1.1"/><text x="222.5" y="140.9" font-family="Helvetica Neue, Helvetica, Arial, sans-serif" font-size="10.0px" fill="#0C4A6E" text-anchor="middle" font-weight="500">on</text><rect x="248.0" y="125.5" width="44.0" height="24.0" rx="4.5" fill="#E0F2FE" stroke="#0284C7" stroke-width="1.1"/><text x="270.0" y="140.9" font-family="Helvetica Neue, Helvetica, Arial, sans-serif" font-size="10.0px" fill="#0C4A6E" text-anchor="middle" font-weight="500">the</text><rect x="295.5" y="125.5" width="44.0" height="24.0" rx="4.5" fill="#E0F2FE" stroke="#0284C7" stroke-width="1.1"/><text x="317.5" y="140.9" font-family="Helvetica Neue, Helvetica, Arial, sans-serif" font-size="10.0px" fill="#0C4A6E" text-anchor="middle" font-weight="500">mat</text><rect x="58.0" y="161.5" width="44.0" height="24.0" rx="4.5" fill="#D1FAE5" stroke="#059669" stroke-width="1.1"/><text x="80.0" y="176.9" font-family="Helvetica Neue, Helvetica, Arial, sans-serif" font-size="10.0px" fill="#064E3B" text-anchor="middle" font-weight="500">cat</text><rect x="105.5" y="161.5" width="44.0" height="24.0" rx="4.5" fill="#D1FAE5" stroke="#059669" stroke-width="1.1"/><text x="127.5" y="176.9" font-family="Helvetica Neue, Helvetica, Arial, sans-serif" font-size="10.0px" fill="#064E3B" text-anchor="middle" font-weight="500">sat</text><rect x="153.0" y="161.5" width="44.0" height="24.0" rx="4.5" fill="#D1FAE5" stroke="#059669" stroke-width="1.1"/><text x="175.0" y="176.9" font-family="Helvetica Neue, Helvetica, Arial, sans-serif" font-size="10.0px" fill="#064E3B" text-anchor="middle" font-weight="500">on</text><rect x="200.5" y="161.5" width="44.0" height="24.0" rx="4.5" fill="#D1FAE5" stroke="#059669" stroke-width="1.1"/><text x="222.5" y="176.9" font-family="Helvetica Neue, Helvetica, Arial, sans-serif" font-size="10.0px" fill="#064E3B" text-anchor="middle" font-weight="500">the</text><rect x="248.0" y="161.5" width="44.0" height="24.0" rx="4.5" fill="#D1FAE5" stroke="#059669" stroke-width="1.1"/><text x="270.0" y="176.9" font-family="Helvetica Neue, Helvetica, Arial, sans-serif" font-size="10.0px" fill="#064E3B" text-anchor="middle" font-weight="500">mat</text><rect x="295.5" y="161.5" width="44.0" height="24.0" rx="4.5" fill="#D1FAE5" stroke="#059669" stroke-width="1.1"/><text x="317.5" y="176.9" font-family="Helvetica Neue, Helvetica, Arial, sans-serif" font-size="10.0px" fill="#064E3B" text-anchor="middle" font-weight="500">[?]</text><text x="317.5" y="196.5" font-family="SF Mono, Menlo, Consolas, monospace" font-size="8.5px" fill="#94A3B8" text-anchor="middle">target</text><text x="59.7" y="222.0" font-family="Helvetica Neue, Helvetica, Arial, sans-serif" font-size="10.5px" fill="#475569" text-anchor="start">causal attention (cells computed from the rule  j ≤ i):</text><text x="219.3" y="248.0" font-family="Helvetica Neue, Helvetica, Arial, sans-serif" font-size="9.5px" fill="#475569" text-anchor="middle" font-weight="600">key / value</text><text x="171.8" y="277.0" font-family="SF Mono, Menlo, Consolas, monospace" font-size="9.0px" fill="#475569" text-anchor="middle">the</text><text x="190.8" y="277.0" font-family="SF Mono, Menlo, Consolas, monospace" font-size="9.0px" fill="#475569" text-anchor="middle">cat</text><text x="209.8" y="277.0" font-family="SF Mono, Menlo, Consolas, monospace" font-size="9.0px" fill="#475569" text-anchor="middle">sat</text><text x="228.8" y="277.0" font-family="SF Mono, Menlo, Consolas, monospace" font-size="9.0px" fill="#475569" text-anchor="middle">on</text><text x="247.8" y="277.0" font-family="SF Mono, Menlo, Consolas, monospace" font-size="9.0px" fill="#475569" text-anchor="middle">the</text><text x="266.8" y="277.0" font-family="SF Mono, Menlo, Consolas, monospace" font-size="9.0px" fill="#475569" text-anchor="middle">mat</text><text x="155.3" y="294.7" font-family="SF Mono, Menlo, Consolas, monospace" font-size="9.0px" fill="#475569" text-anchor="end">the</text><rect x="162.3" y="282.0" width="17.6" height="17.6" rx="2.5" fill="#FDE68A" stroke="#CBD5E1" stroke-width="0.7"/><rect x="181.3" y="282.0" width="17.6" height="17.6" rx="2.5" fill="#FFFFFF" stroke="#CBD5E1" stroke-width="0.7"/><rect x="200.3" y="282.0" width="17.6" height="17.6" rx="2.5" fill="#FFFFFF" stroke="#CBD5E1" stroke-width="0.7"/><rect x="219.3" y="282.0" width="17.6" height="17.6" rx="2.5" fill="#FFFFFF" stroke="#CBD5E1" stroke-width="0.7"/><rect x="238.3" y="282.0" width="17.6" height="17.6" rx="2.5" fill="#FFFFFF" stroke="#CBD5E1" stroke-width="0.7"/><rect x="257.3" y="282.0" width="17.6" height="17.6" rx="2.5" fill="#FFFFFF" stroke="#CBD5E1" stroke-width="0.7"/><text x="155.3" y="313.7" font-family="SF Mono, Menlo, Consolas, monospace" font-size="9.0px" fill="#475569" text-anchor="end">cat</text><rect x="162.3" y="301.0" width="17.6" height="17.6" rx="2.5" fill="#FDE68A" stroke="#CBD5E1" stroke-width="0.7"/><rect x="181.3" y="301.0" width="17.6" height="17.6" rx="2.5" fill="#FDE68A" stroke="#CBD5E1" stroke-width="0.7"/><rect x="200.3" y="301.0" width="17.6" height="17.6" rx="2.5" fill="#FFFFFF" stroke="#CBD5E1" stroke-width="0.7"/><rect x="219.3" y="301.0" width="17.6" height="17.6" rx="2.5" fill="#FFFFFF" stroke="#CBD5E1" stroke-width="0.7"/><rect x="238.3" y="301.0" width="17.6" height="17.6" rx="2.5" fill="#FFFFFF" stroke="#CBD5E1" stroke-width="0.7"/><rect x="257.3" y="301.0" width="17.6" height="17.6" rx="2.5" fill="#FFFFFF" stroke="#CBD5E1" stroke-width="0.7"/><text x="155.3" y="332.7" font-family="SF Mono, Menlo, Consolas, monospace" font-size="9.0px" fill="#475569" text-anchor="end">sat</text><rect x="162.3" y="320.0" width="17.6" height="17.6" rx="2.5" fill="#FDE68A" stroke="#CBD5E1" stroke-width="0.7"/><rect x="181.3" y="320.0" width="17.6" height="17.6" rx="2.5" fill="#FDE68A" stroke="#CBD5E1" stroke-width="0.7"/><rect x="200.3" y="320.0" width="17.6" height="17.6" rx="2.5" fill="#FDE68A" stroke="#CBD5E1" stroke-width="0.7"/><rect x="219.3" y="320.0" width="17.6" height="17.6" rx="2.5" fill="#FFFFFF" stroke="#CBD5E1" stroke-width="0.7"/><rect x="238.3" y="320.0" width="17.6" height="17.6" rx="2.5" fill="#FFFFFF" stroke="#CBD5E1" stroke-width="0.7"/><rect x="257.3" y="320.0" width="17.6" height="17.6" rx="2.5" fill="#FFFFFF" stroke="#CBD5E1" stroke-width="0.7"/><text x="155.3" y="351.7" font-family="SF Mono, Menlo, Consolas, monospace" font-size="9.0px" fill="#475569" text-anchor="end">on</text><rect x="162.3" y="339.0" width="17.6" height="17.6" rx="2.5" fill="#FDE68A" stroke="#CBD5E1" stroke-width="0.7"/><rect x="181.3" y="339.0" width="17.6" height="17.6" rx="2.5" fill="#FDE68A" stroke="#CBD5E1" stroke-width="0.7"/><rect x="200.3" y="339.0" width="17.6" height="17.6" rx="2.5" fill="#FDE68A" stroke="#CBD5E1" stroke-width="0.7"/><rect x="219.3" y="339.0" width="17.6" height="17.6" rx="2.5" fill="#FDE68A" stroke="#CBD5E1" stroke-width="0.7"/><rect x="238.3" y="339.0" width="17.6" height="17.6" rx="2.5" fill="#FFFFFF" stroke="#CBD5E1" stroke-width="0.7"/><rect x="257.3" y="339.0" width="17.6" height="17.6" rx="2.5" fill="#FFFFFF" stroke="#CBD5E1" stroke-width="0.7"/><text x="155.3" y="370.7" font-family="SF Mono, Menlo, Consolas, monospace" font-size="9.0px" fill="#475569" text-anchor="end">the</text><rect x="162.3" y="358.0" width="17.6" height="17.6" rx="2.5" fill="#FDE68A" stroke="#CBD5E1" stroke-width="0.7"/><rect x="181.3" y="358.0" width="17.6" height="17.6" rx="2.5" fill="#FDE68A" stroke="#CBD5E1" stroke-width="0.7"/><rect x="200.3" y="358.0" width="17.6" height="17.6" rx="2.5" fill="#FDE68A" stroke="#CBD5E1" stroke-width="0.7"/><rect x="219.3" y="358.0" width="17.6" height="17.6" rx="2.5" fill="#FDE68A" stroke="#CBD5E1" stroke-width="0.7"/><rect x="238.3" y="358.0" width="17.6" height="17.6" rx="2.5" fill="#FDE68A" stroke="#CBD5E1" stroke-width="0.7"/><rect x="257.3" y="358.0" width="17.6" height="17.6" rx="2.5" fill="#FFFFFF" stroke="#CBD5E1" stroke-width="0.7"/><text x="155.3" y="389.7" font-family="SF Mono, Menlo, Consolas, monospace" font-size="9.0px" fill="#475569" text-anchor="end">mat</text><rect x="162.3" y="377.0" width="17.6" height="17.6" rx="2.5" fill="#FDE68A" stroke="#CBD5E1" stroke-width="0.7"/><rect x="181.3" y="377.0" width="17.6" height="17.6" rx="2.5" fill="#FDE68A" stroke="#CBD5E1" stroke-width="0.7"/><rect x="200.3" y="377.0" width="17.6" height="17.6" rx="2.5" fill="#FDE68A" stroke="#CBD5E1" stroke-width="0.7"/><rect x="219.3" y="377.0" width="17.6" height="17.6" rx="2.5" fill="#FDE68A" stroke="#CBD5E1" stroke-width="0.7"/><rect x="238.3" y="377.0" width="17.6" height="17.6" rx="2.5" fill="#FDE68A" stroke="#CBD5E1" stroke-width="0.7"/><rect x="257.3" y="377.0" width="17.6" height="17.6" rx="2.5" fill="#FDE68A" stroke="#CBD5E1" stroke-width="0.7"/><text x="125.2" y="339.0" font-family="Helvetica Neue, Helvetica, Arial, sans-serif" font-size="9.5px" fill="#475569" font-weight="600" text-anchor="middle" transform="rotate(-90 125.2 339.0)">query</text><g transform="translate(128.37,424.98) scale(1,-1)"><path d="M 0.46 -0.19 Q 0.38 -0.19 0.38 -0.11 Q 0.38 -0.06 0.43 0.01 Q 0.52 0.16 0.70 0.34 Q 0.88 0.52 0.96 0.62 Q 1.28 1.08 1.46 1.43 Q 1.78 2.09 2.01 2.95 Q 2.36 4.31 2.63 5.16 Q 2.91 6.00 3.36 6.76 Q 3.72 7.35 4.23 7.83 Q 4.75 8.32 5.38 8.61 Q 6.02 8.90 6.68 8.90 L 6.75 8.90 Q 7.07 8.90 7.29 8.74 Q 7.51 8.57 7.63 8.30 Q 7.74 8.03 7.74 7.72 Q 7.74 7.24 7.59 7.06 Q 7.15 6.59 6.56 6.51 L 6.49 6.51 Q 6.41 6.51 6.41 6.60 Q 6.41 6.61 6.45 6.79 Q 6.48 6.96 6.48 7.08 Q 6.48 7.49 6.27 7.79 Q 6.07 8.09 5.68 8.09 Q 5.21 8.09 5.21 8.01 Q 4.87 7.77 4.56 7.22 Q 4.24 6.66 4.01 6.02 Q 3.77 5.38 3.59 4.72 Q 3.41 4.08 3.27 3.51 Q 3.11 2.89 2.87 2.33 Q 2.63 1.76 2.30 1.26 Q 2.45 1.31 2.66 1.31 L 2.74 1.31 Q 3.17 1.31 3.61 1.22 Q 4.04 1.14 4.64 0.96 Q 5.25 0.79 5.65 0.71 Q 6.05 0.63 6.50 0.62 Q 6.63 0.62 6.72 0.74 Q 6.80 0.87 6.89 1.08 Q 6.97 1.30 7.03 1.37 Q 7.21 1.58 7.49 1.73 Q 7.76 1.89 8.04 1.92 L 8.11 1.92 Q 8.15 1.92 8.17 1.90 Q 8.20 1.87 8.20 1.84 Q 8.20 1.84 8.19 1.80 Q 8.06 1.31 7.61 0.84 Q 7.16 0.37 6.58 0.09 Q 6.01 -0.19 5.52 -0.19 L 5.45 -0.19 Q 5.02 -0.19 4.60 -0.11 Q 4.19 -0.03 3.58 0.14 Q 2.98 0.31 2.55 0.40 Q 2.12 0.49 1.69 0.50 Q 1.13 -0.11 0.54 -0.19 L 0.46 -0.19 Z M 11.75 1.74 Q 11.64 1.74 11.57 1.82 Q 11.51 1.90 11.51 1.99 Q 11.51 2.10 11.57 2.17 Q 11.64 2.24 11.75 2.24 L 19.60 2.24 Q 19.69 2.24 19.75 2.17 Q 19.82 2.10 19.82 1.99 Q 19.82 1.90 19.75 1.82 Q 19.69 1.74 19.60 1.74 L 11.75 1.74 Z M 11.75 4.17 Q 11.64 4.17 11.57 4.25 Q 11.51 4.32 11.51 4.42 Q 11.51 4.52 11.57 4.59 Q 11.64 4.67 11.75 4.67 L 19.60 4.67 Q 19.69 4.67 19.75 4.59 Q 19.82 4.52 19.82 4.42 Q 19.82 4.32 19.75 4.25 Q 19.69 4.17 19.60 4.17 L 11.75 4.17 Z M 23.99 2.96 Q 23.88 2.96 23.82 3.04 Q 23.75 3.12 23.75 3.21 Q 23.75 3.30 23.82 3.38 Q 23.88 3.46 23.99 3.46 L 31.16 3.46 Q 31.26 3.46 31.32 3.38 Q 31.39 3.30 31.39 3.21 Q 31.39 3.12 31.32 3.04 Q 31.26 2.96 31.16 2.96 L 23.99 2.96 Z M 33.25 -4.50 Q 33.12 -4.50 33.12 -4.37 Q 33.12 -4.31 33.16 -4.27 L 39.76 3.41 L 33.16 12.45 Q 33.12 12.49 33.12 12.51 L 33.12 12.89 Q 33.12 12.93 33.16 12.97 Q 33.20 13.00 33.25 13.00 L 48.25 13.00 L 49.76 9.49 L 49.40 9.49 Q 48.82 10.82 47.46 11.46 Q 46.09 12.10 44.61 12.25 Q 43.13 12.40 41.18 12.40 L 35.40 12.40 L 41.30 4.34 Q 41.32 4.29 41.32 4.25 Q 41.32 4.21 41.30 4.16 L 34.81 -3.39 L 41.30 -3.39 Q 43.22 -3.39 44.71 -3.24 Q 46.19 -3.09 47.54 -2.45 Q 48.88 -1.80 49.40 -0.48 L 49.76 -0.48 L 48.25 -4.50 L 33.25 -4.50 Z M 40.23 -12.00 Q 40.23 -11.84 40.30 -11.66 L 41.01 -9.77 Q 41.12 -9.45 41.12 -9.25 Q 41.12 -8.99 40.93 -8.99 Q 40.59 -8.99 40.36 -9.34 Q 40.14 -9.70 40.03 -10.14 Q 40.01 -10.20 39.96 -10.20 L 39.86 -10.20 Q 39.78 -10.20 39.78 -10.11 L 39.78 -10.09 Q 39.92 -9.57 40.21 -9.16 Q 40.51 -8.76 40.95 -8.76 Q 41.26 -8.76 41.48 -8.97 Q 41.69 -9.17 41.69 -9.49 Q 41.69 -9.65 41.62 -9.83 L 40.91 -11.71 Q 40.79 -12.00 40.79 -12.23 Q 40.79 -12.49 40.99 -12.49 Q 41.33 -12.49 41.56 -12.13 Q 41.79 -11.76 41.88 -11.34 Q 41.90 -11.29 41.95 -11.29 L 42.06 -11.29 Q 42.10 -11.29 42.12 -11.31 Q 42.14 -11.34 42.14 -11.37 Q 42.14 -11.37 42.13 -11.39 Q 42.01 -11.89 41.71 -12.31 Q 41.42 -12.72 40.98 -12.72 Q 40.67 -12.72 40.45 -12.51 Q 40.23 -12.30 40.23 -12.00 Z M 41.22 -7.32 Q 41.22 -7.14 41.37 -6.99 Q 41.53 -6.84 41.71 -6.84 Q 41.86 -6.84 41.96 -6.93 Q 42.05 -7.03 42.05 -7.17 Q 42.05 -7.36 41.90 -7.51 Q 41.74 -7.66 41.55 -7.66 Q 41.41 -7.66 41.31 -7.56 Q 41.22 -7.47 41.22 -7.32 Z M 49.44 0.08 L 49.44 0.52 Q 49.87 0.52 50.15 0.59 Q 50.42 0.66 50.42 0.92 L 50.42 7.48 Q 50.42 7.82 50.32 7.97 Q 50.22 8.12 50.03 8.15 Q 49.84 8.18 49.44 8.18 L 49.44 8.62 L 51.30 8.76 L 51.30 0.92 Q 51.30 0.66 51.57 0.59 Q 51.85 0.52 52.27 0.52 L 52.27 0.08 L 49.44 0.08 Z M 55.65 -0.06 Q 54.90 -0.06 54.25 0.32 Q 53.61 0.71 53.24 1.35 Q 52.87 1.99 52.87 2.75 Q 52.87 3.32 53.07 3.85 Q 53.28 4.38 53.66 4.80 Q 54.04 5.22 54.55 5.45 Q 55.05 5.69 55.65 5.69 Q 56.42 5.69 57.05 5.28 Q 57.68 4.88 58.04 4.19 Q 58.41 3.51 58.41 2.75 Q 58.41 1.99 58.04 1.35 Q 57.67 0.71 57.03 0.32 Q 56.39 -0.06 55.65 -0.06 Z M 55.65 0.31 Q 56.65 0.31 56.98 1.04 Q 57.32 1.76 57.32 2.89 Q 57.32 3.51 57.25 3.93 Q 57.18 4.34 56.96 4.67 Q 56.82 4.88 56.60 5.04 Q 56.38 5.19 56.14 5.28 Q 55.90 5.36 55.65 5.36 Q 55.25 5.36 54.90 5.18 Q 54.55 5.00 54.32 4.67 Q 54.09 4.32 54.02 3.89 Q 53.96 3.47 53.96 2.89 Q 53.96 2.18 54.08 1.63 Q 54.21 1.07 54.58 0.69 Q 54.94 0.31 55.65 0.31 Z M 59.12 -0.89 Q 59.12 -0.45 59.44 -0.11 Q 59.76 0.22 60.21 0.36 Q 59.96 0.55 59.83 0.83 Q 59.70 1.12 59.70 1.45 Q 59.70 2.03 60.07 2.48 Q 59.50 3.05 59.50 3.77 Q 59.50 4.16 59.67 4.50 Q 59.83 4.85 60.13 5.10 Q 60.43 5.35 60.80 5.48 Q 61.16 5.61 61.55 5.61 Q 62.29 5.61 62.88 5.17 Q 63.14 5.45 63.49 5.60 Q 63.84 5.75 64.22 5.75 Q 64.49 5.75 64.66 5.56 Q 64.83 5.36 64.83 5.10 Q 64.83 4.94 64.71 4.83 Q 64.60 4.71 64.45 4.71 Q 64.29 4.71 64.17 4.83 Q 64.06 4.94 64.06 5.10 Q 64.06 5.33 64.21 5.42 Q 63.56 5.42 63.10 4.97 Q 63.32 4.75 63.46 4.42 Q 63.60 4.09 63.60 3.77 Q 63.60 3.24 63.31 2.81 Q 63.01 2.39 62.53 2.16 Q 62.05 1.92 61.55 1.92 Q 60.86 1.92 60.30 2.29 Q 60.12 2.05 60.12 1.74 Q 60.12 1.41 60.34 1.17 Q 60.55 0.92 60.88 0.92 L 61.91 0.92 Q 62.65 0.92 63.25 0.79 Q 63.85 0.65 64.25 0.25 Q 64.66 -0.15 64.66 -0.89 Q 64.66 -1.44 64.20 -1.80 Q 63.73 -2.17 63.09 -2.33 Q 62.44 -2.49 61.90 -2.49 Q 61.34 -2.49 60.69 -2.33 Q 60.05 -2.17 59.58 -1.80 Q 59.12 -1.44 59.12 -0.89 Z M 59.82 -0.89 Q 59.82 -1.31 60.16 -1.60 Q 60.50 -1.88 60.99 -2.02 Q 61.47 -2.16 61.90 -2.16 Q 62.32 -2.16 62.80 -2.02 Q 63.28 -1.88 63.62 -1.60 Q 63.96 -1.31 63.96 -0.89 Q 63.96 -0.24 63.36 -0.05 Q 62.76 0.14 61.91 0.14 L 60.88 0.14 Q 60.59 0.14 60.35 0.01 Q 60.11 -0.13 59.97 -0.38 Q 59.82 -0.62 59.82 -0.89 Z M 61.55 2.26 Q 62.61 2.26 62.61 3.77 Q 62.61 4.42 62.38 4.85 Q 62.16 5.27 61.55 5.27 Q 60.94 5.27 60.71 4.85 Q 60.49 4.42 60.49 3.77 Q 60.49 3.36 60.57 3.02 Q 60.66 2.68 60.89 2.47 Q 61.12 2.26 61.55 2.26 Z M 66.54 -2.34 Q 66.42 -2.34 66.42 -2.18 Q 66.46 -1.91 66.59 -1.91 Q 66.98 -1.91 67.13 -1.84 Q 67.29 -1.77 67.37 -1.48 L 68.79 4.15 Q 68.88 4.38 68.88 4.75 Q 68.88 5.29 68.51 5.29 Q 68.12 5.29 67.93 4.82 Q 67.74 4.35 67.56 3.64 Q 67.56 3.56 67.46 3.56 L 67.31 3.56 Q 67.28 3.56 67.25 3.60 Q 67.21 3.65 67.21 3.69 Q 67.34 4.23 67.47 4.61 Q 67.59 4.98 67.86 5.30 Q 68.12 5.61 68.52 5.61 Q 68.95 5.61 69.27 5.37 Q 69.60 5.13 69.69 4.71 Q 70.03 5.11 70.44 5.36 Q 70.86 5.61 71.30 5.61 Q 71.82 5.61 72.21 5.33 Q 72.60 5.05 72.79 4.59 Q 72.99 4.14 72.99 3.61 Q 72.99 2.81 72.58 1.95 Q 72.17 1.09 71.46 0.51 Q 70.76 -0.06 69.95 -0.06 Q 69.58 -0.06 69.29 0.15 Q 68.99 0.36 68.83 0.70 L 68.26 -1.53 Q 68.23 -1.71 68.22 -1.74 Q 68.22 -1.91 69.05 -1.91 Q 69.18 -1.91 69.18 -2.06 Q 69.13 -2.23 69.11 -2.28 Q 69.08 -2.34 68.96 -2.34 L 66.54 -2.34 Z M 69.96 0.27 Q 70.40 0.27 70.77 0.63 Q 71.14 0.99 71.37 1.43 Q 71.54 1.77 71.69 2.25 Q 71.84 2.74 71.95 3.29 Q 72.06 3.84 72.06 4.16 Q 72.06 4.45 71.99 4.70 Q 71.91 4.95 71.74 5.12 Q 71.56 5.29 71.28 5.29 Q 70.82 5.29 70.41 4.96 Q 70.01 4.63 69.68 4.15 L 69.68 4.11 L 68.99 1.35 Q 69.07 0.90 69.32 0.59 Q 69.56 0.27 69.96 0.27 Z M 74.55 -2.14 Q 74.15 -2.14 73.91 -1.85 Q 73.67 -1.56 73.58 -1.15 Q 73.49 -0.74 73.49 -0.34 L 73.49 -0.33 Q 73.49 0.11 73.57 0.58 Q 73.65 1.05 73.81 1.51 Q 73.97 1.98 74.15 2.35 Q 74.28 2.61 74.48 2.92 Q 74.69 3.24 74.94 3.51 Q 75.19 3.79 75.48 3.96 Q 75.76 4.13 76.06 4.13 L 76.07 4.13 Q 76.38 4.13 76.59 3.95 Q 76.81 3.78 76.92 3.50 Q 77.04 3.23 77.09 2.92 Q 77.14 2.61 77.14 2.33 Q 77.14 1.66 76.96 0.97 Q 76.78 0.28 76.46 -0.36 Q 76.34 -0.61 76.13 -0.94 Q 75.92 -1.26 75.68 -1.52 Q 75.44 -1.78 75.15 -1.96 Q 74.85 -2.14 74.56 -2.14 L 74.55 -2.14 Z M 74.56 -1.91 Q 74.85 -1.91 75.12 -1.60 Q 75.39 -1.29 75.59 -0.85 Q 75.79 -0.40 75.94 0.06 Q 76.09 0.52 76.17 0.85 L 74.38 0.85 Q 74.24 0.30 74.17 -0.10 Q 74.09 -0.50 74.09 -0.89 Q 74.09 -1.91 74.56 -1.91 Z M 74.45 1.16 L 76.24 1.16 Q 76.34 1.54 76.39 1.80 Q 76.45 2.06 76.49 2.34 Q 76.52 2.63 76.52 2.88 Q 76.52 3.90 76.06 3.90 Q 75.50 3.90 75.10 3.01 Q 74.70 2.11 74.45 1.16 Z M 81.91 -3.02 Q 81.22 -2.47 80.71 -1.76 Q 80.21 -1.04 79.89 -0.24 Q 79.57 0.57 79.41 1.45 Q 79.25 2.32 79.25 3.21 Q 79.25 4.11 79.41 4.98 Q 79.57 5.86 79.90 6.68 Q 80.22 7.49 80.73 8.20 Q 81.24 8.90 81.91 9.44 Q 81.91 9.46 81.98 9.46 L 82.09 9.46 Q 82.13 9.46 82.16 9.43 Q 82.19 9.39 82.19 9.35 Q 82.19 9.30 82.17 9.27 Q 81.55 8.67 81.15 7.99 Q 80.74 7.31 80.49 6.53 Q 80.25 5.76 80.14 4.93 Q 80.03 4.11 80.03 3.21 Q 80.03 -0.76 82.15 -2.83 Q 82.19 -2.86 82.19 -2.93 Q 82.19 -2.96 82.16 -3.00 Q 82.12 -3.04 82.09 -3.04 L 81.98 -3.04 Q 81.91 -3.04 81.91 -3.02 Z M 83.87 0.44 Q 84.09 0.27 84.49 0.27 Q 84.88 0.27 85.18 0.65 Q 85.48 1.02 85.59 1.47 L 86.16 3.69 Q 86.29 4.29 86.29 4.51 Q 86.29 4.82 86.12 5.05 Q 85.94 5.29 85.63 5.29 Q 85.24 5.29 84.89 5.04 Q 84.54 4.79 84.30 4.41 Q 84.06 4.03 83.97 3.64 Q 83.94 3.56 83.87 3.56 L 83.72 3.56 Q 83.62 3.56 83.62 3.67 L 83.62 3.71 Q 83.74 4.17 84.03 4.62 Q 84.33 5.06 84.75 5.33 Q 85.17 5.61 85.66 5.61 Q 86.11 5.61 86.48 5.36 Q 86.85 5.12 87.00 4.70 Q 87.22 5.08 87.55 5.34 Q 87.88 5.61 88.28 5.61 Q 88.55 5.61 88.83 5.51 Q 89.11 5.42 89.29 5.22 Q 89.47 5.03 89.47 4.73 Q 89.47 4.42 89.26 4.19 Q 89.06 3.96 88.74 3.96 Q 88.54 3.96 88.40 4.09 Q 88.27 4.22 88.27 4.41 Q 88.27 4.67 88.45 4.87 Q 88.63 5.07 88.88 5.11 Q 88.65 5.29 88.26 5.29 Q 87.85 5.29 87.56 4.91 Q 87.26 4.54 87.14 4.08 L 86.59 1.87 Q 86.46 1.37 86.46 1.05 Q 86.46 0.73 86.64 0.50 Q 86.82 0.27 87.12 0.27 Q 87.70 0.27 88.16 0.79 Q 88.62 1.31 88.77 1.92 Q 88.79 1.99 88.87 1.99 L 89.02 1.99 Q 89.07 1.99 89.10 1.96 Q 89.13 1.93 89.13 1.89 Q 89.13 1.87 89.12 1.85 Q 88.94 1.10 88.37 0.52 Q 87.81 -0.06 87.09 -0.06 Q 86.63 -0.06 86.26 0.19 Q 85.90 0.44 85.74 0.86 Q 85.55 0.49 85.20 0.22 Q 84.86 -0.06 84.47 -0.06 Q 84.20 -0.06 83.91 0.04 Q 83.63 0.13 83.45 0.33 Q 83.28 0.52 83.28 0.82 Q 83.28 1.12 83.48 1.36 Q 83.68 1.60 83.99 1.60 Q 84.20 1.60 84.34 1.47 Q 84.48 1.35 84.48 1.15 Q 84.48 0.88 84.30 0.69 Q 84.13 0.49 83.87 0.44 Z M 90.71 -1.41 Q 90.71 -1.25 90.78 -1.07 L 91.49 0.81 Q 91.60 1.13 91.60 1.34 Q 91.60 1.60 91.41 1.60 Q 91.06 1.60 90.84 1.24 Q 90.62 0.89 90.51 0.45 Q 90.49 0.39 90.44 0.39 L 90.33 0.39 Q 90.26 0.39 90.26 0.47 L 90.26 0.50 Q 90.40 1.02 90.69 1.42 Q 90.98 1.82 91.43 1.82 Q 91.74 1.82 91.96 1.62 Q 92.17 1.41 92.17 1.10 Q 92.17 0.94 92.10 0.76 L 91.39 -1.12 Q 91.27 -1.41 91.27 -1.65 Q 91.27 -1.91 91.47 -1.91 Q 91.81 -1.91 92.04 -1.54 Q 92.27 -1.18 92.36 -0.75 Q 92.38 -0.70 92.43 -0.70 L 92.54 -0.70 Q 92.57 -0.70 92.59 -0.73 Q 92.62 -0.75 92.62 -0.78 Q 92.62 -0.79 92.61 -0.81 Q 92.49 -1.30 92.19 -1.72 Q 91.89 -2.14 91.45 -2.14 Q 91.15 -2.14 90.93 -1.93 Q 90.71 -1.72 90.71 -1.41 Z M 91.70 3.26 Q 91.70 3.45 91.85 3.59 Q 92.00 3.74 92.19 3.74 Q 92.34 3.74 92.43 3.65 Q 92.53 3.56 92.53 3.42 Q 92.53 3.22 92.37 3.07 Q 92.22 2.93 92.03 2.93 Q 91.89 2.93 91.79 3.02 Q 91.70 3.12 91.70 3.26 Z M 95.23 -0.03 Q 95.16 -0.03 95.11 0.03 Q 95.07 0.08 95.07 0.15 Q 95.07 0.21 95.11 0.26 Q 95.16 0.32 95.23 0.32 L 97.81 0.32 L 97.81 2.90 Q 97.81 2.97 97.86 3.01 Q 97.91 3.06 97.98 3.06 Q 98.04 3.06 98.10 3.01 Q 98.16 2.97 98.16 2.90 L 98.16 0.32 L 100.73 0.32 Q 100.79 0.32 100.84 0.26 Q 100.89 0.21 100.89 0.15 Q 100.89 0.08 100.84 0.03 Q 100.79 -0.03 100.73 -0.03 L 98.16 -0.03 L 98.16 -2.61 Q 98.16 -2.68 98.10 -2.72 Q 98.04 -2.77 97.98 -2.77 Q 97.91 -2.77 97.86 -2.72 Q 97.81 -2.68 97.81 -2.61 L 97.81 -0.03 L 95.23 -0.03 Z M 103.72 -2.04 L 103.72 -1.73 Q 104.81 -1.73 104.81 -1.46 L 104.81 3.14 Q 104.36 2.92 103.67 2.92 L 103.67 3.23 Q 104.74 3.23 105.29 3.79 L 105.41 3.79 Q 105.44 3.79 105.47 3.76 Q 105.50 3.74 105.50 3.71 L 105.50 -1.46 Q 105.50 -1.73 106.59 -1.73 L 106.59 -2.04 L 103.72 -2.04 Z M 111.77 -2.81 L 111.77 9.23 Q 111.77 9.33 111.84 9.39 Q 111.91 9.46 112.02 9.46 Q 112.11 9.46 112.19 9.39 Q 112.27 9.33 112.27 9.23 L 112.27 -2.81 Q 112.27 -2.91 112.19 -2.98 Q 112.11 -3.04 112.02 -3.04 Q 111.91 -3.04 111.84 -2.98 Q 111.77 -2.91 111.77 -2.81 Z M 116.91 0.44 Q 117.13 0.27 117.53 0.27 Q 117.92 0.27 118.22 0.65 Q 118.52 1.02 118.63 1.47 L 119.20 3.69 Q 119.33 4.29 119.33 4.51 Q 119.33 4.82 119.16 5.05 Q 118.98 5.29 118.67 5.29 Q 118.28 5.29 117.93 5.04 Q 117.58 4.79 117.34 4.41 Q 117.10 4.03 117.01 3.64 Q 116.98 3.56 116.91 3.56 L 116.76 3.56 Q 116.66 3.56 116.66 3.67 L 116.66 3.71 Q 116.78 4.17 117.07 4.62 Q 117.36 5.06 117.79 5.33 Q 118.21 5.61 118.70 5.61 Q 119.15 5.61 119.52 5.36 Q 119.89 5.12 120.04 4.70 Q 120.26 5.08 120.59 5.34 Q 120.92 5.61 121.32 5.61 Q 121.59 5.61 121.87 5.51 Q 122.15 5.42 122.33 5.22 Q 122.51 5.03 122.51 4.73 Q 122.51 4.42 122.30 4.19 Q 122.10 3.96 121.78 3.96 Q 121.58 3.96 121.44 4.09 Q 121.31 4.22 121.31 4.41 Q 121.31 4.67 121.49 4.87 Q 121.67 5.07 121.92 5.11 Q 121.69 5.29 121.30 5.29 Q 120.89 5.29 120.60 4.91 Q 120.30 4.54 120.18 4.08 L 119.63 1.87 Q 119.50 1.37 119.50 1.05 Q 119.50 0.73 119.68 0.50 Q 119.86 0.27 120.16 0.27 Q 120.74 0.27 121.20 0.79 Q 121.66 1.31 121.81 1.92 Q 121.83 1.99 121.91 1.99 L 122.06 1.99 Q 122.11 1.99 122.14 1.96 Q 122.17 1.93 122.17 1.89 Q 122.17 1.87 122.16 1.85 Q 121.98 1.10 121.41 0.52 Q 120.85 -0.06 120.13 -0.06 Q 119.67 -0.06 119.30 0.19 Q 118.94 0.44 118.78 0.86 Q 118.59 0.49 118.24 0.22 Q 117.90 -0.06 117.51 -0.06 Q 117.24 -0.06 116.95 0.04 Q 116.67 0.13 116.49 0.33 Q 116.32 0.52 116.32 0.82 Q 116.32 1.12 116.52 1.36 Q 116.72 1.60 117.03 1.60 Q 117.24 1.60 117.38 1.47 Q 117.52 1.35 117.52 1.15 Q 117.52 0.88 117.34 0.69 Q 117.17 0.49 116.91 0.44 Z M 125.50 -3.24 Q 125.42 -3.24 125.38 -3.19 Q 125.33 -3.13 125.33 -3.07 Q 125.33 -2.99 125.38 -2.94 Q 125.42 -2.89 125.50 -2.89 L 130.52 -2.89 Q 130.58 -2.89 130.63 -2.94 Q 130.67 -2.99 130.67 -3.07 Q 130.67 -3.13 130.63 -3.19 Q 130.58 -3.24 130.52 -3.24 L 125.50 -3.24 Z M 125.41 0.85 Q 125.33 0.87 125.33 1.00 Q 125.33 1.11 125.44 1.16 L 130.44 3.51 Q 130.46 3.53 130.50 3.53 Q 130.57 3.53 130.62 3.47 Q 130.67 3.42 130.67 3.35 Q 130.67 3.23 130.57 3.19 L 125.91 1.00 L 130.60 -1.22 Q 130.67 -1.26 130.67 -1.37 Q 130.67 -1.44 130.62 -1.49 Q 130.57 -1.54 130.50 -1.54 Q 130.46 -1.54 130.44 -1.52 L 125.41 0.85 Z M 133.62 -1.41 Q 133.62 -1.25 133.69 -1.07 L 134.40 0.81 Q 134.51 1.13 134.51 1.34 Q 134.51 1.60 134.32 1.60 Q 133.97 1.60 133.75 1.24 Q 133.53 0.89 133.42 0.45 Q 133.40 0.39 133.35 0.39 L 133.24 0.39 Q 133.17 0.39 133.17 0.47 L 133.17 0.50 Q 133.31 1.02 133.60 1.42 Q 133.89 1.82 134.34 1.82 Q 134.65 1.82 134.87 1.62 Q 135.08 1.41 135.08 1.10 Q 135.08 0.94 135.01 0.76 L 134.30 -1.12 Q 134.18 -1.41 134.18 -1.65 Q 134.18 -1.91 134.38 -1.91 Q 134.72 -1.91 134.95 -1.54 Q 135.18 -1.18 135.27 -0.75 Q 135.29 -0.70 135.34 -0.70 L 135.45 -0.70 Q 135.48 -0.70 135.50 -0.73 Q 135.53 -0.75 135.53 -0.78 Q 135.53 -0.79 135.52 -0.81 Q 135.40 -1.30 135.10 -1.72 Q 134.80 -2.14 134.36 -2.14 Q 134.06 -2.14 133.84 -1.93 Q 133.62 -1.72 133.62 -1.41 Z M 134.61 3.26 Q 134.61 3.45 134.76 3.59 Q 134.91 3.74 135.10 3.74 Q 135.25 3.74 135.34 3.65 Q 135.44 3.56 135.44 3.42 Q 135.44 3.22 135.28 3.07 Q 135.13 2.93 134.94 2.93 Q 134.80 2.93 134.70 3.02 Q 134.61 3.12 134.61 3.26 Z M 137.56 -3.04 Q 137.45 -3.04 137.45 -2.93 Q 137.45 -2.88 137.47 -2.85 Q 139.61 -0.76 139.61 3.21 Q 139.61 7.18 137.50 9.25 Q 137.45 9.28 137.45 9.35 Q 137.45 9.39 137.48 9.43 Q 137.52 9.46 137.56 9.46 L 137.67 9.46 Q 137.71 9.46 137.73 9.44 Q 138.63 8.73 139.23 7.71 Q 139.83 6.70 140.11 5.55 Q 140.38 4.41 140.38 3.21 Q 140.38 2.32 140.23 1.47 Q 140.08 0.61 139.76 -0.22 Q 139.43 -1.06 138.93 -1.76 Q 138.43 -2.47 137.73 -3.02 Q 137.71 -3.04 137.67 -3.04 L 137.56 -3.04 Z" fill="#0F172A"/></g><text x="419.1" y="109.5" font-family="Helvetica Neue, Helvetica, Arial, sans-serif" font-size="10.5px" fill="#475569" text-anchor="start">input — 15% of tokens replaced by [M] = [MASK]:</text><rect x="408.1" y="125.5" width="44.0" height="24.0" rx="4.5" fill="#E0F2FE" stroke="#0284C7" stroke-width="1.1"/><text x="430.1" y="140.9" font-family="Helvetica Neue, Helvetica, Arial, sans-serif" font-size="10.0px" fill="#0C4A6E" text-anchor="middle" font-weight="500">the</text><rect x="455.6" y="125.5" width="44.0" height="24.0" rx="4.5" fill="url(#hatch-F1F5F9-94A3B8)" stroke="#94A3B8" stroke-width="1.8"/><text x="477.6" y="140.9" font-family="Helvetica Neue, Helvetica, Arial, sans-serif" font-size="10.0px" fill="#334155" text-anchor="middle" font-weight="500" paint-order="stroke" stroke="#FFFFFF" stroke-width="3px">[M]</text><rect x="503.1" y="125.5" width="44.0" height="24.0" rx="4.5" fill="#E0F2FE" stroke="#0284C7" stroke-width="1.1"/><text x="525.1" y="140.9" font-family="Helvetica Neue, Helvetica, Arial, sans-serif" font-size="10.0px" fill="#0C4A6E" text-anchor="middle" font-weight="500">sat</text><rect x="550.6" y="125.5" width="44.0" height="24.0" rx="4.5" fill="#E0F2FE" stroke="#0284C7" stroke-width="1.1"/><text x="572.6" y="140.9" font-family="Helvetica Neue, Helvetica, Arial, sans-serif" font-size="10.0px" fill="#0C4A6E" text-anchor="middle" font-weight="500">on</text><rect x="598.1" y="125.5" width="44.0" height="24.0" rx="4.5" fill="url(#hatch-F1F5F9-94A3B8)" stroke="#94A3B8" stroke-width="1.8"/><text x="620.1" y="140.9" font-family="Helvetica Neue, Helvetica, Arial, sans-serif" font-size="10.0px" fill="#334155" text-anchor="middle" font-weight="500" paint-order="stroke" stroke="#FFFFFF" stroke-width="3px">[M]</text><rect x="645.6" y="125.5" width="44.0" height="24.0" rx="4.5" fill="#E0F2FE" stroke="#0284C7" stroke-width="1.1"/><text x="667.6" y="140.9" font-family="Helvetica Neue, Helvetica, Arial, sans-serif" font-size="10.0px" fill="#0C4A6E" text-anchor="middle" font-weight="500">mat</text><rect x="408.1" y="161.5" width="44.0" height="24.0" rx="4.5" fill="#F1F5F9" stroke="#94A3B8" stroke-width="1.1"/><text x="430.1" y="176.9" font-family="Helvetica Neue, Helvetica, Arial, sans-serif" font-size="10.0px" fill="#334155" text-anchor="middle" font-weight="500">·</text><rect x="455.6" y="161.5" width="44.0" height="24.0" rx="4.5" fill="#D1FAE5" stroke="#059669" stroke-width="1.1"/><text x="477.6" y="176.9" font-family="Helvetica Neue, Helvetica, Arial, sans-serif" font-size="10.0px" fill="#064E3B" text-anchor="middle" font-weight="500">cat</text><text x="477.6" y="196.5" font-family="SF Mono, Menlo, Consolas, monospace" font-size="8.5px" fill="#94A3B8" text-anchor="middle">predict</text><rect x="503.1" y="161.5" width="44.0" height="24.0" rx="4.5" fill="#F1F5F9" stroke="#94A3B8" stroke-width="1.1"/><text x="525.1" y="176.9" font-family="Helvetica Neue, Helvetica, Arial, sans-serif" font-size="10.0px" fill="#334155" text-anchor="middle" font-weight="500">·</text><rect x="550.6" y="161.5" width="44.0" height="24.0" rx="4.5" fill="#F1F5F9" stroke="#94A3B8" stroke-width="1.1"/><text x="572.6" y="176.9" font-family="Helvetica Neue, Helvetica, Arial, sans-serif" font-size="10.0px" fill="#334155" text-anchor="middle" font-weight="500">·</text><rect x="598.1" y="161.5" width="44.0" height="24.0" rx="4.5" fill="#D1FAE5" stroke="#059669" stroke-width="1.1"/><text x="620.1" y="176.9" font-family="Helvetica Neue, Helvetica, Arial, sans-serif" font-size="10.0px" fill="#064E3B" text-anchor="middle" font-weight="500">the</text><text x="620.1" y="196.5" font-family="SF Mono, Menlo, Consolas, monospace" font-size="8.5px" fill="#94A3B8" text-anchor="middle">predict</text><rect x="645.6" y="161.5" width="44.0" height="24.0" rx="4.5" fill="#F1F5F9" stroke="#94A3B8" stroke-width="1.1"/><text x="667.6" y="176.9" font-family="Helvetica Neue, Helvetica, Arial, sans-serif" font-size="10.0px" fill="#334155" text-anchor="middle" font-weight="500">·</text><text x="405.5" y="222.0" font-family="Helvetica Neue, Helvetica, Arial, sans-serif" font-size="10.5px" fill="#475569" text-anchor="start">bidirectional attention — every token sees every token</text><text x="405.5" y="236.5" font-family="Helvetica Neue, Helvetica, Arial, sans-serif" font-size="10.5px" fill="#475569" text-anchor="start">(loss only at the masked positions):</text><text x="569.5" y="262.5" font-family="Helvetica Neue, Helvetica, Arial, sans-serif" font-size="9.5px" fill="#475569" text-anchor="middle" font-weight="600">key / value</text><text x="522.0" y="291.5" font-family="SF Mono, Menlo, Consolas, monospace" font-size="9.0px" fill="#475569" text-anchor="middle">the</text><text x="541.0" y="291.5" font-family="SF Mono, Menlo, Consolas, monospace" font-size="9.0px" fill="#475569" text-anchor="middle">cat</text><text x="560.0" y="291.5" font-family="SF Mono, Menlo, Consolas, monospace" font-size="9.0px" fill="#475569" text-anchor="middle">sat</text><text x="579.0" y="291.5" font-family="SF Mono, Menlo, Consolas, monospace" font-size="9.0px" fill="#475569" text-anchor="middle">on</text><text x="598.0" y="291.5" font-family="SF Mono, Menlo, Consolas, monospace" font-size="9.0px" fill="#475569" text-anchor="middle">the</text><text x="617.0" y="291.5" font-family="SF Mono, Menlo, Consolas, monospace" font-size="9.0px" fill="#475569" text-anchor="middle">mat</text><text x="505.5" y="309.2" font-family="SF Mono, Menlo, Consolas, monospace" font-size="9.0px" fill="#475569" text-anchor="end">the</text><rect x="512.5" y="296.5" width="17.6" height="17.6" rx="2.5" fill="#FDE68A" stroke="#CBD5E1" stroke-width="0.7"/><rect x="531.5" y="296.5" width="17.6" height="17.6" rx="2.5" fill="#FDE68A" stroke="#CBD5E1" stroke-width="0.7"/><rect x="550.5" y="296.5" width="17.6" height="17.6" rx="2.5" fill="#FDE68A" stroke="#CBD5E1" stroke-width="0.7"/><rect x="569.5" y="296.5" width="17.6" height="17.6" rx="2.5" fill="#FDE68A" stroke="#CBD5E1" stroke-width="0.7"/><rect x="588.5" y="296.5" width="17.6" height="17.6" rx="2.5" fill="#FDE68A" stroke="#CBD5E1" stroke-width="0.7"/><rect x="607.5" y="296.5" width="17.6" height="17.6" rx="2.5" fill="#FDE68A" stroke="#CBD5E1" stroke-width="0.7"/><text x="505.5" y="328.2" font-family="SF Mono, Menlo, Consolas, monospace" font-size="9.0px" fill="#475569" text-anchor="end">cat</text><rect x="512.5" y="315.5" width="17.6" height="17.6" rx="2.5" fill="#FDE68A" stroke="#CBD5E1" stroke-width="0.7"/><rect x="531.5" y="315.5" width="17.6" height="17.6" rx="2.5" fill="#FDE68A" stroke="#CBD5E1" stroke-width="0.7"/><rect x="550.5" y="315.5" width="17.6" height="17.6" rx="2.5" fill="#FDE68A" stroke="#CBD5E1" stroke-width="0.7"/><rect x="569.5" y="315.5" width="17.6" height="17.6" rx="2.5" fill="#FDE68A" stroke="#CBD5E1" stroke-width="0.7"/><rect x="588.5" y="315.5" width="17.6" height="17.6" rx="2.5" fill="#FDE68A" stroke="#CBD5E1" stroke-width="0.7"/><rect x="607.5" y="315.5" width="17.6" height="17.6" rx="2.5" fill="#FDE68A" stroke="#CBD5E1" stroke-width="0.7"/><text x="505.5" y="347.2" font-family="SF Mono, Menlo, Consolas, monospace" font-size="9.0px" fill="#475569" text-anchor="end">sat</text><rect x="512.5" y="334.5" width="17.6" height="17.6" rx="2.5" fill="#FDE68A" stroke="#CBD5E1" stroke-width="0.7"/><rect x="531.5" y="334.5" width="17.6" height="17.6" rx="2.5" fill="#FDE68A" stroke="#CBD5E1" stroke-width="0.7"/><rect x="550.5" y="334.5" width="17.6" height="17.6" rx="2.5" fill="#FDE68A" stroke="#CBD5E1" stroke-width="0.7"/><rect x="569.5" y="334.5" width="17.6" height="17.6" rx="2.5" fill="#FDE68A" stroke="#CBD5E1" stroke-width="0.7"/><rect x="588.5" y="334.5" width="17.6" height="17.6" rx="2.5" fill="#FDE68A" stroke="#CBD5E1" stroke-width="0.7"/><rect x="607.5" y="334.5" width="17.6" height="17.6" rx="2.5" fill="#FDE68A" stroke="#CBD5E1" stroke-width="0.7"/><text x="505.5" y="366.2" font-family="SF Mono, Menlo, Consolas, monospace" font-size="9.0px" fill="#475569" text-anchor="end">on</text><rect x="512.5" y="353.5" width="17.6" height="17.6" rx="2.5" fill="#FDE68A" stroke="#CBD5E1" stroke-width="0.7"/><rect x="531.5" y="353.5" width="17.6" height="17.6" rx="2.5" fill="#FDE68A" stroke="#CBD5E1" stroke-width="0.7"/><rect x="550.5" y="353.5" width="17.6" height="17.6" rx="2.5" fill="#FDE68A" stroke="#CBD5E1" stroke-width="0.7"/><rect x="569.5" y="353.5" width="17.6" height="17.6" rx="2.5" fill="#FDE68A" stroke="#CBD5E1" stroke-width="0.7"/><rect x="588.5" y="353.5" width="17.6" height="17.6" rx="2.5" fill="#FDE68A" stroke="#CBD5E1" stroke-width="0.7"/><rect x="607.5" y="353.5" width="17.6" height="17.6" rx="2.5" fill="#FDE68A" stroke="#CBD5E1" stroke-width="0.7"/><text x="505.5" y="385.2" font-family="SF Mono, Menlo, Consolas, monospace" font-size="9.0px" fill="#475569" text-anchor="end">the</text><rect x="512.5" y="372.5" width="17.6" height="17.6" rx="2.5" fill="#FDE68A" stroke="#CBD5E1" stroke-width="0.7"/><rect x="531.5" y="372.5" width="17.6" height="17.6" rx="2.5" fill="#FDE68A" stroke="#CBD5E1" stroke-width="0.7"/><rect x="550.5" y="372.5" width="17.6" height="17.6" rx="2.5" fill="#FDE68A" stroke="#CBD5E1" stroke-width="0.7"/><rect x="569.5" y="372.5" width="17.6" height="17.6" rx="2.5" fill="#FDE68A" stroke="#CBD5E1" stroke-width="0.7"/><rect x="588.5" y="372.5" width="17.6" height="17.6" rx="2.5" fill="#FDE68A" stroke="#CBD5E1" stroke-width="0.7"/><rect x="607.5" y="372.5" width="17.6" height="17.6" rx="2.5" fill="#FDE68A" stroke="#CBD5E1" stroke-width="0.7"/><text x="505.5" y="404.2" font-family="SF Mono, Menlo, Consolas, monospace" font-size="9.0px" fill="#475569" text-anchor="end">mat</text><rect x="512.5" y="391.5" width="17.6" height="17.6" rx="2.5" fill="#FDE68A" stroke="#CBD5E1" stroke-width="0.7"/><rect x="531.5" y="391.5" width="17.6" height="17.6" rx="2.5" fill="#FDE68A" stroke="#CBD5E1" stroke-width="0.7"/><rect x="550.5" y="391.5" width="17.6" height="17.6" rx="2.5" fill="#FDE68A" stroke="#CBD5E1" stroke-width="0.7"/><rect x="569.5" y="391.5" width="17.6" height="17.6" rx="2.5" fill="#FDE68A" stroke="#CBD5E1" stroke-width="0.7"/><rect x="588.5" y="391.5" width="17.6" height="17.6" rx="2.5" fill="#FDE68A" stroke="#CBD5E1" stroke-width="0.7"/><rect x="607.5" y="391.5" width="17.6" height="17.6" rx="2.5" fill="#FDE68A" stroke="#CBD5E1" stroke-width="0.7"/><text x="475.3" y="353.5" font-family="Helvetica Neue, Helvetica, Arial, sans-serif" font-size="9.5px" fill="#475569" font-weight="600" text-anchor="middle" transform="rotate(-90 475.3 353.5)">query</text><g transform="translate(484.06,439.47) scale(1,-1)"><path d="M 0.46 -0.19 Q 0.38 -0.19 0.38 -0.11 Q 0.38 -0.06 0.43 0.01 Q 0.52 0.16 0.70 0.34 Q 0.88 0.52 0.96 0.62 Q 1.28 1.08 1.46 1.43 Q 1.78 2.09 2.01 2.95 Q 2.36 4.31 2.63 5.16 Q 2.91 6.00 3.36 6.76 Q 3.72 7.35 4.23 7.83 Q 4.75 8.32 5.38 8.61 Q 6.02 8.90 6.68 8.90 L 6.75 8.90 Q 7.07 8.90 7.29 8.74 Q 7.51 8.57 7.63 8.30 Q 7.74 8.03 7.74 7.72 Q 7.74 7.24 7.59 7.06 Q 7.15 6.59 6.56 6.51 L 6.49 6.51 Q 6.41 6.51 6.41 6.60 Q 6.41 6.61 6.45 6.79 Q 6.48 6.96 6.48 7.08 Q 6.48 7.49 6.27 7.79 Q 6.07 8.09 5.68 8.09 Q 5.21 8.09 5.21 8.01 Q 4.87 7.77 4.56 7.22 Q 4.24 6.66 4.01 6.02 Q 3.77 5.38 3.59 4.72 Q 3.41 4.08 3.27 3.51 Q 3.11 2.89 2.87 2.33 Q 2.63 1.76 2.30 1.26 Q 2.45 1.31 2.66 1.31 L 2.74 1.31 Q 3.17 1.31 3.61 1.22 Q 4.04 1.14 4.64 0.96 Q 5.25 0.79 5.65 0.71 Q 6.05 0.63 6.50 0.62 Q 6.63 0.62 6.72 0.74 Q 6.80 0.87 6.89 1.08 Q 6.97 1.30 7.03 1.37 Q 7.21 1.58 7.49 1.73 Q 7.76 1.89 8.04 1.92 L 8.11 1.92 Q 8.15 1.92 8.17 1.90 Q 8.20 1.87 8.20 1.84 Q 8.20 1.84 8.19 1.80 Q 8.06 1.31 7.61 0.84 Q 7.16 0.37 6.58 0.09 Q 6.01 -0.19 5.52 -0.19 L 5.45 -0.19 Q 5.02 -0.19 4.60 -0.11 Q 4.19 -0.03 3.58 0.14 Q 2.98 0.31 2.55 0.40 Q 2.12 0.49 1.69 0.50 Q 1.13 -0.11 0.54 -0.19 L 0.46 -0.19 Z M 11.75 1.74 Q 11.64 1.74 11.57 1.82 Q 11.51 1.90 11.51 1.99 Q 11.51 2.10 11.57 2.17 Q 11.64 2.24 11.75 2.24 L 19.60 2.24 Q 19.69 2.24 19.75 2.17 Q 19.82 2.10 19.82 1.99 Q 19.82 1.90 19.75 1.82 Q 19.69 1.74 19.60 1.74 L 11.75 1.74 Z M 11.75 4.17 Q 11.64 4.17 11.57 4.25 Q 11.51 4.32 11.51 4.42 Q 11.51 4.52 11.57 4.59 Q 11.64 4.67 11.75 4.67 L 19.60 4.67 Q 19.69 4.67 19.75 4.59 Q 19.82 4.52 19.82 4.42 Q 19.82 4.32 19.75 4.25 Q 19.69 4.17 19.60 4.17 L 11.75 4.17 Z M 23.99 2.96 Q 23.88 2.96 23.82 3.04 Q 23.75 3.12 23.75 3.21 Q 23.75 3.30 23.82 3.38 Q 23.88 3.46 23.99 3.46 L 31.16 3.46 Q 31.26 3.46 31.32 3.38 Q 31.39 3.30 31.39 3.21 Q 31.39 3.12 31.32 3.04 Q 31.26 2.96 31.16 2.96 L 23.99 2.96 Z M 35.12 -4.50 Q 35.00 -4.50 35.00 -4.37 Q 35.00 -4.31 35.04 -4.27 L 41.63 3.41 L 35.04 12.45 Q 35.00 12.49 35.00 12.51 L 35.00 12.89 Q 35.00 12.93 35.04 12.97 Q 35.08 13.00 35.12 13.00 L 50.12 13.00 L 51.64 9.49 L 51.27 9.49 Q 50.69 10.82 49.33 11.46 Q 47.97 12.10 46.49 12.25 Q 45.01 12.40 43.05 12.40 L 37.27 12.40 L 43.17 4.34 Q 43.20 4.29 43.20 4.25 Q 43.20 4.21 43.17 4.16 L 36.68 -3.39 L 43.17 -3.39 Q 45.09 -3.39 46.58 -3.24 Q 48.07 -3.09 49.41 -2.45 Q 50.76 -1.80 51.27 -0.48 L 51.64 -0.48 L 50.12 -4.50 L 35.12 -4.50 Z M 33.11 -12.19 Q 33.11 -12.03 33.18 -11.85 L 33.88 -9.96 Q 34.00 -9.64 34.00 -9.44 Q 34.00 -9.18 33.81 -9.18 Q 33.46 -9.18 33.24 -9.54 Q 33.01 -9.89 32.91 -10.33 Q 32.89 -10.39 32.83 -10.39 L 32.73 -10.39 Q 32.66 -10.39 32.66 -10.31 L 32.66 -10.28 Q 32.80 -9.76 33.09 -9.36 Q 33.38 -8.95 33.82 -8.95 Q 34.14 -8.95 34.35 -9.16 Q 34.57 -9.36 34.57 -9.68 Q 34.57 -9.84 34.50 -10.02 L 33.79 -11.90 Q 33.67 -12.19 33.67 -12.43 Q 33.67 -12.69 33.87 -12.69 Q 34.21 -12.69 34.44 -12.32 Q 34.67 -11.96 34.76 -11.53 Q 34.78 -11.48 34.83 -11.48 L 34.94 -11.48 Q 34.97 -11.48 34.99 -11.51 Q 35.01 -11.53 35.01 -11.56 Q 35.01 -11.57 35.00 -11.58 Q 34.88 -12.08 34.59 -12.50 Q 34.29 -12.92 33.85 -12.92 Q 33.54 -12.92 33.32 -12.71 Q 33.11 -12.49 33.11 -12.19 Z M 34.09 -7.52 Q 34.09 -7.33 34.25 -7.18 Q 34.40 -7.03 34.58 -7.03 Q 34.74 -7.03 34.83 -7.13 Q 34.93 -7.22 34.93 -7.36 Q 34.93 -7.56 34.77 -7.70 Q 34.61 -7.85 34.43 -7.85 Q 34.29 -7.85 34.19 -7.76 Q 34.09 -7.66 34.09 -7.52 Z M 38.83 -12.27 Q 39.48 -12.82 40.39 -12.82 L 41.92 -12.82 Q 41.98 -12.82 42.03 -12.87 Q 42.07 -12.92 42.07 -12.99 Q 42.07 -13.06 42.03 -13.11 Q 41.98 -13.17 41.92 -13.17 L 40.36 -13.17 Q 39.66 -13.17 39.05 -12.84 Q 38.43 -12.50 38.07 -11.92 Q 37.70 -11.34 37.70 -10.63 Q 37.70 -9.93 38.07 -9.34 Q 38.43 -8.76 39.05 -8.43 Q 39.66 -8.09 40.36 -8.09 L 41.92 -8.09 Q 41.98 -8.09 42.03 -8.15 Q 42.07 -8.20 42.07 -8.27 Q 42.07 -8.34 42.03 -8.39 Q 41.98 -8.44 41.92 -8.44 L 40.39 -8.44 Q 39.96 -8.44 39.55 -8.58 Q 39.15 -8.73 38.83 -9.00 Q 38.51 -9.26 38.28 -9.67 Q 38.06 -10.07 38.06 -10.46 L 41.92 -10.46 Q 41.98 -10.46 42.03 -10.51 Q 42.07 -10.57 42.07 -10.63 Q 42.07 -10.70 42.03 -10.75 Q 41.98 -10.81 41.92 -10.81 L 38.06 -10.81 Q 38.06 -11.19 38.28 -11.59 Q 38.51 -12.00 38.83 -12.27 Z M 44.78 -12.82 Q 44.70 -12.82 44.70 -12.70 Q 44.70 -12.68 44.71 -12.63 Q 44.72 -12.58 44.75 -12.55 Q 44.77 -12.51 44.81 -12.51 Q 45.64 -12.51 45.78 -11.98 L 46.92 -7.41 Q 46.93 -7.32 46.93 -7.29 Q 46.93 -7.20 46.83 -7.18 Q 46.66 -7.15 46.20 -7.15 Q 46.11 -7.15 46.11 -7.03 Q 46.12 -7.01 46.13 -6.96 Q 46.14 -6.91 46.17 -6.87 Q 46.19 -6.84 46.22 -6.84 L 47.77 -6.84 Q 47.86 -6.84 47.88 -6.94 L 48.56 -11.95 L 51.75 -6.94 Q 51.81 -6.84 51.92 -6.84 L 53.40 -6.84 Q 53.49 -6.84 53.49 -6.96 Q 53.48 -6.98 53.47 -7.03 Q 53.46 -7.09 53.43 -7.12 Q 53.41 -7.15 53.38 -7.15 Q 52.84 -7.15 52.63 -7.21 Q 52.52 -7.25 52.47 -7.45 L 51.27 -12.25 Q 51.25 -12.34 51.25 -12.37 Q 51.25 -12.41 51.26 -12.43 Q 51.27 -12.46 51.29 -12.46 Q 51.31 -12.47 51.35 -12.48 Q 51.52 -12.51 51.98 -12.51 Q 52.07 -12.51 52.07 -12.63 Q 52.04 -12.75 52.02 -12.78 Q 52.00 -12.82 51.92 -12.82 L 49.64 -12.82 Q 49.55 -12.82 49.55 -12.70 Q 49.56 -12.68 49.57 -12.63 Q 49.58 -12.58 49.61 -12.54 Q 49.63 -12.51 49.66 -12.51 Q 50.20 -12.51 50.41 -12.45 Q 50.52 -12.41 50.57 -12.22 L 51.83 -7.15 L 48.30 -12.72 Q 48.25 -12.82 48.13 -12.82 Q 48.01 -12.82 48.00 -12.72 L 47.26 -7.22 L 46.06 -12.02 Q 46.05 -12.04 46.04 -12.07 Q 46.04 -12.10 46.03 -12.14 Q 46.03 -12.37 46.23 -12.44 Q 46.43 -12.51 46.72 -12.51 Q 46.80 -12.51 46.80 -12.63 Q 46.77 -12.74 46.76 -12.78 Q 46.74 -12.82 46.66 -12.82 L 44.78 -12.82 Z M 53.21 0.08 L 53.21 0.52 Q 53.64 0.52 53.91 0.59 Q 54.19 0.66 54.19 0.92 L 54.19 7.48 Q 54.19 7.82 54.08 7.97 Q 53.99 8.12 53.80 8.15 Q 53.61 8.18 53.21 8.18 L 53.21 8.62 L 55.07 8.76 L 55.07 0.92 Q 55.07 0.66 55.34 0.59 Q 55.61 0.52 56.04 0.52 L 56.04 0.08 L 53.21 0.08 Z M 59.41 -0.06 Q 58.66 -0.06 58.02 0.32 Q 57.38 0.71 57.00 1.35 Q 56.63 1.99 56.63 2.75 Q 56.63 3.32 56.84 3.85 Q 57.04 4.38 57.42 4.80 Q 57.81 5.22 58.31 5.45 Q 58.82 5.69 59.41 5.69 Q 60.18 5.69 60.81 5.28 Q 61.44 4.88 61.81 4.19 Q 62.18 3.51 62.18 2.75 Q 62.18 1.99 61.80 1.35 Q 61.43 0.71 60.79 0.32 Q 60.15 -0.06 59.41 -0.06 Z M 59.41 0.31 Q 60.41 0.31 60.75 1.04 Q 61.08 1.76 61.08 2.89 Q 61.08 3.51 61.02 3.93 Q 60.95 4.34 60.72 4.67 Q 60.58 4.88 60.37 5.04 Q 60.15 5.19 59.91 5.28 Q 59.67 5.36 59.41 5.36 Q 59.02 5.36 58.67 5.18 Q 58.32 5.00 58.09 4.67 Q 57.85 4.32 57.79 3.89 Q 57.73 3.47 57.73 2.89 Q 57.73 2.18 57.85 1.63 Q 57.97 1.07 58.34 0.69 Q 58.71 0.31 59.41 0.31 Z M 62.88 -0.89 Q 62.88 -0.45 63.21 -0.11 Q 63.53 0.22 63.98 0.36 Q 63.73 0.55 63.59 0.83 Q 63.46 1.12 63.46 1.45 Q 63.46 2.03 63.84 2.48 Q 63.26 3.05 63.26 3.77 Q 63.26 4.16 63.43 4.50 Q 63.60 4.85 63.90 5.10 Q 64.20 5.35 64.56 5.48 Q 64.93 5.61 65.31 5.61 Q 66.06 5.61 66.65 5.17 Q 66.91 5.45 67.26 5.60 Q 67.61 5.75 67.99 5.75 Q 68.25 5.75 68.42 5.56 Q 68.60 5.36 68.60 5.10 Q 68.60 4.94 68.48 4.83 Q 68.36 4.71 68.21 4.71 Q 68.05 4.71 67.94 4.83 Q 67.82 4.94 67.82 5.10 Q 67.82 5.33 67.97 5.42 Q 67.33 5.42 66.86 4.97 Q 67.09 4.75 67.23 4.42 Q 67.36 4.09 67.36 3.77 Q 67.36 3.24 67.07 2.81 Q 66.78 2.39 66.30 2.16 Q 65.82 1.92 65.31 1.92 Q 64.63 1.92 64.06 2.29 Q 63.89 2.05 63.89 1.74 Q 63.89 1.41 64.10 1.17 Q 64.32 0.92 64.65 0.92 L 65.67 0.92 Q 66.42 0.92 67.02 0.79 Q 67.61 0.65 68.02 0.25 Q 68.43 -0.15 68.43 -0.89 Q 68.43 -1.44 67.96 -1.80 Q 67.50 -2.17 66.85 -2.33 Q 66.21 -2.49 65.66 -2.49 Q 65.11 -2.49 64.46 -2.33 Q 63.81 -2.17 63.35 -1.80 Q 62.88 -1.44 62.88 -0.89 Z M 63.59 -0.89 Q 63.59 -1.31 63.93 -1.60 Q 64.27 -1.88 64.75 -2.02 Q 65.23 -2.16 65.66 -2.16 Q 66.08 -2.16 66.56 -2.02 Q 67.05 -1.88 67.38 -1.60 Q 67.72 -1.31 67.72 -0.89 Q 67.72 -0.24 67.13 -0.05 Q 66.53 0.14 65.67 0.14 L 64.65 0.14 Q 64.36 0.14 64.12 0.01 Q 63.88 -0.13 63.73 -0.38 Q 63.59 -0.62 63.59 -0.89 Z M 65.31 2.26 Q 66.38 2.26 66.38 3.77 Q 66.38 4.42 66.15 4.85 Q 65.92 5.27 65.31 5.27 Q 64.70 5.27 64.48 4.85 Q 64.25 4.42 64.25 3.77 Q 64.25 3.36 64.34 3.02 Q 64.42 2.68 64.65 2.47 Q 64.89 2.26 65.31 2.26 Z M 70.30 -2.34 Q 70.19 -2.34 70.19 -2.18 Q 70.23 -1.91 70.35 -1.91 Q 70.74 -1.91 70.90 -1.84 Q 71.05 -1.77 71.14 -1.48 L 72.55 4.15 Q 72.64 4.38 72.64 4.75 Q 72.64 5.29 72.27 5.29 Q 71.88 5.29 71.69 4.82 Q 71.51 4.35 71.33 3.64 Q 71.33 3.56 71.23 3.56 L 71.08 3.56 Q 71.05 3.56 71.01 3.60 Q 70.97 3.65 70.97 3.69 Q 71.11 4.23 71.23 4.61 Q 71.36 4.98 71.62 5.30 Q 71.89 5.61 72.29 5.61 Q 72.71 5.61 73.04 5.37 Q 73.36 5.13 73.45 4.71 Q 73.79 5.11 74.21 5.36 Q 74.62 5.61 75.06 5.61 Q 75.59 5.61 75.98 5.33 Q 76.36 5.05 76.56 4.59 Q 76.76 4.14 76.76 3.61 Q 76.76 2.81 76.34 1.95 Q 75.93 1.09 75.23 0.51 Q 74.52 -0.06 73.72 -0.06 Q 73.35 -0.06 73.05 0.15 Q 72.76 0.36 72.59 0.70 L 72.02 -1.53 Q 71.99 -1.71 71.99 -1.74 Q 71.99 -1.91 72.81 -1.91 Q 72.94 -1.91 72.94 -2.06 Q 72.90 -2.23 72.87 -2.28 Q 72.84 -2.34 72.73 -2.34 L 70.30 -2.34 Z M 73.73 0.27 Q 74.16 0.27 74.53 0.63 Q 74.91 0.99 75.14 1.43 Q 75.31 1.77 75.46 2.25 Q 75.61 2.74 75.72 3.29 Q 75.83 3.84 75.83 4.16 Q 75.83 4.45 75.75 4.70 Q 75.68 4.95 75.50 5.12 Q 75.33 5.29 75.04 5.29 Q 74.58 5.29 74.18 4.96 Q 73.77 4.63 73.44 4.15 L 73.44 4.11 L 72.75 1.35 Q 72.84 0.90 73.08 0.59 Q 73.33 0.27 73.73 0.27 Z M 78.31 -2.14 Q 77.91 -2.14 77.68 -1.85 Q 77.44 -1.56 77.34 -1.15 Q 77.25 -0.74 77.25 -0.34 L 77.25 -0.33 Q 77.25 0.11 77.33 0.58 Q 77.42 1.05 77.58 1.51 Q 77.73 1.98 77.92 2.35 Q 78.05 2.61 78.25 2.92 Q 78.45 3.24 78.70 3.51 Q 78.95 3.79 79.24 3.96 Q 79.53 4.13 79.82 4.13 L 79.83 4.13 Q 80.15 4.13 80.36 3.95 Q 80.57 3.78 80.69 3.50 Q 80.81 3.23 80.85 2.92 Q 80.90 2.61 80.90 2.33 Q 80.90 1.66 80.72 0.97 Q 80.54 0.28 80.22 -0.36 Q 80.11 -0.61 79.89 -0.94 Q 79.68 -1.26 79.45 -1.52 Q 79.21 -1.78 78.91 -1.96 Q 78.62 -2.14 78.32 -2.14 L 78.31 -2.14 Z M 78.33 -1.91 Q 78.62 -1.91 78.89 -1.60 Q 79.15 -1.29 79.35 -0.85 Q 79.56 -0.40 79.71 0.06 Q 79.86 0.52 79.93 0.85 L 78.14 0.85 Q 78.01 0.30 77.93 -0.10 Q 77.85 -0.50 77.85 -0.89 Q 77.85 -1.91 78.33 -1.91 Z M 78.21 1.16 L 80.01 1.16 Q 80.10 1.54 80.16 1.80 Q 80.21 2.06 80.25 2.34 Q 80.29 2.63 80.29 2.88 Q 80.29 3.90 79.82 3.90 Q 79.27 3.90 78.86 3.01 Q 78.46 2.11 78.21 1.16 Z M 85.68 -3.02 Q 84.98 -2.47 84.48 -1.76 Q 83.98 -1.04 83.66 -0.24 Q 83.34 0.57 83.18 1.45 Q 83.02 2.32 83.02 3.21 Q 83.02 4.11 83.18 4.98 Q 83.34 5.86 83.66 6.68 Q 83.99 7.49 84.50 8.20 Q 85.00 8.90 85.68 9.44 Q 85.68 9.46 85.74 9.46 L 85.86 9.46 Q 85.89 9.46 85.92 9.43 Q 85.95 9.39 85.95 9.35 Q 85.95 9.30 85.93 9.27 Q 85.32 8.67 84.91 7.99 Q 84.51 7.31 84.26 6.53 Q 84.01 5.76 83.90 4.93 Q 83.79 4.11 83.79 3.21 Q 83.79 -0.76 85.92 -2.83 Q 85.95 -2.86 85.95 -2.93 Q 85.95 -2.96 85.92 -3.00 Q 85.89 -3.04 85.86 -3.04 L 85.74 -3.04 Q 85.68 -3.04 85.68 -3.02 Z M 87.63 0.44 Q 87.85 0.27 88.26 0.27 Q 88.65 0.27 88.95 0.65 Q 89.24 1.02 89.35 1.47 L 89.92 3.69 Q 90.06 4.29 90.06 4.51 Q 90.06 4.82 89.88 5.05 Q 89.71 5.29 89.40 5.29 Q 89.00 5.29 88.65 5.04 Q 88.31 4.79 88.07 4.41 Q 87.83 4.03 87.73 3.64 Q 87.71 3.56 87.63 3.56 L 87.48 3.56 Q 87.38 3.56 87.38 3.67 L 87.38 3.71 Q 87.50 4.17 87.80 4.62 Q 88.09 5.06 88.51 5.33 Q 88.94 5.61 89.42 5.61 Q 89.88 5.61 90.25 5.36 Q 90.62 5.12 90.77 4.70 Q 90.98 5.08 91.32 5.34 Q 91.65 5.61 92.05 5.61 Q 92.31 5.61 92.59 5.51 Q 92.88 5.42 93.05 5.22 Q 93.23 5.03 93.23 4.73 Q 93.23 4.42 93.03 4.19 Q 92.82 3.96 92.50 3.96 Q 92.30 3.96 92.17 4.09 Q 92.03 4.22 92.03 4.41 Q 92.03 4.67 92.21 4.87 Q 92.39 5.07 92.64 5.11 Q 92.42 5.29 92.02 5.29 Q 91.62 5.29 91.32 4.91 Q 91.03 4.54 90.90 4.08 L 90.36 1.87 Q 90.22 1.37 90.22 1.05 Q 90.22 0.73 90.40 0.50 Q 90.58 0.27 90.88 0.27 Q 91.47 0.27 91.93 0.79 Q 92.39 1.31 92.53 1.92 Q 92.56 1.99 92.63 1.99 L 92.79 1.99 Q 92.83 1.99 92.86 1.96 Q 92.89 1.93 92.89 1.89 Q 92.89 1.87 92.88 1.85 Q 92.71 1.10 92.14 0.52 Q 91.57 -0.06 90.86 -0.06 Q 90.40 -0.06 90.03 0.19 Q 89.66 0.44 89.51 0.86 Q 89.31 0.49 88.97 0.22 Q 88.62 -0.06 88.23 -0.06 Q 87.96 -0.06 87.68 0.04 Q 87.39 0.13 87.22 0.33 Q 87.04 0.52 87.04 0.82 Q 87.04 1.12 87.24 1.36 Q 87.45 1.60 87.76 1.60 Q 87.96 1.60 88.10 1.47 Q 88.24 1.35 88.24 1.15 Q 88.24 0.88 88.07 0.69 Q 87.89 0.49 87.63 0.44 Z M 94.48 -1.41 Q 94.48 -1.25 94.54 -1.07 L 95.25 0.81 Q 95.37 1.13 95.37 1.34 Q 95.37 1.60 95.18 1.60 Q 94.83 1.60 94.61 1.24 Q 94.38 0.89 94.27 0.45 Q 94.26 0.39 94.20 0.39 L 94.10 0.39 Q 94.03 0.39 94.03 0.47 L 94.03 0.50 Q 94.17 1.02 94.46 1.42 Q 94.75 1.82 95.19 1.82 Q 95.50 1.82 95.72 1.62 Q 95.94 1.41 95.94 1.10 Q 95.94 0.94 95.86 0.76 L 95.15 -1.12 Q 95.03 -1.41 95.03 -1.65 Q 95.03 -1.91 95.24 -1.91 Q 95.58 -1.91 95.81 -1.54 Q 96.04 -1.18 96.13 -0.75 Q 96.15 -0.70 96.20 -0.70 L 96.30 -0.70 Q 96.34 -0.70 96.36 -0.73 Q 96.38 -0.75 96.38 -0.78 Q 96.38 -0.79 96.37 -0.81 Q 96.25 -1.30 95.96 -1.72 Q 95.66 -2.14 95.22 -2.14 Q 94.91 -2.14 94.69 -1.93 Q 94.48 -1.72 94.48 -1.41 Z M 95.46 3.26 Q 95.46 3.45 95.62 3.59 Q 95.77 3.74 95.95 3.74 Q 96.10 3.74 96.20 3.65 Q 96.29 3.56 96.29 3.42 Q 96.29 3.22 96.14 3.07 Q 95.98 2.93 95.80 2.93 Q 95.66 2.93 95.56 3.02 Q 95.46 3.12 95.46 3.26 Z M 101.29 -2.81 L 101.29 9.23 Q 101.29 9.33 101.36 9.39 Q 101.43 9.46 101.54 9.46 Q 101.63 9.46 101.71 9.39 Q 101.79 9.33 101.79 9.23 L 101.79 -2.81 Q 101.79 -2.91 101.71 -2.98 Q 101.63 -3.04 101.54 -3.04 Q 101.43 -3.04 101.36 -2.98 Q 101.29 -2.91 101.29 -2.81 Z M 106.43 0.44 Q 106.65 0.27 107.05 0.27 Q 107.44 0.27 107.74 0.65 Q 108.04 1.02 108.15 1.47 L 108.72 3.69 Q 108.85 4.29 108.85 4.51 Q 108.85 4.82 108.68 5.05 Q 108.50 5.29 108.19 5.29 Q 107.79 5.29 107.45 5.04 Q 107.10 4.79 106.86 4.41 Q 106.62 4.03 106.53 3.64 Q 106.50 3.56 106.43 3.56 L 106.28 3.56 Q 106.18 3.56 106.18 3.67 L 106.18 3.71 Q 106.30 4.17 106.59 4.62 Q 106.88 5.06 107.31 5.33 Q 107.73 5.61 108.22 5.61 Q 108.67 5.61 109.04 5.36 Q 109.41 5.12 109.56 4.70 Q 109.78 5.08 110.11 5.34 Q 110.44 5.61 110.84 5.61 Q 111.11 5.61 111.39 5.51 Q 111.67 5.42 111.85 5.22 Q 112.03 5.03 112.03 4.73 Q 112.03 4.42 111.82 4.19 Q 111.62 3.96 111.30 3.96 Q 111.10 3.96 110.96 4.09 Q 110.83 4.22 110.83 4.41 Q 110.83 4.67 111.01 4.87 Q 111.19 5.07 111.44 5.11 Q 111.21 5.29 110.82 5.29 Q 110.41 5.29 110.12 4.91 Q 109.82 4.54 109.70 4.08 L 109.15 1.87 Q 109.02 1.37 109.02 1.05 Q 109.02 0.73 109.20 0.50 Q 109.38 0.27 109.68 0.27 Q 110.26 0.27 110.72 0.79 Q 111.18 1.31 111.33 1.92 Q 111.35 1.99 111.43 1.99 L 111.58 1.99 Q 111.63 1.99 111.66 1.96 Q 111.69 1.93 111.69 1.89 Q 111.69 1.87 111.68 1.85 Q 111.50 1.10 110.93 0.52 Q 110.37 -0.06 109.65 -0.06 Q 109.19 -0.06 108.82 0.19 Q 108.46 0.44 108.30 0.86 Q 108.11 0.49 107.76 0.22 Q 107.42 -0.06 107.03 -0.06 Q 106.76 -0.06 106.47 0.04 Q 106.19 0.13 106.01 0.33 Q 105.84 0.52 105.84 0.82 Q 105.84 1.12 106.04 1.36 Q 106.24 1.60 106.55 1.60 Q 106.76 1.60 106.90 1.47 Q 107.04 1.35 107.04 1.15 Q 107.04 0.88 106.86 0.69 Q 106.69 0.49 106.43 0.44 Z M 116.11 -1.23 L 115.57 -1.23 L 112.80 1.55 L 113.35 1.55 L 116.11 -1.23 Z M 116.78 -2.04 Q 116.69 -2.04 116.69 -1.93 Q 116.69 -1.90 116.71 -1.85 Q 116.72 -1.80 116.74 -1.77 Q 116.76 -1.73 116.81 -1.73 Q 117.64 -1.73 117.77 -1.20 L 118.91 3.37 Q 118.93 3.45 118.93 3.49 Q 118.93 3.58 118.83 3.59 Q 118.66 3.63 118.19 3.63 Q 118.11 3.63 118.11 3.74 Q 118.11 3.76 118.12 3.82 Q 118.14 3.87 118.16 3.90 Q 118.19 3.94 118.22 3.94 L 119.76 3.94 Q 119.86 3.94 119.87 3.84 L 120.56 -1.17 L 123.74 3.84 Q 123.80 3.94 123.91 3.94 L 125.40 3.94 Q 125.48 3.94 125.48 3.82 Q 125.48 3.80 125.47 3.75 Q 125.45 3.69 125.43 3.66 Q 125.41 3.63 125.37 3.63 Q 124.84 3.63 124.63 3.57 Q 124.51 3.53 124.46 3.33 L 123.26 -1.47 Q 123.24 -1.56 123.24 -1.60 Q 123.24 -1.63 123.25 -1.65 Q 123.27 -1.68 123.28 -1.68 Q 123.30 -1.69 123.35 -1.70 Q 123.51 -1.73 123.98 -1.73 Q 124.06 -1.73 124.06 -1.85 Q 124.03 -1.97 124.02 -2.01 Q 124.00 -2.04 123.92 -2.04 L 121.63 -2.04 Q 121.55 -2.04 121.55 -1.93 Q 121.55 -1.90 121.56 -1.85 Q 121.58 -1.80 121.60 -1.77 Q 121.62 -1.73 121.66 -1.73 Q 122.19 -1.73 122.40 -1.67 Q 122.52 -1.64 122.57 -1.44 L 123.83 3.63 L 120.30 -1.94 Q 120.25 -2.04 120.12 -2.04 Q 120.01 -2.04 120.00 -1.94 L 119.25 3.56 L 118.05 -1.24 Q 118.04 -1.26 118.04 -1.29 Q 118.04 -1.32 118.03 -1.37 Q 118.03 -1.59 118.23 -1.66 Q 118.42 -1.73 118.71 -1.73 Q 118.80 -1.73 118.80 -1.85 Q 118.77 -1.96 118.75 -2.00 Q 118.73 -2.04 118.65 -2.04 L 116.78 -2.04 Z M 126.43 -3.04 Q 126.32 -3.04 126.32 -2.93 Q 126.32 -2.88 126.34 -2.85 Q 128.48 -0.76 128.48 3.21 Q 128.48 7.18 126.37 9.25 Q 126.32 9.28 126.32 9.35 Q 126.32 9.39 126.35 9.43 Q 126.39 9.46 126.43 9.46 L 126.55 9.46 Q 126.58 9.46 126.61 9.44 Q 127.50 8.73 128.10 7.71 Q 128.70 6.70 128.98 5.55 Q 129.26 4.41 129.26 3.21 Q 129.26 2.32 129.11 1.47 Q 128.96 0.61 128.63 -0.22 Q 128.30 -1.06 127.80 -1.76 Q 127.30 -2.47 126.61 -3.02 Q 126.58 -3.04 126.55 -3.04 L 126.43 -3.04 Z" fill="#0F172A"/></g><rect x="40.0" y="20.0" width="13.0" height="13.0" rx="3.5" fill="#E0F2FE" stroke="#0284C7" stroke-width="1.1"/><text x="59.0" y="30.3" font-family="Helvetica Neue, Helvetica, Arial, sans-serif" font-size="10.5px" fill="#475569" text-anchor="start">given token</text><rect x="135.1" y="20.0" width="13.0" height="13.0" rx="3.5" fill="#D1FAE5" stroke="#059669" stroke-width="1.1"/><text x="154.1" y="30.3" font-family="Helvetica Neue, Helvetica, Arial, sans-serif" font-size="10.5px" fill="#475569" text-anchor="start">prediction target</text><rect x="256.9" y="20.0" width="13.0" height="13.0" rx="3.5" fill="url(#hatch-F1F5F9-94A3B8)" stroke="#94A3B8" stroke-width="1.1"/><text x="275.9" y="30.3" font-family="Helvetica Neue, Helvetica, Arial, sans-serif" font-size="10.5px" fill="#475569" text-anchor="start">[MASK] (hatched)</text><rect x="382.3" y="20.0" width="13.0" height="13.0" rx="3.5" fill="#FDE68A" stroke="#CA8A04" stroke-width="1.1"/><text x="401.3" y="30.3" font-family="Helvetica Neue, Helvetica, Arial, sans-serif" font-size="10.5px" fill="#475569" text-anchor="start">attention allowed</text></g><g id="labels"><text x="40.0" y="3.8" font-family="Helvetica Neue, Helvetica, Arial, sans-serif" font-size="11.5px" fill="#475569" text-anchor="start">past); BERT masks 15% of tokens and predicts them from the whole bidirectional context.</text><text x="40.0" y="-12.9" font-family="Helvetica Neue, Helvetica, Arial, sans-serif" font-size="11.5px" fill="#475569" text-anchor="start">Two objectives on the same sentence. GPT predicts the next token under a causal mask (a position sees only the</text><text x="40.0" y="-29.6" font-family="Helvetica Neue, Helvetica, Arial, sans-serif" font-size="17px" fill="#0F172A" text-anchor="start" font-weight="600">Training methods as storyboards</text></g></svg>