<svg xmlns="http://www.w3.org/2000/svg" viewBox="-56.1 -32.4 643.2 576.4" width="643" height="576"><defs><marker id="arr-334155" viewBox="0 0 10 10" refX="8.5" refY="5" markerWidth="6.5" markerHeight="6.5" orient="auto-start-reverse"><path d="M0.5,1 L9,5 L0.5,9 Z" fill="#334155"/></marker><marker id="arr-94A3B8" viewBox="0 0 10 10" refX="8.5" refY="5" markerWidth="6.5" markerHeight="6.5" orient="auto-start-reverse"><path d="M0.5,1 L9,5 L0.5,9 Z" fill="#94A3B8"/></marker></defs><rect x="-56.1" y="-32.4" width="643.2" height="576.4" fill="#FFFFFF"/><g id="frames"><rect x="260.0" y="112.0" width="293.2" height="336.0" rx="10" fill="#FFFFFF" stroke="#94A3B8" stroke-width="1.1" stroke-dasharray="5 4"/><rect x="250.0" y="121.0" width="293.2" height="336.0" rx="10" fill="#FFFFFF" stroke="#94A3B8" stroke-width="1.1" stroke-dasharray="5 4"/><rect x="240.0" y="130.0" width="293.2" height="336.0" rx="10" fill="#FFFFFF" stroke="#94A3B8" stroke-width="1.2"/></g><g id="edges"><path d="M 396.6,496.0 L 396.6,466.0" fill="none" stroke="#334155" stroke-width="1.5" stroke-linejoin="round" stroke-linecap="round" marker-end="url(#arr-334155)"/><path d="M 386.6,416.0 L 386.6,394.0" fill="none" stroke="#334155" stroke-width="1.5" stroke-linejoin="round" stroke-linecap="round" marker-end="url(#arr-334155)"/><path d="M 386.6,350.0 L 386.6,328.0" fill="none" stroke="#334155" stroke-width="1.5" stroke-linejoin="round" stroke-linecap="round" marker-end="url(#arr-334155)"/><path d="M 386.6,309.0 L 386.6,287.0" fill="none" stroke="#334155" stroke-width="1.5" stroke-linejoin="round" stroke-linecap="round" marker-end="url(#arr-334155)"/><path d="M 386.6,257.0 L 386.6,235.0" fill="none" stroke="#334155" stroke-width="1.5" stroke-linejoin="round" stroke-linecap="round" marker-end="url(#arr-334155)"/><path d="M 386.6,191.0 L 386.6,169.0" fill="none" stroke="#334155" stroke-width="1.5" stroke-linejoin="round" stroke-linecap="round" marker-end="url(#arr-334155)"/><path d="M 396.6,112.0 L 396.6,82.0" fill="none" stroke="#334155" stroke-width="1.5" stroke-linejoin="round" stroke-linecap="round" marker-end="url(#arr-334155)"/><path d="M 386.6,456.0 L 256.0,456.0 Q 249.0,456.0 249.0,449.0 L 249.0,325.5 Q 249.0,318.5 256.0,318.5 L 377.1,318.5" fill="none" stroke="#94A3B8" stroke-width="1.3" stroke-linejoin="round" stroke-linecap="round" marker-end="url(#arr-94A3B8)"/><path d="M 386.6,298.0 L 256.0,298.0 Q 249.0,298.0 249.0,291.0 L 249.0,166.5 Q 249.0,159.5 256.0,159.5 L 377.1,159.5" fill="none" stroke="#94A3B8" stroke-width="1.3" stroke-linejoin="round" stroke-linecap="round" marker-end="url(#arr-94A3B8)"/><path d="M 184.0,372.0 L 240.0,372.0" fill="none" stroke="#CBD5E1" stroke-width="1.1" stroke-linejoin="round" stroke-linecap="round" stroke-dasharray="3 3"/></g><g id="nodes"><rect x="308.8" y="60.0" width="175.5" height="22.0" rx="11.0" fill="#F8FAFC" stroke="#64748B" stroke-width="1.1"/><text x="396.6" y="74.6" font-family="SF Mono, Menlo, Consolas, monospace" font-size="10.0px" fill="#334155" text-anchor="middle">hidden states  (B, T, 768)</text><circle cx="386.6" cy="159.5" r="9.5" fill="#FFFFFF" stroke="#475569" stroke-width="1.3"/><line x1="382.0" y1="159.5" x2="391.1" y2="159.5" stroke="#475569" stroke-width="1.5" stroke-linecap="butt" /><line x1="386.6" y1="154.9" x2="386.6" y2="164.1" stroke="#475569" stroke-width="1.5" stroke-linecap="butt" /><rect x="260.0" y="191.0" width="253.2" height="44.0" rx="7" fill="#DCFCE7" stroke="#16A34A" stroke-width="1.3"/><text x="386.6" y="214.0" font-family="Helvetica Neue, Helvetica, Arial, sans-serif" font-size="12.5px" fill="#14532D" text-anchor="middle" font-weight="500">MLP</text><text x="386.6" y="227.5" font-family="SF Mono, Menlo, Consolas, monospace" font-size="9.5px" fill="#475569" text-anchor="middle">Linear 768→3072 · GELU · Linear 3072→768</text><rect x="340.3" y="257.0" width="92.7" height="30.0" rx="7" fill="#FEF9C3" stroke="#CA8A04" stroke-width="1.3"/><text x="386.6" y="276.5" font-family="Helvetica Neue, Helvetica, Arial, sans-serif" font-size="12.5px" fill="#713F12" text-anchor="middle" font-weight="500">LayerNorm</text><circle cx="386.6" cy="318.5" r="9.5" fill="#FFFFFF" stroke="#475569" stroke-width="1.3"/><line x1="382.0" y1="318.5" x2="391.1" y2="318.5" stroke="#475569" stroke-width="1.5" stroke-linecap="butt" /><line x1="386.6" y1="313.9" x2="386.6" y2="323.1" stroke="#475569" stroke-width="1.5" stroke-linecap="butt" /><rect x="297.0" y="350.0" width="179.1" height="44.0" rx="7" fill="#DBEAFE" stroke="#2563EB" stroke-width="1.3"/><text x="386.6" y="373.0" font-family="Helvetica Neue, Helvetica, Arial, sans-serif" font-size="12.5px" fill="#1E3A8A" text-anchor="middle" font-weight="500">Multi-Head Attention</text><text x="386.6" y="386.5" font-family="SF Mono, Menlo, Consolas, monospace" font-size="9.5px" fill="#475569" text-anchor="middle">12 heads × 64 · causal mask</text><rect x="340.3" y="416.0" width="92.7" height="30.0" rx="7" fill="#FEF9C3" stroke="#CA8A04" stroke-width="1.3"/><text x="386.6" y="435.5" font-family="Helvetica Neue, Helvetica, Arial, sans-serif" font-size="12.5px" fill="#713F12" text-anchor="middle" font-weight="500">LayerNorm</text><rect x="308.8" y="496.0" width="175.5" height="22.0" rx="11.0" fill="#F8FAFC" stroke="#64748B" stroke-width="1.1"/><text x="396.6" y="510.6" font-family="SF Mono, Menlo, Consolas, monospace" font-size="10.0px" fill="#334155" text-anchor="middle">hidden states  (B, T, 768)</text><rect x="-30.1" y="361.5" width="214.1" height="21.0" rx="10.5" fill="#F0FDF4" stroke="#16A34A" stroke-width="1.1" stroke-dasharray="3 2.2"/><path d="M -21.55617187499999,372.0 L -19.05617187499999,374.8 L -14.256171874999989,369.0" fill="none" stroke="#16A34A" stroke-width="1.7" stroke-linejoin="round" stroke-linecap="round"/><text x="-10.1" y="375.8" font-family="Helvetica Neue, Helvetica, Arial, sans-serif" font-size="10.5px" fill="#166534" text-anchor="start" font-weight="500">scaled dot-product attention</text><text x="175.0" y="375.1" font-family="SF Mono, Menlo, Consolas, monospace" font-size="8.5px" fill="#475569" text-anchor="end">known</text><rect x="-30.1" y="70.0" width="13.0" height="13.0" rx="3.5" fill="#DBEAFE" stroke="#2563EB" stroke-width="1.1"/><text x="-11.1" y="80.3" font-family="Helvetica Neue, Helvetica, Arial, sans-serif" font-size="10.5px" fill="#475569" text-anchor="start">attention</text><rect x="51.3" y="70.0" width="13.0" height="13.0" rx="3.5" fill="#DCFCE7" stroke="#16A34A" stroke-width="1.1"/><text x="70.3" y="80.3" font-family="Helvetica Neue, Helvetica, Arial, sans-serif" font-size="10.5px" fill="#475569" text-anchor="start">MLP / FFN</text><rect x="-30.1" y="91.0" width="13.0" height="13.0" rx="3.5" fill="#FEF9C3" stroke="#CA8A04" stroke-width="1.1"/><text x="-11.1" y="101.3" font-family="Helvetica Neue, Helvetica, Arial, sans-serif" font-size="10.5px" fill="#475569" text-anchor="start">normalization</text><rect x="74.9" y="91.0" width="13.0" height="13.0" rx="3.5" fill="#F8FAFC" stroke="#64748B" stroke-width="1.1"/><text x="93.9" y="101.3" font-family="Helvetica Neue, Helvetica, Arial, sans-serif" font-size="10.5px" fill="#475569" text-anchor="start">tensor</text><rect x="-30.1" y="112.0" width="13.0" height="13.0" rx="3.5" fill="#F0FDF4" stroke="#16A34A" stroke-width="1.1" stroke-dasharray="3 2"/><text x="-11.1" y="122.3" font-family="Helvetica Neue, Helvetica, Arial, sans-serif" font-size="10.5px" fill="#475569" text-anchor="start">known concept</text></g><g id="labels"><rect x="522.0" y="103.0" width="39.2" height="19.0" rx="9.5" fill="#FFFFFF" stroke="#64748B" stroke-width="1.2"/><text x="541.6" y="116.6" font-family="Helvetica Neue, Helvetica, Arial, sans-serif" font-size="11.5px" fill="#1E293B" text-anchor="middle" font-weight="600">×12</text><text x="-30.1" y="44.0" font-family="Helvetica Neue, Helvetica, Arial, sans-serif" font-size="11.5px" fill="#475569" text-anchor="start">ghosts; edges attach to the stack envelope, never crossing them.</text><text x="-30.1" y="27.3" font-family="Helvetica Neue, Helvetica, Arial, sans-serif" font-size="11.5px" fill="#475569" text-anchor="start">One of 12 identical layers. Repeated blocks render as a card stack — the occluded copies are dashed</text><text x="-30.1" y="10.6" font-family="Helvetica Neue, Helvetica, Arial, sans-serif" font-size="17px" fill="#0F172A" text-anchor="start" font-weight="600">Pre-LN Transformer block (GPT-2 style)</text></g></svg>