<svg xmlns="http://www.w3.org/2000/svg" viewBox="44.0 3.4 948.8 546.6" width="949" height="547"><defs><marker id="arr-DB2777" viewBox="0 0 10 10" refX="8.5" refY="5" markerWidth="6.5" markerHeight="6.5" orient="auto-start-reverse"><path d="M0.5,1 L9,5 L0.5,9 Z" fill="#DB2777"/></marker><marker id="arr-334155" viewBox="0 0 10 10" refX="8.5" refY="5" markerWidth="6.5" markerHeight="6.5" orient="auto-start-reverse"><path d="M0.5,1 L9,5 L0.5,9 Z" fill="#334155"/></marker><marker id="arr-94A3B8" viewBox="0 0 10 10" refX="8.5" refY="5" markerWidth="6.5" markerHeight="6.5" orient="auto-start-reverse"><path d="M0.5,1 L9,5 L0.5,9 Z" fill="#94A3B8"/></marker></defs><rect x="44.0" y="3.4" width="948.8" height="546.6" fill="#FFFFFF"/><g id="frames"></g><g id="edges"><path d="M 196.9,337.0 L 196.9,318.5 Q 196.9,311.5 203.9,311.5 L 298.4,311.5" fill="none" stroke="#DB2777" stroke-width="1.2" stroke-linejoin="round" stroke-linecap="round" stroke-dasharray="5 3" marker-end="url(#arr-DB2777)"/><path d="M 439.7,337.0 L 439.7,318.5 Q 439.7,311.5 432.7,311.5 L 317.4,311.5" fill="none" stroke="#DB2777" stroke-width="1.2" stroke-linejoin="round" stroke-linecap="round" stroke-dasharray="5 3" marker-end="url(#arr-DB2777)"/><path d="M 307.9,302.0 L 307.9,286.0" fill="none" stroke="#334155" stroke-width="1.5" stroke-linejoin="round" stroke-linecap="round" marker-end="url(#arr-334155)"/><path d="M 242.7,242.0 L 242.7,238.0 Q 242.7,234.0 238.7,234.0 L 185.9,234.0 Q 181.9,234.0 181.9,230.0 L 181.9,226.0" fill="none" stroke="#DB2777" stroke-width="1.2" stroke-linejoin="round" stroke-linecap="round" stroke-dasharray="5 3" marker-end="url(#arr-DB2777)"/><path d="M 373.1,242.0 L 373.1,206.4 Q 373.1,199.4 366.1,199.4 L 188.9,199.4 Q 181.9,199.4 181.9,192.4 L 181.9,180.0" fill="none" stroke="#DB2777" stroke-width="1.2" stroke-linejoin="round" stroke-linecap="round" stroke-dasharray="5 3" marker-end="url(#arr-DB2777)"/><path d="M 724.9,502.0 L 724.9,490.0" fill="none" stroke="#334155" stroke-width="1.5" stroke-linejoin="round" stroke-linecap="round" marker-end="url(#arr-334155)"/><path d="M 724.9,460.0 L 724.9,448.0" fill="none" stroke="#334155" stroke-width="1.5" stroke-linejoin="round" stroke-linecap="round" marker-end="url(#arr-334155)"/><path d="M 724.9,418.0 L 724.9,406.0" fill="none" stroke="#334155" stroke-width="1.5" stroke-linejoin="round" stroke-linecap="round" marker-end="url(#arr-334155)"/><path d="M 724.9,362.0 L 724.9,350.0" fill="none" stroke="#334155" stroke-width="1.5" stroke-linejoin="round" stroke-linecap="round" marker-end="url(#arr-334155)"/><path d="M 724.9,331.0 L 724.9,319.0" fill="none" stroke="#334155" stroke-width="1.5" stroke-linejoin="round" stroke-linecap="round" marker-end="url(#arr-334155)"/><path d="M 711.2,513.0 L 581.9,513.0 Q 574.9,513.0 574.9,506.0 L 574.9,316.5 Q 574.9,309.5 581.9,309.5 L 715.4,309.5" fill="none" stroke="#94A3B8" stroke-width="1.3" stroke-linejoin="round" stroke-linecap="round" marker-end="url(#arr-94A3B8)"/></g><g id="nodes"><rect x="122.9" y="150.0" width="118.0" height="30.0" rx="7" fill="#FCE7F3" stroke="#DB2777" stroke-width="1.3"/><text x="181.9" y="169.5" font-family="Helvetica Neue, Helvetica, Arial, sans-serif" font-size="12.5px" fill="#831843" text-anchor="middle" font-weight="500">shift_msa</text><rect x="248.9" y="150.0" width="118.0" height="30.0" rx="7" fill="#FCE7F3" stroke="#DB2777" stroke-width="1.3"/><text x="307.9" y="169.5" font-family="Helvetica Neue, Helvetica, Arial, sans-serif" font-size="12.5px" fill="#831843" text-anchor="middle" font-weight="500">scale_msa</text><rect x="374.9" y="150.0" width="118.0" height="30.0" rx="7" fill="#FCE7F3" stroke="#DB2777" stroke-width="1.3"/><text x="433.9" y="169.5" font-family="Helvetica Neue, Helvetica, Arial, sans-serif" font-size="12.5px" fill="#831843" text-anchor="middle" font-weight="500">gate_msa</text><rect x="122.9" y="196.0" width="118.0" height="30.0" rx="7" fill="#FCE7F3" stroke="#DB2777" stroke-width="1.3"/><text x="181.9" y="215.5" font-family="Helvetica Neue, Helvetica, Arial, sans-serif" font-size="12.5px" fill="#831843" text-anchor="middle" font-weight="500">shift_mlp</text><rect x="248.9" y="196.0" width="118.0" height="30.0" rx="7" fill="#FCE7F3" stroke="#DB2777" stroke-width="1.3"/><text x="307.9" y="215.5" font-family="Helvetica Neue, Helvetica, Arial, sans-serif" font-size="12.5px" fill="#831843" text-anchor="middle" font-weight="500">scale_mlp</text><rect x="374.9" y="196.0" width="118.0" height="30.0" rx="7" fill="#FCE7F3" stroke="#DB2777" stroke-width="1.3"/><text x="433.9" y="215.5" font-family="Helvetica Neue, Helvetica, Arial, sans-serif" font-size="12.5px" fill="#831843" text-anchor="middle" font-weight="500">gate_mlp</text><rect x="144.9" y="242.0" width="326.0" height="44.0" rx="7" fill="#EDE9FE" stroke="#7C3AED" stroke-width="1.3"/><text x="307.9" y="265.0" font-family="Helvetica Neue, Helvetica, Arial, sans-serif" font-size="12.5px" fill="#4C1D95" text-anchor="middle" font-weight="500">chunk into 6  (along dim 1)</text><text x="307.9" y="278.5" font-family="SF Mono, Menlo, Consolas, monospace" font-size="9.5px" fill="#475569" text-anchor="middle">each (B, 1536)</text><circle cx="307.9" cy="311.5" r="9.5" fill="#FFFFFF" stroke="#475569" stroke-width="1.3"/><line x1="303.3" y1="311.5" x2="312.4" y2="311.5" stroke="#475569" stroke-width="1.5" stroke-linecap="butt" /><line x1="307.9" y1="306.9" x2="307.9" y2="316.1" stroke="#475569" stroke-width="1.5" stroke-linecap="butt" /><rect x="70.0" y="337.0" width="253.7" height="44.0" rx="7" fill="#FCE7F3" stroke="#DB2777" stroke-width="1.3"/><text x="196.9" y="360.0" font-family="Helvetica Neue, Helvetica, Arial, sans-serif" font-size="12.5px" fill="#831843" text-anchor="middle" font-weight="500">modulation table</text><text x="196.9" y="373.5" font-family="SF Mono, Menlo, Consolas, monospace" font-size="9.5px" fill="#475569" text-anchor="middle">Parameter(1, 6, 1536)
learned, per block</text><rect x="333.7" y="337.0" width="212.1" height="44.0" rx="7" fill="#FCE7F3" stroke="#DB2777" stroke-width="1.3"/><text x="439.7" y="360.0" font-family="Helvetica Neue, Helvetica, Arial, sans-serif" font-size="12.5px" fill="#831843" text-anchor="middle" font-weight="500">t_mod</text><text x="439.7" y="373.5" font-family="SF Mono, Menlo, Consolas, monospace" font-size="9.5px" fill="#475569" text-anchor="middle">(B, 6, 1536)
from timestep, fig 3</text><g transform="translate(590.51,187.38) scale(1,-1)"><path d="M 0.37 0.00 L 0.37 0.44 Q 0.80 0.44 1.07 0.51 Q 1.35 0.57 1.35 0.84 L 1.35 4.25 Q 1.35 4.58 1.25 4.73 Q 1.15 4.88 0.96 4.92 Q 0.77 4.95 0.37 4.95 L 0.37 5.39 L 2.19 5.52 L 2.19 4.30 Q 2.44 4.84 2.93 5.18 Q 3.42 5.52 4.00 5.52 Q 5.44 5.52 5.69 4.35 Q 5.94 4.88 6.42 5.20 Q 6.90 5.52 7.48 5.52 Q 8.04 5.52 8.43 5.34 Q 8.82 5.16 9.02 4.78 Q 9.21 4.41 9.21 3.84 L 9.21 0.84 Q 9.21 0.57 9.49 0.51 Q 9.77 0.44 10.19 0.44 L 10.19 0.00 L 7.32 0.00 L 7.32 0.44 Q 7.75 0.44 8.03 0.51 Q 8.30 0.57 8.30 0.84 L 8.30 3.80 Q 8.30 4.43 8.12 4.82 Q 7.95 5.20 7.40 5.20 Q 6.68 5.20 6.21 4.62 Q 5.74 4.04 5.74 3.30 L 5.74 0.84 Q 5.74 0.57 6.01 0.51 Q 6.29 0.44 6.71 0.44 L 6.71 0.00 L 3.85 0.00 L 3.85 0.44 Q 4.28 0.44 4.55 0.51 Q 4.83 0.57 4.83 0.84 L 4.83 3.80 Q 4.83 4.41 4.65 4.81 Q 4.47 5.20 3.92 5.20 Q 3.20 5.20 2.73 4.62 Q 2.26 4.04 2.26 3.30 L 2.26 0.84 Q 2.26 0.57 2.54 0.51 Q 2.81 0.44 3.23 0.44 L 3.23 0.00 L 0.37 0.00 Z M 13.54 -0.14 Q 12.79 -0.14 12.15 0.24 Q 11.50 0.62 11.13 1.26 Q 10.76 1.90 10.76 2.66 Q 10.76 3.23 10.97 3.77 Q 11.17 4.30 11.55 4.71 Q 11.93 5.13 12.44 5.37 Q 12.95 5.60 13.54 5.60 Q 14.31 5.60 14.94 5.20 Q 15.57 4.79 15.94 4.11 Q 16.30 3.43 16.30 2.66 Q 16.30 1.91 15.93 1.27 Q 15.56 0.62 14.92 0.24 Q 14.28 -0.14 13.54 -0.14 Z M 13.54 0.23 Q 14.54 0.23 14.87 0.95 Q 15.21 1.68 15.21 2.80 Q 15.21 3.43 15.14 3.84 Q 15.08 4.25 14.85 4.59 Q 14.71 4.80 14.49 4.95 Q 14.28 5.11 14.03 5.19 Q 13.79 5.27 13.54 5.27 Q 13.15 5.27 12.80 5.10 Q 12.45 4.92 12.21 4.59 Q 11.98 4.24 11.92 3.81 Q 11.85 3.39 11.85 2.80 Q 11.85 2.10 11.98 1.54 Q 12.10 0.98 12.47 0.60 Q 12.84 0.23 13.54 0.23 Z M 19.72 -0.14 Q 18.98 -0.14 18.36 0.26 Q 17.75 0.66 17.42 1.31 Q 17.08 1.96 17.08 2.70 Q 17.08 3.46 17.45 4.10 Q 17.82 4.75 18.45 5.14 Q 19.09 5.52 19.85 5.52 Q 20.31 5.52 20.72 5.33 Q 21.12 5.14 21.42 4.80 L 21.42 7.40 Q 21.42 7.73 21.32 7.88 Q 21.22 8.03 21.04 8.07 Q 20.85 8.10 20.45 8.10 L 20.45 8.54 L 22.30 8.67 L 22.30 1.13 Q 22.30 0.81 22.40 0.66 Q 22.50 0.51 22.69 0.47 Q 22.88 0.44 23.27 0.44 L 23.27 0.00 L 21.39 -0.14 L 21.39 0.65 Q 21.06 0.28 20.62 0.07 Q 20.17 -0.14 19.72 -0.14 Z M 18.44 1.09 Q 18.65 0.68 19.01 0.43 Q 19.37 0.19 19.79 0.19 Q 20.31 0.19 20.74 0.49 Q 21.17 0.79 21.39 1.26 L 21.39 4.26 Q 21.24 4.54 21.02 4.75 Q 20.80 4.97 20.52 5.08 Q 20.24 5.20 19.93 5.20 Q 19.28 5.20 18.88 4.83 Q 18.48 4.46 18.32 3.89 Q 18.16 3.31 18.16 2.69 Q 18.16 2.19 18.22 1.81 Q 18.27 1.44 18.44 1.09 Z M 24.95 1.49 L 24.95 4.25 Q 24.95 4.58 24.85 4.73 Q 24.75 4.88 24.56 4.92 Q 24.37 4.95 23.98 4.95 L 23.98 5.39 L 25.87 5.52 L 25.87 1.49 Q 25.87 1.00 25.94 0.73 Q 26.01 0.46 26.24 0.32 Q 26.47 0.19 26.97 0.19 Q 27.64 0.19 28.03 0.75 Q 28.43 1.31 28.43 2.03 L 28.43 4.25 Q 28.43 4.58 28.33 4.73 Q 28.22 4.88 28.04 4.92 Q 27.85 4.95 27.45 4.95 L 27.45 5.39 L 29.34 5.52 L 29.34 1.13 Q 29.34 0.81 29.44 0.66 Q 29.54 0.51 29.73 0.47 Q 29.92 0.44 30.32 0.44 L 30.32 0.00 L 28.47 -0.14 L 28.47 0.92 Q 28.24 0.45 27.82 0.15 Q 27.41 -0.14 26.91 -0.14 Q 26.01 -0.14 25.48 0.24 Q 24.95 0.62 24.95 1.49 Z M 30.93 0.00 L 30.93 0.44 Q 31.35 0.44 31.63 0.51 Q 31.90 0.57 31.90 0.84 L 31.90 7.40 Q 31.90 7.73 31.80 7.88 Q 31.70 8.03 31.51 8.07 Q 31.32 8.10 30.93 8.10 L 30.93 8.54 L 32.78 8.67 L 32.78 0.84 Q 32.78 0.57 33.06 0.51 Q 33.33 0.44 33.75 0.44 L 33.75 0.00 L 30.93 0.00 Z M 34.50 1.23 Q 34.50 1.97 35.09 2.44 Q 35.67 2.91 36.49 3.10 Q 37.32 3.29 38.06 3.29 L 38.06 3.80 Q 38.06 4.16 37.90 4.50 Q 37.74 4.84 37.44 5.06 Q 37.14 5.27 36.78 5.27 Q 35.95 5.27 35.52 4.90 Q 35.75 4.90 35.91 4.72 Q 36.07 4.54 36.07 4.30 Q 36.07 4.05 35.89 3.88 Q 35.71 3.70 35.47 3.70 Q 35.22 3.70 35.04 3.88 Q 34.86 4.05 34.86 4.30 Q 34.86 4.96 35.46 5.28 Q 36.06 5.60 36.78 5.60 Q 37.29 5.60 37.80 5.39 Q 38.31 5.17 38.64 4.77 Q 38.97 4.36 38.97 3.83 L 38.97 1.01 Q 38.97 0.77 39.07 0.56 Q 39.17 0.36 39.39 0.36 Q 39.60 0.36 39.70 0.57 Q 39.80 0.78 39.80 1.01 L 39.80 1.81 L 40.17 1.81 L 40.17 1.01 Q 40.17 0.73 40.02 0.48 Q 39.87 0.23 39.63 0.08 Q 39.38 -0.07 39.09 -0.07 Q 38.73 -0.07 38.46 0.21 Q 38.20 0.49 38.16 0.88 Q 37.93 0.42 37.48 0.14 Q 37.03 -0.14 36.52 -0.14 Q 36.04 -0.14 35.58 0.00 Q 35.12 0.14 34.81 0.44 Q 34.50 0.74 34.50 1.23 Z M 35.52 1.23 Q 35.52 0.79 35.84 0.49 Q 36.16 0.19 36.60 0.19 Q 37.01 0.19 37.33 0.39 Q 37.66 0.59 37.86 0.94 Q 38.06 1.29 38.06 1.67 L 38.06 2.97 Q 37.49 2.97 36.89 2.79 Q 36.30 2.60 35.91 2.20 Q 35.52 1.81 35.52 1.23 Z M 41.53 1.50 L 41.53 4.95 L 40.49 4.95 L 40.49 5.27 Q 41.31 5.27 41.69 6.04 Q 42.08 6.80 42.08 7.69 L 42.44 7.69 L 42.44 5.39 L 44.20 5.39 L 44.20 4.95 L 42.44 4.95 L 42.44 1.53 Q 42.44 1.01 42.61 0.62 Q 42.79 0.23 43.24 0.23 Q 43.66 0.23 43.85 0.64 Q 44.04 1.05 44.04 1.53 L 44.04 2.26 L 44.40 2.26 L 44.40 1.50 Q 44.40 1.11 44.26 0.73 Q 44.12 0.35 43.83 0.10 Q 43.56 -0.14 43.15 -0.14 Q 42.40 -0.14 41.96 0.31 Q 41.53 0.76 41.53 1.50 Z M 48.22 -0.14 Q 47.45 -0.14 46.82 0.26 Q 46.18 0.66 45.82 1.33 Q 45.45 2.00 45.45 2.74 Q 45.45 3.47 45.78 4.13 Q 46.12 4.79 46.71 5.20 Q 47.31 5.60 48.04 5.60 Q 48.61 5.60 49.04 5.41 Q 49.46 5.22 49.74 4.88 Q 50.01 4.54 50.15 4.07 Q 50.29 3.61 50.29 3.05 Q 50.29 2.89 50.17 2.89 L 46.55 2.89 L 46.55 2.75 Q 46.55 1.71 46.96 0.97 Q 47.38 0.23 48.33 0.23 Q 48.71 0.23 49.04 0.40 Q 49.36 0.57 49.60 0.87 Q 49.85 1.18 49.93 1.53 Q 49.94 1.57 49.98 1.60 Q 50.01 1.64 50.05 1.64 L 50.17 1.64 Q 50.29 1.64 50.29 1.48 Q 50.12 0.77 49.53 0.31 Q 48.94 -0.14 48.22 -0.14 Z M 46.56 3.20 L 49.41 3.20 Q 49.41 3.67 49.28 4.15 Q 49.15 4.63 48.84 4.95 Q 48.53 5.27 48.04 5.27 Q 47.33 5.27 46.94 4.61 Q 46.56 3.95 46.56 3.20 Z M 54.53 -3.10 Q 53.83 -2.55 53.33 -1.84 Q 52.83 -1.13 52.50 -0.32 Q 52.18 0.48 52.03 1.36 Q 51.87 2.24 51.87 3.12 Q 51.87 4.02 52.03 4.90 Q 52.18 5.78 52.51 6.59 Q 52.84 7.40 53.34 8.11 Q 53.85 8.82 54.53 9.35 Q 54.53 9.38 54.59 9.38 L 54.71 9.38 Q 54.74 9.38 54.77 9.34 Q 54.80 9.31 54.80 9.27 Q 54.80 9.21 54.78 9.19 Q 54.17 8.59 53.76 7.90 Q 53.36 7.22 53.11 6.45 Q 52.86 5.68 52.75 4.85 Q 52.64 4.02 52.64 3.12 Q 52.64 -0.85 54.77 -2.91 Q 54.80 -2.95 54.80 -3.02 Q 54.80 -3.04 54.77 -3.08 Q 54.74 -3.12 54.71 -3.12 L 54.59 -3.12 Q 54.53 -3.12 54.53 -3.10 Z M 56.56 -1.79 Q 56.82 -2.24 57.47 -2.24 Q 58.06 -2.24 58.50 -1.82 Q 58.93 -1.41 59.19 -0.82 Q 59.46 -0.23 59.61 0.38 Q 59.05 -0.14 58.40 -0.14 Q 57.91 -0.14 57.56 0.03 Q 57.21 0.20 57.02 0.54 Q 56.83 0.88 56.83 1.36 Q 56.83 1.77 56.94 2.20 Q 57.05 2.63 57.25 3.16 Q 57.45 3.69 57.59 4.08 Q 57.76 4.54 57.76 4.83 Q 57.76 5.20 57.48 5.20 Q 56.99 5.20 56.67 4.69 Q 56.35 4.18 56.19 3.55 Q 56.17 3.47 56.09 3.47 L 55.94 3.47 Q 55.84 3.47 55.84 3.59 L 55.84 3.62 Q 56.04 4.37 56.46 4.95 Q 56.87 5.52 57.51 5.52 Q 57.95 5.52 58.26 5.23 Q 58.57 4.94 58.57 4.49 Q 58.57 4.25 58.47 4.00 Q 58.41 3.85 58.22 3.33 Q 58.02 2.82 57.92 2.48 Q 57.81 2.15 57.75 1.82 Q 57.68 1.50 57.68 1.18 Q 57.68 0.76 57.85 0.48 Q 58.03 0.19 58.42 0.19 Q 59.19 0.19 59.81 1.13 L 60.76 4.99 Q 60.80 5.15 60.95 5.27 Q 61.10 5.39 61.28 5.39 Q 61.43 5.39 61.54 5.29 Q 61.66 5.19 61.66 5.04 Q 61.66 4.96 61.65 4.94 L 60.41 -0.04 Q 60.24 -0.68 59.80 -1.26 Q 59.36 -1.85 58.74 -2.21 Q 58.12 -2.56 57.45 -2.56 Q 57.13 -2.56 56.81 -2.44 Q 56.49 -2.31 56.30 -2.06 Q 56.10 -1.81 56.10 -1.48 Q 56.10 -1.13 56.30 -0.88 Q 56.51 -0.63 56.84 -0.63 Q 57.04 -0.63 57.18 -0.76 Q 57.32 -0.88 57.32 -1.09 Q 57.32 -1.37 57.10 -1.59 Q 56.89 -1.80 56.60 -1.80 Q 56.59 -1.79 56.58 -1.79 Q 56.57 -1.79 56.56 -1.79 Z M 62.87 -2.25 Q 62.87 -2.20 62.92 -2.15 Q 63.37 -1.71 63.62 -1.15 Q 63.87 -0.58 63.87 0.05 L 63.87 0.20 Q 63.67 0.00 63.37 0.00 Q 63.09 0.00 62.89 0.20 Q 62.68 0.40 62.68 0.69 Q 62.68 0.98 62.89 1.18 Q 63.09 1.37 63.37 1.37 Q 63.82 1.37 64.01 0.96 Q 64.20 0.55 64.20 0.05 Q 64.20 -0.65 63.92 -1.27 Q 63.64 -1.90 63.14 -2.40 Q 63.09 -2.42 63.06 -2.42 Q 62.99 -2.42 62.93 -2.37 Q 62.87 -2.31 62.87 -2.25 Z M 69.53 -0.04 L 69.53 2.00 Q 69.53 2.10 69.64 2.10 L 69.80 2.10 Q 69.87 2.10 69.89 2.00 Q 70.24 0.19 71.58 0.19 Q 72.17 0.19 72.57 0.46 Q 72.97 0.73 72.97 1.29 Q 72.97 1.69 72.66 1.97 Q 72.35 2.26 71.92 2.36 L 71.08 2.53 Q 70.66 2.62 70.32 2.81 Q 69.97 3.00 69.75 3.31 Q 69.53 3.62 69.53 4.04 Q 69.53 4.59 69.82 4.94 Q 70.11 5.29 70.57 5.45 Q 71.04 5.60 71.58 5.60 Q 72.22 5.60 72.69 5.26 L 73.06 5.57 Q 73.06 5.60 73.12 5.60 L 73.21 5.60 Q 73.24 5.60 73.27 5.57 Q 73.31 5.54 73.31 5.50 L 73.31 3.86 Q 73.31 3.75 73.21 3.75 L 73.06 3.75 Q 72.94 3.75 72.94 3.86 Q 72.94 4.52 72.58 4.91 Q 72.22 5.31 71.57 5.31 Q 71.00 5.31 70.59 5.10 Q 70.18 4.89 70.18 4.39 Q 70.18 4.04 70.48 3.82 Q 70.77 3.60 71.17 3.50 L 72.02 3.34 Q 72.44 3.24 72.81 3.01 Q 73.18 2.78 73.40 2.42 Q 73.62 2.07 73.62 1.62 Q 73.62 1.17 73.46 0.84 Q 73.31 0.51 73.03 0.29 Q 72.75 0.07 72.37 -0.04 Q 71.99 -0.14 71.58 -0.14 Q 70.80 -0.14 70.24 0.38 L 69.78 -0.11 Q 69.78 -0.14 69.72 -0.14 L 69.64 -0.14 Q 69.53 -0.14 69.53 -0.04 Z M 74.42 0.00 L 74.42 0.44 Q 74.84 0.44 75.12 0.51 Q 75.39 0.57 75.39 0.84 L 75.39 7.40 Q 75.39 7.73 75.29 7.88 Q 75.19 8.03 75.00 8.07 Q 74.81 8.10 74.42 8.10 L 74.42 8.54 L 76.27 8.67 L 76.27 4.38 Q 76.53 4.89 77.00 5.21 Q 77.47 5.52 78.04 5.52 Q 78.91 5.52 79.34 5.11 Q 79.78 4.69 79.78 3.84 L 79.78 0.84 Q 79.78 0.57 80.06 0.51 Q 80.33 0.44 80.76 0.44 L 80.76 0.00 L 77.89 0.00 L 77.89 0.44 Q 78.32 0.44 78.60 0.51 Q 78.87 0.57 78.87 0.84 L 78.87 3.80 Q 78.87 4.41 78.69 4.81 Q 78.52 5.20 77.97 5.20 Q 77.24 5.20 76.77 4.62 Q 76.31 4.04 76.31 3.30 L 76.31 0.84 Q 76.31 0.57 76.58 0.51 Q 76.86 0.44 77.28 0.44 L 77.28 0.00 L 74.42 0.00 Z M 82.22 -2.25 Q 82.22 -2.20 82.27 -2.15 Q 82.72 -1.71 82.97 -1.15 Q 83.22 -0.58 83.22 0.05 L 83.22 0.20 Q 83.02 0.00 82.72 0.00 Q 82.44 0.00 82.24 0.20 Q 82.03 0.40 82.03 0.69 Q 82.03 0.98 82.24 1.18 Q 82.44 1.37 82.72 1.37 Q 83.17 1.37 83.36 0.96 Q 83.55 0.55 83.55 0.05 Q 83.55 -0.65 83.27 -1.27 Q 82.99 -1.90 82.49 -2.40 Q 82.44 -2.42 82.40 -2.42 Q 82.34 -2.42 82.28 -2.37 Q 82.22 -2.31 82.22 -2.25 Z M 88.88 -0.04 L 88.88 2.00 Q 88.88 2.10 88.99 2.10 L 89.15 2.10 Q 89.22 2.10 89.24 2.00 Q 89.59 0.19 90.93 0.19 Q 91.52 0.19 91.92 0.46 Q 92.32 0.73 92.32 1.29 Q 92.32 1.69 92.01 1.97 Q 91.70 2.26 91.27 2.36 L 90.43 2.53 Q 90.01 2.62 89.67 2.81 Q 89.32 3.00 89.10 3.31 Q 88.88 3.62 88.88 4.04 Q 88.88 4.59 89.17 4.94 Q 89.46 5.29 89.92 5.45 Q 90.39 5.60 90.93 5.60 Q 91.57 5.60 92.04 5.26 L 92.41 5.57 Q 92.41 5.60 92.47 5.60 L 92.56 5.60 Q 92.59 5.60 92.62 5.57 Q 92.66 5.54 92.66 5.50 L 92.66 3.86 Q 92.66 3.75 92.56 3.75 L 92.41 3.75 Q 92.29 3.75 92.29 3.86 Q 92.29 4.52 91.93 4.91 Q 91.57 5.31 90.91 5.31 Q 90.35 5.31 89.94 5.10 Q 89.53 4.89 89.53 4.39 Q 89.53 4.04 89.83 3.82 Q 90.12 3.60 90.52 3.50 L 91.37 3.34 Q 91.79 3.24 92.16 3.01 Q 92.53 2.78 92.75 2.42 Q 92.97 2.07 92.97 1.62 Q 92.97 1.17 92.81 0.84 Q 92.66 0.51 92.38 0.29 Q 92.10 0.07 91.72 -0.04 Q 91.34 -0.14 90.93 -0.14 Q 90.15 -0.14 89.59 0.38 L 89.13 -0.11 Q 89.13 -0.14 89.07 -0.14 L 88.99 -0.14 Q 88.88 -0.14 88.88 -0.04 Z M 96.51 -0.14 Q 95.75 -0.14 95.13 0.25 Q 94.52 0.65 94.16 1.30 Q 93.81 1.96 93.81 2.70 Q 93.81 3.44 94.16 4.11 Q 94.51 4.79 95.13 5.20 Q 95.75 5.60 96.51 5.60 Q 97.24 5.60 97.84 5.32 Q 98.44 5.03 98.44 4.38 Q 98.44 4.13 98.27 3.95 Q 98.09 3.77 97.84 3.77 Q 97.59 3.77 97.42 3.95 Q 97.24 4.13 97.24 4.38 Q 97.24 4.60 97.39 4.76 Q 97.53 4.92 97.73 4.96 Q 97.30 5.24 96.52 5.24 Q 95.92 5.24 95.55 4.84 Q 95.19 4.44 95.04 3.86 Q 94.90 3.27 94.90 2.70 Q 94.90 2.09 95.07 1.53 Q 95.25 0.96 95.65 0.60 Q 96.06 0.23 96.66 0.23 Q 97.25 0.23 97.66 0.59 Q 98.08 0.95 98.23 1.54 Q 98.23 1.61 98.33 1.61 L 98.48 1.61 Q 98.52 1.61 98.55 1.58 Q 98.58 1.54 98.58 1.50 L 98.58 1.46 Q 98.39 0.73 97.83 0.29 Q 97.27 -0.14 96.51 -0.14 Z M 99.75 -3.12 Q 99.64 -3.12 99.64 -3.02 Q 99.64 -2.96 99.67 -2.94 Q 101.80 -0.85 101.80 3.12 Q 101.80 7.10 99.69 9.16 Q 99.64 9.19 99.64 9.27 Q 99.64 9.31 99.68 9.34 Q 99.71 9.38 99.75 9.38 L 99.87 9.38 Q 99.91 9.38 99.93 9.35 Q 100.83 8.64 101.43 7.63 Q 102.02 6.62 102.30 5.47 Q 102.58 4.32 102.58 3.12 Q 102.58 2.24 102.43 1.38 Q 102.28 0.53 101.95 -0.31 Q 101.63 -1.14 101.13 -1.85 Q 100.63 -2.55 99.93 -3.10 Q 99.91 -3.12 99.87 -3.12 L 99.75 -3.12 Z M 106.93 1.66 Q 106.82 1.66 106.76 1.74 Q 106.69 1.82 106.69 1.91 Q 106.69 2.01 106.76 2.09 Q 106.82 2.16 106.93 2.16 L 114.78 2.16 Q 114.87 2.16 114.94 2.09 Q 115.00 2.01 115.00 1.91 Q 115.00 1.82 114.94 1.74 Q 114.87 1.66 114.78 1.66 L 106.93 1.66 Z M 106.93 4.09 Q 106.82 4.09 106.76 4.16 Q 106.69 4.24 106.69 4.34 Q 106.69 4.43 106.76 4.51 Q 106.82 4.59 106.93 4.59 L 114.78 4.59 Q 114.87 4.59 114.94 4.51 Q 115.00 4.43 115.00 4.34 Q 115.00 4.24 114.94 4.16 Q 114.87 4.09 114.78 4.09 L 106.93 4.09 Z M 118.94 -1.79 Q 119.21 -2.24 119.86 -2.24 Q 120.45 -2.24 120.88 -1.82 Q 121.32 -1.41 121.58 -0.82 Q 121.85 -0.23 122.00 0.38 Q 121.44 -0.14 120.79 -0.14 Q 120.30 -0.14 119.95 0.03 Q 119.60 0.20 119.41 0.54 Q 119.22 0.88 119.22 1.36 Q 119.22 1.77 119.33 2.20 Q 119.44 2.63 119.64 3.16 Q 119.84 3.69 119.98 4.08 Q 120.15 4.54 120.15 4.83 Q 120.15 5.20 119.87 5.20 Q 119.38 5.20 119.06 4.69 Q 118.74 4.18 118.58 3.55 Q 118.56 3.47 118.48 3.47 L 118.33 3.47 Q 118.23 3.47 118.23 3.59 L 118.23 3.62 Q 118.43 4.37 118.85 4.95 Q 119.26 5.52 119.90 5.52 Q 120.34 5.52 120.65 5.23 Q 120.96 4.94 120.96 4.49 Q 120.96 4.25 120.85 4.00 Q 120.80 3.85 120.60 3.33 Q 120.41 2.82 120.30 2.48 Q 120.20 2.15 120.13 1.82 Q 120.07 1.50 120.07 1.18 Q 120.07 0.76 120.24 0.48 Q 120.42 0.19 120.81 0.19 Q 121.58 0.19 122.20 1.13 L 123.14 4.99 Q 123.18 5.15 123.34 5.27 Q 123.49 5.39 123.67 5.39 Q 123.82 5.39 123.93 5.29 Q 124.05 5.19 124.05 5.04 Q 124.05 4.96 124.03 4.94 L 122.79 -0.04 Q 122.63 -0.68 122.19 -1.26 Q 121.75 -1.85 121.13 -2.21 Q 120.51 -2.56 119.84 -2.56 Q 119.52 -2.56 119.20 -2.44 Q 118.88 -2.31 118.69 -2.06 Q 118.49 -1.81 118.49 -1.48 Q 118.49 -1.13 118.69 -0.88 Q 118.90 -0.63 119.23 -0.63 Q 119.43 -0.63 119.57 -0.76 Q 119.71 -0.88 119.71 -1.09 Q 119.71 -1.37 119.49 -1.59 Q 119.28 -1.80 118.99 -1.80 Q 118.98 -1.79 118.97 -1.79 Q 118.96 -1.79 118.94 -1.79 Z M 127.27 3.12 Q 127.27 3.30 127.36 3.46 Q 127.45 3.62 127.61 3.72 Q 127.77 3.81 127.96 3.81 Q 128.13 3.81 128.29 3.72 Q 128.46 3.62 128.55 3.46 Q 128.64 3.30 128.64 3.12 Q 128.64 2.84 128.44 2.64 Q 128.24 2.44 127.96 2.44 Q 127.68 2.44 127.47 2.64 Q 127.27 2.84 127.27 3.12 Z M 135.75 -3.10 Q 135.05 -2.55 134.55 -1.84 Q 134.05 -1.13 133.72 -0.32 Q 133.40 0.48 133.25 1.36 Q 133.09 2.24 133.09 3.12 Q 133.09 4.02 133.25 4.90 Q 133.40 5.78 133.73 6.59 Q 134.06 7.40 134.56 8.11 Q 135.07 8.82 135.75 9.35 Q 135.75 9.38 135.81 9.38 L 135.92 9.38 Q 135.96 9.38 135.99 9.34 Q 136.02 9.31 136.02 9.27 Q 136.02 9.21 136.00 9.19 Q 135.39 8.59 134.98 7.90 Q 134.58 7.22 134.33 6.45 Q 134.08 5.68 133.97 4.85 Q 133.86 4.02 133.86 3.12 Q 133.86 -0.85 135.99 -2.91 Q 136.02 -2.95 136.02 -3.02 Q 136.02 -3.04 135.99 -3.08 Q 135.96 -3.12 135.92 -3.12 L 135.81 -3.12 Q 135.75 -3.12 135.75 -3.10 Z M 137.88 0.00 L 137.88 0.44 Q 139.45 0.44 139.45 0.84 L 139.45 7.40 Q 138.80 7.09 137.81 7.09 L 137.81 7.53 Q 139.34 7.53 140.12 8.33 L 140.30 8.33 Q 140.34 8.33 140.38 8.29 Q 140.42 8.26 140.42 8.21 L 140.42 0.84 Q 140.42 0.44 141.99 0.44 L 141.99 0.00 L 137.88 0.00 Z M 146.11 2.88 Q 146.01 2.88 145.94 2.95 Q 145.87 3.03 145.87 3.12 Q 145.87 3.22 145.94 3.29 Q 146.01 3.38 146.11 3.38 L 149.78 3.38 L 149.78 7.06 Q 149.78 7.16 149.86 7.22 Q 149.93 7.29 150.03 7.29 Q 150.13 7.29 150.20 7.22 Q 150.28 7.16 150.28 7.06 L 150.28 3.38 L 153.96 3.38 Q 154.05 3.38 154.12 3.29 Q 154.18 3.22 154.18 3.12 Q 154.18 3.03 154.12 2.95 Q 154.05 2.88 153.96 2.88 L 150.28 2.88 L 150.28 -0.81 Q 150.28 -0.91 150.20 -0.97 Q 150.13 -1.04 150.03 -1.04 Q 149.93 -1.04 149.86 -0.97 Q 149.78 -0.91 149.78 -0.81 L 149.78 2.88 L 146.11 2.88 Z M 157.49 -0.04 L 157.49 2.00 Q 157.49 2.10 157.60 2.10 L 157.75 2.10 Q 157.82 2.10 157.85 2.00 Q 158.20 0.19 159.53 0.19 Q 160.13 0.19 160.53 0.46 Q 160.93 0.73 160.93 1.29 Q 160.93 1.69 160.61 1.97 Q 160.30 2.26 159.88 2.36 L 159.04 2.53 Q 158.62 2.62 158.27 2.81 Q 157.93 3.00 157.71 3.31 Q 157.49 3.62 157.49 4.04 Q 157.49 4.59 157.78 4.94 Q 158.07 5.29 158.53 5.45 Q 159.00 5.60 159.53 5.60 Q 160.18 5.60 160.65 5.26 L 161.01 5.57 Q 161.01 5.60 161.07 5.60 L 161.16 5.60 Q 161.20 5.60 161.23 5.57 Q 161.26 5.54 161.26 5.50 L 161.26 3.86 Q 161.26 3.75 161.16 3.75 L 161.01 3.75 Q 160.90 3.75 160.90 3.86 Q 160.90 4.52 160.54 4.91 Q 160.18 5.31 159.52 5.31 Q 158.96 5.31 158.55 5.10 Q 158.14 4.89 158.14 4.39 Q 158.14 4.04 158.43 3.82 Q 158.73 3.60 159.13 3.50 L 159.97 3.34 Q 160.40 3.24 160.77 3.01 Q 161.14 2.78 161.36 2.42 Q 161.57 2.07 161.57 1.62 Q 161.57 1.17 161.42 0.84 Q 161.26 0.51 160.98 0.29 Q 160.71 0.07 160.33 -0.04 Q 159.95 -0.14 159.53 -0.14 Q 158.75 -0.14 158.20 0.38 L 157.74 -0.11 Q 157.74 -0.14 157.67 -0.14 L 157.60 -0.14 Q 157.49 -0.14 157.49 -0.04 Z M 165.11 -0.14 Q 164.36 -0.14 163.74 0.25 Q 163.12 0.65 162.77 1.30 Q 162.42 1.96 162.42 2.70 Q 162.42 3.44 162.77 4.11 Q 163.12 4.79 163.74 5.20 Q 164.36 5.60 165.11 5.60 Q 165.85 5.60 166.45 5.32 Q 167.05 5.03 167.05 4.38 Q 167.05 4.13 166.87 3.95 Q 166.70 3.77 166.45 3.77 Q 166.20 3.77 166.03 3.95 Q 165.85 4.13 165.85 4.38 Q 165.85 4.60 165.99 4.76 Q 166.13 4.92 166.34 4.96 Q 165.91 5.24 165.13 5.24 Q 164.53 5.24 164.16 4.84 Q 163.80 4.44 163.65 3.86 Q 163.50 3.27 163.50 2.70 Q 163.50 2.09 163.68 1.53 Q 163.86 0.96 164.26 0.60 Q 164.66 0.23 165.27 0.23 Q 165.86 0.23 166.27 0.59 Q 166.69 0.95 166.84 1.54 Q 166.84 1.61 166.94 1.61 L 167.09 1.61 Q 167.13 1.61 167.16 1.58 Q 167.19 1.54 167.19 1.50 L 167.19 1.46 Q 167.00 0.73 166.44 0.29 Q 165.88 -0.14 165.11 -0.14 Z M 168.36 -3.12 Q 168.25 -3.12 168.25 -3.02 Q 168.25 -2.96 168.28 -2.94 Q 170.41 -0.85 170.41 3.12 Q 170.41 7.10 168.30 9.16 Q 168.25 9.19 168.25 9.27 Q 168.25 9.31 168.28 9.34 Q 168.32 9.38 168.36 9.38 L 168.48 9.38 Q 168.51 9.38 168.54 9.35 Q 169.44 8.64 170.03 7.63 Q 170.63 6.62 170.91 5.47 Q 171.19 4.32 171.19 3.12 Q 171.19 2.24 171.04 1.38 Q 170.89 0.53 170.56 -0.31 Q 170.23 -1.14 169.73 -1.85 Q 169.23 -2.55 168.54 -3.10 Q 168.51 -3.12 168.48 -3.12 L 168.36 -3.12 Z M 175.54 2.88 Q 175.43 2.88 175.36 2.95 Q 175.30 3.03 175.30 3.12 Q 175.30 3.22 175.36 3.29 Q 175.43 3.38 175.54 3.38 L 179.21 3.38 L 179.21 7.06 Q 179.21 7.16 179.28 7.22 Q 179.36 7.29 179.46 7.29 Q 179.55 7.29 179.63 7.22 Q 179.71 7.16 179.71 7.06 L 179.71 3.38 L 183.38 3.38 Q 183.48 3.38 183.54 3.29 Q 183.61 3.22 183.61 3.12 Q 183.61 3.03 183.54 2.95 Q 183.48 2.88 183.38 2.88 L 179.71 2.88 L 179.71 -0.81 Q 179.71 -0.91 179.63 -0.97 Q 179.55 -1.04 179.46 -1.04 Q 179.36 -1.04 179.28 -0.97 Q 179.21 -0.91 179.21 -0.81 L 179.21 2.88 L 175.54 2.88 Z M 186.92 -0.04 L 186.92 2.00 Q 186.92 2.10 187.03 2.10 L 187.18 2.10 Q 187.25 2.10 187.28 2.00 Q 187.62 0.19 188.96 0.19 Q 189.55 0.19 189.95 0.46 Q 190.35 0.73 190.35 1.29 Q 190.35 1.69 190.04 1.97 Q 189.73 2.26 189.30 2.36 L 188.47 2.53 Q 188.05 2.62 187.70 2.81 Q 187.36 3.00 187.14 3.31 Q 186.92 3.62 186.92 4.04 Q 186.92 4.59 187.21 4.94 Q 187.50 5.29 187.96 5.45 Q 188.42 5.60 188.96 5.60 Q 189.60 5.60 190.08 5.26 L 190.44 5.57 Q 190.44 5.60 190.50 5.60 L 190.59 5.60 Q 190.63 5.60 190.66 5.57 Q 190.69 5.54 190.69 5.50 L 190.69 3.86 Q 190.69 3.75 190.59 3.75 L 190.44 3.75 Q 190.33 3.75 190.33 3.86 Q 190.33 4.52 189.96 4.91 Q 189.60 5.31 188.95 5.31 Q 188.39 5.31 187.98 5.10 Q 187.56 4.89 187.56 4.39 Q 187.56 4.04 187.86 3.82 Q 188.16 3.60 188.55 3.50 L 189.40 3.34 Q 189.83 3.24 190.20 3.01 Q 190.57 2.78 190.78 2.42 Q 191.00 2.07 191.00 1.62 Q 191.00 1.17 190.84 0.84 Q 190.69 0.51 190.41 0.29 Q 190.13 0.07 189.75 -0.04 Q 189.38 -0.14 188.96 -0.14 Q 188.18 -0.14 187.62 0.38 L 187.17 -0.11 Q 187.17 -0.14 187.10 -0.14 L 187.03 -0.14 Q 186.92 -0.14 186.92 -0.04 Z M 191.80 0.00 L 191.80 0.44 Q 192.23 0.44 192.50 0.51 Q 192.78 0.57 192.78 0.84 L 192.78 7.40 Q 192.78 7.73 192.67 7.88 Q 192.58 8.03 192.39 8.07 Q 192.20 8.10 191.80 8.10 L 191.80 8.54 L 193.66 8.67 L 193.66 4.38 Q 193.92 4.89 194.39 5.21 Q 194.86 5.52 195.42 5.52 Q 196.29 5.52 196.73 5.11 Q 197.16 4.69 197.16 3.84 L 197.16 0.84 Q 197.16 0.57 197.44 0.51 Q 197.71 0.44 198.14 0.44 L 198.14 0.00 L 195.28 0.00 L 195.28 0.44 Q 195.71 0.44 195.98 0.51 Q 196.25 0.57 196.25 0.84 L 196.25 3.80 Q 196.25 4.41 196.08 4.81 Q 195.90 5.20 195.35 5.20 Q 194.63 5.20 194.16 4.62 Q 193.69 4.04 193.69 3.30 L 193.69 0.84 Q 193.69 0.57 193.97 0.51 Q 194.24 0.44 194.66 0.44 L 194.66 0.00 L 191.80 0.00 Z" fill="#0F172A"/></g><g transform="translate(590.54,211.88) scale(1,-1)"><path d="M 0.35 -0.98 Q 0.35 -0.53 0.67 -0.20 Q 0.99 0.13 1.44 0.28 Q 1.19 0.46 1.06 0.75 Q 0.93 1.04 0.93 1.36 Q 0.93 1.95 1.30 2.40 Q 0.73 2.96 0.73 3.69 Q 0.73 4.08 0.89 4.42 Q 1.06 4.76 1.36 5.01 Q 1.66 5.26 2.03 5.39 Q 2.39 5.52 2.78 5.52 Q 3.52 5.52 4.11 5.09 Q 4.37 5.37 4.72 5.51 Q 5.07 5.66 5.45 5.66 Q 5.72 5.66 5.89 5.47 Q 6.06 5.28 6.06 5.01 Q 6.06 4.86 5.94 4.74 Q 5.83 4.63 5.68 4.63 Q 5.52 4.63 5.40 4.74 Q 5.29 4.86 5.29 5.01 Q 5.29 5.24 5.44 5.33 Q 4.79 5.33 4.33 4.89 Q 4.55 4.66 4.69 4.34 Q 4.83 4.01 4.83 3.69 Q 4.83 3.16 4.54 2.73 Q 4.24 2.31 3.76 2.07 Q 3.28 1.84 2.78 1.84 Q 2.09 1.84 1.53 2.21 Q 1.35 1.96 1.35 1.66 Q 1.35 1.33 1.57 1.08 Q 1.78 0.84 2.11 0.84 L 3.14 0.84 Q 3.88 0.84 4.48 0.70 Q 5.08 0.57 5.48 0.16 Q 5.89 -0.24 5.89 -0.98 Q 5.89 -1.53 5.43 -1.89 Q 4.96 -2.25 4.32 -2.41 Q 3.67 -2.58 3.12 -2.58 Q 2.57 -2.58 1.92 -2.41 Q 1.28 -2.25 0.81 -1.89 Q 0.35 -1.53 0.35 -0.98 Z M 1.05 -0.98 Q 1.05 -1.40 1.39 -1.68 Q 1.73 -1.96 2.21 -2.10 Q 2.70 -2.24 3.12 -2.24 Q 3.55 -2.24 4.03 -2.10 Q 4.51 -1.96 4.85 -1.68 Q 5.19 -1.40 5.19 -0.98 Q 5.19 -0.32 4.59 -0.13 Q 3.99 0.06 3.14 0.06 L 2.11 0.06 Q 1.82 0.06 1.58 -0.08 Q 1.34 -0.21 1.20 -0.46 Q 1.05 -0.71 1.05 -0.98 Z M 2.78 2.17 Q 3.84 2.17 3.84 3.69 Q 3.84 4.34 3.61 4.76 Q 3.39 5.19 2.78 5.19 Q 2.17 5.19 1.94 4.76 Q 1.71 4.34 1.71 3.69 Q 1.71 3.27 1.80 2.94 Q 1.89 2.60 2.12 2.39 Q 2.35 2.17 2.78 2.17 Z M 6.75 1.23 Q 6.75 1.97 7.34 2.44 Q 7.92 2.91 8.74 3.10 Q 9.56 3.29 10.30 3.29 L 10.30 3.80 Q 10.30 4.16 10.14 4.50 Q 9.99 4.84 9.69 5.06 Q 9.39 5.27 9.03 5.27 Q 8.20 5.27 7.76 4.90 Q 8.00 4.90 8.16 4.72 Q 8.31 4.54 8.31 4.30 Q 8.31 4.05 8.13 3.88 Q 7.96 3.70 7.71 3.70 Q 7.46 3.70 7.29 3.88 Q 7.11 4.05 7.11 4.30 Q 7.11 4.96 7.71 5.28 Q 8.31 5.60 9.03 5.60 Q 9.53 5.60 10.04 5.39 Q 10.56 5.17 10.88 4.77 Q 11.21 4.36 11.21 3.83 L 11.21 1.01 Q 11.21 0.77 11.32 0.56 Q 11.42 0.36 11.64 0.36 Q 11.85 0.36 11.95 0.57 Q 12.05 0.78 12.05 1.01 L 12.05 1.81 L 12.41 1.81 L 12.41 1.01 Q 12.41 0.73 12.27 0.48 Q 12.12 0.23 11.87 0.08 Q 11.63 -0.07 11.34 -0.07 Q 10.97 -0.07 10.71 0.21 Q 10.44 0.49 10.41 0.88 Q 10.18 0.42 9.73 0.14 Q 9.28 -0.14 8.77 -0.14 Q 8.29 -0.14 7.83 0.00 Q 7.37 0.14 7.06 0.44 Q 6.75 0.74 6.75 1.23 Z M 7.76 1.23 Q 7.76 0.79 8.09 0.49 Q 8.41 0.19 8.85 0.19 Q 9.25 0.19 9.58 0.39 Q 9.91 0.59 10.11 0.94 Q 10.30 1.29 10.30 1.67 L 10.30 2.97 Q 9.73 2.97 9.14 2.79 Q 8.54 2.60 8.15 2.20 Q 7.76 1.81 7.76 1.23 Z M 13.78 1.50 L 13.78 4.95 L 12.74 4.95 L 12.74 5.27 Q 13.56 5.27 13.94 6.04 Q 14.32 6.80 14.32 7.69 L 14.69 7.69 L 14.69 5.39 L 16.45 5.39 L 16.45 4.95 L 14.69 4.95 L 14.69 1.53 Q 14.69 1.01 14.86 0.62 Q 15.03 0.23 15.48 0.23 Q 15.91 0.23 16.10 0.64 Q 16.29 1.05 16.29 1.53 L 16.29 2.26 L 16.65 2.26 L 16.65 1.50 Q 16.65 1.11 16.51 0.73 Q 16.36 0.35 16.08 0.10 Q 15.80 -0.14 15.40 -0.14 Q 14.65 -0.14 14.21 0.31 Q 13.78 0.76 13.78 1.50 Z M 20.47 -0.14 Q 19.70 -0.14 19.06 0.26 Q 18.43 0.66 18.06 1.33 Q 17.70 2.00 17.70 2.74 Q 17.70 3.47 18.03 4.13 Q 18.37 4.79 18.96 5.20 Q 19.56 5.60 20.29 5.60 Q 20.86 5.60 21.29 5.41 Q 21.71 5.22 21.99 4.88 Q 22.26 4.54 22.40 4.07 Q 22.54 3.61 22.54 3.05 Q 22.54 2.89 22.41 2.89 L 18.79 2.89 L 18.79 2.75 Q 18.79 1.71 19.21 0.97 Q 19.63 0.23 20.57 0.23 Q 20.96 0.23 21.29 0.40 Q 21.61 0.57 21.85 0.87 Q 22.09 1.18 22.18 1.53 Q 22.19 1.57 22.23 1.60 Q 22.26 1.64 22.30 1.64 L 22.41 1.64 Q 22.54 1.64 22.54 1.48 Q 22.36 0.77 21.78 0.31 Q 21.19 -0.14 20.47 -0.14 Z M 18.81 3.20 L 21.66 3.20 Q 21.66 3.67 21.52 4.15 Q 21.39 4.63 21.09 4.95 Q 20.78 5.27 20.29 5.27 Q 19.58 5.27 19.19 4.61 Q 18.81 3.95 18.81 3.20 Z M 26.78 -3.10 Q 26.08 -2.55 25.58 -1.84 Q 25.07 -1.13 24.75 -0.32 Q 24.43 0.48 24.27 1.36 Q 24.12 2.24 24.12 3.12 Q 24.12 4.02 24.27 4.90 Q 24.43 5.78 24.76 6.59 Q 25.09 7.40 25.59 8.11 Q 26.10 8.82 26.78 9.35 Q 26.78 9.38 26.84 9.38 L 26.95 9.38 Q 26.99 9.38 27.02 9.34 Q 27.05 9.31 27.05 9.27 Q 27.05 9.21 27.03 9.19 Q 26.42 8.59 26.01 7.90 Q 25.60 7.22 25.36 6.45 Q 25.11 5.68 25.00 4.85 Q 24.89 4.02 24.89 3.12 Q 24.89 -0.85 27.01 -2.91 Q 27.05 -2.95 27.05 -3.02 Q 27.05 -3.04 27.02 -3.08 Q 26.98 -3.12 26.95 -3.12 L 26.84 -3.12 Q 26.78 -3.12 26.78 -3.10 Z M 28.73 0.36 Q 28.95 0.19 29.35 0.19 Q 29.74 0.19 30.04 0.56 Q 30.34 0.94 30.45 1.38 L 31.02 3.60 Q 31.15 4.21 31.15 4.43 Q 31.15 4.74 30.98 4.97 Q 30.81 5.20 30.49 5.20 Q 30.10 5.20 29.75 4.95 Q 29.40 4.71 29.16 4.32 Q 28.92 3.94 28.83 3.55 Q 28.80 3.47 28.73 3.47 L 28.58 3.47 Q 28.48 3.47 28.48 3.59 L 28.48 3.62 Q 28.60 4.09 28.89 4.53 Q 29.19 4.97 29.61 5.25 Q 30.04 5.52 30.52 5.52 Q 30.98 5.52 31.34 5.28 Q 31.71 5.04 31.87 4.62 Q 32.08 5.00 32.41 5.26 Q 32.74 5.52 33.14 5.52 Q 33.41 5.52 33.69 5.43 Q 33.97 5.33 34.15 5.14 Q 34.33 4.94 34.33 4.65 Q 34.33 4.33 34.12 4.10 Q 33.92 3.88 33.60 3.88 Q 33.40 3.88 33.26 4.00 Q 33.13 4.13 33.13 4.33 Q 33.13 4.59 33.31 4.79 Q 33.49 4.99 33.74 5.02 Q 33.51 5.20 33.12 5.20 Q 32.72 5.20 32.42 4.83 Q 32.12 4.46 32.00 4.00 L 31.45 1.79 Q 31.32 1.29 31.32 0.96 Q 31.32 0.65 31.50 0.42 Q 31.68 0.19 31.98 0.19 Q 32.56 0.19 33.02 0.71 Q 33.48 1.22 33.63 1.84 Q 33.66 1.91 33.73 1.91 L 33.88 1.91 Q 33.93 1.91 33.96 1.88 Q 33.99 1.84 33.99 1.80 Q 33.99 1.79 33.98 1.76 Q 33.80 1.02 33.23 0.44 Q 32.67 -0.14 31.95 -0.14 Q 31.49 -0.14 31.13 0.11 Q 30.76 0.35 30.60 0.78 Q 30.41 0.41 30.06 0.13 Q 29.72 -0.14 29.33 -0.14 Q 29.06 -0.14 28.77 -0.04 Q 28.49 0.05 28.31 0.24 Q 28.14 0.44 28.14 0.74 Q 28.14 1.03 28.34 1.27 Q 28.55 1.51 28.85 1.51 Q 29.06 1.51 29.20 1.39 Q 29.34 1.26 29.34 1.06 Q 29.34 0.80 29.16 0.60 Q 28.99 0.41 28.73 0.36 Z M 36.13 -2.25 Q 36.13 -2.20 36.17 -2.15 Q 36.63 -1.71 36.88 -1.15 Q 37.13 -0.58 37.13 0.05 L 37.13 0.20 Q 36.93 0.00 36.63 0.00 Q 36.34 0.00 36.14 0.20 Q 35.94 0.40 35.94 0.69 Q 35.94 0.98 36.14 1.18 Q 36.34 1.37 36.63 1.37 Q 37.07 1.37 37.26 0.96 Q 37.45 0.55 37.45 0.05 Q 37.45 -0.65 37.17 -1.27 Q 36.90 -1.90 36.39 -2.40 Q 36.34 -2.42 36.31 -2.42 Q 36.25 -2.42 36.19 -2.37 Q 36.13 -2.31 36.13 -2.25 Z M 42.55 -1.79 Q 42.55 -1.48 42.76 -1.25 Q 42.97 -1.03 43.27 -1.03 Q 43.47 -1.03 43.61 -1.15 Q 43.75 -1.28 43.75 -1.48 Q 43.75 -1.70 43.62 -1.88 Q 43.49 -2.06 43.29 -2.14 Q 43.62 -2.24 44.34 -2.24 Q 44.91 -2.24 45.39 -1.80 Q 45.86 -1.36 46.01 -0.78 L 46.37 0.69 Q 45.69 0.00 44.96 0.00 Q 44.42 0.00 44.04 0.27 Q 43.66 0.55 43.46 1.01 Q 43.26 1.46 43.26 1.98 Q 43.26 2.55 43.49 3.18 Q 43.73 3.81 44.15 4.35 Q 44.58 4.88 45.12 5.20 Q 45.68 5.52 46.28 5.52 Q 46.65 5.52 46.94 5.32 Q 47.24 5.12 47.41 4.79 Q 47.53 5.27 47.94 5.27 Q 48.10 5.27 48.21 5.18 Q 48.32 5.08 48.32 4.93 Q 48.32 4.89 48.32 4.87 Q 48.32 4.85 48.31 4.83 L 46.88 -0.85 Q 46.78 -1.24 46.52 -1.56 Q 46.26 -1.89 45.91 -2.10 Q 45.55 -2.32 45.13 -2.44 Q 44.71 -2.56 44.32 -2.56 Q 43.60 -2.56 43.08 -2.43 Q 42.55 -2.29 42.55 -1.79 Z M 44.99 0.32 Q 45.78 0.32 46.56 1.42 L 47.25 4.15 Q 47.16 4.58 46.91 4.89 Q 46.65 5.20 46.26 5.20 Q 45.84 5.20 45.48 4.86 Q 45.11 4.52 44.86 4.05 Q 44.63 3.60 44.41 2.76 Q 44.20 1.91 44.20 1.42 Q 44.20 0.99 44.39 0.66 Q 44.59 0.32 44.99 0.32 Z M 49.57 -2.25 Q 49.57 -2.20 49.62 -2.15 Q 50.08 -1.71 50.33 -1.15 Q 50.58 -0.58 50.58 0.05 L 50.58 0.20 Q 50.37 0.00 50.08 0.00 Q 49.79 0.00 49.59 0.20 Q 49.39 0.40 49.39 0.69 Q 49.39 0.98 49.59 1.18 Q 49.79 1.37 50.08 1.37 Q 50.52 1.37 50.71 0.96 Q 50.90 0.55 50.90 0.05 Q 50.90 -0.65 50.62 -1.27 Q 50.34 -1.90 49.84 -2.40 Q 49.79 -2.42 49.76 -2.42 Q 49.70 -2.42 49.63 -2.37 Q 49.57 -2.31 49.57 -2.25 Z M 57.12 0.00 L 57.12 7.40 Q 57.12 7.73 57.02 7.88 Q 56.92 8.03 56.73 8.07 Q 56.54 8.10 56.14 8.10 L 56.14 8.54 L 57.99 8.67 L 57.99 4.76 Q 58.20 4.99 58.48 5.17 Q 58.76 5.34 59.07 5.43 Q 59.39 5.52 59.72 5.52 Q 60.28 5.52 60.76 5.30 Q 61.24 5.07 61.59 4.68 Q 61.95 4.28 62.15 3.76 Q 62.35 3.25 62.35 2.70 Q 62.35 1.94 61.98 1.29 Q 61.61 0.63 60.97 0.25 Q 60.33 -0.14 59.57 -0.14 Q 59.09 -0.14 58.65 0.10 Q 58.20 0.35 57.91 0.75 L 57.48 0.00 L 57.12 0.00 Z M 58.03 1.23 Q 58.24 0.77 58.63 0.48 Q 59.02 0.19 59.49 0.19 Q 60.14 0.19 60.54 0.56 Q 60.94 0.93 61.10 1.50 Q 61.26 2.07 61.26 2.70 Q 61.26 3.75 60.98 4.30 Q 60.86 4.55 60.65 4.75 Q 60.44 4.96 60.18 5.08 Q 59.92 5.20 59.63 5.20 Q 59.13 5.20 58.71 4.94 Q 58.28 4.67 58.03 4.22 L 58.03 1.23 Z M 63.08 0.00 L 63.08 0.44 Q 63.51 0.44 63.79 0.51 Q 64.06 0.57 64.06 0.84 L 64.06 4.25 Q 64.06 4.58 63.96 4.73 Q 63.86 4.88 63.67 4.92 Q 63.48 4.95 63.08 4.95 L 63.08 5.39 L 64.87 5.52 L 64.87 4.30 Q 65.07 4.85 65.45 5.18 Q 65.82 5.52 66.35 5.52 Q 66.72 5.52 67.01 5.30 Q 67.31 5.08 67.31 4.72 Q 67.31 4.50 67.14 4.33 Q 66.98 4.16 66.75 4.16 Q 66.51 4.16 66.35 4.33 Q 66.18 4.49 66.18 4.72 Q 66.18 5.06 66.42 5.20 L 66.35 5.20 Q 65.84 5.20 65.52 4.83 Q 65.20 4.47 65.07 3.92 Q 64.93 3.38 64.93 2.89 L 64.93 0.84 Q 64.93 0.44 66.15 0.44 L 66.15 0.00 L 63.08 0.00 Z M 68.15 1.23 Q 68.15 1.97 68.73 2.44 Q 69.32 2.91 70.14 3.10 Q 70.96 3.29 71.70 3.29 L 71.70 3.80 Q 71.70 4.16 71.54 4.50 Q 71.38 4.84 71.08 5.06 Q 70.79 5.27 70.43 5.27 Q 69.60 5.27 69.16 4.90 Q 69.40 4.90 69.55 4.72 Q 69.71 4.54 69.71 4.30 Q 69.71 4.05 69.53 3.88 Q 69.36 3.70 69.11 3.70 Q 68.86 3.70 68.69 3.88 Q 68.51 4.05 68.51 4.30 Q 68.51 4.96 69.11 5.28 Q 69.71 5.60 70.43 5.60 Q 70.93 5.60 71.44 5.39 Q 71.96 5.17 72.28 4.77 Q 72.61 4.36 72.61 3.83 L 72.61 1.01 Q 72.61 0.77 72.71 0.56 Q 72.82 0.36 73.04 0.36 Q 73.25 0.36 73.35 0.57 Q 73.45 0.78 73.45 1.01 L 73.45 1.81 L 73.81 1.81 L 73.81 1.01 Q 73.81 0.73 73.67 0.48 Q 73.52 0.23 73.27 0.08 Q 73.03 -0.07 72.74 -0.07 Q 72.37 -0.07 72.11 0.21 Q 71.84 0.49 71.81 0.88 Q 71.58 0.42 71.13 0.14 Q 70.68 -0.14 70.16 -0.14 Q 69.69 -0.14 69.23 0.00 Q 68.77 0.14 68.46 0.44 Q 68.15 0.74 68.15 1.23 Z M 69.16 1.23 Q 69.16 0.79 69.48 0.49 Q 69.81 0.19 70.25 0.19 Q 70.65 0.19 70.98 0.39 Q 71.31 0.59 71.51 0.94 Q 71.70 1.29 71.70 1.67 L 71.70 2.97 Q 71.13 2.97 70.54 2.79 Q 69.94 2.60 69.55 2.20 Q 69.16 1.81 69.16 1.23 Z M 74.27 0.00 L 74.27 0.44 Q 74.70 0.44 74.97 0.51 Q 75.25 0.57 75.25 0.84 L 75.25 4.25 Q 75.25 4.58 75.15 4.73 Q 75.05 4.88 74.86 4.92 Q 74.67 4.95 74.27 4.95 L 74.27 5.39 L 76.08 5.52 L 76.08 4.30 Q 76.33 4.84 76.82 5.18 Q 77.32 5.52 77.90 5.52 Q 78.76 5.52 79.20 5.11 Q 79.64 4.69 79.64 3.84 L 79.64 0.84 Q 79.64 0.57 79.91 0.51 Q 80.19 0.44 80.61 0.44 L 80.61 0.00 L 77.75 0.00 L 77.75 0.44 Q 78.18 0.44 78.45 0.51 Q 78.73 0.57 78.73 0.84 L 78.73 3.80 Q 78.73 4.41 78.55 4.81 Q 78.37 5.20 77.82 5.20 Q 77.10 5.20 76.63 4.62 Q 76.16 4.04 76.16 3.30 L 76.16 0.84 Q 76.16 0.57 76.44 0.51 Q 76.71 0.44 77.13 0.44 L 77.13 0.00 L 74.27 0.00 Z M 83.95 -0.14 Q 83.19 -0.14 82.58 0.25 Q 81.96 0.65 81.61 1.30 Q 81.25 1.96 81.25 2.70 Q 81.25 3.44 81.60 4.11 Q 81.96 4.79 82.57 5.20 Q 83.19 5.60 83.95 5.60 Q 84.68 5.60 85.28 5.32 Q 85.89 5.03 85.89 4.38 Q 85.89 4.13 85.71 3.95 Q 85.54 3.77 85.29 3.77 Q 85.04 3.77 84.86 3.95 Q 84.69 4.13 84.69 4.38 Q 84.69 4.60 84.83 4.76 Q 84.97 4.92 85.18 4.96 Q 84.74 5.24 83.96 5.24 Q 83.37 5.24 83.00 4.84 Q 82.63 4.44 82.49 3.86 Q 82.34 3.27 82.34 2.70 Q 82.34 2.09 82.52 1.53 Q 82.70 0.96 83.10 0.60 Q 83.50 0.23 84.10 0.23 Q 84.70 0.23 85.11 0.59 Q 85.53 0.95 85.68 1.54 Q 85.68 1.61 85.78 1.61 L 85.93 1.61 Q 85.97 1.61 85.99 1.58 Q 86.03 1.54 86.03 1.50 L 86.03 1.46 Q 85.84 0.73 85.27 0.29 Q 84.71 -0.14 83.95 -0.14 Z M 86.76 0.00 L 86.76 0.44 Q 87.19 0.44 87.46 0.51 Q 87.74 0.57 87.74 0.84 L 87.74 7.40 Q 87.74 7.73 87.63 7.88 Q 87.53 8.03 87.35 8.07 Q 87.16 8.10 86.76 8.10 L 86.76 8.54 L 88.61 8.67 L 88.61 4.38 Q 88.88 4.89 89.35 5.21 Q 89.82 5.52 90.38 5.52 Q 91.25 5.52 91.69 5.11 Q 92.12 4.69 92.12 3.84 L 92.12 0.84 Q 92.12 0.57 92.40 0.51 Q 92.67 0.44 93.10 0.44 L 93.10 0.00 L 90.24 0.00 L 90.24 0.44 Q 90.67 0.44 90.94 0.51 Q 91.21 0.57 91.21 0.84 L 91.21 3.80 Q 91.21 4.41 91.04 4.81 Q 90.86 5.20 90.31 5.20 Q 89.59 5.20 89.12 4.62 Q 88.65 4.04 88.65 3.30 L 88.65 0.84 Q 88.65 0.57 88.93 0.51 Q 89.20 0.44 89.62 0.44 L 89.62 0.00 L 86.76 0.00 Z M 94.14 -3.12 Q 94.03 -3.12 94.03 -3.02 Q 94.03 -2.96 94.05 -2.94 Q 96.19 -0.85 96.19 3.12 Q 96.19 7.10 94.08 9.16 Q 94.03 9.19 94.03 9.27 Q 94.03 9.31 94.06 9.34 Q 94.10 9.38 94.14 9.38 L 94.25 9.38 Q 94.29 9.38 94.31 9.35 Q 95.21 8.64 95.81 7.63 Q 96.41 6.62 96.69 5.47 Q 96.96 4.32 96.96 3.12 Q 96.96 2.24 96.81 1.38 Q 96.66 0.53 96.34 -0.31 Q 96.01 -1.14 95.51 -1.85 Q 95.01 -2.55 94.31 -3.10 Q 94.29 -3.12 94.25 -3.12 L 94.14 -3.12 Z M 101.31 1.66 Q 101.21 1.66 101.14 1.74 Q 101.07 1.82 101.07 1.91 Q 101.07 2.01 101.14 2.09 Q 101.21 2.16 101.31 2.16 L 109.16 2.16 Q 109.25 2.16 109.32 2.09 Q 109.39 2.01 109.39 1.91 Q 109.39 1.82 109.32 1.74 Q 109.25 1.66 109.16 1.66 L 101.31 1.66 Z M 101.31 4.09 Q 101.21 4.09 101.14 4.16 Q 101.07 4.24 101.07 4.34 Q 101.07 4.43 101.14 4.51 Q 101.21 4.59 101.31 4.59 L 109.16 4.59 Q 109.25 4.59 109.32 4.51 Q 109.39 4.43 109.39 4.34 Q 109.39 4.24 109.32 4.16 Q 109.25 4.09 109.16 4.09 L 101.31 4.09 Z M 113.26 0.36 Q 113.48 0.19 113.88 0.19 Q 114.27 0.19 114.57 0.56 Q 114.87 0.94 114.98 1.38 L 115.54 3.60 Q 115.68 4.21 115.68 4.43 Q 115.68 4.74 115.51 4.97 Q 115.33 5.20 115.02 5.20 Q 114.62 5.20 114.27 4.95 Q 113.93 4.71 113.69 4.32 Q 113.45 3.94 113.35 3.55 Q 113.33 3.47 113.26 3.47 L 113.10 3.47 Q 113.01 3.47 113.01 3.59 L 113.01 3.62 Q 113.13 4.09 113.42 4.53 Q 113.71 4.97 114.14 5.25 Q 114.56 5.52 115.04 5.52 Q 115.50 5.52 115.87 5.28 Q 116.24 5.04 116.39 4.62 Q 116.61 5.00 116.94 5.26 Q 117.27 5.52 117.67 5.52 Q 117.94 5.52 118.22 5.43 Q 118.50 5.33 118.68 5.14 Q 118.85 4.94 118.85 4.65 Q 118.85 4.33 118.65 4.10 Q 118.44 3.88 118.13 3.88 Q 117.93 3.88 117.79 4.00 Q 117.66 4.13 117.66 4.33 Q 117.66 4.59 117.84 4.79 Q 118.02 4.99 118.27 5.02 Q 118.04 5.20 117.64 5.20 Q 117.24 5.20 116.94 4.83 Q 116.65 4.46 116.53 4.00 L 115.98 1.79 Q 115.84 1.29 115.84 0.96 Q 115.84 0.65 116.02 0.42 Q 116.20 0.19 116.50 0.19 Q 117.09 0.19 117.55 0.71 Q 118.01 1.22 118.16 1.84 Q 118.18 1.91 118.25 1.91 L 118.41 1.91 Q 118.46 1.91 118.49 1.88 Q 118.52 1.84 118.52 1.80 Q 118.52 1.79 118.51 1.76 Q 118.33 1.02 117.76 0.44 Q 117.19 -0.14 116.48 -0.14 Q 116.02 -0.14 115.65 0.11 Q 115.28 0.35 115.13 0.78 Q 114.93 0.41 114.59 0.13 Q 114.24 -0.14 113.85 -0.14 Q 113.59 -0.14 113.30 -0.04 Q 113.02 0.05 112.84 0.24 Q 112.66 0.44 112.66 0.74 Q 112.66 1.03 112.87 1.27 Q 113.07 1.51 113.38 1.51 Q 113.59 1.51 113.73 1.39 Q 113.87 1.26 113.87 1.06 Q 113.87 0.80 113.69 0.60 Q 113.52 0.41 113.26 0.36 Z M 122.55 2.88 Q 122.44 2.88 122.38 2.95 Q 122.31 3.03 122.31 3.12 Q 122.31 3.22 122.38 3.29 Q 122.44 3.38 122.55 3.38 L 126.22 3.38 L 126.22 7.06 Q 126.22 7.16 126.30 7.22 Q 126.37 7.29 126.47 7.29 Q 126.57 7.29 126.64 7.22 Q 126.72 7.16 126.72 7.06 L 126.72 3.38 L 130.40 3.38 Q 130.49 3.38 130.56 3.29 Q 130.62 3.22 130.62 3.12 Q 130.62 3.03 130.56 2.95 Q 130.49 2.88 130.40 2.88 L 126.72 2.88 L 126.72 -0.81 Q 126.72 -0.91 126.64 -0.97 Q 126.57 -1.04 126.47 -1.04 Q 126.37 -1.04 126.30 -0.97 Q 126.22 -0.91 126.22 -0.81 L 126.22 2.88 L 122.55 2.88 Z M 133.69 -1.79 Q 133.69 -1.48 133.90 -1.25 Q 134.11 -1.03 134.41 -1.03 Q 134.61 -1.03 134.75 -1.15 Q 134.89 -1.28 134.89 -1.48 Q 134.89 -1.70 134.76 -1.88 Q 134.63 -2.06 134.43 -2.14 Q 134.77 -2.24 135.48 -2.24 Q 136.05 -2.24 136.53 -1.80 Q 137.01 -1.36 137.15 -0.78 L 137.51 0.69 Q 136.83 0.00 136.10 0.00 Q 135.56 0.00 135.18 0.27 Q 134.80 0.55 134.60 1.01 Q 134.40 1.46 134.40 1.98 Q 134.40 2.55 134.63 3.18 Q 134.87 3.81 135.29 4.35 Q 135.72 4.88 136.27 5.20 Q 136.82 5.52 137.43 5.52 Q 137.79 5.52 138.09 5.32 Q 138.38 5.12 138.55 4.79 Q 138.67 5.27 139.09 5.27 Q 139.24 5.27 139.35 5.18 Q 139.47 5.08 139.47 4.93 Q 139.47 4.89 139.46 4.87 Q 139.46 4.85 139.45 4.83 L 138.02 -0.85 Q 137.93 -1.24 137.66 -1.56 Q 137.40 -1.89 137.05 -2.10 Q 136.69 -2.32 136.27 -2.44 Q 135.85 -2.56 135.46 -2.56 Q 134.75 -2.56 134.22 -2.43 Q 133.69 -2.29 133.69 -1.79 Z M 136.13 0.32 Q 136.93 0.32 137.70 1.42 L 138.39 4.15 Q 138.31 4.58 138.05 4.89 Q 137.79 5.20 137.40 5.20 Q 136.99 5.20 136.62 4.86 Q 136.25 4.52 136.00 4.05 Q 135.77 3.60 135.56 2.76 Q 135.34 1.91 135.34 1.42 Q 135.34 0.99 135.53 0.66 Q 135.73 0.32 136.13 0.32 Z M 142.72 3.12 Q 142.72 3.30 142.81 3.46 Q 142.90 3.62 143.07 3.72 Q 143.23 3.81 143.41 3.81 Q 143.59 3.81 143.75 3.72 Q 143.91 3.62 144.00 3.46 Q 144.10 3.30 144.10 3.12 Q 144.10 2.84 143.90 2.64 Q 143.70 2.44 143.41 2.44 Q 143.13 2.44 142.93 2.64 Q 142.72 2.84 142.72 3.12 Z M 148.63 0.00 L 148.63 7.40 Q 148.63 7.73 148.53 7.88 Q 148.43 8.03 148.24 8.07 Q 148.05 8.10 147.65 8.10 L 147.65 8.54 L 149.50 8.67 L 149.50 4.76 Q 149.71 4.99 149.99 5.17 Q 150.26 5.34 150.58 5.43 Q 150.90 5.52 151.23 5.52 Q 151.79 5.52 152.27 5.30 Q 152.75 5.07 153.10 4.68 Q 153.46 4.28 153.65 3.76 Q 153.85 3.25 153.85 2.70 Q 153.85 1.94 153.48 1.29 Q 153.11 0.63 152.48 0.25 Q 151.84 -0.14 151.08 -0.14 Q 150.60 -0.14 150.15 0.10 Q 149.71 0.35 149.42 0.75 L 148.99 0.00 L 148.63 0.00 Z M 149.54 1.23 Q 149.75 0.77 150.14 0.48 Q 150.53 0.19 151.00 0.19 Q 151.65 0.19 152.05 0.56 Q 152.45 0.93 152.61 1.50 Q 152.77 2.07 152.77 2.70 Q 152.77 3.75 152.49 4.30 Q 152.37 4.55 152.16 4.75 Q 151.95 4.96 151.69 5.08 Q 151.43 5.20 151.14 5.20 Q 150.64 5.20 150.21 4.94 Q 149.79 4.67 149.54 4.22 L 149.54 1.23 Z M 154.59 0.00 L 154.59 0.44 Q 155.02 0.44 155.29 0.51 Q 155.57 0.57 155.57 0.84 L 155.57 4.25 Q 155.57 4.58 155.47 4.73 Q 155.37 4.88 155.18 4.92 Q 154.99 4.95 154.59 4.95 L 154.59 5.39 L 156.38 5.52 L 156.38 4.30 Q 156.58 4.85 156.95 5.18 Q 157.33 5.52 157.86 5.52 Q 158.23 5.52 158.52 5.30 Q 158.81 5.08 158.81 4.72 Q 158.81 4.50 158.65 4.33 Q 158.49 4.16 158.25 4.16 Q 158.02 4.16 157.86 4.33 Q 157.69 4.49 157.69 4.72 Q 157.69 5.06 157.93 5.20 L 157.86 5.20 Q 157.35 5.20 157.03 4.83 Q 156.71 4.47 156.57 3.92 Q 156.44 3.38 156.44 2.89 L 156.44 0.84 Q 156.44 0.44 157.65 0.44 L 157.65 0.00 L 154.59 0.00 Z M 159.66 1.23 Q 159.66 1.97 160.24 2.44 Q 160.83 2.91 161.65 3.10 Q 162.47 3.29 163.21 3.29 L 163.21 3.80 Q 163.21 4.16 163.05 4.50 Q 162.89 4.84 162.59 5.06 Q 162.29 5.27 161.93 5.27 Q 161.10 5.27 160.67 4.90 Q 160.91 4.90 161.06 4.72 Q 161.22 4.54 161.22 4.30 Q 161.22 4.05 161.04 3.88 Q 160.87 3.70 160.62 3.70 Q 160.37 3.70 160.19 3.88 Q 160.02 4.05 160.02 4.30 Q 160.02 4.96 160.62 5.28 Q 161.21 5.60 161.93 5.60 Q 162.44 5.60 162.95 5.39 Q 163.46 5.17 163.79 4.77 Q 164.12 4.36 164.12 3.83 L 164.12 1.01 Q 164.12 0.77 164.22 0.56 Q 164.33 0.36 164.54 0.36 Q 164.75 0.36 164.85 0.57 Q 164.95 0.78 164.95 1.01 L 164.95 1.81 L 165.32 1.81 L 165.32 1.01 Q 165.32 0.73 165.17 0.48 Q 165.03 0.23 164.78 0.08 Q 164.53 -0.07 164.25 -0.07 Q 163.88 -0.07 163.62 0.21 Q 163.35 0.49 163.32 0.88 Q 163.09 0.42 162.63 0.14 Q 162.18 -0.14 161.67 -0.14 Q 161.20 -0.14 160.73 0.00 Q 160.27 0.14 159.96 0.44 Q 159.66 0.74 159.66 1.23 Z M 160.67 1.23 Q 160.67 0.79 160.99 0.49 Q 161.32 0.19 161.76 0.19 Q 162.16 0.19 162.49 0.39 Q 162.82 0.59 163.01 0.94 Q 163.21 1.29 163.21 1.67 L 163.21 2.97 Q 162.64 2.97 162.04 2.79 Q 161.45 2.60 161.06 2.20 Q 160.67 1.81 160.67 1.23 Z M 165.78 0.00 L 165.78 0.44 Q 166.20 0.44 166.48 0.51 Q 166.76 0.57 166.76 0.84 L 166.76 4.25 Q 166.76 4.58 166.65 4.73 Q 166.55 4.88 166.37 4.92 Q 166.18 4.95 165.78 4.95 L 165.78 5.39 L 167.59 5.52 L 167.59 4.30 Q 167.84 4.84 168.33 5.18 Q 168.82 5.52 169.40 5.52 Q 170.27 5.52 170.71 5.11 Q 171.14 4.69 171.14 3.84 L 171.14 0.84 Q 171.14 0.57 171.42 0.51 Q 171.69 0.44 172.12 0.44 L 172.12 0.00 L 169.26 0.00 L 169.26 0.44 Q 169.69 0.44 169.96 0.51 Q 170.23 0.57 170.23 0.84 L 170.23 3.80 Q 170.23 4.41 170.06 4.81 Q 169.88 5.20 169.33 5.20 Q 168.61 5.20 168.14 4.62 Q 167.67 4.04 167.67 3.30 L 167.67 0.84 Q 167.67 0.57 167.95 0.51 Q 168.22 0.44 168.64 0.44 L 168.64 0.00 L 165.78 0.00 Z M 175.46 -0.14 Q 174.70 -0.14 174.08 0.25 Q 173.47 0.65 173.12 1.30 Q 172.76 1.96 172.76 2.70 Q 172.76 3.44 173.11 4.11 Q 173.46 4.79 174.08 5.20 Q 174.70 5.60 175.46 5.60 Q 176.19 5.60 176.79 5.32 Q 177.39 5.03 177.39 4.38 Q 177.39 4.13 177.22 3.95 Q 177.05 3.77 176.80 3.77 Q 176.55 3.77 176.37 3.95 Q 176.20 4.13 176.20 4.38 Q 176.20 4.60 176.34 4.76 Q 176.48 4.92 176.69 4.96 Q 176.25 5.24 175.47 5.24 Q 174.87 5.24 174.51 4.84 Q 174.14 4.44 173.99 3.86 Q 173.85 3.27 173.85 2.70 Q 173.85 2.09 174.03 1.53 Q 174.21 0.96 174.61 0.60 Q 175.01 0.23 175.61 0.23 Q 176.20 0.23 176.62 0.59 Q 177.03 0.95 177.19 1.54 Q 177.19 1.61 177.28 1.61 L 177.44 1.61 Q 177.47 1.61 177.50 1.58 Q 177.53 1.54 177.53 1.50 L 177.53 1.46 Q 177.34 0.73 176.78 0.29 Q 176.22 -0.14 175.46 -0.14 Z M 178.27 0.00 L 178.27 0.44 Q 178.69 0.44 178.97 0.51 Q 179.24 0.57 179.24 0.84 L 179.24 7.40 Q 179.24 7.73 179.14 7.88 Q 179.04 8.03 178.85 8.07 Q 178.66 8.10 178.27 8.10 L 178.27 8.54 L 180.12 8.67 L 180.12 4.38 Q 180.38 4.89 180.85 5.21 Q 181.32 5.52 181.89 5.52 Q 182.76 5.52 183.19 5.11 Q 183.63 4.69 183.63 3.84 L 183.63 0.84 Q 183.63 0.57 183.91 0.51 Q 184.18 0.44 184.61 0.44 L 184.61 0.00 L 181.75 0.00 L 181.75 0.44 Q 182.17 0.44 182.45 0.51 Q 182.72 0.57 182.72 0.84 L 182.72 3.80 Q 182.72 4.41 182.54 4.81 Q 182.37 5.20 181.82 5.20 Q 181.09 5.20 180.62 4.62 Q 180.16 4.04 180.16 3.30 L 180.16 0.84 Q 180.16 0.57 180.43 0.51 Q 180.71 0.44 181.13 0.44 L 181.13 0.00 L 178.27 0.00 Z" fill="#0F172A"/></g><circle cx="724.9" cy="309.5" r="9.5" fill="#FFFFFF" stroke="#475569" stroke-width="1.3"/><line x1="720.3" y1="309.5" x2="729.4" y2="309.5" stroke="#475569" stroke-width="1.5" stroke-linecap="butt" /><line x1="724.9" y1="304.9" x2="724.9" y2="314.1" stroke="#475569" stroke-width="1.5" stroke-linecap="butt" /><circle cx="724.9" cy="340.5" r="9.5" fill="#FFFFFF" stroke="#475569" stroke-width="1.3"/><circle cx="724.9" cy="340.5" r="3.61" fill="#475569" /><rect x="596.9" y="362.0" width="256.0" height="44.0" rx="7" fill="#DBEAFE" stroke="#2563EB" stroke-width="1.3"/><text x="724.9" y="385.0" font-family="Helvetica Neue, Helvetica, Arial, sans-serif" font-size="12.5px" fill="#1E3A8A" text-anchor="middle" font-weight="500">Self-Attention branch</text><text x="724.9" y="398.5" font-family="SF Mono, Menlo, Consolas, monospace" font-size="9.5px" fill="#475569" text-anchor="middle">(fig 5)</text><rect x="596.9" y="418.0" width="256.0" height="30.0" rx="7" fill="#FCE7F3" stroke="#DB2777" stroke-width="1.3"/><text x="724.9" y="437.5" font-family="Helvetica Neue, Helvetica, Arial, sans-serif" font-size="12.5px" fill="#831843" text-anchor="middle" font-weight="500">modulate( · , shift_msa, scale_msa )</text><rect x="596.9" y="460.0" width="256.0" height="30.0" rx="7" fill="#FEF9C3" stroke="#CA8A04" stroke-width="1.3"/><text x="724.9" y="479.5" font-family="Helvetica Neue, Helvetica, Arial, sans-serif" font-size="12.5px" fill="#713F12" text-anchor="middle" font-weight="500">norm1  (LayerNorm, no affine)</text><rect x="711.2" y="502.0" width="27.3" height="22.0" rx="11.0" fill="#F8FAFC" stroke="#64748B" stroke-width="1.1"/><text x="724.9" y="516.6" font-family="SF Mono, Menlo, Consolas, monospace" font-size="10.0px" fill="#334155" text-anchor="middle">x</text><rect x="70.0" y="96.0" width="13.0" height="13.0" rx="3.5" fill="#FCE7F3" stroke="#DB2777" stroke-width="1.1"/><text x="89.0" y="106.3" font-family="Helvetica Neue, Helvetica, Arial, sans-serif" font-size="10.5px" fill="#475569" text-anchor="start">modulation param / op</text><rect x="223.6" y="96.0" width="13.0" height="13.0" rx="3.5" fill="#EDE9FE" stroke="#7C3AED" stroke-width="1.1"/><text x="242.6" y="106.3" font-family="Helvetica Neue, Helvetica, Arial, sans-serif" font-size="10.5px" fill="#475569" text-anchor="start">chunk</text><rect x="289.8" y="96.0" width="13.0" height="13.0" rx="3.5" fill="#FEF9C3" stroke="#CA8A04" stroke-width="1.1"/><text x="308.8" y="106.3" font-family="Helvetica Neue, Helvetica, Arial, sans-serif" font-size="10.5px" fill="#475569" text-anchor="start">LayerNorm</text><rect x="380.8" y="96.0" width="13.0" height="13.0" rx="3.5" fill="#DBEAFE" stroke="#2563EB" stroke-width="1.1"/><text x="399.8" y="106.3" font-family="Helvetica Neue, Helvetica, Arial, sans-serif" font-size="10.5px" fill="#475569" text-anchor="start">the gated branch</text><rect x="505.4" y="96.0" width="13.0" height="13.0" rx="3.5" fill="#F8FAFC" stroke="#64748B" stroke-width="1.1"/><text x="524.4" y="106.3" font-family="Helvetica Neue, Helvetica, Arial, sans-serif" font-size="10.5px" fill="#475569" text-anchor="start">tensor</text><circle cx="580.1" cy="102.5" r="6.5" fill="#FFFFFF" stroke="#475569" stroke-width="1.2"/><line x1="576.8" y1="102.5" x2="583.3" y2="102.5" stroke="#475569" stroke-width="1.5" stroke-linecap="butt" /><line x1="580.1" y1="99.2" x2="580.1" y2="105.8" stroke="#475569" stroke-width="1.5" stroke-linecap="butt" /><text x="592.6" y="106.3" font-family="Helvetica Neue, Helvetica, Arial, sans-serif" font-size="10.5px" fill="#475569" text-anchor="start">add</text><circle cx="633.2" cy="102.5" r="6.5" fill="#FFFFFF" stroke="#475569" stroke-width="1.2"/><circle cx="633.2" cy="102.5" r="2.6" fill="#475569" /><text x="645.7" y="106.3" font-family="Helvetica Neue, Helvetica, Arial, sans-serif" font-size="10.5px" fill="#475569" text-anchor="start">gate</text></g><g id="labels"><text x="70.0" y="136.0" font-family="Helvetica Neue, Helvetica, Arial, sans-serif" font-size="9.5px" fill="#0F172A" text-anchor="start" font-weight="600">the 6 params (each a 1536-vector):</text><text x="590.9" y="150.0" font-family="Helvetica Neue, Helvetica, Arial, sans-serif" font-size="13px" fill="#0F172A" text-anchor="start" font-weight="600">the two operations</text><text x="748.4" y="310.5" font-family="Helvetica Neue, Helvetica, Arial, sans-serif" font-size="9.5px" fill="#BE185D" text-anchor="start">x + gate_msa · attn</text><text x="748.4" y="341.5" font-family="Helvetica Neue, Helvetica, Arial, sans-serif" font-size="9.5px" fill="#BE185D" text-anchor="start">× gate_msa</text><text x="596.9" y="278.0" font-family="Helvetica Neue, Helvetica, Arial, sans-serif" font-size="9.5px" fill="#475569" text-anchor="start">where they apply (self-attn branch; FFN branch is identical</text><text x="596.9" y="291.3" font-family="Helvetica Neue, Helvetica, Arial, sans-serif" font-size="9.5px" fill="#475569" text-anchor="start">with the _mlp params):</text><text x="70.0" y="403.0" font-family="Helvetica Neue, Helvetica, Arial, sans-serif" font-size="9.5px" fill="#475569" text-anchor="start">gate_* are initialized near zero, so a fresh block starts as the identity (x passes through) and</text><text x="70.0" y="416.3" font-family="Helvetica Neue, Helvetica, Arial, sans-serif" font-size="9.5px" fill="#475569" text-anchor="start">learns to add its contribution — like adaLN-Zero, but the modulation is a cheap learned</text><text x="70.0" y="429.6" font-family="Helvetica Neue, Helvetica, Arial, sans-serif" font-size="9.5px" fill="#475569" text-anchor="start">table plus the timestep, not a per-block MLP.</text><text x="70.0" y="79.8" font-family="Helvetica Neue, Helvetica, Arial, sans-serif" font-size="11.5px" fill="#475569" text-anchor="start">modulate(y,sh,sc)=y·(1+sc)+sh is applied after norm1 / norm2; gate(x,g,branch)=x+g·branch wraps the self-attn and FFN residuals.</text><text x="70.0" y="63.1" font-family="Helvetica Neue, Helvetica, Arial, sans-serif" font-size="11.5px" fill="#475569" text-anchor="start">six = (modulation_table[1,6,1536] + t_mod[B,6,1536]).chunk(6) → shift_msa, scale_msa, gate_msa, shift_mlp, scale_mlp, gate_mlp.</text><text x="70.0" y="46.4" font-family="Helvetica Neue, Helvetica, Arial, sans-serif" font-size="17px" fill="#0F172A" text-anchor="start" font-weight="600">Wan2.1-VACE-1.3B · 7 · AdaLN-single  ·  6 modulation params per block from table + timestep</text></g></svg>