<svg xmlns="http://www.w3.org/2000/svg" viewBox="14.0 3.4 1267.3 532.7" width="1267" height="533"><defs><pattern id="hatch-E0F2FE-0284C7" width="5.5" height="5.5" patternUnits="userSpaceOnUse" patternTransform="rotate(45)"><rect width="5.5" height="5.5" fill="#E0F2FE"/><line x1="0" y1="0" x2="0" y2="5.5" stroke="#0284C7" stroke-width="1.4" stroke-opacity="0.55"/></pattern><marker id="arr-334155" viewBox="0 0 10 10" refX="8.5" refY="5" markerWidth="6.5" markerHeight="6.5" orient="auto-start-reverse"><path d="M0.5,1 L9,5 L0.5,9 Z" fill="#334155"/></marker><marker id="arr-DB2777" viewBox="0 0 10 10" refX="8.5" refY="5" markerWidth="6.5" markerHeight="6.5" orient="auto-start-reverse"><path d="M0.5,1 L9,5 L0.5,9 Z" fill="#DB2777"/></marker><marker id="arr-B45309" viewBox="0 0 10 10" refX="8.5" refY="5" markerWidth="6.5" markerHeight="6.5" orient="auto-start-reverse"><path d="M0.5,1 L9,5 L0.5,9 Z" fill="#B45309"/></marker><marker id="arr-0D9488" viewBox="0 0 10 10" refX="8.5" refY="5" markerWidth="6.5" markerHeight="6.5" orient="auto-start-reverse"><path d="M0.5,1 L9,5 L0.5,9 Z" fill="#0D9488"/></marker><marker id="arr-CBD5E1" viewBox="0 0 10 10" refX="8.5" refY="5" markerWidth="6.5" markerHeight="6.5" orient="auto-start-reverse"><path d="M0.5,1 L9,5 L0.5,9 Z" fill="#CBD5E1"/></marker></defs><rect x="14.0" y="3.4" width="1267.3" height="532.7" fill="#FFFFFF"/><g id="frames"></g><g id="edges"><path d="M 515.3,326.0 L 515.3,296.0" fill="none" stroke="#334155" stroke-width="1.5" stroke-linejoin="round" stroke-linecap="round" marker-end="url(#arr-334155)"/><path d="M 515.3,252.0 L 515.3,222.0" fill="none" stroke="#334155" stroke-width="1.5" stroke-linejoin="round" stroke-linecap="round" marker-end="url(#arr-334155)"/><path d="M 160.5,240.0 L 160.5,254.7 Q 160.5,261.7 167.5,261.7 L 295.0,261.7" fill="none" stroke="#DB2777" stroke-width="1.2" stroke-linejoin="round" stroke-linecap="round" stroke-dasharray="5 3" marker-end="url(#arr-DB2777)"/><path d="M 281.0,288.0 L 284.5,288.0 Q 288.0,288.0 288.0,284.5 L 288.0,277.5 Q 288.0,274.0 291.5,274.0 L 295.0,274.0" fill="none" stroke="#DB2777" stroke-width="1.2" stroke-linejoin="round" stroke-linecap="round" stroke-dasharray="5 3" marker-end="url(#arr-DB2777)"/><path d="M 281.0,358.0 L 284.5,358.0 Q 288.0,358.0 288.0,354.5 L 288.0,290.7 Q 288.0,287.2 291.5,287.2 L 295.0,287.2" fill="none" stroke="#B45309" stroke-width="1.3" stroke-linejoin="round" stroke-linecap="round" stroke-dasharray="5 3" marker-end="url(#arr-B45309)"/><path d="M 657.3,211.0 L 788.2,211.0 Q 795.2,211.0 795.2,218.0 L 795.2,258.2 Q 795.2,265.2 802.2,265.2 L 830.7,265.2" fill="none" stroke="#334155" stroke-width="1.5" stroke-linejoin="round" stroke-linecap="round" marker-end="url(#arr-334155)"/><path d="M 830.7,285.0 L 778.2,285.0 Q 771.2,285.0 771.2,292.0 L 771.2,330.0 Q 771.2,337.0 764.2,337.0 L 648.2,337.0" fill="none" stroke="#0D9488" stroke-width="1.3" stroke-linejoin="round" stroke-linecap="round" stroke-dasharray="5 3" marker-end="url(#arr-0D9488)"/><path d="M 1185.7,222.0 L 1185.7,230.0 Q 1185.7,237.0 1178.7,237.0 L 1026.9,237.0 Q 1019.9,237.0 1019.9,244.0 L 1019.9,252.0" fill="none" stroke="#CBD5E1" stroke-width="1.1" stroke-linejoin="round" stroke-linecap="round" marker-end="url(#arr-CBD5E1)"/><path d="M 1019.9,296.0 L 1019.9,309.0 Q 1019.9,316.0 1012.9,316.0 L 929.3,316.0 Q 922.3,316.0 922.3,323.0 L 922.3,336.0" fill="none" stroke="#CBD5E1" stroke-width="1.1" stroke-linejoin="round" stroke-linecap="round" marker-end="url(#arr-CBD5E1)"/><path d="M 183.9,436.0 L 183.9,415.0 Q 183.9,408.0 176.9,408.0 L 167.5,408.0 Q 160.5,408.0 160.5,401.0 L 160.5,380.0" fill="none" stroke="#CBD5E1" stroke-width="1.1" stroke-linejoin="round" stroke-linecap="round" marker-end="url(#arr-CBD5E1)"/><path d="M 922.3,358.0 L 922.3,366.0 Q 922.3,373.0 929.3,373.0 L 951.7,373.0 Q 958.7,373.0 958.7,380.0 L 958.7,388.0" fill="none" stroke="#334155" stroke-width="1.5" stroke-linejoin="round" stroke-linecap="round" marker-end="url(#arr-334155)"/></g><g id="nodes"><rect x="373.4" y="200.0" width="283.9" height="22.0" rx="11.0" fill="#E0F2FE" stroke="#0284C7" stroke-width="1.1"/><text x="515.3" y="214.6" font-family="SF Mono, Menlo, Consolas, monospace" font-size="10.0px" fill="#0C4A6E" text-anchor="middle">predicted velocity  v   (16, F', H/16, W/16)</text><rect x="295.0" y="252.0" width="440.7" height="44.0" rx="7" fill="#F1F5F9" stroke="#475569" stroke-width="1.3"/><text x="515.3" y="275.0" font-family="Helvetica Neue, Helvetica, Arial, sans-serif" font-size="12.5px" fill="#0F172A" text-anchor="middle" font-weight="500">WanModel  ·  the DiT denoiser</text><text x="515.3" y="288.5" font-family="SF Mono, Menlo, Consolas, monospace" font-size="9.5px" fill="#475569" text-anchor="middle">patchify → 30 DiT blocks (+ VACE hints) → head → unpatchify   (figs 2–11)</text><rect x="382.4" y="326.0" width="265.8" height="22.0" rx="11.0" fill="url(#hatch-E0F2FE-0284C7)" stroke="#0284C7" stroke-width="1.1"/><text x="515.3" y="340.6" font-family="SF Mono, Menlo, Consolas, monospace" font-size="10.0px" fill="#0C4A6E" text-anchor="middle" paint-order="stroke" stroke="#FFFFFF" stroke-width="3px">noised latent  x_σ   (16, F', H/16, W/16)</text><rect x="40.0" y="196.0" width="241.0" height="44.0" rx="7" fill="#FCE7F3" stroke="#DB2777" stroke-width="1.3"/><rect x="41.2" y="200.0" width="3.2" height="36.0" rx="1.6" fill="#DB2777"/><text x="160.5" y="219.0" font-family="Helvetica Neue, Helvetica, Arial, sans-serif" font-size="12.5px" fill="#831843" text-anchor="middle" font-weight="500">text prompt → UMT5 enc</text><text x="160.5" y="232.5" font-family="SF Mono, Menlo, Consolas, monospace" font-size="9.5px" fill="#475569" text-anchor="middle">(B, 512, 4096) → 1536   (fig 3)</text><rect x="40.0" y="266.0" width="241.0" height="44.0" rx="7" fill="#FCE7F3" stroke="#DB2777" stroke-width="1.3"/><text x="160.5" y="289.0" font-family="Helvetica Neue, Helvetica, Arial, sans-serif" font-size="12.5px" fill="#831843" text-anchor="middle" font-weight="500">noise level σ → timestep</text><text x="160.5" y="302.5" font-family="SF Mono, Menlo, Consolas, monospace" font-size="9.5px" fill="#475569" text-anchor="middle">256 → 1536 → 6·1536   (figs 3, 7)</text><rect x="40.0" y="336.0" width="241.0" height="44.0" rx="7" fill="#FEF3C7" stroke="#D97706" stroke-width="1.3"/><text x="160.5" y="359.0" font-family="Helvetica Neue, Helvetica, Arial, sans-serif" font-size="12.5px" fill="#92400E" text-anchor="middle" font-weight="500">control video + mask → VACE</text><text x="160.5" y="372.5" font-family="SF Mono, Menlo, Consolas, monospace" font-size="9.5px" fill="#475569" text-anchor="middle">→ 15 hints   (figs 8–11)</text><rect x="830.7" y="252.0" width="315.4" height="44.0" rx="7" fill="#FFFFFF" stroke="#475569" stroke-width="1.3"/><text x="988.3" y="275.0" font-family="Helvetica Neue, Helvetica, Arial, sans-serif" font-size="12.5px" fill="#334155" text-anchor="middle" font-weight="500">Euler step  ×T</text><text x="988.3" y="288.5" font-family="SF Mono, Menlo, Consolas, monospace" font-size="9.5px" fill="#475569" text-anchor="middle">x ← x − (σ_t − σ_{t-1}) · v
σ : 1 → 0   (~25 steps)</text><rect x="1116.0" y="200.0" width="139.3" height="22.0" rx="11.0" fill="url(#hatch-E0F2FE-0284C7)" stroke="#0284C7" stroke-width="1.1"/><text x="1185.7" y="214.6" font-family="SF Mono, Menlo, Consolas, monospace" font-size="10.0px" fill="#0C4A6E" text-anchor="middle" paint-order="stroke" stroke="#FFFFFF" stroke-width="3px">start: x_1 ~ N(0, I)</text><rect x="830.7" y="336.0" width="183.3" height="22.0" rx="11.0" fill="#E0F2FE" stroke="#0284C7" stroke-width="1.1"/><text x="922.3" y="350.6" font-family="SF Mono, Menlo, Consolas, monospace" font-size="10.0px" fill="#0C4A6E" text-anchor="middle">end (σ=0): clean latent x_0</text><g transform="translate(39.60,159.75) scale(1,-1)"><path d="M 1.02 0.37 Q 1.25 0.20 1.66 0.20 Q 2.07 0.20 2.38 0.59 Q 2.69 0.98 2.81 1.44 L 3.40 3.75 Q 3.54 4.37 3.54 4.60 Q 3.54 4.93 3.36 5.17 Q 3.17 5.41 2.85 5.41 Q 2.44 5.41 2.08 5.15 Q 1.71 4.89 1.47 4.50 Q 1.22 4.10 1.12 3.69 Q 1.09 3.61 1.02 3.61 L 0.86 3.61 Q 0.76 3.61 0.76 3.73 L 0.76 3.77 Q 0.88 4.25 1.19 4.71 Q 1.49 5.17 1.93 5.46 Q 2.37 5.74 2.88 5.74 Q 3.35 5.74 3.74 5.49 Q 4.12 5.24 4.28 4.80 Q 4.50 5.20 4.85 5.47 Q 5.19 5.74 5.60 5.74 Q 5.88 5.74 6.17 5.64 Q 6.47 5.55 6.65 5.34 Q 6.84 5.14 6.84 4.84 Q 6.84 4.51 6.62 4.27 Q 6.41 4.03 6.08 4.03 Q 5.87 4.03 5.73 4.16 Q 5.59 4.30 5.59 4.50 Q 5.59 4.77 5.78 4.98 Q 5.97 5.19 6.23 5.22 Q 5.99 5.41 5.58 5.41 Q 5.16 5.41 4.85 5.02 Q 4.55 4.63 4.42 4.16 L 3.85 1.86 Q 3.71 1.34 3.71 1.00 Q 3.71 0.67 3.89 0.43 Q 4.08 0.20 4.39 0.20 Q 5.00 0.20 5.48 0.73 Q 5.96 1.27 6.11 1.91 Q 6.14 1.99 6.21 1.99 L 6.37 1.99 Q 6.42 1.99 6.46 1.95 Q 6.49 1.92 6.49 1.87 Q 6.49 1.86 6.48 1.83 Q 6.29 1.06 5.70 0.46 Q 5.11 -0.15 4.37 -0.15 Q 3.89 -0.15 3.51 0.11 Q 3.12 0.37 2.96 0.81 Q 2.76 0.42 2.40 0.14 Q 2.04 -0.15 1.64 -0.15 Q 1.36 -0.15 1.06 -0.05 Q 0.77 0.05 0.58 0.25 Q 0.40 0.46 0.40 0.77 Q 0.40 1.07 0.61 1.32 Q 0.82 1.57 1.14 1.57 Q 1.36 1.57 1.51 1.44 Q 1.65 1.31 1.65 1.10 Q 1.65 0.83 1.47 0.63 Q 1.29 0.42 1.02 0.37 Z M 9.12 -2.31 Q 8.72 -2.31 8.40 -2.12 Q 8.09 -1.93 7.92 -1.60 Q 7.75 -1.27 7.75 -0.87 Q 7.75 -0.45 7.94 0.02 Q 8.13 0.48 8.46 0.87 Q 8.79 1.26 9.21 1.48 Q 9.63 1.71 10.07 1.71 L 12.36 1.71 Q 12.46 1.71 12.52 1.65 Q 12.59 1.59 12.59 1.48 Q 12.59 1.35 12.49 1.25 Q 12.40 1.15 12.26 1.15 L 11.15 1.15 Q 11.41 0.76 11.41 0.20 Q 11.41 -0.26 11.24 -0.70 Q 11.06 -1.14 10.74 -1.51 Q 10.43 -1.88 10.01 -2.10 Q 9.59 -2.31 9.12 -2.31 Z M 9.13 -2.07 Q 9.63 -2.07 10.01 -1.68 Q 10.40 -1.30 10.60 -0.73 Q 10.81 -0.17 10.81 0.31 Q 10.81 0.70 10.59 0.92 Q 10.38 1.15 9.99 1.15 Q 9.46 1.15 9.09 0.79 Q 8.72 0.44 8.53 -0.10 Q 8.35 -0.64 8.35 -1.14 Q 8.35 -1.53 8.56 -1.80 Q 8.76 -2.07 9.13 -2.07 Z M 16.70 1.73 Q 16.60 1.73 16.52 1.81 Q 16.46 1.89 16.46 1.99 Q 16.46 2.09 16.52 2.17 Q 16.60 2.25 16.70 2.25 L 24.87 2.25 Q 24.96 2.25 25.03 2.17 Q 25.10 2.09 25.10 1.99 Q 25.10 1.89 25.03 1.81 Q 24.96 1.73 24.87 1.73 L 16.70 1.73 Z M 16.70 4.25 Q 16.60 4.25 16.52 4.33 Q 16.46 4.41 16.46 4.51 Q 16.46 4.61 16.52 4.69 Q 16.60 4.77 16.70 4.77 L 24.87 4.77 Q 24.96 4.77 25.03 4.69 Q 25.10 4.61 25.10 4.51 Q 25.10 4.41 25.03 4.33 Q 24.96 4.25 24.87 4.25 L 16.70 4.25 Z M 32.14 -3.23 Q 31.41 -2.65 30.89 -1.91 Q 30.37 -1.17 30.03 -0.34 Q 29.70 0.50 29.54 1.42 Q 29.37 2.33 29.37 3.25 Q 29.37 4.18 29.54 5.10 Q 29.70 6.01 30.04 6.86 Q 30.38 7.70 30.91 8.44 Q 31.44 9.17 32.14 9.73 Q 32.14 9.75 32.20 9.75 L 32.32 9.75 Q 32.36 9.75 32.39 9.72 Q 32.42 9.68 32.42 9.64 Q 32.42 9.58 32.40 9.55 Q 31.76 8.93 31.34 8.22 Q 30.92 7.51 30.66 6.71 Q 30.41 5.90 30.29 5.04 Q 30.18 4.18 30.18 3.25 Q 30.18 -0.88 32.39 -3.03 Q 32.42 -3.07 32.42 -3.14 Q 32.42 -3.17 32.39 -3.21 Q 32.36 -3.25 32.32 -3.25 L 32.20 -3.25 Q 32.14 -3.25 32.14 -3.23 Z M 34.36 0.00 L 34.36 0.46 Q 35.99 0.46 35.99 0.87 L 35.99 7.69 Q 35.31 7.37 34.28 7.37 L 34.28 7.83 Q 35.88 7.83 36.69 8.66 L 36.87 8.66 Q 36.92 8.66 36.96 8.62 Q 37.00 8.59 37.00 8.54 L 37.00 0.87 Q 37.00 0.46 38.63 0.46 L 38.63 0.00 L 34.36 0.00 Z M 43.26 2.99 Q 43.16 2.99 43.08 3.07 Q 43.02 3.15 43.02 3.25 Q 43.02 3.35 43.08 3.43 Q 43.16 3.51 43.26 3.51 L 50.72 3.51 Q 50.82 3.51 50.89 3.43 Q 50.96 3.35 50.96 3.25 Q 50.96 3.15 50.89 3.07 Q 50.82 2.99 50.72 2.99 L 43.26 2.99 Z M 56.75 -0.15 Q 56.17 -0.15 55.72 0.13 Q 55.28 0.41 55.03 0.88 Q 54.79 1.35 54.79 1.91 Q 54.79 2.51 55.06 3.18 Q 55.33 3.85 55.81 4.40 Q 56.28 4.95 56.88 5.28 Q 57.47 5.60 58.10 5.60 L 61.38 5.60 Q 61.51 5.60 61.60 5.51 Q 61.70 5.43 61.70 5.28 Q 61.70 5.08 61.56 4.94 Q 61.43 4.80 61.24 4.80 L 59.65 4.80 Q 60.02 4.24 60.02 3.45 Q 60.02 2.79 59.77 2.16 Q 59.52 1.52 59.07 1.00 Q 58.62 0.48 58.02 0.16 Q 57.42 -0.15 56.75 -0.15 Z M 56.76 0.20 Q 57.47 0.20 58.02 0.75 Q 58.57 1.31 58.86 2.11 Q 59.16 2.91 59.16 3.60 Q 59.16 4.16 58.85 4.48 Q 58.54 4.80 57.99 4.80 Q 57.23 4.80 56.70 4.29 Q 56.17 3.78 55.91 3.01 Q 55.65 2.25 55.65 1.54 Q 55.65 0.98 55.94 0.59 Q 56.24 0.20 56.76 0.20 Z M 62.58 -3.25 Q 62.47 -3.25 62.47 -3.14 Q 62.47 -3.08 62.49 -3.05 Q 64.72 -0.88 64.72 3.25 Q 64.72 7.38 62.52 9.53 Q 62.47 9.56 62.47 9.64 Q 62.47 9.68 62.50 9.72 Q 62.54 9.75 62.58 9.75 L 62.70 9.75 Q 62.74 9.75 62.77 9.73 Q 63.70 8.99 64.32 7.93 Q 64.94 6.88 65.23 5.69 Q 65.52 4.50 65.52 3.25 Q 65.52 2.33 65.37 1.44 Q 65.21 0.55 64.87 -0.32 Q 64.53 -1.19 64.01 -1.92 Q 63.49 -2.65 62.77 -3.23 Q 62.74 -3.25 62.70 -3.25 L 62.58 -3.25 Z M 69.70 0.37 Q 69.93 0.20 70.35 0.20 Q 70.76 0.20 71.07 0.59 Q 71.38 0.98 71.49 1.44 L 72.08 3.75 Q 72.22 4.37 72.22 4.60 Q 72.22 4.93 72.04 5.17 Q 71.86 5.41 71.54 5.41 Q 71.13 5.41 70.76 5.15 Q 70.40 4.89 70.15 4.50 Q 69.91 4.10 69.81 3.69 Q 69.78 3.61 69.70 3.61 L 69.55 3.61 Q 69.44 3.61 69.44 3.73 L 69.44 3.77 Q 69.57 4.25 69.87 4.71 Q 70.18 5.17 70.62 5.46 Q 71.06 5.74 71.56 5.74 Q 72.04 5.74 72.42 5.49 Q 72.81 5.24 72.97 4.80 Q 73.19 5.20 73.53 5.47 Q 73.88 5.74 74.29 5.74 Q 74.57 5.74 74.86 5.64 Q 75.16 5.55 75.34 5.34 Q 75.53 5.14 75.53 4.84 Q 75.53 4.51 75.31 4.27 Q 75.10 4.03 74.77 4.03 Q 74.56 4.03 74.42 4.16 Q 74.28 4.30 74.28 4.50 Q 74.28 4.77 74.47 4.98 Q 74.66 5.19 74.92 5.22 Q 74.68 5.41 74.27 5.41 Q 73.85 5.41 73.54 5.02 Q 73.23 4.63 73.11 4.16 L 72.54 1.86 Q 72.39 1.34 72.39 1.00 Q 72.39 0.67 72.58 0.43 Q 72.77 0.20 73.08 0.20 Q 73.69 0.20 74.17 0.73 Q 74.65 1.27 74.80 1.91 Q 74.83 1.99 74.90 1.99 L 75.06 1.99 Q 75.11 1.99 75.14 1.95 Q 75.18 1.92 75.18 1.87 Q 75.18 1.86 75.16 1.83 Q 74.98 1.06 74.39 0.46 Q 73.80 -0.15 73.06 -0.15 Q 72.58 -0.15 72.20 0.11 Q 71.81 0.37 71.65 0.81 Q 71.45 0.42 71.09 0.14 Q 70.73 -0.15 70.33 -0.15 Q 70.05 -0.15 69.75 -0.05 Q 69.46 0.05 69.27 0.25 Q 69.09 0.46 69.09 0.77 Q 69.09 1.07 69.30 1.32 Q 69.51 1.57 69.83 1.57 Q 70.05 1.57 70.19 1.44 Q 70.34 1.31 70.34 1.10 Q 70.34 0.83 70.16 0.63 Q 69.98 0.42 69.70 0.37 Z M 78.38 -2.41 Q 77.27 -2.41 76.87 -1.49 Q 76.46 -0.58 76.46 0.69 Q 76.46 1.48 76.61 2.18 Q 76.75 2.88 77.18 3.36 Q 77.61 3.85 78.38 3.85 Q 78.98 3.85 79.36 3.56 Q 79.75 3.26 79.95 2.80 Q 80.15 2.33 80.22 1.80 Q 80.29 1.27 80.29 0.69 Q 80.29 -0.09 80.15 -0.77 Q 80.01 -1.46 79.58 -1.93 Q 79.16 -2.41 78.38 -2.41 Z M 78.38 -2.18 Q 78.89 -2.18 79.14 -1.66 Q 79.39 -1.14 79.45 -0.50 Q 79.50 0.13 79.50 0.84 Q 79.50 1.52 79.45 2.10 Q 79.39 2.68 79.14 3.15 Q 78.89 3.61 78.38 3.61 Q 77.87 3.61 77.62 3.14 Q 77.37 2.67 77.31 2.10 Q 77.25 1.52 77.25 0.84 Q 77.25 0.33 77.28 -0.12 Q 77.30 -0.57 77.41 -1.04 Q 77.52 -1.52 77.75 -1.85 Q 77.99 -2.18 78.38 -2.18 Z M 84.75 2.99 Q 84.64 2.99 84.57 3.07 Q 84.50 3.15 84.50 3.25 Q 84.50 3.35 84.57 3.43 Q 84.64 3.51 84.75 3.51 L 88.57 3.51 L 88.57 7.35 Q 88.57 7.45 88.64 7.51 Q 88.72 7.58 88.83 7.58 Q 88.93 7.58 89.01 7.51 Q 89.09 7.45 89.09 7.35 L 89.09 3.51 L 92.91 3.51 Q 93.01 3.51 93.08 3.43 Q 93.15 3.35 93.15 3.25 Q 93.15 3.15 93.08 3.07 Q 93.01 2.99 92.91 2.99 L 89.09 2.99 L 89.09 -0.84 Q 89.09 -0.95 89.01 -1.01 Q 88.93 -1.08 88.83 -1.08 Q 88.72 -1.08 88.64 -1.01 Q 88.57 -0.95 88.57 -0.84 L 88.57 2.99 L 84.75 2.99 Z M 98.58 -0.15 Q 98.01 -0.15 97.56 0.13 Q 97.11 0.41 96.86 0.88 Q 96.62 1.35 96.62 1.91 Q 96.62 2.51 96.89 3.18 Q 97.17 3.85 97.64 4.40 Q 98.11 4.95 98.71 5.28 Q 99.31 5.60 99.94 5.60 L 103.21 5.60 Q 103.34 5.60 103.44 5.51 Q 103.53 5.43 103.53 5.28 Q 103.53 5.08 103.40 4.94 Q 103.26 4.80 103.07 4.80 L 101.48 4.80 Q 101.86 4.24 101.86 3.45 Q 101.86 2.79 101.60 2.16 Q 101.35 1.52 100.90 1.00 Q 100.45 0.48 99.85 0.16 Q 99.25 -0.15 98.58 -0.15 Z M 98.60 0.20 Q 99.31 0.20 99.85 0.75 Q 100.41 1.31 100.70 2.11 Q 100.99 2.91 100.99 3.60 Q 100.99 4.16 100.68 4.48 Q 100.37 4.80 99.82 4.80 Q 99.06 4.80 98.53 4.29 Q 98.01 3.78 97.74 3.01 Q 97.48 2.25 97.48 1.54 Q 97.48 0.98 97.77 0.59 Q 98.07 0.20 98.60 0.20 Z M 105.82 1.35 Q 105.82 1.71 105.98 2.04 Q 106.13 2.38 106.38 2.65 Q 106.64 2.91 106.97 3.12 Q 106.48 3.47 106.48 4.01 Q 106.48 4.58 106.96 5.02 Q 107.44 5.45 108.14 5.67 Q 108.84 5.89 109.40 5.89 Q 109.63 5.89 110.03 5.79 Q 110.43 5.68 110.72 5.51 Q 111.02 5.34 111.02 5.13 Q 111.02 4.98 110.90 4.86 Q 110.79 4.75 110.65 4.75 Q 110.59 4.75 110.36 4.89 Q 110.13 5.02 109.87 5.13 Q 109.61 5.24 109.30 5.24 Q 108.83 5.24 108.26 5.12 Q 107.70 5.02 107.28 4.74 Q 106.85 4.46 106.85 4.02 Q 106.85 3.59 107.33 3.30 Q 107.88 3.55 108.45 3.55 Q 109.47 3.55 109.47 3.19 Q 109.47 2.90 109.12 2.82 Q 108.78 2.74 108.32 2.74 Q 107.71 2.74 107.32 2.93 Q 106.89 2.70 106.55 2.29 Q 106.22 1.87 106.22 1.43 Q 106.22 1.01 106.50 0.77 Q 106.78 0.54 107.19 0.45 Q 107.61 0.36 108.02 0.36 Q 108.74 0.36 109.29 0.52 Q 109.84 0.67 110.09 1.17 Q 110.13 1.25 110.24 1.25 Q 110.38 1.21 110.38 1.08 Q 110.38 1.07 110.34 0.95 Q 110.13 0.54 109.74 0.26 Q 109.36 -0.02 108.89 -0.15 Q 108.41 -0.29 107.92 -0.29 Q 107.11 -0.29 106.47 0.14 Q 105.82 0.58 105.82 1.35 Z M 107.83 3.12 Q 108.06 3.08 108.35 3.08 Q 108.92 3.08 109.06 3.16 Q 108.88 3.21 108.44 3.21 Q 108.11 3.21 107.83 3.12 Z" fill="#0F172A"/></g><g transform="translate(39.65,183.05) scale(1,-1)"><path d="M 1.39 1.48 Q 1.39 1.77 1.46 2.12 Q 1.53 2.47 1.60 2.70 Q 1.67 2.92 1.92 3.58 Q 2.17 4.23 2.17 4.26 Q 2.34 4.73 2.34 5.04 Q 2.34 5.42 2.06 5.42 Q 1.54 5.42 1.21 4.89 Q 0.88 4.36 0.72 3.71 Q 0.69 3.63 0.61 3.63 L 0.46 3.63 Q 0.35 3.63 0.35 3.75 L 0.35 3.78 Q 0.56 4.56 0.99 5.16 Q 1.42 5.76 2.08 5.76 Q 2.55 5.76 2.87 5.45 Q 3.19 5.15 3.19 4.68 Q 3.19 4.44 3.08 4.17 Q 2.83 3.51 2.68 3.11 Q 2.53 2.72 2.41 2.23 Q 2.29 1.73 2.29 1.32 Q 2.29 0.83 2.51 0.52 Q 2.74 0.21 3.21 0.21 Q 4.11 0.21 4.84 1.60 Q 5.07 2.05 5.27 2.66 Q 5.47 3.27 5.47 3.65 Q 5.47 4.04 5.34 4.26 Q 5.22 4.48 5.02 4.72 Q 4.81 4.96 4.81 5.10 Q 4.81 5.35 5.02 5.56 Q 5.23 5.77 5.48 5.77 Q 5.80 5.77 5.93 5.48 Q 6.07 5.20 6.07 4.84 Q 6.07 4.41 5.95 3.81 Q 5.82 3.21 5.60 2.57 Q 5.38 1.93 5.20 1.56 Q 4.34 -0.13 3.20 -0.13 Q 2.38 -0.13 1.89 0.28 Q 1.39 0.69 1.39 1.48 Z M 7.97 6.14 Q 7.87 6.14 7.79 6.23 Q 7.70 6.32 7.70 6.42 Q 7.70 6.58 7.83 6.64 L 9.14 7.26 L 7.83 7.88 Q 7.70 7.93 7.70 8.10 Q 7.70 8.20 7.79 8.29 Q 7.87 8.37 7.97 8.37 Q 8.04 8.37 8.10 8.33 L 9.26 7.48 L 9.13 8.97 Q 9.13 9.08 9.20 9.15 Q 9.28 9.22 9.39 9.22 Q 9.49 9.22 9.57 9.15 Q 9.64 9.08 9.64 8.98 L 9.64 8.97 L 9.51 7.48 L 10.67 8.33 Q 10.73 8.37 10.80 8.37 Q 10.91 8.37 10.98 8.29 Q 11.06 8.20 11.06 8.10 Q 11.06 7.93 10.93 7.88 L 9.62 7.26 L 10.93 6.64 Q 11.06 6.58 11.06 6.42 Q 11.06 6.32 10.98 6.23 Q 10.91 6.14 10.80 6.14 Q 10.73 6.14 10.67 6.19 L 9.51 7.04 L 9.64 5.56 L 9.64 5.53 Q 9.64 5.43 9.56 5.37 Q 9.49 5.30 9.39 5.30 Q 9.28 5.30 9.20 5.37 Q 9.13 5.45 9.13 5.55 L 9.26 7.04 L 8.10 6.19 Q 8.04 6.14 7.97 6.14 Z M 15.75 1.74 Q 15.64 1.74 15.57 1.82 Q 15.50 1.91 15.50 2.00 Q 15.50 2.11 15.57 2.18 Q 15.64 2.26 15.75 2.26 L 23.91 2.26 Q 24.01 2.26 24.08 2.18 Q 24.15 2.11 24.15 2.00 Q 24.15 1.91 24.08 1.82 Q 24.01 1.74 23.91 1.74 L 15.75 1.74 Z M 15.75 4.27 Q 15.64 4.27 15.57 4.34 Q 15.50 4.42 15.50 4.53 Q 15.50 4.62 15.57 4.70 Q 15.64 4.79 15.75 4.79 L 23.91 4.79 Q 24.01 4.79 24.08 4.70 Q 24.15 4.62 24.15 4.53 Q 24.15 4.42 24.08 4.34 Q 24.01 4.27 23.91 4.27 L 15.75 4.27 Z M 27.51 1.37 Q 27.51 1.72 27.66 2.06 Q 27.82 2.39 28.07 2.66 Q 28.32 2.93 28.65 3.14 Q 28.16 3.48 28.16 4.02 Q 28.16 4.60 28.64 5.03 Q 29.12 5.47 29.82 5.69 Q 30.52 5.90 31.08 5.90 Q 31.31 5.90 31.71 5.80 Q 32.11 5.70 32.40 5.52 Q 32.70 5.35 32.70 5.15 Q 32.70 5.00 32.59 4.88 Q 32.47 4.76 32.33 4.76 Q 32.27 4.76 32.04 4.90 Q 31.81 5.04 31.55 5.14 Q 31.29 5.25 30.98 5.25 Q 30.51 5.25 29.94 5.14 Q 29.38 5.03 28.96 4.75 Q 28.53 4.48 28.53 4.03 Q 28.53 3.61 29.02 3.31 Q 29.56 3.56 30.13 3.56 Q 31.15 3.56 31.15 3.20 Q 31.15 2.91 30.80 2.84 Q 30.46 2.76 30.01 2.76 Q 29.40 2.76 29.00 2.94 Q 28.57 2.71 28.23 2.30 Q 27.90 1.89 27.90 1.44 Q 27.90 1.02 28.18 0.79 Q 28.46 0.55 28.88 0.47 Q 29.29 0.38 29.70 0.38 Q 30.42 0.38 30.97 0.53 Q 31.52 0.69 31.77 1.18 Q 31.81 1.27 31.92 1.27 Q 32.06 1.22 32.06 1.09 Q 32.06 1.08 32.02 0.97 Q 31.81 0.55 31.43 0.27 Q 31.04 -0.00 30.57 -0.14 Q 30.10 -0.27 29.60 -0.27 Q 28.79 -0.27 28.15 0.16 Q 27.51 0.59 27.51 1.37 Z M 29.51 3.14 Q 29.74 3.09 30.03 3.09 Q 30.60 3.09 30.74 3.17 Q 30.56 3.23 30.12 3.23 Q 29.80 3.23 29.51 3.14 Z M 36.82 3.00 Q 36.71 3.00 36.64 3.09 Q 36.57 3.17 36.57 3.26 Q 36.57 3.36 36.64 3.44 Q 36.71 3.52 36.82 3.52 L 44.28 3.52 Q 44.38 3.52 44.45 3.44 Q 44.51 3.36 44.51 3.26 Q 44.51 3.17 44.45 3.09 Q 44.38 3.00 44.28 3.00 L 36.82 3.00 Z M 48.89 0.39 Q 49.12 0.21 49.54 0.21 Q 49.95 0.21 50.26 0.60 Q 50.57 0.99 50.68 1.45 L 51.27 3.76 Q 51.41 4.39 51.41 4.62 Q 51.41 4.94 51.23 5.18 Q 51.05 5.42 50.73 5.42 Q 50.31 5.42 49.95 5.17 Q 49.59 4.91 49.34 4.51 Q 49.09 4.12 48.99 3.71 Q 48.97 3.63 48.89 3.63 L 48.73 3.63 Q 48.63 3.63 48.63 3.75 L 48.63 3.78 Q 48.76 4.27 49.06 4.73 Q 49.37 5.19 49.81 5.47 Q 50.25 5.76 50.75 5.76 Q 51.23 5.76 51.61 5.50 Q 52.00 5.25 52.15 4.81 Q 52.38 5.21 52.72 5.48 Q 53.07 5.76 53.48 5.76 Q 53.76 5.76 54.05 5.66 Q 54.34 5.56 54.53 5.36 Q 54.71 5.16 54.71 4.85 Q 54.71 4.52 54.50 4.28 Q 54.29 4.04 53.96 4.04 Q 53.75 4.04 53.61 4.18 Q 53.47 4.31 53.47 4.52 Q 53.47 4.79 53.65 4.99 Q 53.84 5.20 54.10 5.24 Q 53.87 5.42 53.46 5.42 Q 53.04 5.42 52.73 5.04 Q 52.42 4.65 52.29 4.17 L 51.72 1.87 Q 51.58 1.35 51.58 1.02 Q 51.58 0.69 51.77 0.45 Q 51.96 0.21 52.27 0.21 Q 52.88 0.21 53.36 0.75 Q 53.84 1.28 53.99 1.93 Q 54.01 2.00 54.09 2.00 L 54.25 2.00 Q 54.30 2.00 54.33 1.97 Q 54.36 1.93 54.36 1.89 Q 54.36 1.87 54.35 1.85 Q 54.17 1.07 53.58 0.47 Q 52.99 -0.13 52.24 -0.13 Q 51.77 -0.13 51.38 0.12 Q 51.00 0.38 50.84 0.82 Q 50.64 0.44 50.28 0.15 Q 49.92 -0.13 49.51 -0.13 Q 49.23 -0.13 48.94 -0.03 Q 48.64 0.07 48.46 0.27 Q 48.28 0.47 48.28 0.78 Q 48.28 1.09 48.49 1.34 Q 48.70 1.59 49.02 1.59 Q 49.23 1.59 49.38 1.46 Q 49.53 1.33 49.53 1.12 Q 49.53 0.84 49.34 0.64 Q 49.16 0.44 48.89 0.39 Z M 57.57 -2.40 Q 56.46 -2.40 56.05 -1.48 Q 55.65 -0.56 55.65 0.71 Q 55.65 1.50 55.80 2.19 Q 55.94 2.89 56.37 3.38 Q 56.80 3.86 57.57 3.86 Q 58.17 3.86 58.55 3.57 Q 58.93 3.28 59.14 2.81 Q 59.34 2.35 59.41 1.82 Q 59.48 1.29 59.48 0.71 Q 59.48 -0.08 59.34 -0.76 Q 59.19 -1.44 58.77 -1.92 Q 58.35 -2.40 57.57 -2.40 Z M 57.57 -2.16 Q 58.08 -2.16 58.33 -1.64 Q 58.58 -1.12 58.63 -0.49 Q 58.69 0.14 58.69 0.85 Q 58.69 1.54 58.63 2.11 Q 58.58 2.69 58.33 3.16 Q 58.08 3.63 57.57 3.63 Q 57.06 3.63 56.81 3.16 Q 56.56 2.69 56.50 2.11 Q 56.44 1.54 56.44 0.85 Q 56.44 0.35 56.47 -0.10 Q 56.49 -0.55 56.60 -1.03 Q 56.71 -1.51 56.94 -1.84 Q 57.18 -2.16 57.57 -2.16 Z M 61.96 -2.33 Q 61.96 -2.27 62.01 -2.22 Q 62.49 -1.77 62.75 -1.18 Q 63.01 -0.59 63.01 0.07 L 63.01 0.22 Q 62.80 0.01 62.49 0.01 Q 62.19 0.01 61.98 0.22 Q 61.77 0.43 61.77 0.73 Q 61.77 1.04 61.98 1.24 Q 62.19 1.44 62.49 1.44 Q 62.95 1.44 63.15 1.01 Q 63.34 0.58 63.34 0.07 Q 63.34 -0.66 63.05 -1.31 Q 62.76 -1.96 62.24 -2.48 Q 62.19 -2.51 62.15 -2.51 Q 62.09 -2.51 62.03 -2.45 Q 61.96 -2.39 61.96 -2.33 Z M 89.87 -0.27 Q 89.78 -0.27 89.78 -0.18 Q 89.78 -0.13 89.83 -0.06 Q 89.92 0.09 90.11 0.28 Q 90.30 0.47 90.39 0.57 Q 90.72 1.05 90.91 1.42 Q 91.24 2.10 91.48 2.99 Q 91.83 4.41 92.12 5.29 Q 92.41 6.17 92.88 6.96 Q 93.25 7.57 93.79 8.07 Q 94.33 8.58 94.98 8.88 Q 95.64 9.18 96.33 9.18 L 96.40 9.18 Q 96.74 9.18 96.97 9.01 Q 97.20 8.84 97.32 8.56 Q 97.43 8.28 97.43 7.95 Q 97.43 7.46 97.27 7.27 Q 96.82 6.78 96.21 6.70 L 96.13 6.70 Q 96.05 6.70 96.05 6.79 Q 96.05 6.80 96.09 6.98 Q 96.12 7.17 96.12 7.29 Q 96.12 7.71 95.91 8.03 Q 95.70 8.34 95.29 8.34 Q 94.80 8.34 94.80 8.25 Q 94.45 8.01 94.12 7.43 Q 93.80 6.86 93.55 6.19 Q 93.31 5.52 93.11 4.84 Q 92.93 4.17 92.78 3.58 Q 92.62 2.94 92.37 2.35 Q 92.12 1.76 91.78 1.24 Q 91.93 1.29 92.15 1.29 L 92.23 1.29 Q 92.68 1.29 93.14 1.20 Q 93.59 1.11 94.21 0.93 Q 94.84 0.75 95.26 0.66 Q 95.68 0.58 96.14 0.57 Q 96.28 0.57 96.37 0.70 Q 96.46 0.83 96.55 1.05 Q 96.63 1.28 96.69 1.35 Q 96.89 1.57 97.17 1.73 Q 97.46 1.89 97.74 1.93 L 97.82 1.93 Q 97.86 1.93 97.88 1.90 Q 97.91 1.87 97.91 1.84 Q 97.91 1.84 97.90 1.80 Q 97.77 1.29 97.30 0.80 Q 96.83 0.31 96.23 0.02 Q 95.63 -0.27 95.13 -0.27 L 95.05 -0.27 Q 94.60 -0.27 94.17 -0.19 Q 93.74 -0.11 93.11 0.07 Q 92.48 0.25 92.03 0.34 Q 91.59 0.44 91.14 0.45 Q 90.56 -0.19 89.94 -0.27 L 89.87 -0.27 Z M 101.60 1.74 Q 101.49 1.74 101.42 1.82 Q 101.35 1.91 101.35 2.00 Q 101.35 2.11 101.42 2.18 Q 101.49 2.26 101.60 2.26 L 109.76 2.26 Q 109.86 2.26 109.93 2.18 Q 110.00 2.11 110.00 2.00 Q 110.00 1.91 109.93 1.82 Q 109.86 1.74 109.76 1.74 L 101.60 1.74 Z M 101.60 4.27 Q 101.49 4.27 101.42 4.34 Q 101.35 4.42 101.35 4.53 Q 101.35 4.62 101.42 4.70 Q 101.49 4.79 101.60 4.79 L 109.76 4.79 Q 109.86 4.79 109.93 4.70 Q 110.00 4.62 110.00 4.53 Q 110.00 4.42 109.93 4.34 Q 109.86 4.27 109.76 4.27 L 101.60 4.27 Z M 114.73 -3.00 L 114.73 9.53 Q 114.73 9.63 114.81 9.70 Q 114.90 9.76 114.99 9.76 Q 115.10 9.76 115.17 9.70 Q 115.25 9.63 115.25 9.53 L 115.25 -3.00 Q 115.25 -3.10 115.17 -3.17 Q 115.10 -3.24 114.99 -3.24 Q 114.90 -3.24 114.81 -3.17 Q 114.73 -3.10 114.73 -3.00 Z M 117.26 -3.00 L 117.26 9.53 Q 117.26 9.63 117.33 9.70 Q 117.41 9.76 117.52 9.76 Q 117.61 9.76 117.69 9.70 Q 117.78 9.63 117.78 9.53 L 117.78 -3.00 Q 117.78 -3.10 117.69 -3.17 Q 117.61 -3.24 117.52 -3.24 Q 117.41 -3.24 117.33 -3.17 Q 117.26 -3.10 117.26 -3.00 Z M 120.89 1.48 Q 120.89 1.77 120.96 2.12 Q 121.03 2.47 121.10 2.70 Q 121.17 2.92 121.42 3.58 Q 121.67 4.23 121.68 4.26 Q 121.85 4.73 121.85 5.04 Q 121.85 5.42 121.56 5.42 Q 121.05 5.42 120.71 4.89 Q 120.38 4.36 120.22 3.71 Q 120.20 3.63 120.11 3.63 L 119.96 3.63 Q 119.85 3.63 119.85 3.75 L 119.85 3.78 Q 120.06 4.56 120.49 5.16 Q 120.93 5.76 121.59 5.76 Q 122.05 5.76 122.37 5.45 Q 122.69 5.15 122.69 4.68 Q 122.69 4.44 122.58 4.17 Q 122.33 3.51 122.18 3.11 Q 122.04 2.72 121.91 2.23 Q 121.79 1.73 121.79 1.32 Q 121.79 0.83 122.01 0.52 Q 122.24 0.21 122.72 0.21 Q 123.62 0.21 124.34 1.60 Q 124.57 2.05 124.77 2.66 Q 124.98 3.27 124.98 3.65 Q 124.98 4.04 124.85 4.26 Q 124.72 4.48 124.52 4.72 Q 124.32 4.96 124.32 5.10 Q 124.32 5.35 124.53 5.56 Q 124.73 5.77 124.99 5.77 Q 125.30 5.77 125.44 5.48 Q 125.57 5.20 125.57 4.84 Q 125.57 4.41 125.45 3.81 Q 125.33 3.21 125.11 2.57 Q 124.89 1.93 124.70 1.56 Q 123.85 -0.13 122.70 -0.13 Q 121.88 -0.13 121.39 0.28 Q 120.89 0.69 120.89 1.48 Z M 129.40 3.00 Q 129.30 3.00 129.23 3.09 Q 129.16 3.17 129.16 3.26 Q 129.16 3.36 129.23 3.44 Q 129.30 3.52 129.40 3.52 L 136.86 3.52 Q 136.96 3.52 137.03 3.44 Q 137.10 3.36 137.10 3.26 Q 137.10 3.17 137.03 3.09 Q 136.96 3.00 136.86 3.00 L 129.40 3.00 Z M 141.85 1.48 Q 141.85 1.77 141.92 2.12 Q 141.99 2.47 142.06 2.70 Q 142.13 2.92 142.38 3.58 Q 142.62 4.23 142.63 4.26 Q 142.80 4.73 142.80 5.04 Q 142.80 5.42 142.52 5.42 Q 142.00 5.42 141.67 4.89 Q 141.33 4.36 141.18 3.71 Q 141.15 3.63 141.07 3.63 L 140.92 3.63 Q 140.81 3.63 140.81 3.75 L 140.81 3.78 Q 141.02 4.56 141.45 5.16 Q 141.88 5.76 142.54 5.76 Q 143.00 5.76 143.33 5.45 Q 143.65 5.15 143.65 4.68 Q 143.65 4.44 143.54 4.17 Q 143.28 3.51 143.14 3.11 Q 142.99 2.72 142.87 2.23 Q 142.74 1.73 142.74 1.32 Q 142.74 0.83 142.97 0.52 Q 143.20 0.21 143.67 0.21 Q 144.57 0.21 145.30 1.60 Q 145.53 2.05 145.73 2.66 Q 145.93 3.27 145.93 3.65 Q 145.93 4.04 145.80 4.26 Q 145.68 4.48 145.47 4.72 Q 145.27 4.96 145.27 5.10 Q 145.27 5.35 145.48 5.56 Q 145.69 5.77 145.94 5.77 Q 146.25 5.77 146.39 5.48 Q 146.53 5.20 146.53 4.84 Q 146.53 4.41 146.40 3.81 Q 146.28 3.21 146.06 2.57 Q 145.84 1.93 145.66 1.56 Q 144.80 -0.13 143.66 -0.13 Q 142.84 -0.13 142.34 0.28 Q 141.85 0.69 141.85 1.48 Z M 148.43 6.14 Q 148.33 6.14 148.24 6.23 Q 148.16 6.32 148.16 6.42 Q 148.16 6.58 148.29 6.64 L 149.60 7.26 L 148.29 7.88 Q 148.16 7.93 148.16 8.10 Q 148.16 8.20 148.24 8.29 Q 148.33 8.37 148.43 8.37 Q 148.50 8.37 148.55 8.33 L 149.72 7.48 L 149.58 8.97 Q 149.58 9.08 149.66 9.15 Q 149.74 9.22 149.85 9.22 Q 149.95 9.22 150.03 9.15 Q 150.10 9.08 150.10 8.98 L 150.10 8.97 L 149.97 7.48 L 151.13 8.33 Q 151.19 8.37 151.26 8.37 Q 151.37 8.37 151.44 8.29 Q 151.52 8.20 151.52 8.10 Q 151.52 7.93 151.39 7.88 L 150.08 7.26 L 151.39 6.64 Q 151.52 6.58 151.52 6.42 Q 151.52 6.32 151.44 6.23 Q 151.37 6.14 151.26 6.14 Q 151.19 6.14 151.13 6.19 L 149.97 7.04 L 150.10 5.56 L 150.10 5.53 Q 150.10 5.43 150.02 5.37 Q 149.94 5.30 149.85 5.30 Q 149.74 5.30 149.66 5.37 Q 149.58 5.45 149.58 5.55 L 149.72 7.04 L 148.55 6.19 Q 148.50 6.14 148.43 6.14 Z M 154.68 -3.00 L 154.68 9.53 Q 154.68 9.63 154.76 9.70 Q 154.84 9.76 154.94 9.76 Q 155.04 9.76 155.12 9.70 Q 155.20 9.63 155.20 9.53 L 155.20 -3.00 Q 155.20 -3.10 155.12 -3.17 Q 155.04 -3.24 154.94 -3.24 Q 154.84 -3.24 154.76 -3.17 Q 154.68 -3.10 154.68 -3.00 Z M 157.20 -3.00 L 157.20 9.53 Q 157.20 9.63 157.28 9.70 Q 157.36 9.76 157.46 9.76 Q 157.56 9.76 157.64 9.70 Q 157.72 9.63 157.72 9.53 L 157.72 -3.00 Q 157.72 -3.10 157.64 -3.17 Q 157.56 -3.24 157.46 -3.24 Q 157.36 -3.24 157.28 -3.17 Q 157.20 -3.10 157.20 -3.00 Z M 160.48 4.99 L 160.48 5.23 Q 160.48 5.26 160.50 5.28 L 161.91 6.85 Q 162.23 7.19 162.43 7.43 Q 162.63 7.66 162.83 7.97 Q 163.03 8.28 163.14 8.59 Q 163.25 8.91 163.25 9.27 Q 163.25 9.64 163.12 9.98 Q 162.98 10.32 162.70 10.53 Q 162.43 10.73 162.04 10.73 Q 161.65 10.73 161.33 10.49 Q 161.02 10.25 160.89 9.88 Q 160.92 9.89 160.99 9.89 Q 161.19 9.89 161.33 9.75 Q 161.48 9.61 161.48 9.39 Q 161.48 9.18 161.33 9.04 Q 161.19 8.89 160.99 8.89 Q 160.77 8.89 160.63 9.04 Q 160.48 9.19 160.48 9.39 Q 160.48 9.73 160.61 10.03 Q 160.74 10.33 160.98 10.57 Q 161.23 10.80 161.53 10.92 Q 161.84 11.05 162.18 11.05 Q 162.70 11.05 163.14 10.83 Q 163.59 10.61 163.86 10.21 Q 164.12 9.81 164.12 9.27 Q 164.12 8.87 163.95 8.52 Q 163.77 8.16 163.50 7.87 Q 163.23 7.58 162.81 7.21 Q 162.39 6.84 162.25 6.72 L 161.22 5.73 L 162.10 5.73 Q 162.74 5.73 163.17 5.74 Q 163.61 5.75 163.63 5.77 Q 163.74 5.89 163.85 6.61 L 164.12 6.61 L 163.86 4.99 L 160.48 4.99 Z" fill="#0F172A"/></g><rect x="40.0" y="436.0" width="287.7" height="44.0" rx="7" fill="#FFEDD5" stroke="#EA580C" stroke-width="1.3"/><text x="183.9" y="459.0" font-family="Helvetica Neue, Helvetica, Arial, sans-serif" font-size="12.5px" fill="#7C2D12" text-anchor="middle" font-weight="500">Wan2.1 VAE encode</text><text x="183.9" y="472.5" font-family="SF Mono, Menlo, Consolas, monospace" font-size="9.5px" fill="#475569" text-anchor="middle">video → 16-ch latent · 8× spatial, 4× temporal</text><rect x="830.7" y="388.0" width="256.0" height="44.0" rx="7" fill="#FFEDD5" stroke="#EA580C" stroke-width="1.3"/><text x="958.7" y="411.0" font-family="Helvetica Neue, Helvetica, Arial, sans-serif" font-size="12.5px" fill="#7C2D12" text-anchor="middle" font-weight="500">Wan2.1 VAE decode</text><text x="958.7" y="424.5" font-family="SF Mono, Menlo, Consolas, monospace" font-size="9.5px" fill="#475569" text-anchor="middle">16-ch latent → video</text><rect x="40.0" y="96.0" width="13.0" height="13.0" rx="3.5" fill="#E0F2FE" stroke="#0284C7" stroke-width="1.1"/><text x="59.0" y="106.3" font-family="Helvetica Neue, Helvetica, Arial, sans-serif" font-size="10.5px" fill="#475569" text-anchor="start">latent (16-ch)</text><rect x="144.9" y="96.0" width="13.0" height="13.0" rx="3.5" fill="#F1F5F9" stroke="#475569" stroke-width="1.1"/><text x="163.9" y="106.3" font-family="Helvetica Neue, Helvetica, Arial, sans-serif" font-size="10.5px" fill="#475569" text-anchor="start">DiT denoiser</text><rect x="245.0" y="96.0" width="13.0" height="13.0" rx="3.5" fill="#FCE7F3" stroke="#DB2777" stroke-width="1.1"/><text x="264.0" y="106.3" font-family="Helvetica Neue, Helvetica, Arial, sans-serif" font-size="10.5px" fill="#475569" text-anchor="start">conditioning</text><rect x="343.3" y="96.0" width="13.0" height="13.0" rx="3.5" fill="#FEF3C7" stroke="#D97706" stroke-width="1.1"/><text x="362.3" y="106.3" font-family="Helvetica Neue, Helvetica, Arial, sans-serif" font-size="10.5px" fill="#475569" text-anchor="start">VACE branch</text><rect x="444.6" y="96.0" width="13.0" height="13.0" rx="3.5" fill="#FFEDD5" stroke="#EA580C" stroke-width="1.1"/><text x="463.6" y="106.3" font-family="Helvetica Neue, Helvetica, Arial, sans-serif" font-size="10.5px" fill="#475569" text-anchor="start">VAE</text><rect x="499.2" y="96.0" width="13.0" height="13.0" rx="3.5" fill="#FFFFFF" stroke="#475569" stroke-width="1.1"/><text x="518.2" y="106.3" font-family="Helvetica Neue, Helvetica, Arial, sans-serif" font-size="10.5px" fill="#475569" text-anchor="start">sampler</text><rect x="576.1" y="96.0" width="13.0" height="13.0" rx="3.5" fill="url(#hatch-E0F2FE-0284C7)" stroke="#0284C7" stroke-width="1.1"/><text x="595.1" y="106.3" font-family="Helvetica Neue, Helvetica, Arial, sans-serif" font-size="10.5px" fill="#475569" text-anchor="start">hatched = noised</text><path d="M 702.0,102.5 L 715.0,102.5" fill="none" stroke="#0D9488" stroke-width="1.7" stroke-linejoin="round" stroke-linecap="round" stroke-dasharray="5 3" marker-end="url(#arr-0D9488)"/><text x="721.0" y="106.3" font-family="Helvetica Neue, Helvetica, Arial, sans-serif" font-size="10.5px" fill="#475569" text-anchor="start">sampling loop</text></g><g id="labels"><rect x="291.0" y="316.4" width="46.8" height="15.5" rx="3" fill="#FFFFFF"/><text x="295.0" y="325.9" font-family="SF Mono, Menlo, Consolas, monospace" font-size="9.5px" fill="#475569" text-anchor="start" paint-order="stroke" stroke="#FFFFFF" stroke-width="3px">× scale</text><rect x="719.8" y="195.5" width="12.8" height="15.5" rx="3" fill="#FFFFFF"/><text x="726.2" y="205.0" font-family="SF Mono, Menlo, Consolas, monospace" font-size="9.5px" fill="#475569" text-anchor="middle" paint-order="stroke" stroke="#FFFFFF" stroke-width="3px">v</text><rect x="683.5" y="321.5" width="52.4" height="15.5" rx="3" fill="#FFFFFF"/><text x="709.7" y="331.0" font-family="SF Mono, Menlo, Consolas, monospace" font-size="9.5px" fill="#475569" text-anchor="middle" paint-order="stroke" stroke="#FFFFFF" stroke-width="3px">next x_σ</text><rect x="944.5" y="300.5" width="53.1" height="15.5" rx="3" fill="#FFFFFF"/><text x="971.1" y="310.0" font-family="SF Mono, Menlo, Consolas, monospace" font-size="9.5px" fill="#475569" text-anchor="middle" paint-order="stroke" stroke="#FFFFFF" stroke-width="3px">when σ→0</text><text x="40.0" y="136.0" font-family="Helvetica Neue, Helvetica, Arial, sans-serif" font-size="9.5px" fill="#0F172A" text-anchor="start" font-weight="600">the straight path &amp; training target:</text><rect x="186.9" y="415.8" width="85.7" height="15.5" rx="3" fill="#FFFFFF"/><text x="190.9" y="425.3" font-family="SF Mono, Menlo, Consolas, monospace" font-size="9.5px" fill="#475569" text-anchor="start" paint-order="stroke" stroke="#FFFFFF" stroke-width="3px">x_0 (training)</text><text x="830.7" y="446.0" font-family="Helvetica Neue, Helvetica, Arial, sans-serif" font-size="9.5px" fill="#475569" text-anchor="start">→ generated video  (3, F, H, W)</text><text x="40.0" y="494.0" font-family="Helvetica Neue, Helvetica, Arial, sans-serif" font-size="9.5px" fill="#94A3B8" text-anchor="start">Wan2.1 VAE: a video (3, F, H, W) becomes a latent (16,</text><text x="40.0" y="507.3" font-family="Helvetica Neue, Helvetica, Arial, sans-serif" font-size="9.5px" fill="#94A3B8" text-anchor="start">F'=(F−1)/4+1, H/8, W/8).</text><text x="40.0" y="79.8" font-family="Helvetica Neue, Helvetica, Arial, sans-serif" font-size="11.5px" fill="#475569" text-anchor="start">noise (σ=1) and Euler-integrates v down to σ=0; the VAE maps pixels ↔ latents at the two ends.</text><text x="40.0" y="63.1" font-family="Helvetica Neue, Helvetica, Arial, sans-serif" font-size="11.5px" fill="#475569" text-anchor="start">The DiT is a function v = f(x_σ, σ, text, control): IN a noised latent x_σ at level σ, OUT a velocity of the SAME shape. Training regresses v to ε − x_0 on the straight path x_σ = (1−σ)x_0 + σε. Sampling starts at</text><text x="40.0" y="46.4" font-family="Helvetica Neue, Helvetica, Arial, sans-serif" font-size="17px" fill="#0F172A" text-anchor="start" font-weight="600">Wan2.1-VACE-1.3B · 1 · the model is a velocity field; sampling is a flow-matching loop</text></g></svg>