<svg xmlns="http://www.w3.org/2000/svg" viewBox="44.0 37.4 992.6 741.6" width="993" height="742"><defs><pattern id="hatch-E0F2FE-0284C7" width="5.5" height="5.5" patternUnits="userSpaceOnUse" patternTransform="rotate(45)"><rect width="5.5" height="5.5" fill="#E0F2FE"/><line x1="0" y1="0" x2="0" y2="5.5" stroke="#0284C7" stroke-width="1.4" stroke-opacity="0.55"/></pattern><pattern id="hatch-D1FAE5-059669" width="5.5" height="5.5" patternUnits="userSpaceOnUse" patternTransform="rotate(45)"><rect width="5.5" height="5.5" fill="#D1FAE5"/><line x1="0" y1="0" x2="0" y2="5.5" stroke="#059669" stroke-width="1.4" stroke-opacity="0.55"/></pattern><marker id="arr-334155" viewBox="0 0 10 10" refX="8.5" refY="5" markerWidth="6.5" markerHeight="6.5" orient="auto-start-reverse"><path d="M0.5,1 L9,5 L0.5,9 Z" fill="#334155"/></marker><marker id="arr-DB2777" viewBox="0 0 10 10" refX="8.5" refY="5" markerWidth="6.5" markerHeight="6.5" orient="auto-start-reverse"><path d="M0.5,1 L9,5 L0.5,9 Z" fill="#DB2777"/></marker><marker id="arr-CBD5E1" viewBox="0 0 10 10" refX="8.5" refY="5" markerWidth="6.5" markerHeight="6.5" orient="auto-start-reverse"><path d="M0.5,1 L9,5 L0.5,9 Z" fill="#CBD5E1"/></marker></defs><rect x="44.0" y="37.4" width="992.6" height="741.6" fill="#FFFFFF"/><g id="frames"><rect x="265.0" y="400.0" width="354.0" height="138.0" rx="10" fill="rgba(71,85,105,0.04)" stroke="#475569" stroke-width="1.2"/></g><g id="edges"><path d="M 184.9,720.0 L 184.9,712.5 Q 184.9,705.5 191.9,705.5 L 222.8,705.5 Q 229.8,705.5 229.8,698.5 L 229.8,691.0" fill="none" stroke="#334155" stroke-width="1.5" stroke-linejoin="round" stroke-linecap="round" marker-end="url(#arr-334155)"/><path d="M 344.3,720.0 L 344.3,712.5 Q 344.3,705.5 337.3,705.5 L 331.2,705.5 Q 324.2,705.5 324.2,698.5 L 324.2,691.0" fill="none" stroke="#334155" stroke-width="1.5" stroke-linejoin="round" stroke-linecap="round" marker-end="url(#arr-334155)"/><path d="M 506.7,720.0 L 506.7,712.5 Q 506.7,705.5 513.7,705.5 L 528.8,705.5 Q 535.8,705.5 535.8,698.5 L 535.8,691.0" fill="none" stroke="#334155" stroke-width="1.5" stroke-linejoin="round" stroke-linecap="round" marker-end="url(#arr-334155)"/><path d="M 672.1,720.0 L 672.1,712.5 Q 672.1,705.5 665.1,705.5 L 637.2,705.5 Q 630.2,705.5 630.2,698.5 L 630.2,691.0" fill="none" stroke="#334155" stroke-width="1.5" stroke-linejoin="round" stroke-linecap="round" marker-end="url(#arr-334155)"/><path d="M 277.0,636.0 L 277.0,624.0 Q 277.0,617.0 284.0,617.0 L 313.0,617.0 Q 320.0,617.0 320.0,610.0 L 320.0,598.0" fill="none" stroke="#334155" stroke-width="1.5" stroke-linejoin="round" stroke-linecap="round" marker-end="url(#arr-334155)"/><path d="M 583.0,636.0 L 583.0,624.0 Q 583.0,617.0 576.0,617.0 L 547.0,617.0 Q 540.0,617.0 540.0,610.0 L 540.0,598.0" fill="none" stroke="#334155" stroke-width="1.5" stroke-linejoin="round" stroke-linecap="round" marker-end="url(#arr-334155)"/><path d="M 442.0,494.0 L 442.0,484.0" fill="none" stroke="#334155" stroke-width="1.5" stroke-linejoin="round" stroke-linecap="round" marker-end="url(#arr-334155)"/><path d="M 442.0,454.0 L 442.0,444.0" fill="none" stroke="#334155" stroke-width="1.5" stroke-linejoin="round" stroke-linecap="round" marker-end="url(#arr-334155)"/><path d="M 430.0,576.0 L 430.0,563.0 Q 430.0,557.0 436.0,557.0 L 436.0,557.0 Q 442.0,557.0 442.0,551.0 L 442.0,538.0" fill="none" stroke="#334155" stroke-width="1.5" stroke-linejoin="round" stroke-linecap="round" marker-end="url(#arr-334155)"/><line x1="661.0" y1="385.0" x2="661.0" y2="553.0" stroke="#94A3B8" stroke-width="1.3" stroke-linecap="butt" stroke-dasharray="5 3"/><line x1="661.0" y1="385.0" x2="689.0" y2="385.0" stroke="#94A3B8" stroke-width="1.2" stroke-linecap="butt" stroke-dasharray="5 3"/><line x1="661.0" y1="441.0" x2="689.0" y2="441.0" stroke="#DB2777" stroke-width="1.2" stroke-linecap="butt" stroke-dasharray="5 3"/><line x1="661.0" y1="497.0" x2="689.0" y2="497.0" stroke="#94A3B8" stroke-width="1.2" stroke-linecap="butt" stroke-dasharray="5 3"/><line x1="661.0" y1="553.0" x2="689.0" y2="553.0" stroke="#94A3B8" stroke-width="1.2" stroke-linecap="butt" stroke-dasharray="5 3"/><path d="M 661.0,509.0 L 605.0,509.0" fill="none" stroke="#DB2777" stroke-width="1.2" stroke-linejoin="round" stroke-linecap="round" stroke-dasharray="5 3" marker-end="url(#arr-DB2777)"/><path d="M 661.0,469.0 L 605.0,469.0" fill="none" stroke="#DB2777" stroke-width="1.2" stroke-linejoin="round" stroke-linecap="round" stroke-dasharray="5 3" marker-end="url(#arr-DB2777)"/><path d="M 442.0,400.0 L 442.0,389.0 Q 442.0,383.0 436.0,383.0 L 436.0,383.0 Q 430.0,383.0 430.0,377.0 L 430.0,366.0" fill="none" stroke="#334155" stroke-width="1.5" stroke-linejoin="round" stroke-linecap="round" marker-end="url(#arr-334155)"/><path d="M 397.4,322.0 L 397.4,315.0 Q 397.4,308.0 390.4,308.0 L 324.0,308.0 Q 317.0,308.0 317.0,301.0 L 317.0,294.0" fill="none" stroke="#334155" stroke-width="1.5" stroke-linejoin="round" stroke-linecap="round" marker-end="url(#arr-334155)"/><path d="M 462.6,322.0 L 462.6,315.0 Q 462.6,308.0 469.6,308.0 L 536.0,308.0 Q 543.0,308.0 543.0,301.0 L 543.0,294.0" fill="none" stroke="#334155" stroke-width="1.5" stroke-linejoin="round" stroke-linecap="round" marker-end="url(#arr-334155)"/><path d="M 593.0,344.0 L 643.0,344.0" fill="none" stroke="#CBD5E1" stroke-width="1.1" stroke-linejoin="round" stroke-linecap="round" marker-end="url(#arr-CBD5E1)"/><path d="M 317.0,250.0 L 317.0,233.0 Q 317.0,226.0 310.0,226.0 L 304.0,226.0 Q 297.0,226.0 297.0,219.0 L 297.0,202.0" fill="none" stroke="#334155" stroke-width="1.5" stroke-linejoin="round" stroke-linecap="round" marker-end="url(#arr-334155)"/><path d="M 543.0,250.0 L 543.0,233.0 Q 543.0,226.0 550.0,226.0 L 553.0,226.0 Q 560.0,226.0 560.0,219.0 L 560.0,202.0" fill="none" stroke="#334155" stroke-width="1.5" stroke-linejoin="round" stroke-linecap="round" marker-end="url(#arr-334155)"/></g><g id="nodes"><rect x="115.2" y="720.0" width="139.4" height="22.0" rx="11.0" fill="url(#hatch-E0F2FE-0284C7)" stroke="#0284C7" stroke-width="1.1"/><text x="184.9" y="734.6" font-family="SF Mono, Menlo, Consolas, monospace" font-size="10.0px" fill="#0C4A6E" text-anchor="middle" paint-order="stroke" stroke="#FFFFFF" stroke-width="3px">noisy z (B,48,F,h,w)</text><rect x="274.6" y="720.0" width="139.4" height="22.0" rx="11.0" fill="#E0F2FE" stroke="#0284C7" stroke-width="1.1"/><text x="344.3" y="734.6" font-family="SF Mono, Menlo, Consolas, monospace" font-size="10.0px" fill="#0C4A6E" text-anchor="middle">clean z (B,48,F,h,w)</text><rect x="434.0" y="720.0" width="145.4" height="22.0" rx="11.0" fill="url(#hatch-D1FAE5-059669)" stroke="#059669" stroke-width="1.1"/><text x="506.7" y="734.6" font-family="SF Mono, Menlo, Consolas, monospace" font-size="10.0px" fill="#064E3B" text-anchor="middle" paint-order="stroke" stroke="#FFFFFF" stroke-width="3px">noisy a (B,30,F,16,1)</text><rect x="599.4" y="720.0" width="145.4" height="22.0" rx="11.0" fill="#D1FAE5" stroke="#059669" stroke-width="1.1"/><text x="672.1" y="734.6" font-family="SF Mono, Menlo, Consolas, monospace" font-size="10.0px" fill="#064E3B" text-anchor="middle">clean a (B,30,F,16,1)</text><rect x="159.0" y="636.0" width="236.0" height="55.0" rx="7" fill="#EDE9FE" stroke="#7C3AED" stroke-width="1.3"/><text x="277.0" y="654.0" font-family="Helvetica Neue, Helvetica, Arial, sans-serif" font-size="12.5px" fill="#4C1D95" text-anchor="middle" font-weight="500">patch_embedding_mlp</text><text x="277.0" y="667.5" font-family="SF Mono, Menlo, Consolas, monospace" font-size="9.5px" fill="#475569" text-anchor="middle">Linear 192 -&gt; 3072</text><text x="277.0" y="679.5" font-family="SF Mono, Menlo, Consolas, monospace" font-size="8.5px" fill="#94A3B8" text-anchor="middle">model.py:624 · both z's</text><rect x="465.0" y="636.0" width="236.0" height="55.0" rx="7" fill="#EDE9FE" stroke="#7C3AED" stroke-width="1.3"/><text x="583.0" y="654.0" font-family="Helvetica Neue, Helvetica, Arial, sans-serif" font-size="12.5px" fill="#4C1D95" text-anchor="middle" font-weight="500">action_embedder</text><text x="583.0" y="667.5" font-family="SF Mono, Menlo, Consolas, monospace" font-size="9.5px" fill="#475569" text-anchor="middle">Linear 30 -&gt; 3072</text><text x="583.0" y="679.5" font-family="SF Mono, Menlo, Consolas, monospace" font-size="8.5px" fill="#94A3B8" text-anchor="middle">model.py:627 · both a's</text><rect x="155.0" y="576.0" width="549.9" height="22.0" rx="11.0" fill="#F8FAFC" stroke="#64748B" stroke-width="1.1"/><text x="430.0" y="590.6" font-family="SF Mono, Menlo, Consolas, monospace" font-size="10.0px" fill="#334155" text-anchor="middle">concat -&gt; one sequence  (1, L, 3072)   L = [noisy z | clean z | noisy a | clean a] + pad</text><rect x="279.0" y="414.0" width="326.0" height="30.0" rx="7" fill="#DCFCE7" stroke="#16A34A" stroke-width="1.3"/><text x="442.0" y="433.5" font-family="Helvetica Neue, Helvetica, Arial, sans-serif" font-size="12.5px" fill="#14532D" text-anchor="middle" font-weight="500">FFN</text><rect x="279.0" y="454.0" width="326.0" height="30.0" rx="7" fill="#DBEAFE" stroke="#2563EB" stroke-width="1.3"/><text x="442.0" y="473.5" font-family="Helvetica Neue, Helvetica, Arial, sans-serif" font-size="12.5px" fill="#1E3A8A" text-anchor="middle" font-weight="500">cross-attention  &lt;- text</text><rect x="279.0" y="494.0" width="326.0" height="30.0" rx="7" fill="#DBEAFE" stroke="#2563EB" stroke-width="1.3"/><text x="442.0" y="513.5" font-family="Helvetica Neue, Helvetica, Arial, sans-serif" font-size="12.5px" fill="#1E3A8A" text-anchor="middle" font-weight="500">self-attention  (FlexAttention mask, RoPE)</text><rect x="689.0" y="363.0" width="196.0" height="44.0" rx="7" fill="#FCE7F3" stroke="#DB2777" stroke-width="1.3"/><text x="787.0" y="386.0" font-family="Helvetica Neue, Helvetica, Arial, sans-serif" font-size="12.5px" fill="#831843" text-anchor="middle" font-weight="500">per-frame timestep</text><text x="787.0" y="399.5" font-family="SF Mono, Menlo, Consolas, monospace" font-size="9.5px" fill="#475569" text-anchor="middle">-&gt; 6-param AdaLN</text><rect x="689.0" y="419.0" width="196.0" height="44.0" rx="7" fill="#FCE7F3" stroke="#DB2777" stroke-width="1.3"/><rect x="690.2" y="423.0" width="3.2" height="36.0" rx="1.6" fill="#DB2777"/><text x="787.0" y="442.0" font-family="Helvetica Neue, Helvetica, Arial, sans-serif" font-size="12.5px" fill="#831843" text-anchor="middle" font-weight="500">text emb (UMT5)</text><text x="787.0" y="455.5" font-family="SF Mono, Menlo, Consolas, monospace" font-size="9.5px" fill="#475569" text-anchor="middle">(1,B·512,3072)</text><rect x="689.0" y="475.0" width="196.0" height="44.0" rx="7" fill="#CCFBF1" stroke="#0D9488" stroke-width="1.3"/><text x="787.0" y="498.0" font-family="Helvetica Neue, Helvetica, Arial, sans-serif" font-size="12.5px" fill="#134E4A" text-anchor="middle" font-weight="500">FlexAttention mask</text><text x="787.0" y="511.5" font-family="SF Mono, Menlo, Consolas, monospace" font-size="9.5px" fill="#475569" text-anchor="middle">-&gt; fig5</text><rect x="689.0" y="531.0" width="196.0" height="44.0" rx="7" fill="#FCE7F3" stroke="#DB2777" stroke-width="1.3"/><text x="787.0" y="554.0" font-family="Helvetica Neue, Helvetica, Arial, sans-serif" font-size="12.5px" fill="#831843" text-anchor="middle" font-weight="500">3D RoPE</text><text x="787.0" y="567.5" font-family="SF Mono, Menlo, Consolas, monospace" font-size="9.5px" fill="#475569" text-anchor="middle">grid (f,y,x)</text><rect x="267.0" y="322.0" width="326.0" height="44.0" rx="7" fill="#FEF9C3" stroke="#CA8A04" stroke-width="1.3"/><text x="430.0" y="345.0" font-family="Helvetica Neue, Helvetica, Arial, sans-serif" font-size="12.5px" fill="#713F12" text-anchor="middle" font-weight="500">norm_out + AdaLN(shift, scale)</text><text x="430.0" y="357.0" font-family="SF Mono, Menlo, Consolas, monospace" font-size="8.5px" fill="#94A3B8" text-anchor="middle">model.py:646-651</text><rect x="224.0" y="250.0" width="186.0" height="44.0" rx="7" fill="#E2E8F0" stroke="#475569" stroke-width="1.3"/><rect x="225.2" y="254.0" width="3.2" height="36.0" rx="1.6" fill="#0284C7"/><text x="317.0" y="273.0" font-family="Helvetica Neue, Helvetica, Arial, sans-serif" font-size="12.5px" fill="#1E293B" text-anchor="middle" font-weight="500">proj_out</text><text x="317.0" y="286.5" font-family="SF Mono, Menlo, Consolas, monospace" font-size="9.5px" fill="#475569" text-anchor="middle">3072 -&gt; 192 -&gt; unpatchify</text><rect x="450.0" y="250.0" width="186.0" height="44.0" rx="7" fill="#E2E8F0" stroke="#475569" stroke-width="1.3"/><rect x="451.2" y="254.0" width="3.2" height="36.0" rx="1.6" fill="#059669"/><text x="543.0" y="273.0" font-family="Helvetica Neue, Helvetica, Arial, sans-serif" font-size="12.5px" fill="#1E293B" text-anchor="middle" font-weight="500">action_proj_out</text><text x="543.0" y="286.5" font-family="SF Mono, Menlo, Consolas, monospace" font-size="9.5px" fill="#475569" text-anchor="middle">3072 -&gt; 30</text><rect x="643.0" y="322.0" width="322.1" height="44.0" rx="7" fill="#F8FAFC" stroke="#64748B" stroke-width="1.3"/><text x="804.0" y="345.0" font-family="Helvetica Neue, Helvetica, Arial, sans-serif" font-size="12.5px" fill="#334155" text-anchor="middle" font-weight="500">clean z, clean a, pad</text><text x="804.0" y="358.5" font-family="SF Mono, Menlo, Consolas, monospace" font-size="9.5px" fill="#475569" text-anchor="middle">discarded — prediction read only from the noisy half</text><rect x="197.0" y="180.0" width="200.0" height="22.0" rx="11.0" fill="#E0F2FE" stroke="#0284C7" stroke-width="1.1"/><text x="297.0" y="194.6" font-family="SF Mono, Menlo, Consolas, monospace" font-size="10.0px" fill="#0C4A6E" text-anchor="middle">OUT: velocity v_z (B,48,F,h,w)</text><rect x="457.0" y="180.0" width="206.0" height="22.0" rx="11.0" fill="#D1FAE5" stroke="#059669" stroke-width="1.1"/><text x="560.0" y="194.6" font-family="SF Mono, Menlo, Consolas, monospace" font-size="10.0px" fill="#064E3B" text-anchor="middle">OUT: velocity v_a (B,30,F,16,1)</text><rect x="70.0" y="130.0" width="13.0" height="13.0" rx="3.5" fill="#E0F2FE" stroke="#0284C7" stroke-width="1.1"/><text x="89.0" y="140.3" font-family="Helvetica Neue, Helvetica, Arial, sans-serif" font-size="10.5px" fill="#475569" text-anchor="start">video</text><rect x="132.8" y="130.0" width="13.0" height="13.0" rx="3.5" fill="#D1FAE5" stroke="#059669" stroke-width="1.1"/><text x="151.8" y="140.3" font-family="Helvetica Neue, Helvetica, Arial, sans-serif" font-size="10.5px" fill="#475569" text-anchor="start">action</text><rect x="198.6" y="130.0" width="13.0" height="13.0" rx="3.5" fill="#FCE7F3" stroke="#DB2777" stroke-width="1.1"/><text x="217.6" y="140.3" font-family="Helvetica Neue, Helvetica, Arial, sans-serif" font-size="10.5px" fill="#475569" text-anchor="start">text</text><rect x="253.8" y="130.0" width="13.0" height="13.0" rx="3.5" fill="#F1F5F9" stroke="#475569" stroke-width="1.1"/><text x="272.8" y="140.3" font-family="Helvetica Neue, Helvetica, Arial, sans-serif" font-size="10.5px" fill="#475569" text-anchor="start">DiT block</text><rect x="336.3" y="130.0" width="13.0" height="13.0" rx="3.5" fill="#FCE7F3" stroke="#DB2777" stroke-width="1.1"/><text x="355.3" y="140.3" font-family="Helvetica Neue, Helvetica, Arial, sans-serif" font-size="10.5px" fill="#475569" text-anchor="start">conditioning</text><rect x="434.6" y="130.0" width="13.0" height="13.0" rx="3.5" fill="#E2E8F0" stroke="#475569" stroke-width="1.1"/><text x="453.6" y="140.3" font-family="Helvetica Neue, Helvetica, Arial, sans-serif" font-size="10.5px" fill="#475569" text-anchor="start">head</text><rect x="493.9" y="130.0" width="13.0" height="13.0" rx="3.5" fill="url(#hatch-E0F2FE-0284C7)" stroke="#0284C7" stroke-width="1.1"/><text x="512.9" y="140.3" font-family="Helvetica Neue, Helvetica, Arial, sans-serif" font-size="10.5px" fill="#475569" text-anchor="start">hatched = noised</text><path d="M 619.8,136.5 L 632.8,136.5" fill="none" stroke="#334155" stroke-width="1.7" stroke-linejoin="round" stroke-linecap="round" marker-end="url(#arr-334155)"/><text x="638.8" y="140.3" font-family="Helvetica Neue, Helvetica, Arial, sans-serif" font-size="10.5px" fill="#475569" text-anchor="start">data flow</text><path d="M 70.0,157.5 L 83.0,157.5" fill="none" stroke="#DB2777" stroke-width="1.7" stroke-linejoin="round" stroke-linecap="round" stroke-dasharray="5 3" marker-end="url(#arr-DB2777)"/><text x="89.0" y="161.3" font-family="Helvetica Neue, Helvetica, Arial, sans-serif" font-size="10.5px" fill="#475569" text-anchor="start">conditioning tap</text><path d="M 189.2,157.5 L 202.2,157.5" fill="none" stroke="#CBD5E1" stroke-width="1.7" stroke-linejoin="round" stroke-linecap="round" marker-end="url(#arr-CBD5E1)"/><text x="208.2" y="161.3" font-family="Helvetica Neue, Helvetica, Arial, sans-serif" font-size="10.5px" fill="#475569" text-anchor="start">discarded</text></g><g id="labels"><text x="115.2" y="750.0" font-family="Helvetica Neue, Helvetica, Arial, sans-serif" font-size="10.0px" fill="#0F172A" text-anchor="start" font-weight="600">INPUT: noised targets + clean conditioning (teacher forcing)</text><rect x="279.0" y="390.0" width="450.3" height="19.0" rx="4" fill="#FFFFFF" stroke="#475569" stroke-width="1.1"/><text x="504.2" y="403.4" font-family="Helvetica Neue, Helvetica, Arial, sans-serif" font-size="10.5px" fill="#475569" text-anchor="middle" font-weight="600">WanTransformerBlock  x30  ·  per-token AdaLN  (-&gt; fig3 for the full block)</text><text x="437.0" y="569.8" font-family="SF Mono, Menlo, Consolas, monospace" font-size="9.5px" fill="#475569" text-anchor="start" paint-order="stroke" stroke="#FFFFFF" stroke-width="3px">(1, L, 3072)</text><text x="633.0" y="503.0" font-family="SF Mono, Menlo, Consolas, monospace" font-size="9.5px" fill="#475569" text-anchor="middle" paint-order="stroke" stroke="#FFFFFF" stroke-width="3px">-&gt; AdaLN / RoPE / mask</text><text x="633.0" y="463.0" font-family="SF Mono, Menlo, Consolas, monospace" font-size="9.5px" fill="#475569" text-anchor="middle" paint-order="stroke" stroke="#FFFFFF" stroke-width="3px">-&gt; cross-attn K/V</text><text x="357.2" y="302.0" font-family="SF Mono, Menlo, Consolas, monospace" font-size="9.5px" fill="#475569" text-anchor="middle" paint-order="stroke" stroke="#FFFFFF" stroke-width="3px">noisy z half</text><text x="502.8" y="302.0" font-family="SF Mono, Menlo, Consolas, monospace" font-size="9.5px" fill="#475569" text-anchor="middle" paint-order="stroke" stroke="#FFFFFF" stroke-width="3px">noisy a half</text><text x="70.0" y="113.8" font-family="Helvetica Neue, Helvetica, Arial, sans-serif" font-size="11.5px" fill="#475569" text-anchor="start">split back, and read out as per-modality velocities. Conditioning (RoPE, mask, text, per-frame timestep) taps every block.</text><text x="70.0" y="97.1" font-family="Helvetica Neue, Helvetica, Arial, sans-serif" font-size="11.5px" fill="#475569" text-anchor="start">Noisy &amp; clean video latents and noisy &amp; clean actions are embedded to 3072, concatenated into ONE sequence, pushed through 30 shared DiT blocks,</text><text x="70.0" y="80.4" font-family="Helvetica Neue, Helvetica, Arial, sans-serif" font-size="17px" fill="#0F172A" text-anchor="start" font-weight="600">Fig 2 · WanTransformer3DModel — training forward pass:  4 noised/clean segments -&gt; 2 velocities</text></g></svg>