<svg xmlns="http://www.w3.org/2000/svg" viewBox="14.0 24.3 1773.9 464.1" width="1774" height="464"><defs><marker id="arr-334155" viewBox="0 0 10 10" refX="8.5" refY="5" markerWidth="6.5" markerHeight="6.5" orient="auto-start-reverse"><path d="M0.5,1 L9,5 L0.5,9 Z" fill="#334155"/></marker><marker id="arr-DB2777" viewBox="0 0 10 10" refX="8.5" refY="5" markerWidth="6.5" markerHeight="6.5" orient="auto-start-reverse"><path d="M0.5,1 L9,5 L0.5,9 Z" fill="#DB2777"/></marker><marker id="arr-0D9488" viewBox="0 0 10 10" refX="8.5" refY="5" markerWidth="6.5" markerHeight="6.5" orient="auto-start-reverse"><path d="M0.5,1 L9,5 L0.5,9 Z" fill="#0D9488"/></marker><marker id="arr-B45309" viewBox="0 0 10 10" refX="8.5" refY="5" markerWidth="6.5" markerHeight="6.5" orient="auto-start-reverse"><path d="M0.5,1 L9,5 L0.5,9 Z" fill="#B45309"/></marker></defs><rect x="14.0" y="24.3" width="1773.9" height="464.1" fill="#FFFFFF"/><g id="frames"><rect x="660.0" y="110.0" width="557.4" height="229.4" rx="10" fill="rgba(148,163,184,0.055)" stroke="#94A3B8" stroke-width="1.2"/><text x="673.0" y="126.5" font-family="Helvetica Neue, Helvetica, Arial, sans-serif" font-size="11.0px" fill="#475569" text-anchor="start" font-weight="600">autoregressive world model (per chunk of K=4 frames)</text></g><g id="edges"><path d="M 240.0,131.0 L 277.5,131.0 Q 279.2,131.0 279.2,129.2 L 279.2,129.2 Q 279.2,127.5 281.0,127.5 L 318.5,127.5" fill="none" stroke="#334155" stroke-width="1.5" stroke-linejoin="round" stroke-linecap="round" marker-end="url(#arr-334155)"/><path d="M 40.0,199.0 L 310.3,199.0 Q 315.3,199.0 315.3,204.0 L 315.3,204.0 Q 315.3,209.0 320.3,209.0 L 590.6,209.0" fill="none" stroke="#334155" stroke-width="1.5" stroke-linejoin="round" stroke-linecap="round" marker-end="url(#arr-334155)"/><path d="M 240.0,267.0 L 253.5,267.0 Q 260.5,267.0 260.5,274.0 L 260.5,278.0 Q 260.5,285.0 267.5,285.0 L 280.9,285.0" fill="none" stroke="#334155" stroke-width="1.5" stroke-linejoin="round" stroke-linecap="round" marker-end="url(#arr-334155)"/><path d="M 410.3,155.0 L 410.3,155.4 Q 410.3,155.9 410.7,155.9 L 660.0,155.9" fill="none" stroke="#DB2777" stroke-width="1.2" stroke-linejoin="round" stroke-linecap="round" stroke-dasharray="5 3" marker-end="url(#arr-DB2777)"/><path d="M 590.6,209.0 L 618.3,209.0 Q 625.3,209.0 625.3,216.0 L 625.3,217.7 Q 625.3,224.7 632.3,224.7 L 660.0,224.7" fill="none" stroke="#334155" stroke-width="1.5" stroke-linejoin="round" stroke-linecap="round" marker-end="url(#arr-334155)"/><path d="M 539.6,285.0 L 595.6,285.0 Q 599.8,285.0 599.8,289.3 L 599.8,289.3 Q 599.8,293.5 604.1,293.5 L 660.0,293.5" fill="none" stroke="#334155" stroke-width="1.5" stroke-linejoin="round" stroke-linecap="round" marker-end="url(#arr-334155)"/><path d="M 938.7,373.4 L 938.7,339.4" fill="none" stroke="#0D9488" stroke-width="1.3" stroke-linejoin="round" stroke-linecap="round" stroke-dasharray="5 3" marker-end="url(#arr-0D9488)"/><path d="M 1217.4,180.0 L 1275.3,180.0 Q 1279.3,180.0 1279.3,176.0 L 1279.3,176.0 Q 1279.3,172.0 1283.3,172.0 L 1341.2,172.0" fill="none" stroke="#334155" stroke-width="1.5" stroke-linejoin="round" stroke-linecap="round" marker-end="url(#arr-334155)"/><path d="M 1217.4,240.0 L 1257.9,240.0 Q 1264.9,240.0 1264.9,247.0 L 1264.9,253.0 Q 1264.9,260.0 1271.9,260.0 L 1312.4,260.0" fill="none" stroke="#334155" stroke-width="1.5" stroke-linejoin="round" stroke-linecap="round" marker-end="url(#arr-334155)"/><path d="M 1496.9,172.0 L 1531.4,172.0 Q 1531.9,172.0 1531.9,171.5 L 1531.9,171.5 Q 1531.9,171.0 1532.4,171.0 L 1566.9,171.0" fill="none" stroke="#334155" stroke-width="1.5" stroke-linejoin="round" stroke-linecap="round" marker-end="url(#arr-334155)"/><path d="M 1525.6,260.0 L 1544.8,260.0 Q 1546.3,260.0 1546.3,258.5 L 1546.3,258.5 Q 1546.3,257.0 1547.8,257.0 L 1566.9,257.0" fill="none" stroke="#334155" stroke-width="1.5" stroke-linejoin="round" stroke-linecap="round" marker-end="url(#arr-334155)"/><path d="M 1664.4,268.0 L 1664.4,393.9 Q 1664.4,400.9 1657.4,400.9 L 1578.4,400.9" fill="none" stroke="#334155" stroke-width="1.5" stroke-linejoin="round" stroke-linecap="round" marker-end="url(#arr-334155)"/><path d="M 1445.4,422.9 L 1445.4,455.4 Q 1445.4,462.4 1438.4,462.4 L 417.3,462.4 Q 410.3,462.4 410.3,455.4 L 410.3,231.0" fill="none" stroke="#B45309" stroke-width="1.3" stroke-linejoin="round" stroke-linecap="round" stroke-dasharray="5 3" marker-end="url(#arr-B45309)"/></g><g id="nodes"><rect x="118.4" y="120.0" width="121.6" height="22.0" rx="11.0" fill="#FCE7F3" stroke="#DB2777" stroke-width="1.1"/><text x="179.2" y="134.6" font-family="SF Mono, Menlo, Consolas, monospace" font-size="10.0px" fill="#831843" text-anchor="middle">task prompt (str)</text><rect x="40.0" y="188.0" width="200.0" height="22.0" rx="11.0" fill="#E0F2FE" stroke="#0284C7" stroke-width="1.1"/><text x="140.0" y="202.6" font-family="SF Mono, Menlo, Consolas, monospace" font-size="10.0px" fill="#0C4A6E" text-anchor="middle">multi-view images (V, H, W, 3)</text><rect x="119.5" y="256.0" width="120.5" height="22.0" rx="11.0" fill="#D1FAE5" stroke="#059669" stroke-width="1.1"/><text x="179.8" y="270.6" font-family="SF Mono, Menlo, Consolas, monospace" font-size="10.0px" fill="#064E3B" text-anchor="middle">robot state (16,)</text><rect x="318.5" y="100.0" width="183.6" height="55.0" rx="7" fill="#FCE7F3" stroke="#DB2777" stroke-width="1.3"/><rect x="319.7" y="104.0" width="3.2" height="47.0" rx="1.6" fill="#DB2777"/><text x="410.3" y="118.0" font-family="Helvetica Neue, Helvetica, Arial, sans-serif" font-size="12.5px" fill="#831843" text-anchor="middle" font-weight="500">UMT5 text encoder</text><text x="410.3" y="131.5" font-family="SF Mono, Menlo, Consolas, monospace" font-size="9.5px" fill="#475569" text-anchor="middle">frozen · → (B, 512, 4096)</text><text x="410.3" y="143.5" font-family="SF Mono, Menlo, Consolas, monospace" font-size="8.5px" fill="#94A3B8" text-anchor="middle">umt5-xxl</text><rect x="230.0" y="187.0" width="360.6" height="44.0" rx="7" fill="#FFEDD5" stroke="#EA580C" stroke-width="1.3"/><rect x="231.2" y="191.0" width="3.2" height="36.0" rx="1.6" fill="#0284C7"/><text x="410.3" y="210.0" font-family="Helvetica Neue, Helvetica, Arial, sans-serif" font-size="12.5px" fill="#7C2D12" text-anchor="middle" font-weight="500">Wan2.2 causal VAE (enc)</text><text x="410.3" y="223.5" font-family="SF Mono, Menlo, Consolas, monospace" font-size="9.5px" fill="#475569" text-anchor="middle">frozen · streaming · 16× spatial → (1, 48, F, H/16, V·W/16)</text><rect x="280.9" y="263.0" width="258.7" height="44.0" rx="7" fill="#EDE9FE" stroke="#7C3AED" stroke-width="1.3"/><rect x="282.1" y="267.0" width="3.2" height="36.0" rx="1.6" fill="#059669"/><text x="410.3" y="286.0" font-family="Helvetica Neue, Helvetica, Arial, sans-serif" font-size="12.5px" fill="#4C1D95" text-anchor="middle" font-weight="500">quantile normalize</text><text x="410.3" y="299.5" font-family="SF Mono, Menlo, Consolas, monospace" font-size="9.5px" fill="#475569" text-anchor="middle">per-dim q01–q99 → [-1,1] · pad 16→30 dims</text><rect x="760.7" y="149.0" width="356.0" height="55.0" rx="7" fill="#F1F5F9" stroke="#475569" stroke-width="1.3"/><text x="938.7" y="167.0" font-family="Helvetica Neue, Helvetica, Arial, sans-serif" font-size="12.5px" fill="#0F172A" text-anchor="middle" font-weight="500">WanTransformer3DModel</text><text x="938.7" y="180.5" font-family="SF Mono, Menlo, Consolas, monospace" font-size="9.5px" fill="#475569" text-anchor="middle">≈5B · 30 layers · d=3072 · joint video-action sequence</text><text x="938.7" y="192.5" font-family="SF Mono, Menlo, Consolas, monospace" font-size="8.5px" fill="#94A3B8" text-anchor="middle">→ Fig 2 (dataflow) · Fig 3 (block) · Fig 5 (mask)</text><rect x="678.0" y="220.0" width="251.7" height="44.0" rx="7" fill="#CCFBF1" stroke="#0D9488" stroke-width="1.3"/><rect x="679.2" y="224.0" width="3.2" height="36.0" rx="1.6" fill="#0284C7"/><text x="803.9" y="243.0" font-family="Helvetica Neue, Helvetica, Arial, sans-serif" font-size="12.5px" fill="#134E4A" text-anchor="middle" font-weight="500">video denoise</text><text x="803.9" y="256.5" font-family="SF Mono, Menlo, Consolas, monospace" font-size="9.5px" fill="#475569" text-anchor="middle">FlowMatch shift=5.0 · 25 steps (cfg 5.0)</text><rect x="947.7" y="220.0" width="251.7" height="44.0" rx="7" fill="#CCFBF1" stroke="#0D9488" stroke-width="1.3"/><rect x="948.9" y="224.0" width="3.2" height="36.0" rx="1.6" fill="#059669"/><text x="1073.6" y="243.0" font-family="Helvetica Neue, Helvetica, Arial, sans-serif" font-size="12.5px" fill="#134E4A" text-anchor="middle" font-weight="500">action denoise</text><text x="1073.6" y="256.5" font-family="SF Mono, Menlo, Consolas, monospace" font-size="9.5px" fill="#475569" text-anchor="middle">FlowMatch shift=1.0 · 50 steps (cfg 1.0)</text><text x="938.7" y="290.0" font-family="Helvetica Neue, Helvetica, Arial, sans-serif" font-size="10.0px" fill="#475569" text-anchor="middle">two passes per chunk: ① denoise next video latents (KV cache holds history) ② denoise the</text><text x="938.7" y="303.8" font-family="Helvetica Neue, Helvetica, Arial, sans-serif" font-size="10.0px" fill="#475569" text-anchor="middle">action chunk attending to the fresh video prediction. Paper deployment: 3 video steps to s=0.6,</text><text x="938.7" y="317.6" font-family="Helvetica Neue, Helvetica, Arial, sans-serif" font-size="10.0px" fill="#475569" text-anchor="middle">10 action steps.</text><rect x="709.3" y="373.4" width="458.9" height="55.0" rx="7" fill="#CCFBF1" stroke="#0D9488" stroke-width="1.3"/><text x="938.7" y="391.4" font-family="Helvetica Neue, Helvetica, Arial, sans-serif" font-size="12.5px" fill="#134E4A" text-anchor="middle" font-weight="500">KV cache pool</text><text x="938.7" y="404.9" font-family="SF Mono, Menlo, Consolas, monospace" font-size="9.5px" fill="#475569" text-anchor="middle">per-layer slots · window×(tokens/chunk) · LRU · real obs replace predictions</text><text x="938.7" y="416.9" font-family="SF Mono, Menlo, Consolas, monospace" font-size="8.5px" fill="#94A3B8" text-anchor="middle">model.py:331-409 · “closed-loop rollout”</text><rect x="1341.2" y="150.0" width="155.7" height="44.0" rx="7" fill="#FFEDD5" stroke="#EA580C" stroke-width="1.3"/><rect x="1342.4" y="154.0" width="3.2" height="36.0" rx="1.6" fill="#0284C7"/><text x="1419.0" y="173.0" font-family="Helvetica Neue, Helvetica, Arial, sans-serif" font-size="12.5px" fill="#7C2D12" text-anchor="middle" font-weight="500">Wan VAE (dec)</text><text x="1419.0" y="186.5" font-family="SF Mono, Menlo, Consolas, monospace" font-size="9.5px" fill="#475569" text-anchor="middle">latents → video frames</text><rect x="1312.4" y="238.0" width="213.2" height="44.0" rx="7" fill="#EDE9FE" stroke="#7C3AED" stroke-width="1.3"/><rect x="1313.6" y="242.0" width="3.2" height="36.0" rx="1.6" fill="#059669"/><text x="1419.0" y="261.0" font-family="Helvetica Neue, Helvetica, Arial, sans-serif" font-size="12.5px" fill="#4C1D95" text-anchor="middle" font-weight="500">denormalize + unpad</text><text x="1419.0" y="274.5" font-family="SF Mono, Menlo, Consolas, monospace" font-size="9.5px" fill="#475569" text-anchor="middle">30 → 16 dims · q01–q99 → physical</text><rect x="1566.9" y="160.0" width="146.9" height="22.0" rx="11.0" fill="#E0F2FE" stroke="#0284C7" stroke-width="1.1"/><text x="1640.3" y="174.6" font-family="SF Mono, Menlo, Consolas, monospace" font-size="10.0px" fill="#0C4A6E" text-anchor="middle">imagined future video</text><rect x="1566.9" y="246.0" width="195.0" height="22.0" rx="11.0" fill="#D1FAE5" stroke="#059669" stroke-width="1.1"/><text x="1664.4" y="260.6" font-family="SF Mono, Menlo, Consolas, monospace" font-size="10.0px" fill="#064E3B" text-anchor="middle">action chunk (16, K·16) @50Hz</text><rect x="1312.4" y="378.9" width="266.0" height="44.0" rx="7" fill="#F8FAFC" stroke="#64748B" stroke-width="1.3"/><text x="1445.4" y="401.9" font-family="Helvetica Neue, Helvetica, Arial, sans-serif" font-size="12.5px" fill="#334155" text-anchor="middle" font-weight="500">robot / environment</text><text x="1445.4" y="415.4" font-family="SF Mono, Menlo, Consolas, monospace" font-size="9.5px" fill="#475569" text-anchor="middle">execute actions · render new observations</text><rect x="40.0" y="380.0" width="13.0" height="13.0" rx="3.5" fill="#E0F2FE" stroke="#0284C7" stroke-width="1.1"/><text x="59.0" y="390.3" font-family="Helvetica Neue, Helvetica, Arial, sans-serif" font-size="10.5px" fill="#475569" text-anchor="start">video</text><rect x="102.8" y="380.0" width="13.0" height="13.0" rx="3.5" fill="#D1FAE5" stroke="#059669" stroke-width="1.1"/><text x="121.8" y="390.3" font-family="Helvetica Neue, Helvetica, Arial, sans-serif" font-size="10.5px" fill="#475569" text-anchor="start">action</text><rect x="168.6" y="380.0" width="13.0" height="13.0" rx="3.5" fill="#FCE7F3" stroke="#DB2777" stroke-width="1.1"/><text x="187.6" y="390.3" font-family="Helvetica Neue, Helvetica, Arial, sans-serif" font-size="10.5px" fill="#475569" text-anchor="start">text</text><rect x="223.8" y="380.0" width="13.0" height="13.0" rx="3.5" fill="#FFEDD5" stroke="#EA580C" stroke-width="1.1"/><text x="242.8" y="390.3" font-family="Helvetica Neue, Helvetica, Arial, sans-serif" font-size="10.5px" fill="#475569" text-anchor="start">VAE/conv</text><rect x="40.0" y="401.0" width="13.0" height="13.0" rx="3.5" fill="#FCE7F3" stroke="#DB2777" stroke-width="1.1"/><text x="59.0" y="411.3" font-family="Helvetica Neue, Helvetica, Arial, sans-serif" font-size="10.5px" fill="#475569" text-anchor="start">conditioning</text><rect x="138.3" y="401.0" width="13.0" height="13.0" rx="3.5" fill="#F1F5F9" stroke="#475569" stroke-width="1.1"/><text x="157.3" y="411.3" font-family="Helvetica Neue, Helvetica, Arial, sans-serif" font-size="10.5px" fill="#475569" text-anchor="start">transformer</text><rect x="235.2" y="401.0" width="13.0" height="13.0" rx="3.5" fill="#CCFBF1" stroke="#0D9488" stroke-width="1.1"/><text x="254.2" y="411.3" font-family="Helvetica Neue, Helvetica, Arial, sans-serif" font-size="10.5px" fill="#475569" text-anchor="start">scheduler/cache</text></g><g id="labels"><rect x="462.4" y="103.5" width="35.7" height="13.0" rx="6.5" fill="#FFFFFF" stroke="#DB2777" stroke-width="0.9" opacity="0.92"/><text x="480.3" y="113.2" font-family="Helvetica Neue, Helvetica, Arial, sans-serif" font-size="8.5px" fill="#831843" text-anchor="middle" font-weight="500">frozen</text><rect x="550.9" y="190.5" width="35.7" height="13.0" rx="6.5" fill="#FFFFFF" stroke="#EA580C" stroke-width="0.9" opacity="0.92"/><text x="568.7" y="200.2" font-family="Helvetica Neue, Helvetica, Arial, sans-serif" font-size="8.5px" fill="#7C2D12" text-anchor="middle" font-weight="500">frozen</text><text x="535.1" y="147.9" font-family="SF Mono, Menlo, Consolas, monospace" font-size="9.5px" fill="#475569" text-anchor="middle" paint-order="stroke" stroke="#FFFFFF" stroke-width="3px">(B,512,4096)</text><text x="607.9" y="201.0" font-family="SF Mono, Menlo, Consolas, monospace" font-size="9.5px" fill="#475569" text-anchor="middle" paint-order="stroke" stroke="#FFFFFF" stroke-width="3px">(1,48,F,h,w)</text><text x="629.9" y="285.5" font-family="SF Mono, Menlo, Consolas, monospace" font-size="9.5px" fill="#475569" text-anchor="middle" paint-order="stroke" stroke="#FFFFFF" stroke-width="3px">(1,30,F,16,1)</text><text x="945.7" y="359.7" font-family="SF Mono, Menlo, Consolas, monospace" font-size="9.5px" fill="#475569" text-anchor="start" paint-order="stroke" stroke="#FFFFFF" stroke-width="3px">history KV (clean)</text><rect x="1457.2" y="153.5" width="35.7" height="13.0" rx="6.5" fill="#FFFFFF" stroke="#EA580C" stroke-width="0.9" opacity="0.92"/><text x="1475.1" y="163.2" font-family="Helvetica Neue, Helvetica, Arial, sans-serif" font-size="8.5px" fill="#7C2D12" text-anchor="middle" font-weight="500">frozen</text><text x="1310.2" y="166.0" font-family="SF Mono, Menlo, Consolas, monospace" font-size="9.5px" fill="#475569" text-anchor="middle" paint-order="stroke" stroke="#FFFFFF" stroke-width="3px">next-chunk latents</text><text x="1245.9" y="234.0" font-family="SF Mono, Menlo, Consolas, monospace" font-size="9.5px" fill="#475569" text-anchor="middle" paint-order="stroke" stroke="#FFFFFF" stroke-width="3px">actions (30, K, 16)</text><text x="927.9" y="454.4" font-family="SF Mono, Menlo, Consolas, monospace" font-size="9.5px" fill="#475569" text-anchor="middle" paint-order="stroke" stroke="#FFFFFF" stroke-width="3px">real observations re-encoded every chunk (closed-loop rollout)</text><text x="40.0" y="84.0" font-family="Helvetica Neue, Helvetica, Arial, sans-serif" font-size="11.5px" fill="#475569" text-anchor="start">An autoregressive video-action world model: predict the next video chunk, decode the actions that realize it, execute, re-encode real observations, repeat. wan_va/wan_va_server.py</text><text x="40.0" y="67.3" font-family="Helvetica Neue, Helvetica, Arial, sans-serif" font-size="17px" fill="#0F172A" text-anchor="start" font-weight="600">Fig 1 · LingBot-VA — system overview (released inference stack)</text></g></svg>