<svg xmlns="http://www.w3.org/2000/svg" viewBox="-196.4 -48.4 1333.7 820.8" width="1334" height="821"><defs><pattern id="hatch-E0F2FE-0284C7" width="5.5" height="5.5" patternUnits="userSpaceOnUse" patternTransform="rotate(45)"><rect width="5.5" height="5.5" fill="#E0F2FE"/><line x1="0" y1="0" x2="0" y2="5.5" stroke="#0284C7" stroke-width="1.4" stroke-opacity="0.55"/></pattern><pattern id="hatch-D1FAE5-059669" width="5.5" height="5.5" patternUnits="userSpaceOnUse" patternTransform="rotate(45)"><rect width="5.5" height="5.5" fill="#D1FAE5"/><line x1="0" y1="0" x2="0" y2="5.5" stroke="#059669" stroke-width="1.4" stroke-opacity="0.55"/></pattern><marker id="arr-334155" viewBox="0 0 10 10" refX="8.5" refY="5" markerWidth="6.5" markerHeight="6.5" orient="auto-start-reverse"><path d="M0.5,1 L9,5 L0.5,9 Z" fill="#334155"/></marker><marker id="arr-DB2777" viewBox="0 0 10 10" refX="8.5" refY="5" markerWidth="6.5" markerHeight="6.5" orient="auto-start-reverse"><path d="M0.5,1 L9,5 L0.5,9 Z" fill="#DB2777"/></marker><marker id="arr-0D9488" viewBox="0 0 10 10" refX="8.5" refY="5" markerWidth="6.5" markerHeight="6.5" orient="auto-start-reverse"><path d="M0.5,1 L9,5 L0.5,9 Z" fill="#0D9488"/></marker></defs><rect x="-196.4" y="-48.4" width="1333.7" height="820.8" fill="#FFFFFF"/><g id="frames"><rect x="216.2" y="330.0" width="447.6" height="55.0" rx="10" fill="#FFFFFF" stroke="#94A3B8" stroke-width="1.1" stroke-dasharray="5 4"/><rect x="206.2" y="339.0" width="447.6" height="55.0" rx="10" fill="#FFFFFF" stroke="#94A3B8" stroke-width="1.1" stroke-dasharray="5 4"/></g><g id="edges"><path d="M 172.9,640.0 L 172.9,633.8 Q 172.9,627.5 179.1,627.5 L 237.9,627.5 Q 244.1,627.5 244.1,621.2 L 244.1,615.0" fill="none" stroke="#334155" stroke-width="1.5" stroke-linejoin="round" stroke-linecap="round" marker-end="url(#arr-334155)"/><path d="M 340.3,640.0 L 340.3,633.8 Q 340.3,627.5 334.0,627.5 L 250.4,627.5 Q 244.1,627.5 244.1,621.2 L 244.1,615.0" fill="none" stroke="#334155" stroke-width="1.5" stroke-linejoin="round" stroke-linecap="round" marker-end="url(#arr-334155)"/><path d="M 510.7,640.0 L 510.7,633.8 Q 510.7,627.5 516.9,627.5 L 609.6,627.5 Q 615.9,627.5 615.9,621.2 L 615.9,615.0" fill="none" stroke="#334155" stroke-width="1.5" stroke-linejoin="round" stroke-linecap="round" marker-end="url(#arr-334155)"/><path d="M 684.1,640.0 L 684.1,633.8 Q 684.1,627.5 677.9,627.5 L 622.1,627.5 Q 615.9,627.5 615.9,621.2 L 615.9,615.0" fill="none" stroke="#334155" stroke-width="1.5" stroke-linejoin="round" stroke-linecap="round" marker-end="url(#arr-334155)"/><path d="M 244.1,560.0 L 244.1,552.0 Q 244.1,545.0 251.1,545.0 L 423.0,545.0 Q 430.0,545.0 430.0,538.0 L 430.0,530.0" fill="none" stroke="#334155" stroke-width="1.5" stroke-linejoin="round" stroke-linecap="round" marker-end="url(#arr-334155)"/><path d="M 615.9,560.0 L 615.9,552.0 Q 615.9,545.0 608.9,545.0 L 437.0,545.0 Q 430.0,545.0 430.0,538.0 L 430.0,530.0" fill="none" stroke="#334155" stroke-width="1.5" stroke-linejoin="round" stroke-linecap="round" marker-end="url(#arr-334155)"/><path d="M 430.0,500.0 L 430.0,470.0" fill="none" stroke="#334155" stroke-width="1.5" stroke-linejoin="round" stroke-linecap="round" marker-end="url(#arr-334155)"/><path d="M 430.0,448.0 L 430.0,403.0" fill="none" stroke="#334155" stroke-width="1.5" stroke-linejoin="round" stroke-linecap="round" marker-end="url(#arr-334155)"/><path d="M 132.2,330.5 L 157.2,330.5 Q 164.2,330.5 164.2,337.5 L 164.2,343.4 Q 164.2,350.4 171.2,350.4 L 196.2,350.4" fill="none" stroke="#DB2777" stroke-width="1.2" stroke-linejoin="round" stroke-linecap="round" stroke-dasharray="5 3" marker-end="url(#arr-DB2777)"/><path d="M 132.2,402.5 L 157.2,402.5 Q 164.2,402.5 164.2,395.5 L 164.2,391.8 Q 164.2,384.8 171.2,384.8 L 196.2,384.8" fill="none" stroke="#0D9488" stroke-width="1.2" stroke-linejoin="round" stroke-linecap="round" stroke-dasharray="5 3" marker-end="url(#arr-0D9488)"/><path d="M 727.8,330.5 L 702.8,330.5 Q 695.8,330.5 695.8,337.5 L 695.8,343.4 Q 695.8,350.4 688.8,350.4 L 663.8,350.4" fill="none" stroke="#DB2777" stroke-width="1.2" stroke-linejoin="round" stroke-linecap="round" stroke-dasharray="5 3" marker-end="url(#arr-DB2777)"/><path d="M 727.8,402.5 L 702.8,402.5 Q 695.8,402.5 695.8,395.5 L 695.8,391.8 Q 695.8,384.8 688.8,384.8 L 663.8,384.8" fill="none" stroke="#DB2777" stroke-width="1.2" stroke-linejoin="round" stroke-linecap="round" stroke-dasharray="5 3" marker-end="url(#arr-DB2777)"/><path d="M 430.0,330.0 L 430.0,307.0" fill="none" stroke="#334155" stroke-width="1.5" stroke-linejoin="round" stroke-linecap="round" marker-end="url(#arr-334155)"/><path d="M 430.0,252.0 L 430.0,226.0" fill="none" stroke="#334155" stroke-width="1.5" stroke-linejoin="round" stroke-linecap="round" marker-end="url(#arr-334155)"/><path d="M 430.0,196.0 L 430.0,187.5 Q 430.0,180.5 423.0,180.5 L 190.3,180.5 Q 183.3,180.5 183.3,173.5 L 183.3,165.0" fill="none" stroke="#334155" stroke-width="1.5" stroke-linejoin="round" stroke-linecap="round" marker-end="url(#arr-334155)"/><path d="M 430.0,196.0 L 430.0,187.5 Q 430.0,180.5 437.0,180.5 L 687.8,180.5 Q 694.8,180.5 694.8,173.5 L 694.8,165.0" fill="none" stroke="#334155" stroke-width="1.5" stroke-linejoin="round" stroke-linecap="round" marker-end="url(#arr-334155)"/><path d="M 430.0,196.0 L 448.1,159.5" fill="none" stroke="#CBD5E1" stroke-width="1.1" stroke-linejoin="round" stroke-linecap="round"/><path d="M 183.3,110.0 L 183.3,95.0 Q 183.3,88.0 190.3,88.0 L 242.1,88.0 Q 249.1,88.0 249.1,81.0 L 249.1,66.0" fill="none" stroke="#334155" stroke-width="1.5" stroke-linejoin="round" stroke-linecap="round" marker-end="url(#arr-334155)"/><path d="M 694.8,110.0 L 694.8,95.0 Q 694.8,88.0 687.8,88.0 L 614.9,88.0 Q 607.9,88.0 607.9,81.0 L 607.9,66.0" fill="none" stroke="#334155" stroke-width="1.5" stroke-linejoin="round" stroke-linecap="round" marker-end="url(#arr-334155)"/></g><g id="nodes"><rect x="100.2" y="640.0" width="145.4" height="22.0" rx="11.0" fill="url(#hatch-E0F2FE-0284C7)" stroke="#0284C7" stroke-width="1.1"/><text x="172.9" y="654.6" font-family="SF Mono, Menlo, Consolas, monospace" font-size="10.0px" fill="#0C4A6E" text-anchor="middle" paint-order="stroke" stroke="#FFFFFF" stroke-width="3px">noisy z  (B,48,F,h,w)</text><rect x="267.6" y="640.0" width="145.4" height="22.0" rx="11.0" fill="#E0F2FE" stroke="#0284C7" stroke-width="1.1"/><text x="340.3" y="654.6" font-family="SF Mono, Menlo, Consolas, monospace" font-size="10.0px" fill="#0C4A6E" text-anchor="middle">clean z  (B,48,F,h,w)</text><rect x="435.0" y="640.0" width="151.4" height="22.0" rx="11.0" fill="url(#hatch-D1FAE5-059669)" stroke="#059669" stroke-width="1.1"/><text x="510.7" y="654.6" font-family="SF Mono, Menlo, Consolas, monospace" font-size="10.0px" fill="#064E3B" text-anchor="middle" paint-order="stroke" stroke="#FFFFFF" stroke-width="3px">noisy a  (B,30,F,16,1)</text><rect x="608.4" y="640.0" width="151.4" height="22.0" rx="11.0" fill="#D1FAE5" stroke="#059669" stroke-width="1.1"/><text x="684.1" y="654.6" font-family="SF Mono, Menlo, Consolas, monospace" font-size="10.0px" fill="#064E3B" text-anchor="middle">clean a  (B,30,F,16,1)</text><rect x="81.3" y="560.0" width="325.7" height="55.0" rx="7" fill="#EDE9FE" stroke="#7C3AED" stroke-width="1.3"/><text x="244.1" y="578.0" font-family="Helvetica Neue, Helvetica, Arial, sans-serif" font-size="12.5px" fill="#4C1D95" text-anchor="middle" font-weight="500">patch_embedding_mlp</text><text x="244.1" y="591.5" font-family="SF Mono, Menlo, Consolas, monospace" font-size="9.5px" fill="#475569" text-anchor="middle">Linear 48·1·2·2=192 → 3072</text><text x="244.1" y="603.5" font-family="SF Mono, Menlo, Consolas, monospace" font-size="8.5px" fill="#94A3B8" text-anchor="middle">model.py:624 (one set of weights, applied to noisy &amp; clean)</text><rect x="453.0" y="560.0" width="325.7" height="55.0" rx="7" fill="#EDE9FE" stroke="#7C3AED" stroke-width="1.3"/><text x="615.9" y="578.0" font-family="Helvetica Neue, Helvetica, Arial, sans-serif" font-size="12.5px" fill="#4C1D95" text-anchor="middle" font-weight="500">action_embedder</text><text x="615.9" y="591.5" font-family="SF Mono, Menlo, Consolas, monospace" font-size="9.5px" fill="#475569" text-anchor="middle">Linear 30 → 3072</text><text x="615.9" y="603.5" font-family="SF Mono, Menlo, Consolas, monospace" font-size="8.5px" fill="#94A3B8" text-anchor="middle">model.py:627 (one set of weights, applied to noisy &amp; clean)</text><rect x="207.0" y="500.0" width="446.0" height="30.0" rx="7" fill="#FFFFFF" stroke="#475569" stroke-width="1.3"/><text x="430.0" y="519.5" font-family="Helvetica Neue, Helvetica, Arial, sans-serif" font-size="12.5px" fill="#334155" text-anchor="middle" font-weight="500">concat  [noisy z | clean z | noisy a | clean a]  + pad to ×128</text><rect x="303.7" y="448.0" width="252.6" height="22.0" rx="11.0" fill="#F8FAFC" stroke="#64748B" stroke-width="1.1"/><text x="430.0" y="462.6" font-family="SF Mono, Menlo, Consolas, monospace" font-size="10.0px" fill="#334155" text-anchor="middle">(1, B·(2·F·h·w/4 + 2·F·16) + pad, 3072)</text><rect x="196.2" y="348.0" width="447.6" height="55.0" rx="7" fill="#F1F5F9" stroke="#475569" stroke-width="1.3"/><text x="420.0" y="366.0" font-family="Helvetica Neue, Helvetica, Arial, sans-serif" font-size="12.5px" fill="#0F172A" text-anchor="middle" font-weight="500">WanTransformerBlock</text><text x="420.0" y="379.5" font-family="SF Mono, Menlo, Consolas, monospace" font-size="9.5px" fill="#475569" text-anchor="middle">self-attn (FlexAttention mask) · cross-attn (text) · FFN · per-token AdaLN</text><text x="420.0" y="391.5" font-family="SF Mono, Menlo, Consolas, monospace" font-size="8.5px" fill="#94A3B8" text-anchor="middle">→ Fig 3</text><rect x="-131.5" y="303.0" width="263.7" height="55.0" rx="7" fill="#FCE7F3" stroke="#DB2777" stroke-width="1.3"/><text x="0.4" y="321.0" font-family="Helvetica Neue, Helvetica, Arial, sans-serif" font-size="12.5px" fill="#831843" text-anchor="middle" font-weight="500">3D RoPE</text><text x="0.4" y="334.5" font-family="SF Mono, Menlo, Consolas, monospace" font-size="9.5px" fill="#475569" text-anchor="middle">grid (f, y, x) — actions use (f, 1..16, 1)</text><text x="0.4" y="346.5" font-family="SF Mono, Menlo, Consolas, monospace" font-size="8.5px" fill="#94A3B8" text-anchor="middle">model.py:622, 727-731</text><rect x="-170.4" y="375.0" width="302.6" height="55.0" rx="7" fill="#CCFBF1" stroke="#0D9488" stroke-width="1.3"/><text x="-19.1" y="393.0" font-family="Helvetica Neue, Helvetica, Arial, sans-serif" font-size="12.5px" fill="#134E4A" text-anchor="middle" font-weight="500">FlexAttn mask</text><text x="-19.1" y="406.5" font-family="SF Mono, Menlo, Consolas, monospace" font-size="9.5px" fill="#475569" text-anchor="middle">rebuilt each step (random chunk 1-4, window 4-64)</text><text x="-19.1" y="418.5" font-family="SF Mono, Menlo, Consolas, monospace" font-size="8.5px" fill="#94A3B8" text-anchor="middle">→ Fig 5</text><rect x="727.8" y="303.0" width="263.6" height="55.0" rx="7" fill="#FCE7F3" stroke="#DB2777" stroke-width="1.3"/><rect x="729.0" y="307.0" width="3.2" height="47.0" rx="1.6" fill="#DB2777"/><text x="859.6" y="321.0" font-family="Helvetica Neue, Helvetica, Arial, sans-serif" font-size="12.5px" fill="#831843" text-anchor="middle" font-weight="500">text emb</text><text x="859.6" y="334.5" font-family="SF Mono, Menlo, Consolas, monospace" font-size="9.5px" fill="#475569" text-anchor="middle">UMT5 (B,512,4096) → Linear → (B·512, 3072)</text><text x="859.6" y="346.5" font-family="SF Mono, Menlo, Consolas, monospace" font-size="8.5px" fill="#94A3B8" text-anchor="middle">model.py:714  · cross-attn KV</text><rect x="727.8" y="375.0" width="383.4" height="55.0" rx="7" fill="#FCE7F3" stroke="#DB2777" stroke-width="1.3"/><text x="919.5" y="393.0" font-family="Helvetica Neue, Helvetica, Arial, sans-serif" font-size="12.5px" fill="#831843" text-anchor="middle" font-weight="500">per-token timesteps</text><text x="919.5" y="406.5" font-family="SF Mono, Menlo, Consolas, monospace" font-size="9.5px" fill="#475569" text-anchor="middle">condition_embedder (video) | condition_embedder_action (action)</text><text x="919.5" y="418.5" font-family="SF Mono, Menlo, Consolas, monospace" font-size="8.5px" fill="#94A3B8" text-anchor="middle">model.py:628-635 · separate weights per modality</text><rect x="257.0" y="252.0" width="346.0" height="55.0" rx="7" fill="#FEF9C3" stroke="#CA8A04" stroke-width="1.3"/><text x="430.0" y="270.0" font-family="Helvetica Neue, Helvetica, Arial, sans-serif" font-size="12.5px" fill="#713F12" text-anchor="middle" font-weight="500">norm_out + AdaLN(shift, scale)</text><text x="430.0" y="283.5" font-family="SF Mono, Menlo, Consolas, monospace" font-size="9.5px" fill="#475569" text-anchor="middle">scale_shift_table (1,2,3072) + per-token temb</text><text x="430.0" y="295.5" font-family="SF Mono, Menlo, Consolas, monospace" font-size="8.5px" fill="#94A3B8" text-anchor="middle">model.py:646-651, 780-787</text><rect x="267.0" y="196.0" width="326.0" height="30.0" rx="7" fill="#FFFFFF" stroke="#475569" stroke-width="1.3"/><text x="430.0" y="215.5" font-family="Helvetica Neue, Helvetica, Arial, sans-serif" font-size="12.5px" fill="#334155" text-anchor="middle" font-weight="500">split  [L_z | L_z | L_a | L_a | pad]</text><rect x="105.1" y="110.0" width="156.5" height="55.0" rx="7" fill="#E2E8F0" stroke="#475569" stroke-width="1.3"/><rect x="106.3" y="114.0" width="3.2" height="47.0" rx="1.6" fill="#0284C7"/><text x="183.3" y="128.0" font-family="Helvetica Neue, Helvetica, Arial, sans-serif" font-size="12.5px" fill="#1E293B" text-anchor="middle" font-weight="500">proj_out</text><text x="183.3" y="141.5" font-family="SF Mono, Menlo, Consolas, monospace" font-size="9.5px" fill="#475569" text-anchor="middle">3072 → 192 → unpatchify</text><text x="183.3" y="153.5" font-family="SF Mono, Menlo, Consolas, monospace" font-size="8.5px" fill="#94A3B8" text-anchor="middle">model.py:647</text><rect x="301.6" y="115.5" width="293.0" height="44.0" rx="7" fill="#F8FAFC" stroke="#64748B" stroke-width="1.3"/><text x="448.1" y="138.5" font-family="Helvetica Neue, Helvetica, Arial, sans-serif" font-size="12.5px" fill="#334155" text-anchor="middle" font-weight="500">(clean z, clean a, pad — discarded)</text><text x="448.1" y="152.0" font-family="SF Mono, Menlo, Consolas, monospace" font-size="9.5px" fill="#475569" text-anchor="middle">prediction is only read from the noisy segments</text><rect x="634.6" y="110.0" width="120.3" height="55.0" rx="7" fill="#E2E8F0" stroke="#475569" stroke-width="1.3"/><rect x="635.8" y="114.0" width="3.2" height="47.0" rx="1.6" fill="#059669"/><text x="694.8" y="128.0" font-family="Helvetica Neue, Helvetica, Arial, sans-serif" font-size="12.5px" fill="#1E293B" text-anchor="middle" font-weight="500">action_proj_out</text><text x="694.8" y="141.5" font-family="SF Mono, Menlo, Consolas, monospace" font-size="9.5px" fill="#475569" text-anchor="middle">3072 → 30</text><text x="694.8" y="153.5" font-family="SF Mono, Menlo, Consolas, monospace" font-size="8.5px" fill="#94A3B8" text-anchor="middle">model.py:649</text><rect x="176.1" y="44.0" width="145.9" height="22.0" rx="11.0" fill="#E0F2FE" stroke="#0284C7" stroke-width="1.1"/><text x="249.1" y="58.6" font-family="SF Mono, Menlo, Consolas, monospace" font-size="10.0px" fill="#0C4A6E" text-anchor="middle">v_z  (B, 48, F, h, w)</text><rect x="532.0" y="44.0" width="151.9" height="22.0" rx="11.0" fill="#D1FAE5" stroke="#059669" stroke-width="1.1"/><text x="607.9" y="58.6" font-family="SF Mono, Menlo, Consolas, monospace" font-size="10.0px" fill="#064E3B" text-anchor="middle">v_a  (B, 30, F, 16, 1)</text><rect x="100.2" y="712.0" width="13.0" height="13.0" rx="3.5" fill="#E0F2FE" stroke="#0284C7" stroke-width="1.1"/><text x="119.2" y="722.3" font-family="Helvetica Neue, Helvetica, Arial, sans-serif" font-size="10.5px" fill="#475569" text-anchor="start">video</text><rect x="163.0" y="712.0" width="13.0" height="13.0" rx="3.5" fill="#D1FAE5" stroke="#059669" stroke-width="1.1"/><text x="182.0" y="722.3" font-family="Helvetica Neue, Helvetica, Arial, sans-serif" font-size="10.5px" fill="#475569" text-anchor="start">action</text><rect x="228.8" y="712.0" width="13.0" height="13.0" rx="3.5" fill="#FCE7F3" stroke="#DB2777" stroke-width="1.1"/><text x="247.8" y="722.3" font-family="Helvetica Neue, Helvetica, Arial, sans-serif" font-size="10.5px" fill="#475569" text-anchor="start">text</text><rect x="284.0" y="712.0" width="13.0" height="13.0" rx="3.5" fill="url(#hatch-E0F2FE-0284C7)" stroke="#0284C7" stroke-width="1.1"/><text x="303.0" y="722.3" font-family="Helvetica Neue, Helvetica, Arial, sans-serif" font-size="10.5px" fill="#475569" text-anchor="start">hatched = noisy</text><rect x="403.6" y="712.0" width="13.0" height="13.0" rx="3.5" fill="#EDE9FE" stroke="#7C3AED" stroke-width="1.1"/><text x="422.6" y="722.3" font-family="Helvetica Neue, Helvetica, Arial, sans-serif" font-size="10.5px" fill="#475569" text-anchor="start">linear/embed</text><rect x="100.2" y="733.0" width="13.0" height="13.0" rx="3.5" fill="#FCE7F3" stroke="#DB2777" stroke-width="1.1"/><text x="119.2" y="743.3" font-family="Helvetica Neue, Helvetica, Arial, sans-serif" font-size="10.5px" fill="#475569" text-anchor="start">conditioning</text><rect x="198.4" y="733.0" width="13.0" height="13.0" rx="3.5" fill="#CCFBF1" stroke="#0D9488" stroke-width="1.1"/><text x="217.4" y="743.3" font-family="Helvetica Neue, Helvetica, Arial, sans-serif" font-size="10.5px" fill="#475569" text-anchor="start">mask</text><rect x="260.7" y="733.0" width="13.0" height="13.0" rx="3.5" fill="#E2E8F0" stroke="#475569" stroke-width="1.1"/><text x="279.7" y="743.3" font-family="Helvetica Neue, Helvetica, Arial, sans-serif" font-size="10.5px" fill="#475569" text-anchor="start">output head</text></g><g id="labels"><text x="337.1" y="539.0" font-family="SF Mono, Menlo, Consolas, monospace" font-size="9.5px" fill="#475569" text-anchor="middle" paint-order="stroke" stroke="#FFFFFF" stroke-width="3px">×2</text><text x="522.9" y="539.0" font-family="SF Mono, Menlo, Consolas, monospace" font-size="9.5px" fill="#475569" text-anchor="middle" paint-order="stroke" stroke="#FFFFFF" stroke-width="3px">×2</text><rect x="632.2" y="321.0" width="39.7" height="19.0" rx="9.5" fill="#FFFFFF" stroke="#64748B" stroke-width="1.2"/><text x="652.0" y="334.6" font-family="Helvetica Neue, Helvetica, Arial, sans-serif" font-size="11.5px" fill="#1E293B" text-anchor="middle" font-weight="600">×30</text><text x="727.8" y="444.0" font-family="Helvetica Neue, Helvetica, Arial, sans-serif" font-size="9.5px" fill="#94A3B8" text-anchor="start">noisy &amp; clean segments get their own t — clean</text><text x="727.8" y="457.3" font-family="Helvetica Neue, Helvetica, Arial, sans-serif" font-size="9.5px" fill="#94A3B8" text-anchor="start">history may be re-noised (augmentation, Fig 8)</text><text x="216.2" y="82.0" font-family="SF Mono, Menlo, Consolas, monospace" font-size="9.5px" fill="#475569" text-anchor="middle" paint-order="stroke" stroke="#FFFFFF" stroke-width="3px">velocity</text><text x="651.3" y="82.0" font-family="SF Mono, Menlo, Consolas, monospace" font-size="9.5px" fill="#475569" text-anchor="middle" paint-order="stroke" stroke="#FFFFFF" stroke-width="3px">velocity</text><text x="-170.4" y="28.0" font-family="Helvetica Neue, Helvetica, Arial, sans-serif" font-size="11.5px" fill="#475569" text-anchor="start">wan_va/modules/model.py:702-798</text><text x="-170.4" y="11.3" font-family="Helvetica Neue, Helvetica, Arial, sans-serif" font-size="11.5px" fill="#475569" text-anchor="start">Four segments — noisy/clean video latents and noisy/clean actions — are embedded, concatenated into ONE sequence, and pushed through 30 shared blocks; the mask (Fig 5) supplies all structure.</text><text x="-170.4" y="-5.4" font-family="Helvetica Neue, Helvetica, Arial, sans-serif" font-size="17px" fill="#0F172A" text-anchor="start" font-weight="600">Fig 2 · WanTransformer3DModel — training forward pass (code version)</text></g></svg>