<svg xmlns="http://www.w3.org/2000/svg" viewBox="84.0 -72.3 1088.3 975.8" width="1088" height="976"><defs><marker id="arr-0284C7" viewBox="0 0 10 10" refX="8.5" refY="5" markerWidth="6.5" markerHeight="6.5" orient="auto-start-reverse"><path d="M0.5,1 L9,5 L0.5,9 Z" fill="#0284C7"/></marker><marker id="arr-059669" viewBox="0 0 10 10" refX="8.5" refY="5" markerWidth="6.5" markerHeight="6.5" orient="auto-start-reverse"><path d="M0.5,1 L9,5 L0.5,9 Z" fill="#059669"/></marker><marker id="arr-334155" viewBox="0 0 10 10" refX="8.5" refY="5" markerWidth="6.5" markerHeight="6.5" orient="auto-start-reverse"><path d="M0.5,1 L9,5 L0.5,9 Z" fill="#334155"/></marker><marker id="arr-94A3B8" viewBox="0 0 10 10" refX="8.5" refY="5" markerWidth="6.5" markerHeight="6.5" orient="auto-start-reverse"><path d="M0.5,1 L9,5 L0.5,9 Z" fill="#94A3B8"/></marker></defs><rect x="84.0" y="-72.3" width="1088.3" height="975.8" fill="#FFFFFF"/><g id="frames"></g><g id="edges"><path d="M 207.0,64.0 L 207.0,85.0 Q 207.0,92.0 214.0,92.0 L 281.0,92.0 Q 288.0,92.0 288.0,99.0 L 288.0,120.0" fill="none" stroke="#0284C7" stroke-width="1.1" stroke-linejoin="round" stroke-linecap="round" marker-end="url(#arr-0284C7)"/><path d="M 350.0,64.0 L 350.0,85.0 Q 350.0,92.0 357.0,92.0 L 647.0,92.0 Q 654.0,92.0 654.0,99.0 L 654.0,120.0" fill="none" stroke="#059669" stroke-width="1.1" stroke-linejoin="round" stroke-linecap="round" marker-end="url(#arr-059669)"/><path d="M 288.0,142.0 L 288.0,157.0" fill="none" stroke="#334155" stroke-width="1.5" stroke-linejoin="round" stroke-linecap="round" marker-end="url(#arr-334155)"/><path d="M 288.0,201.0 L 288.0,216.0" fill="none" stroke="#334155" stroke-width="1.5" stroke-linejoin="round" stroke-linecap="round" marker-end="url(#arr-334155)"/><path d="M 654.0,142.0 L 654.0,157.0" fill="none" stroke="#334155" stroke-width="1.5" stroke-linejoin="round" stroke-linecap="round" marker-end="url(#arr-334155)"/><path d="M 654.0,201.0 L 654.0,216.0" fill="none" stroke="#334155" stroke-width="1.5" stroke-linejoin="round" stroke-linecap="round" marker-end="url(#arr-334155)"/><path d="M 654.0,260.0 L 654.0,275.0" fill="none" stroke="#334155" stroke-width="1.5" stroke-linejoin="round" stroke-linecap="round" marker-end="url(#arr-334155)"/><path d="M 288.0,260.0 L 288.0,359.0" fill="none" stroke="#334155" stroke-width="1.5" stroke-linejoin="round" stroke-linecap="round" marker-end="url(#arr-334155)"/><path d="M 654.0,319.0 L 654.0,359.0" fill="none" stroke="#334155" stroke-width="1.5" stroke-linejoin="round" stroke-linecap="round" marker-end="url(#arr-334155)"/><path d="M 288.0,411.0 L 288.0,451.0" fill="none" stroke="#334155" stroke-width="1.5" stroke-linejoin="round" stroke-linecap="round" marker-end="url(#arr-334155)"/><path d="M 654.0,411.0 L 654.0,451.0" fill="none" stroke="#334155" stroke-width="1.5" stroke-linejoin="round" stroke-linecap="round" marker-end="url(#arr-334155)"/><path d="M 288.0,495.0 L 288.0,510.0" fill="none" stroke="#334155" stroke-width="1.5" stroke-linejoin="round" stroke-linecap="round" marker-end="url(#arr-334155)"/><path d="M 288.0,529.0 L 288.0,544.0" fill="none" stroke="#334155" stroke-width="1.5" stroke-linejoin="round" stroke-linecap="round" marker-end="url(#arr-334155)"/><path d="M 288.0,588.0 L 288.0,603.0" fill="none" stroke="#334155" stroke-width="1.5" stroke-linejoin="round" stroke-linecap="round" marker-end="url(#arr-334155)"/><path d="M 288.0,647.0 L 288.0,662.0" fill="none" stroke="#334155" stroke-width="1.5" stroke-linejoin="round" stroke-linecap="round" marker-end="url(#arr-334155)"/><path d="M 288.0,681.0 L 288.0,696.0" fill="none" stroke="#334155" stroke-width="1.5" stroke-linejoin="round" stroke-linecap="round" marker-end="url(#arr-334155)"/><path d="M 654.0,495.0 L 654.0,510.0" fill="none" stroke="#334155" stroke-width="1.5" stroke-linejoin="round" stroke-linecap="round" marker-end="url(#arr-334155)"/><path d="M 654.0,529.0 L 654.0,544.0" fill="none" stroke="#334155" stroke-width="1.5" stroke-linejoin="round" stroke-linecap="round" marker-end="url(#arr-334155)"/><path d="M 654.0,588.0 L 654.0,603.0" fill="none" stroke="#334155" stroke-width="1.5" stroke-linejoin="round" stroke-linecap="round" marker-end="url(#arr-334155)"/><path d="M 654.0,647.0 L 654.0,662.0" fill="none" stroke="#334155" stroke-width="1.5" stroke-linejoin="round" stroke-linecap="round" marker-end="url(#arr-334155)"/><path d="M 654.0,681.0 L 654.0,696.0" fill="none" stroke="#334155" stroke-width="1.5" stroke-linejoin="round" stroke-linecap="round" marker-end="url(#arr-334155)"/><path d="M 203.0,131.0 L 123.0,131.0 Q 116.0,131.0 116.0,138.0 L 116.0,512.5 Q 116.0,519.5 123.0,519.5 L 278.5,519.5" fill="none" stroke="#94A3B8" stroke-width="1.3" stroke-linejoin="round" stroke-linecap="round" marker-end="url(#arr-94A3B8)"/><path d="M 278.5,519.5 L 123.0,519.5 Q 116.0,519.5 116.0,526.5 L 116.0,664.5 Q 116.0,671.5 123.0,671.5 L 278.5,671.5" fill="none" stroke="#94A3B8" stroke-width="1.3" stroke-linejoin="round" stroke-linecap="round" marker-end="url(#arr-94A3B8)"/><path d="M 738.9,131.0 L 799.0,131.0 Q 806.0,131.0 806.0,138.0 L 806.0,512.5 Q 806.0,519.5 799.0,519.5 L 663.5,519.5" fill="none" stroke="#94A3B8" stroke-width="1.3" stroke-linejoin="round" stroke-linecap="round" marker-end="url(#arr-94A3B8)"/><path d="M 663.5,519.5 L 799.0,519.5 Q 806.0,519.5 806.0,526.5 L 806.0,664.5 Q 806.0,671.5 799.0,671.5 L 663.5,671.5" fill="none" stroke="#94A3B8" stroke-width="1.3" stroke-linejoin="round" stroke-linecap="round" marker-end="url(#arr-94A3B8)"/></g><g id="nodes"><rect x="190.0" y="40.0" width="34.0" height="24.0" rx="4.5" fill="#E0F2FE" stroke="#0284C7" stroke-width="1.1"/><text x="207.0" y="55.4" font-family="Helvetica Neue, Helvetica, Arial, sans-serif" font-size="10.0px" fill="#0C4A6E" text-anchor="middle" font-weight="500">z₁</text><rect x="227.5" y="40.0" width="26.0" height="24.0" rx="4.5" fill="#D1FAE5" stroke="#059669" stroke-width="1.1"/><text x="240.5" y="55.4" font-family="Helvetica Neue, Helvetica, Arial, sans-serif" font-size="10.0px" fill="#064E3B" text-anchor="middle" font-weight="500">a₁</text><rect x="257.0" y="40.0" width="26.0" height="24.0" rx="4.5" fill="#D1FAE5" stroke="#059669" stroke-width="1.1"/><text x="270.0" y="55.4" font-family="Helvetica Neue, Helvetica, Arial, sans-serif" font-size="10.0px" fill="#064E3B" text-anchor="middle" font-weight="500">a₂</text><rect x="286.5" y="40.0" width="26.0" height="24.0" rx="4.5" fill="#D1FAE5" stroke="#059669" stroke-width="1.1"/><text x="299.5" y="55.4" font-family="Helvetica Neue, Helvetica, Arial, sans-serif" font-size="10.0px" fill="#064E3B" text-anchor="middle" font-weight="500">a₃</text><rect x="316.0" y="40.0" width="26.0" height="24.0" rx="4.5" fill="#D1FAE5" stroke="#059669" stroke-width="1.1"/><text x="329.0" y="55.4" font-family="Helvetica Neue, Helvetica, Arial, sans-serif" font-size="10.0px" fill="#064E3B" text-anchor="middle" font-weight="500">a₄</text><rect x="353.5" y="40.0" width="34.0" height="24.0" rx="4.5" fill="#E0F2FE" stroke="#0284C7" stroke-width="1.1"/><text x="370.5" y="55.4" font-family="Helvetica Neue, Helvetica, Arial, sans-serif" font-size="10.0px" fill="#0C4A6E" text-anchor="middle" font-weight="500">z₂</text><rect x="391.0" y="40.0" width="26.0" height="24.0" rx="4.5" fill="#D1FAE5" stroke="#059669" stroke-width="1.1"/><text x="404.0" y="55.4" font-family="Helvetica Neue, Helvetica, Arial, sans-serif" font-size="10.0px" fill="#064E3B" text-anchor="middle" font-weight="500">a₅</text><rect x="420.5" y="40.0" width="26.0" height="24.0" rx="4.5" fill="#D1FAE5" stroke="#059669" stroke-width="1.1"/><text x="433.5" y="55.4" font-family="Helvetica Neue, Helvetica, Arial, sans-serif" font-size="10.0px" fill="#064E3B" text-anchor="middle" font-weight="500">a₆</text><rect x="450.0" y="40.0" width="26.0" height="24.0" rx="4.5" fill="#D1FAE5" stroke="#059669" stroke-width="1.1"/><text x="463.0" y="55.4" font-family="Helvetica Neue, Helvetica, Arial, sans-serif" font-size="10.0px" fill="#064E3B" text-anchor="middle" font-weight="500">a₇</text><rect x="479.5" y="40.0" width="26.0" height="24.0" rx="4.5" fill="#D1FAE5" stroke="#059669" stroke-width="1.1"/><text x="492.5" y="55.4" font-family="Helvetica Neue, Helvetica, Arial, sans-serif" font-size="10.0px" fill="#064E3B" text-anchor="middle" font-weight="500">a₈</text><rect x="517.0" y="40.0" width="30.0" height="24.0" rx="4.5" fill="#F1F5F9" stroke="#94A3B8" stroke-width="1.1"/><text x="532.0" y="55.4" font-family="Helvetica Neue, Helvetica, Arial, sans-serif" font-size="10.0px" fill="#334155" text-anchor="middle" font-weight="500">…</text><rect x="203.0" y="120.0" width="169.9" height="22.0" rx="11.0" fill="#E0F2FE" stroke="#0284C7" stroke-width="1.1"/><text x="288.0" y="134.6" font-family="SF Mono, Menlo, Consolas, monospace" font-size="10.0px" fill="#0C4A6E" text-anchor="middle">video tokens  (L_z, 3072)</text><rect x="150.0" y="157.0" width="276.0" height="44.0" rx="7" fill="#FEF9C3" stroke="#CA8A04" stroke-width="1.3"/><rect x="151.2" y="161.0" width="3.2" height="36.0" rx="1.6" fill="#0284C7"/><text x="288.0" y="180.0" font-family="Helvetica Neue, Helvetica, Arial, sans-serif" font-size="12.5px" fill="#713F12" text-anchor="middle" font-weight="500">LayerNorm</text><text x="288.0" y="193.5" font-family="SF Mono, Menlo, Consolas, monospace" font-size="9.5px" fill="#475569" text-anchor="middle">video-specific</text><rect x="150.0" y="216.0" width="276.0" height="44.0" rx="7" fill="#EDE9FE" stroke="#7C3AED" stroke-width="1.3"/><rect x="151.2" y="220.0" width="3.2" height="36.0" rx="1.6" fill="#0284C7"/><text x="288.0" y="239.0" font-family="Helvetica Neue, Helvetica, Arial, sans-serif" font-size="12.5px" fill="#4C1D95" text-anchor="middle" font-weight="500">QKV proj</text><text x="288.0" y="252.5" font-family="SF Mono, Menlo, Consolas, monospace" font-size="9.5px" fill="#475569" text-anchor="middle">W_qkv video  (3072 → 3·3072)</text><rect x="569.1" y="120.0" width="169.8" height="22.0" rx="11.0" fill="#D1FAE5" stroke="#059669" stroke-width="1.1"/><text x="654.0" y="134.6" font-family="SF Mono, Menlo, Consolas, monospace" font-size="10.0px" fill="#064E3B" text-anchor="middle">action tokens  (L_a, 768)</text><rect x="536.0" y="157.0" width="236.0" height="44.0" rx="7" fill="#FEF9C3" stroke="#CA8A04" stroke-width="1.3"/><rect x="537.2" y="161.0" width="3.2" height="36.0" rx="1.6" fill="#059669"/><text x="654.0" y="180.0" font-family="Helvetica Neue, Helvetica, Arial, sans-serif" font-size="12.5px" fill="#713F12" text-anchor="middle" font-weight="500">LayerNorm</text><text x="654.0" y="193.5" font-family="SF Mono, Menlo, Consolas, monospace" font-size="9.5px" fill="#475569" text-anchor="middle">action-specific</text><rect x="536.0" y="216.0" width="236.0" height="44.0" rx="7" fill="#EDE9FE" stroke="#7C3AED" stroke-width="1.3"/><rect x="537.2" y="220.0" width="3.2" height="36.0" rx="1.6" fill="#059669"/><text x="654.0" y="239.0" font-family="Helvetica Neue, Helvetica, Arial, sans-serif" font-size="12.5px" fill="#4C1D95" text-anchor="middle" font-weight="500">QKV proj</text><text x="654.0" y="252.5" font-family="SF Mono, Menlo, Consolas, monospace" font-size="9.5px" fill="#475569" text-anchor="middle">W_qkv action  (768 → …)</text><rect x="536.0" y="275.0" width="236.0" height="44.0" rx="7" fill="#EDE9FE" stroke="#7C3AED" stroke-width="1.3"/><rect x="537.2" y="279.0" width="3.2" height="36.0" rx="1.6" fill="#059669"/><text x="654.0" y="298.0" font-family="Helvetica Neue, Helvetica, Arial, sans-serif" font-size="12.5px" fill="#4C1D95" text-anchor="middle" font-weight="500">up-proj</text><text x="654.0" y="311.5" font-family="SF Mono, Menlo, Consolas, monospace" font-size="9.5px" fill="#475569" text-anchor="middle">Linear 768 → 3072</text><rect x="155.0" y="359.0" width="632.0" height="52.0" rx="7" fill="#DBEAFE" stroke="#2563EB" stroke-width="1.3"/><text x="471.0" y="385.3" font-family="Helvetica Neue, Helvetica, Arial, sans-serif" font-size="12.5px" fill="#1E3A8A" text-anchor="middle" font-weight="500">Joint Self-Attention</text><text x="471.0" y="398.8" font-family="SF Mono, Menlo, Consolas, monospace" font-size="9.5px" fill="#475569" text-anchor="middle">one attention over the concatenated [video ; action] sequence — the ONLY shared computation</text><rect x="150.0" y="451.0" width="276.0" height="44.0" rx="7" fill="#EDE9FE" stroke="#7C3AED" stroke-width="1.3"/><rect x="151.2" y="455.0" width="3.2" height="36.0" rx="1.6" fill="#0284C7"/><text x="288.0" y="474.0" font-family="Helvetica Neue, Helvetica, Arial, sans-serif" font-size="12.5px" fill="#4C1D95" text-anchor="middle" font-weight="500">O proj</text><text x="288.0" y="487.5" font-family="SF Mono, Menlo, Consolas, monospace" font-size="9.5px" fill="#475569" text-anchor="middle">W_o video  (3072 → 3072)</text><circle cx="288.0" cy="519.5" r="9.5" fill="#FFFFFF" stroke="#475569" stroke-width="1.3"/><line x1="283.4" y1="519.5" x2="292.6" y2="519.5" stroke="#475569" stroke-width="1.5" stroke-linecap="butt" /><line x1="288.0" y1="514.9" x2="288.0" y2="524.1" stroke="#475569" stroke-width="1.5" stroke-linecap="butt" /><rect x="150.0" y="544.0" width="276.0" height="44.0" rx="7" fill="#FEF9C3" stroke="#CA8A04" stroke-width="1.3"/><rect x="151.2" y="548.0" width="3.2" height="36.0" rx="1.6" fill="#0284C7"/><text x="288.0" y="567.0" font-family="Helvetica Neue, Helvetica, Arial, sans-serif" font-size="12.5px" fill="#713F12" text-anchor="middle" font-weight="500">LayerNorm</text><text x="288.0" y="580.5" font-family="SF Mono, Menlo, Consolas, monospace" font-size="9.5px" fill="#475569" text-anchor="middle">video-specific</text><rect x="150.0" y="603.0" width="276.0" height="44.0" rx="7" fill="#DCFCE7" stroke="#16A34A" stroke-width="1.3"/><rect x="151.2" y="607.0" width="3.2" height="36.0" rx="1.6" fill="#0284C7"/><text x="288.0" y="626.0" font-family="Helvetica Neue, Helvetica, Arial, sans-serif" font-size="12.5px" fill="#14532D" text-anchor="middle" font-weight="500">FFN</text><text x="288.0" y="639.5" font-family="SF Mono, Menlo, Consolas, monospace" font-size="9.5px" fill="#475569" text-anchor="middle">video-specific  (3072 → …)</text><circle cx="288.0" cy="671.5" r="9.5" fill="#FFFFFF" stroke="#475569" stroke-width="1.3"/><line x1="283.4" y1="671.5" x2="292.6" y2="671.5" stroke="#475569" stroke-width="1.5" stroke-linecap="butt" /><line x1="288.0" y1="666.9" x2="288.0" y2="676.1" stroke="#475569" stroke-width="1.5" stroke-linecap="butt" /><rect x="203.0" y="696.0" width="169.9" height="22.0" rx="11.0" fill="#E0F2FE" stroke="#0284C7" stroke-width="1.1"/><text x="288.0" y="710.6" font-family="SF Mono, Menlo, Consolas, monospace" font-size="10.0px" fill="#0C4A6E" text-anchor="middle">video tokens  (L_z, 3072)</text><rect x="536.0" y="451.0" width="236.0" height="44.0" rx="7" fill="#EDE9FE" stroke="#7C3AED" stroke-width="1.3"/><rect x="537.2" y="455.0" width="3.2" height="36.0" rx="1.6" fill="#059669"/><text x="654.0" y="474.0" font-family="Helvetica Neue, Helvetica, Arial, sans-serif" font-size="12.5px" fill="#4C1D95" text-anchor="middle" font-weight="500">down-proj</text><text x="654.0" y="487.5" font-family="SF Mono, Menlo, Consolas, monospace" font-size="9.5px" fill="#475569" text-anchor="middle">Linear 3072 → 768</text><circle cx="654.0" cy="519.5" r="9.5" fill="#FFFFFF" stroke="#475569" stroke-width="1.3"/><line x1="649.4" y1="519.5" x2="658.6" y2="519.5" stroke="#475569" stroke-width="1.5" stroke-linecap="butt" /><line x1="654.0" y1="514.9" x2="654.0" y2="524.1" stroke="#475569" stroke-width="1.5" stroke-linecap="butt" /><rect x="536.0" y="544.0" width="236.0" height="44.0" rx="7" fill="#FEF9C3" stroke="#CA8A04" stroke-width="1.3"/><rect x="537.2" y="548.0" width="3.2" height="36.0" rx="1.6" fill="#059669"/><text x="654.0" y="567.0" font-family="Helvetica Neue, Helvetica, Arial, sans-serif" font-size="12.5px" fill="#713F12" text-anchor="middle" font-weight="500">LayerNorm</text><text x="654.0" y="580.5" font-family="SF Mono, Menlo, Consolas, monospace" font-size="9.5px" fill="#475569" text-anchor="middle">action-specific</text><rect x="536.0" y="603.0" width="236.0" height="44.0" rx="7" fill="#DCFCE7" stroke="#16A34A" stroke-width="1.3"/><rect x="537.2" y="607.0" width="3.2" height="36.0" rx="1.6" fill="#059669"/><text x="654.0" y="626.0" font-family="Helvetica Neue, Helvetica, Arial, sans-serif" font-size="12.5px" fill="#14532D" text-anchor="middle" font-weight="500">FFN</text><text x="654.0" y="639.5" font-family="SF Mono, Menlo, Consolas, monospace" font-size="9.5px" fill="#475569" text-anchor="middle">action-specific  (768 → …)</text><circle cx="654.0" cy="671.5" r="9.5" fill="#FFFFFF" stroke="#475569" stroke-width="1.3"/><line x1="649.4" y1="671.5" x2="658.6" y2="671.5" stroke="#475569" stroke-width="1.5" stroke-linecap="butt" /><line x1="654.0" y1="666.9" x2="654.0" y2="676.1" stroke="#475569" stroke-width="1.5" stroke-linecap="butt" /><rect x="569.1" y="696.0" width="169.8" height="22.0" rx="11.0" fill="#D1FAE5" stroke="#059669" stroke-width="1.1"/><text x="654.0" y="710.6" font-family="SF Mono, Menlo, Consolas, monospace" font-size="10.0px" fill="#064E3B" text-anchor="middle">action tokens  (L_a, 768)</text><rect x="984.0" y="130.0" width="13.0" height="13.0" rx="3.5" fill="#E0F2FE" stroke="#0284C7" stroke-width="1.1"/><text x="1003.0" y="140.3" font-family="Helvetica Neue, Helvetica, Arial, sans-serif" font-size="10.5px" fill="#475569" text-anchor="start">video stream (d=3072)</text><rect x="984.0" y="151.0" width="13.0" height="13.0" rx="3.5" fill="#D1FAE5" stroke="#059669" stroke-width="1.1"/><text x="1003.0" y="161.3" font-family="Helvetica Neue, Helvetica, Arial, sans-serif" font-size="10.5px" fill="#475569" text-anchor="start">action stream (d=768)</text><rect x="984.0" y="172.0" width="13.0" height="13.0" rx="3.5" fill="#DBEAFE" stroke="#2563EB" stroke-width="1.1"/><text x="1003.0" y="182.3" font-family="Helvetica Neue, Helvetica, Arial, sans-serif" font-size="10.5px" fill="#475569" text-anchor="start">shared attention</text><rect x="984.0" y="193.0" width="13.0" height="13.0" rx="3.5" fill="#EDE9FE" stroke="#7C3AED" stroke-width="1.1"/><text x="1003.0" y="203.3" font-family="Helvetica Neue, Helvetica, Arial, sans-serif" font-size="10.5px" fill="#475569" text-anchor="start">linear / projection</text><rect x="1109.5" y="193.0" width="13.0" height="13.0" rx="3.5" fill="#DCFCE7" stroke="#16A34A" stroke-width="1.1"/><text x="1128.5" y="203.3" font-family="Helvetica Neue, Helvetica, Arial, sans-serif" font-size="10.5px" fill="#475569" text-anchor="start">FFN</text><rect x="984.0" y="214.0" width="13.0" height="13.0" rx="3.5" fill="#FEF9C3" stroke="#CA8A04" stroke-width="1.1"/><text x="1003.0" y="224.3" font-family="Helvetica Neue, Helvetica, Arial, sans-serif" font-size="10.5px" fill="#475569" text-anchor="start">norm</text><text x="300.9" y="774.5" font-family="Helvetica Neue, Helvetica, Arial, sans-serif" font-size="10.5px" fill="#475569" text-anchor="middle" font-weight="600">Action-stream initialization (paper §3.3, ablated in paper Fig. 7):</text><g transform="translate(109.32,799.86) scale(1,-1)"><path d="M 2.23 -0.05 L 1.65 7.92 Q 1.61 8.10 1.37 8.15 Q 1.14 8.19 0.80 8.19 Q 0.68 8.19 0.68 8.36 Q 0.72 8.52 0.74 8.57 Q 0.77 8.63 0.88 8.63 L 3.86 8.63 Q 3.99 8.63 3.99 8.47 Q 3.94 8.19 3.83 8.19 Q 2.83 8.19 2.77 7.85 L 3.21 1.54 L 6.34 6.98 L 6.28 7.92 Q 6.23 8.10 6.00 8.15 Q 5.77 8.19 5.43 8.19 Q 5.30 8.19 5.30 8.36 Q 5.34 8.52 5.36 8.57 Q 5.39 8.63 5.51 8.63 L 8.49 8.63 Q 8.61 8.63 8.61 8.47 Q 8.61 8.44 8.59 8.36 Q 8.57 8.29 8.54 8.24 Q 8.51 8.19 8.45 8.19 Q 7.44 8.19 7.38 7.85 L 7.38 7.75 L 7.84 1.54 L 11.24 7.47 Q 11.31 7.60 11.31 7.73 Q 11.31 7.99 11.06 8.09 Q 10.81 8.19 10.50 8.19 Q 10.38 8.19 10.38 8.36 Q 10.40 8.46 10.42 8.51 Q 10.43 8.57 10.47 8.60 Q 10.51 8.63 10.59 8.63 L 12.98 8.63 Q 13.10 8.63 13.10 8.47 Q 13.09 8.44 13.07 8.36 Q 13.05 8.29 13.02 8.24 Q 12.99 8.19 12.94 8.19 Q 12.05 8.19 11.58 7.38 Q 11.55 7.35 11.55 7.35 L 7.31 -0.05 Q 7.24 -0.18 7.10 -0.18 L 7.00 -0.18 Q 6.85 -0.18 6.85 -0.05 L 6.37 6.39 L 2.70 -0.05 Q 2.61 -0.18 2.48 -0.18 L 2.38 -0.18 Q 2.23 -0.18 2.23 -0.05 Z M 13.32 -2.13 Q 12.77 -2.13 12.45 -1.71 Q 12.13 -1.30 12.13 -0.73 Q 12.13 -0.17 12.42 0.43 Q 12.71 1.04 13.21 1.44 Q 13.70 1.83 14.27 1.83 Q 14.53 1.83 14.73 1.69 Q 14.94 1.55 15.05 1.31 Q 15.15 1.66 15.44 1.66 Q 15.55 1.66 15.62 1.59 Q 15.70 1.53 15.70 1.42 Q 15.70 1.39 15.70 1.38 Q 15.69 1.36 15.69 1.35 L 15.08 -1.10 Q 15.02 -1.36 15.02 -1.52 Q 15.02 -1.90 15.27 -1.90 Q 15.55 -1.90 15.69 -1.55 Q 15.83 -1.20 15.93 -0.75 Q 15.95 -0.69 16.00 -0.69 L 16.10 -0.69 Q 16.14 -0.69 16.16 -0.72 Q 16.18 -0.76 16.18 -0.78 Q 16.03 -1.39 15.85 -1.76 Q 15.66 -2.13 15.25 -2.13 Q 14.96 -2.13 14.73 -1.96 Q 14.51 -1.78 14.45 -1.50 Q 13.89 -2.13 13.32 -2.13 Z M 13.33 -1.90 Q 13.64 -1.90 13.94 -1.66 Q 14.24 -1.42 14.45 -1.11 Q 14.46 -1.10 14.46 -1.08 L 14.93 0.82 L 14.94 0.85 Q 14.89 1.16 14.71 1.38 Q 14.54 1.61 14.25 1.61 Q 13.95 1.61 13.70 1.37 Q 13.44 1.12 13.27 0.80 Q 13.10 0.45 12.94 -0.16 Q 12.79 -0.78 12.79 -1.11 Q 12.79 -1.42 12.92 -1.66 Q 13.05 -1.90 13.33 -1.90 Z M 17.44 -0.99 Q 17.44 -1.37 17.64 -1.64 Q 17.83 -1.90 18.19 -1.90 Q 18.71 -1.90 19.19 -1.66 Q 19.68 -1.42 19.98 -1.00 Q 20.01 -0.97 20.05 -0.97 Q 20.09 -0.97 20.14 -1.02 Q 20.18 -1.07 20.18 -1.11 Q 20.18 -1.15 20.16 -1.17 Q 19.84 -1.61 19.30 -1.87 Q 18.76 -2.13 18.18 -2.13 Q 17.76 -2.13 17.44 -1.93 Q 17.12 -1.73 16.94 -1.40 Q 16.77 -1.07 16.77 -0.65 Q 16.77 -0.06 17.10 0.52 Q 17.43 1.10 17.97 1.47 Q 18.52 1.83 19.12 1.83 Q 19.51 1.83 19.83 1.64 Q 20.14 1.45 20.14 1.08 Q 20.14 0.84 20.00 0.67 Q 19.86 0.51 19.63 0.51 Q 19.49 0.51 19.39 0.59 Q 19.30 0.68 19.30 0.82 Q 19.30 1.03 19.44 1.17 Q 19.60 1.32 19.80 1.32 L 19.81 1.32 Q 19.71 1.47 19.52 1.54 Q 19.32 1.61 19.11 1.61 Q 18.60 1.61 18.21 1.17 Q 17.83 0.73 17.64 0.12 Q 17.44 -0.49 17.44 -0.99 Z M 20.74 -1.32 Q 20.74 -1.19 20.77 -1.08 L 21.40 1.43 L 20.48 1.43 Q 20.39 1.43 20.39 1.55 Q 20.42 1.74 20.51 1.74 L 21.47 1.74 L 21.83 3.17 Q 21.86 3.28 21.96 3.36 Q 22.07 3.44 22.19 3.44 Q 22.30 3.44 22.38 3.38 Q 22.45 3.31 22.45 3.20 Q 22.45 3.18 22.45 3.16 Q 22.45 3.15 22.45 3.13 L 22.10 1.74 L 23.00 1.74 Q 23.09 1.74 23.09 1.63 Q 23.08 1.60 23.07 1.55 Q 23.06 1.50 23.03 1.47 Q 23.01 1.43 22.97 1.43 L 22.02 1.43 L 21.39 -1.10 Q 21.33 -1.34 21.33 -1.52 Q 21.33 -1.90 21.58 -1.90 Q 21.97 -1.90 22.26 -1.54 Q 22.56 -1.18 22.72 -0.75 Q 22.75 -0.69 22.79 -0.69 L 22.89 -0.69 Q 22.93 -0.69 22.95 -0.72 Q 22.97 -0.74 22.97 -0.77 Q 22.97 -0.79 22.96 -0.80 Q 22.77 -1.33 22.40 -1.73 Q 22.04 -2.13 21.56 -2.13 Q 21.21 -2.13 20.98 -1.90 Q 20.74 -1.68 20.74 -1.32 Z M 24.04 -1.40 Q 24.04 -1.24 24.11 -1.06 L 24.82 0.82 Q 24.93 1.14 24.93 1.35 Q 24.93 1.61 24.74 1.61 Q 24.39 1.61 24.17 1.25 Q 23.94 0.90 23.84 0.45 Q 23.82 0.40 23.77 0.40 L 23.66 0.40 Q 23.59 0.40 23.59 0.48 L 23.59 0.51 Q 23.73 1.03 24.02 1.43 Q 24.31 1.83 24.76 1.83 Q 25.07 1.83 25.28 1.63 Q 25.50 1.42 25.50 1.11 Q 25.50 0.95 25.43 0.77 L 24.72 -1.11 Q 24.60 -1.40 24.60 -1.64 Q 24.60 -1.90 24.80 -1.90 Q 25.14 -1.90 25.37 -1.53 Q 25.60 -1.17 25.69 -0.75 Q 25.71 -0.69 25.76 -0.69 L 25.87 -0.69 Q 25.90 -0.69 25.92 -0.72 Q 25.94 -0.74 25.94 -0.77 Q 25.94 -0.78 25.94 -0.80 Q 25.82 -1.29 25.52 -1.71 Q 25.22 -2.13 24.78 -2.13 Q 24.47 -2.13 24.26 -1.92 Q 24.04 -1.71 24.04 -1.40 Z M 25.03 3.27 Q 25.03 3.45 25.18 3.60 Q 25.33 3.75 25.52 3.75 Q 25.67 3.75 25.76 3.66 Q 25.86 3.57 25.86 3.43 Q 25.86 3.23 25.70 3.08 Q 25.55 2.94 25.36 2.94 Q 25.22 2.94 25.12 3.03 Q 25.03 3.13 25.03 3.27 Z M 28.13 -2.13 Q 27.71 -2.13 27.39 -1.93 Q 27.07 -1.74 26.89 -1.40 Q 26.72 -1.07 26.72 -0.65 Q 26.72 -0.05 27.05 0.53 Q 27.38 1.11 27.93 1.47 Q 28.48 1.83 29.08 1.83 Q 29.41 1.83 29.66 1.72 Q 29.91 1.61 30.10 1.41 Q 30.29 1.21 30.39 0.94 Q 30.49 0.67 30.49 0.36 Q 30.49 -0.10 30.30 -0.54 Q 30.11 -0.98 29.77 -1.35 Q 29.44 -1.71 29.00 -1.92 Q 28.57 -2.13 28.13 -2.13 Z M 28.14 -1.90 Q 28.53 -1.90 28.86 -1.64 Q 29.18 -1.37 29.38 -0.97 Q 29.59 -0.56 29.70 -0.11 Q 29.82 0.33 29.82 0.70 Q 29.82 1.08 29.63 1.34 Q 29.44 1.61 29.06 1.61 Q 28.55 1.61 28.17 1.17 Q 27.78 0.73 27.59 0.12 Q 27.39 -0.49 27.39 -0.99 Q 27.39 -1.37 27.59 -1.64 Q 27.78 -1.90 28.14 -1.90 Z M 31.28 -1.88 Q 31.28 -1.83 31.28 -1.81 L 31.94 0.80 Q 32.00 1.05 32.00 1.23 Q 32.00 1.61 31.75 1.61 Q 31.47 1.61 31.34 1.28 Q 31.21 0.95 31.08 0.45 Q 31.08 0.43 31.06 0.41 Q 31.03 0.40 31.01 0.40 L 30.91 0.40 Q 30.88 0.40 30.86 0.43 Q 30.84 0.46 30.84 0.49 Q 30.93 0.87 31.02 1.13 Q 31.11 1.40 31.29 1.62 Q 31.48 1.83 31.76 1.83 Q 32.08 1.83 32.33 1.63 Q 32.59 1.42 32.59 1.10 Q 32.85 1.44 33.20 1.64 Q 33.55 1.83 33.94 1.83 Q 34.25 1.83 34.48 1.73 Q 34.71 1.62 34.83 1.41 Q 34.96 1.19 34.96 0.89 Q 34.96 0.53 34.80 0.02 Q 34.64 -0.49 34.40 -1.11 Q 34.28 -1.40 34.28 -1.64 Q 34.28 -1.90 34.48 -1.90 Q 34.82 -1.90 35.05 -1.53 Q 35.28 -1.17 35.37 -0.75 Q 35.39 -0.69 35.44 -0.69 L 35.54 -0.69 Q 35.58 -0.69 35.60 -0.72 Q 35.63 -0.74 35.63 -0.77 Q 35.63 -0.78 35.62 -0.80 Q 35.50 -1.29 35.20 -1.71 Q 34.90 -2.13 34.46 -2.13 Q 34.15 -2.13 33.93 -1.92 Q 33.72 -1.71 33.72 -1.40 Q 33.72 -1.24 33.78 -1.06 Q 33.89 -0.78 34.04 -0.38 Q 34.18 0.02 34.27 0.38 Q 34.37 0.74 34.37 1.02 Q 34.37 1.27 34.26 1.44 Q 34.16 1.61 33.92 1.61 Q 33.60 1.61 33.34 1.47 Q 33.07 1.33 32.87 1.09 Q 32.66 0.86 32.50 0.54 L 31.90 -1.84 Q 31.87 -1.96 31.77 -2.04 Q 31.66 -2.13 31.54 -2.13 Q 31.43 -2.13 31.35 -2.06 Q 31.28 -1.99 31.28 -1.88 Z M 39.78 1.75 Q 39.68 1.75 39.61 1.83 Q 39.55 1.91 39.55 2.00 Q 39.55 2.11 39.61 2.18 Q 39.68 2.25 39.78 2.25 L 47.63 2.25 Q 47.72 2.25 47.79 2.18 Q 47.86 2.11 47.86 2.00 Q 47.86 1.91 47.79 1.83 Q 47.72 1.75 47.63 1.75 L 39.78 1.75 Z M 39.78 4.18 Q 39.68 4.18 39.61 4.26 Q 39.55 4.33 39.55 4.43 Q 39.55 4.53 39.61 4.60 Q 39.68 4.68 39.78 4.68 L 47.63 4.68 Q 47.72 4.68 47.79 4.60 Q 47.86 4.53 47.86 4.43 Q 47.86 4.33 47.79 4.26 Q 47.72 4.18 47.63 4.18 L 39.78 4.18 Z M 51.13 0.09 L 51.13 0.53 Q 51.56 0.53 51.84 0.60 Q 52.11 0.67 52.11 0.93 L 52.11 4.34 Q 52.11 4.82 51.92 4.93 Q 51.74 5.04 51.19 5.04 L 51.19 5.48 L 52.99 5.62 L 52.99 0.93 Q 52.99 0.67 53.23 0.60 Q 53.47 0.53 53.86 0.53 L 53.86 0.09 L 51.13 0.09 Z M 51.67 7.77 Q 51.67 8.04 51.87 8.25 Q 52.08 8.46 52.35 8.46 Q 52.52 8.46 52.69 8.36 Q 52.86 8.27 52.95 8.11 Q 53.04 7.94 53.04 7.77 Q 53.04 7.50 52.83 7.29 Q 52.62 7.08 52.35 7.08 Q 52.08 7.08 51.87 7.29 Q 51.67 7.50 51.67 7.77 Z M 54.58 0.09 L 54.58 0.53 Q 55.01 0.53 55.28 0.60 Q 55.56 0.67 55.56 0.93 L 55.56 4.34 Q 55.56 4.68 55.46 4.83 Q 55.36 4.98 55.17 5.01 Q 54.98 5.04 54.58 5.04 L 54.58 5.48 L 56.40 5.62 L 56.40 4.40 Q 56.65 4.93 57.14 5.28 Q 57.63 5.62 58.21 5.62 Q 59.08 5.62 59.51 5.20 Q 59.95 4.79 59.95 3.93 L 59.95 0.93 Q 59.95 0.67 60.22 0.60 Q 60.50 0.53 60.93 0.53 L 60.93 0.09 L 58.06 0.09 L 58.06 0.53 Q 58.49 0.53 58.76 0.60 Q 59.04 0.67 59.04 0.93 L 59.04 3.90 Q 59.04 4.51 58.86 4.90 Q 58.68 5.29 58.13 5.29 Q 57.41 5.29 56.94 4.71 Q 56.47 4.13 56.47 3.40 L 56.47 0.93 Q 56.47 0.67 56.75 0.60 Q 57.02 0.53 57.44 0.53 L 57.44 0.09 L 54.58 0.09 Z M 62.43 1.60 L 62.43 5.04 L 61.39 5.04 L 61.39 5.37 Q 62.21 5.37 62.59 6.13 Q 62.97 6.89 62.97 7.79 L 63.34 7.79 L 63.34 5.48 L 65.10 5.48 L 65.10 5.04 L 63.34 5.04 L 63.34 1.62 Q 63.34 1.10 63.51 0.71 Q 63.68 0.32 64.13 0.32 Q 64.56 0.32 64.75 0.73 Q 64.94 1.14 64.94 1.62 L 64.94 2.36 L 65.30 2.36 L 65.30 1.60 Q 65.30 1.21 65.16 0.82 Q 65.01 0.44 64.73 0.20 Q 64.45 -0.05 64.05 -0.05 Q 63.30 -0.05 62.86 0.40 Q 62.43 0.85 62.43 1.60 Z M 69.12 -0.05 Q 68.35 -0.05 67.71 0.35 Q 67.08 0.75 66.71 1.42 Q 66.35 2.09 66.35 2.83 Q 66.35 3.57 66.68 4.22 Q 67.02 4.88 67.61 5.29 Q 68.21 5.70 68.94 5.70 Q 69.51 5.70 69.94 5.50 Q 70.36 5.31 70.64 4.97 Q 70.91 4.63 71.05 4.16 Q 71.19 3.70 71.19 3.15 Q 71.19 2.98 71.06 2.98 L 67.44 2.98 L 67.44 2.85 Q 67.44 1.81 67.86 1.06 Q 68.28 0.32 69.22 0.32 Q 69.61 0.32 69.94 0.49 Q 70.26 0.66 70.50 0.97 Q 70.74 1.27 70.83 1.62 Q 70.84 1.66 70.88 1.70 Q 70.91 1.73 70.95 1.73 L 71.06 1.73 Q 71.19 1.73 71.19 1.57 Q 71.01 0.86 70.43 0.41 Q 69.84 -0.05 69.12 -0.05 Z M 67.46 3.29 L 70.30 3.29 Q 70.30 3.76 70.17 4.24 Q 70.04 4.73 69.74 5.05 Q 69.43 5.37 68.94 5.37 Q 68.23 5.37 67.84 4.71 Q 67.46 4.04 67.46 3.29 Z M 71.87 0.09 L 71.87 0.53 Q 72.30 0.53 72.58 0.60 Q 72.85 0.67 72.85 0.93 L 72.85 4.34 Q 72.85 4.68 72.75 4.83 Q 72.65 4.98 72.46 5.01 Q 72.27 5.04 71.87 5.04 L 71.87 5.48 L 73.66 5.62 L 73.66 4.40 Q 73.86 4.94 74.24 5.28 Q 74.61 5.62 75.14 5.62 Q 75.51 5.62 75.80 5.40 Q 76.10 5.18 76.10 4.82 Q 76.10 4.59 75.94 4.42 Q 75.77 4.26 75.54 4.26 Q 75.30 4.26 75.14 4.42 Q 74.97 4.59 74.97 4.82 Q 74.97 5.15 75.21 5.29 L 75.14 5.29 Q 74.63 5.29 74.31 4.93 Q 73.99 4.56 73.86 4.02 Q 73.72 3.47 73.72 2.98 L 73.72 0.93 Q 73.72 0.53 74.94 0.53 L 74.94 0.09 L 71.87 0.09 Z M 76.76 -2.33 L 76.76 -1.90 Q 77.19 -1.90 77.46 -1.82 Q 77.74 -1.75 77.74 -1.49 L 77.74 4.53 Q 77.74 4.87 77.50 4.96 Q 77.25 5.04 76.76 5.04 L 76.76 5.48 L 78.61 5.62 L 78.61 4.84 Q 78.95 5.22 79.41 5.42 Q 79.86 5.62 80.38 5.62 Q 81.12 5.62 81.71 5.22 Q 82.30 4.82 82.63 4.17 Q 82.96 3.52 82.96 2.79 Q 82.96 2.04 82.60 1.38 Q 82.23 0.73 81.59 0.34 Q 80.95 -0.05 80.19 -0.05 Q 79.28 -0.05 78.65 0.69 L 78.65 -1.49 Q 78.65 -1.75 78.93 -1.82 Q 79.20 -1.90 79.62 -1.90 L 79.62 -2.33 L 76.76 -2.33 Z M 78.65 1.31 Q 78.87 0.86 79.26 0.57 Q 79.65 0.28 80.11 0.28 Q 80.55 0.28 80.88 0.51 Q 81.21 0.75 81.44 1.14 Q 81.66 1.53 81.77 1.96 Q 81.88 2.39 81.88 2.79 Q 81.88 3.29 81.70 3.88 Q 81.52 4.46 81.15 4.86 Q 80.78 5.26 80.25 5.26 Q 79.75 5.26 79.32 5.00 Q 78.90 4.74 78.65 4.29 L 78.65 1.31 Z M 87.25 -3.01 Q 86.56 -2.46 86.05 -1.75 Q 85.55 -1.04 85.23 -0.23 Q 84.91 0.58 84.75 1.46 Q 84.59 2.33 84.59 3.22 Q 84.59 4.12 84.75 4.99 Q 84.91 5.87 85.24 6.69 Q 85.56 7.50 86.07 8.21 Q 86.58 8.91 87.25 9.45 Q 87.25 9.47 87.32 9.47 L 87.43 9.47 Q 87.47 9.47 87.50 9.44 Q 87.53 9.40 87.53 9.36 Q 87.53 9.30 87.51 9.28 Q 86.89 8.68 86.49 8.00 Q 86.08 7.31 85.83 6.54 Q 85.59 5.77 85.48 4.94 Q 85.37 4.12 85.37 3.22 Q 85.37 -0.75 87.49 -2.82 Q 87.53 -2.85 87.53 -2.92 Q 87.53 -2.95 87.50 -2.99 Q 87.46 -3.03 87.43 -3.03 L 87.32 -3.03 Q 87.25 -3.03 87.25 -3.01 Z M 90.46 -0.05 L 89.88 7.92 Q 89.84 8.10 89.60 8.15 Q 89.37 8.19 89.03 8.19 Q 88.91 8.19 88.91 8.36 Q 88.95 8.52 88.98 8.57 Q 89.00 8.63 89.12 8.63 L 92.09 8.63 Q 92.22 8.63 92.22 8.47 Q 92.17 8.19 92.06 8.19 Q 91.06 8.19 91.00 7.85 L 91.44 1.54 L 94.57 6.98 L 94.51 7.92 Q 94.46 8.10 94.23 8.15 Q 94.00 8.19 93.66 8.19 Q 93.53 8.19 93.53 8.36 Q 93.57 8.52 93.59 8.57 Q 93.62 8.63 93.74 8.63 L 96.72 8.63 Q 96.84 8.63 96.84 8.47 Q 96.84 8.44 96.82 8.36 Q 96.80 8.29 96.77 8.24 Q 96.74 8.19 96.68 8.19 Q 95.67 8.19 95.62 7.85 L 95.62 7.75 L 96.07 1.54 L 99.47 7.47 Q 99.54 7.60 99.54 7.73 Q 99.54 7.99 99.29 8.09 Q 99.04 8.19 98.73 8.19 Q 98.61 8.19 98.61 8.36 Q 98.63 8.46 98.65 8.51 Q 98.66 8.57 98.70 8.60 Q 98.74 8.63 98.82 8.63 L 101.21 8.63 Q 101.33 8.63 101.33 8.47 Q 101.32 8.44 101.30 8.36 Q 101.29 8.29 101.25 8.24 Q 101.22 8.19 101.17 8.19 Q 100.28 8.19 99.82 7.38 Q 99.78 7.35 99.78 7.35 L 95.54 -0.05 Q 95.48 -0.18 95.33 -0.18 L 95.23 -0.18 Q 95.08 -0.18 95.08 -0.05 L 94.60 6.39 L 90.93 -0.05 Q 90.84 -0.18 90.71 -0.18 L 90.61 -0.18 Q 90.46 -0.18 90.46 -0.05 Z M 100.96 -1.04 Q 100.96 -0.85 101.01 -0.61 Q 101.06 -0.38 101.11 -0.23 Q 101.15 -0.08 101.32 0.36 Q 101.49 0.80 101.49 0.82 Q 101.61 1.14 101.61 1.35 Q 101.61 1.61 101.41 1.61 Q 101.07 1.61 100.84 1.25 Q 100.62 0.90 100.51 0.45 Q 100.50 0.40 100.44 0.40 L 100.34 0.40 Q 100.26 0.40 100.26 0.48 L 100.26 0.51 Q 100.41 1.03 100.70 1.43 Q 100.99 1.83 101.43 1.83 Q 101.74 1.83 101.96 1.63 Q 102.17 1.42 102.17 1.11 Q 102.17 0.95 102.10 0.77 Q 101.93 0.32 101.83 0.05 Q 101.73 -0.21 101.65 -0.54 Q 101.57 -0.87 101.57 -1.16 Q 101.57 -1.49 101.72 -1.69 Q 101.87 -1.90 102.19 -1.90 Q 102.80 -1.90 103.28 -0.96 Q 103.44 -0.66 103.58 -0.25 Q 103.71 0.16 103.71 0.42 Q 103.71 0.68 103.63 0.83 Q 103.54 0.98 103.40 1.14 Q 103.27 1.30 103.27 1.39 Q 103.27 1.56 103.41 1.70 Q 103.55 1.84 103.72 1.84 Q 103.93 1.84 104.02 1.65 Q 104.11 1.46 104.11 1.22 Q 104.11 0.93 104.03 0.52 Q 103.95 0.12 103.80 -0.31 Q 103.65 -0.74 103.53 -0.99 Q 102.95 -2.13 102.18 -2.13 Q 101.63 -2.13 101.30 -1.86 Q 100.96 -1.58 100.96 -1.04 Z M 104.95 -1.40 Q 104.95 -1.24 105.02 -1.06 L 105.72 0.82 Q 105.84 1.14 105.84 1.35 Q 105.84 1.61 105.65 1.61 Q 105.30 1.61 105.08 1.25 Q 104.85 0.90 104.75 0.45 Q 104.73 0.40 104.67 0.40 L 104.57 0.40 Q 104.50 0.40 104.50 0.48 L 104.50 0.51 Q 104.64 1.03 104.93 1.43 Q 105.22 1.83 105.66 1.83 Q 105.98 1.83 106.19 1.63 Q 106.41 1.42 106.41 1.11 Q 106.41 0.95 106.34 0.77 L 105.63 -1.11 Q 105.51 -1.40 105.51 -1.64 Q 105.51 -1.90 105.71 -1.90 Q 106.05 -1.90 106.28 -1.53 Q 106.51 -1.17 106.60 -0.75 Q 106.62 -0.69 106.67 -0.69 L 106.78 -0.69 Q 106.81 -0.69 106.83 -0.72 Q 106.85 -0.74 106.85 -0.77 Q 106.85 -0.78 106.84 -0.80 Q 106.72 -1.29 106.43 -1.71 Q 106.13 -2.13 105.69 -2.13 Q 105.38 -2.13 105.16 -1.92 Q 104.95 -1.71 104.95 -1.40 Z M 105.93 3.27 Q 105.93 3.45 106.09 3.60 Q 106.24 3.75 106.42 3.75 Q 106.58 3.75 106.67 3.66 Q 106.77 3.57 106.77 3.43 Q 106.77 3.23 106.61 3.08 Q 106.45 2.94 106.27 2.94 Q 106.13 2.94 106.03 3.03 Q 105.93 3.13 105.93 3.27 Z M 108.80 -2.13 Q 108.24 -2.13 107.93 -1.71 Q 107.61 -1.30 107.61 -0.73 Q 107.61 -0.17 107.90 0.43 Q 108.19 1.04 108.68 1.44 Q 109.18 1.83 109.74 1.83 Q 110.00 1.83 110.21 1.69 Q 110.42 1.55 110.53 1.31 L 111.02 3.26 Q 111.06 3.41 111.07 3.50 Q 111.07 3.64 110.50 3.64 Q 110.41 3.64 110.41 3.75 Q 110.41 3.77 110.43 3.83 Q 110.44 3.89 110.47 3.92 Q 110.49 3.95 110.53 3.95 L 111.71 4.04 Q 111.82 4.04 111.82 3.93 L 110.56 -1.11 Q 110.50 -1.25 110.50 -1.52 Q 110.50 -1.90 110.75 -1.90 Q 111.02 -1.90 111.17 -1.55 Q 111.31 -1.20 111.41 -0.75 Q 111.42 -0.69 111.48 -0.69 L 111.58 -0.69 Q 111.62 -0.69 111.64 -0.72 Q 111.66 -0.76 111.66 -0.78 Q 111.51 -1.39 111.32 -1.76 Q 111.14 -2.13 110.73 -2.13 Q 110.44 -2.13 110.21 -1.96 Q 109.98 -1.78 109.93 -1.50 Q 109.36 -2.13 108.80 -2.13 Z M 108.81 -1.90 Q 109.12 -1.90 109.42 -1.66 Q 109.71 -1.42 109.93 -1.11 Q 109.94 -1.10 109.94 -1.07 L 110.42 0.86 Q 110.36 1.16 110.19 1.39 Q 110.01 1.61 109.72 1.61 Q 109.43 1.61 109.17 1.37 Q 108.92 1.12 108.75 0.80 Q 108.57 0.45 108.42 -0.16 Q 108.26 -0.78 108.26 -1.11 Q 108.26 -1.42 108.39 -1.66 Q 108.52 -1.90 108.81 -1.90 Z M 113.59 -2.13 Q 113.17 -2.13 112.85 -1.91 Q 112.54 -1.69 112.37 -1.33 Q 112.21 -0.95 112.21 -0.54 Q 112.21 0.08 112.52 0.63 Q 112.84 1.18 113.38 1.50 Q 113.91 1.83 114.53 1.83 Q 114.91 1.83 115.19 1.64 Q 115.47 1.45 115.47 1.08 Q 115.47 0.58 115.06 0.33 Q 114.66 0.09 114.16 0.03 Q 113.65 -0.03 113.04 -0.03 L 113.02 -0.03 Q 112.88 -0.55 112.88 -0.92 Q 112.88 -1.31 113.06 -1.61 Q 113.24 -1.90 113.60 -1.90 Q 114.12 -1.90 114.60 -1.66 Q 115.08 -1.42 115.39 -1.00 Q 115.41 -0.97 115.46 -0.97 Q 115.50 -0.97 115.54 -1.02 Q 115.59 -1.07 115.59 -1.11 Q 115.59 -1.15 115.57 -1.17 Q 115.25 -1.61 114.71 -1.87 Q 114.17 -2.13 113.59 -2.13 Z M 113.07 0.20 Q 113.58 0.20 114.01 0.24 Q 114.44 0.29 114.79 0.48 Q 115.14 0.67 115.14 1.07 Q 115.14 1.24 115.05 1.36 Q 114.96 1.48 114.82 1.54 Q 114.67 1.61 114.52 1.61 Q 114.15 1.61 113.85 1.41 Q 113.56 1.21 113.36 0.88 Q 113.17 0.56 113.07 0.20 Z M 117.65 -2.13 Q 117.24 -2.13 116.92 -1.93 Q 116.59 -1.74 116.42 -1.40 Q 116.24 -1.07 116.24 -0.65 Q 116.24 -0.05 116.57 0.53 Q 116.91 1.11 117.45 1.47 Q 118.00 1.83 118.61 1.83 Q 118.93 1.83 119.19 1.72 Q 119.44 1.61 119.63 1.41 Q 119.82 1.21 119.92 0.94 Q 120.02 0.67 120.02 0.36 Q 120.02 -0.10 119.82 -0.54 Q 119.63 -0.98 119.30 -1.35 Q 118.96 -1.71 118.53 -1.92 Q 118.10 -2.13 117.65 -2.13 Z M 117.67 -1.90 Q 118.06 -1.90 118.38 -1.64 Q 118.70 -1.37 118.91 -0.97 Q 119.12 -0.56 119.23 -0.11 Q 119.34 0.33 119.34 0.70 Q 119.34 1.08 119.15 1.34 Q 118.96 1.61 118.59 1.61 Q 118.08 1.61 117.69 1.17 Q 117.31 0.73 117.11 0.12 Q 116.92 -0.49 116.92 -0.99 Q 116.92 -1.37 117.11 -1.64 Q 117.31 -1.90 117.67 -1.90 Z M 121.74 -3.03 Q 121.63 -3.03 121.63 -2.92 Q 121.63 -2.87 121.65 -2.84 Q 123.79 -0.75 123.79 3.22 Q 123.79 7.19 121.67 9.26 Q 121.63 9.29 121.63 9.36 Q 121.63 9.40 121.66 9.44 Q 121.69 9.47 121.74 9.47 L 121.85 9.47 Q 121.89 9.47 121.91 9.45 Q 122.81 8.74 123.41 7.72 Q 124.01 6.71 124.28 5.56 Q 124.56 4.42 124.56 3.22 Q 124.56 2.33 124.41 1.48 Q 124.26 0.62 123.94 -0.21 Q 123.61 -1.05 123.11 -1.75 Q 122.61 -2.46 121.91 -3.01 Q 121.89 -3.03 121.85 -3.03 L 121.74 -3.03 Z M 129.02 3.22 Q 129.02 3.40 129.11 3.55 Q 129.20 3.71 129.37 3.81 Q 129.53 3.91 129.71 3.91 Q 129.89 3.91 130.05 3.81 Q 130.21 3.71 130.30 3.55 Q 130.40 3.40 130.40 3.22 Q 130.40 2.94 130.20 2.73 Q 130.00 2.53 129.71 2.53 Q 129.43 2.53 129.23 2.73 Q 129.02 2.94 129.02 3.22 Z M 136.14 -0.05 Q 135.55 -0.05 135.09 0.23 Q 134.63 0.52 134.38 0.99 Q 134.13 1.47 134.13 2.07 Q 134.13 2.92 134.60 3.75 Q 135.07 4.58 135.86 5.10 Q 136.64 5.62 137.50 5.62 Q 138.14 5.62 138.62 5.29 Q 139.10 4.95 139.35 4.40 Q 139.60 3.85 139.60 3.22 L 139.62 2.38 Q 140.04 2.97 140.34 3.61 Q 140.63 4.25 140.79 4.93 Q 140.82 5.01 140.89 5.01 L 141.04 5.01 Q 141.15 5.01 141.15 4.89 Q 141.15 4.88 141.14 4.86 Q 140.99 4.28 140.77 3.75 Q 140.55 3.22 140.26 2.73 Q 139.96 2.24 139.62 1.83 Q 139.62 0.28 139.97 0.28 Q 140.21 0.28 140.36 0.42 Q 140.51 0.56 140.62 0.76 Q 140.73 0.96 140.76 0.97 L 140.91 0.97 Q 141.01 0.97 141.01 0.84 Q 141.01 0.53 140.65 0.24 Q 140.30 -0.05 139.95 -0.05 Q 139.50 -0.05 139.20 0.25 Q 138.90 0.54 138.79 1.01 Q 138.20 0.51 137.52 0.23 Q 136.84 -0.05 136.14 -0.05 Z M 136.17 0.28 Q 137.50 0.28 138.73 1.38 Q 138.72 1.46 138.71 1.56 Q 138.70 1.67 138.70 1.68 L 138.70 3.03 Q 138.70 5.29 137.48 5.29 Q 136.75 5.29 136.20 4.67 Q 135.65 4.04 135.37 3.17 Q 135.09 2.30 135.09 1.58 Q 135.09 1.04 135.37 0.66 Q 135.65 0.28 136.17 0.28 Z M 142.85 -2.16 Q 142.85 -2.10 142.90 -2.05 Q 143.36 -1.62 143.61 -1.05 Q 143.86 -0.49 143.86 0.14 L 143.86 0.29 Q 143.66 0.09 143.36 0.09 Q 143.07 0.09 142.87 0.29 Q 142.67 0.50 142.67 0.78 Q 142.67 1.08 142.87 1.27 Q 143.07 1.47 143.36 1.47 Q 143.80 1.47 143.99 1.05 Q 144.18 0.64 144.18 0.14 Q 144.18 -0.55 143.90 -1.18 Q 143.62 -1.80 143.12 -2.30 Q 143.07 -2.33 143.04 -2.33 Q 142.98 -2.33 142.92 -2.27 Q 142.85 -2.22 142.85 -2.16 Z M 171.74 -0.05 Q 171.14 -0.05 170.68 0.23 Q 170.22 0.52 169.97 0.99 Q 169.72 1.47 169.72 2.07 Q 169.72 2.92 170.19 3.75 Q 170.67 4.58 171.45 5.10 Q 172.24 5.62 173.10 5.62 Q 173.73 5.62 174.21 5.29 Q 174.69 4.95 174.94 4.40 Q 175.19 3.85 175.19 3.22 L 175.21 2.38 Q 175.63 2.97 175.93 3.61 Q 176.23 4.25 176.39 4.93 Q 176.41 5.01 176.48 5.01 L 176.63 5.01 Q 176.75 5.01 176.75 4.89 Q 176.75 4.88 176.73 4.86 Q 176.59 4.28 176.37 3.75 Q 176.15 3.22 175.85 2.73 Q 175.56 2.24 175.21 1.83 Q 175.21 0.28 175.57 0.28 Q 175.80 0.28 175.95 0.42 Q 176.10 0.56 176.21 0.76 Q 176.33 0.96 176.35 0.97 L 176.51 0.97 Q 176.60 0.97 176.60 0.84 Q 176.60 0.53 176.25 0.24 Q 175.89 -0.05 175.54 -0.05 Q 175.09 -0.05 174.79 0.25 Q 174.49 0.54 174.38 1.01 Q 173.80 0.51 173.11 0.23 Q 172.43 -0.05 171.74 -0.05 Z M 171.76 0.28 Q 173.10 0.28 174.32 1.38 Q 174.32 1.46 174.30 1.56 Q 174.29 1.67 174.29 1.68 L 174.29 3.03 Q 174.29 5.29 173.07 5.29 Q 172.34 5.29 171.79 4.67 Q 171.24 4.04 170.96 3.17 Q 170.68 2.30 170.68 1.58 Q 170.68 1.04 170.96 0.66 Q 171.24 0.28 171.76 0.28 Z M 180.34 1.75 Q 180.24 1.75 180.17 1.83 Q 180.11 1.91 180.11 2.00 Q 180.11 2.11 180.17 2.18 Q 180.24 2.25 180.34 2.25 L 188.19 2.25 Q 188.29 2.25 188.35 2.18 Q 188.42 2.11 188.42 2.00 Q 188.42 1.91 188.35 1.83 Q 188.29 1.75 188.19 1.75 L 180.34 1.75 Z M 180.34 4.18 Q 180.24 4.18 180.17 4.26 Q 180.11 4.33 180.11 4.43 Q 180.11 4.53 180.17 4.60 Q 180.24 4.68 180.34 4.68 L 188.19 4.68 Q 188.29 4.68 188.35 4.60 Q 188.42 4.53 188.42 4.43 Q 188.42 4.33 188.35 4.26 Q 188.29 4.18 188.19 4.18 L 180.34 4.18 Z M 197.10 -3.03 L 194.02 4.15 L 193.06 3.41 L 192.81 3.66 L 194.77 5.17 L 197.65 -1.54 L 204.75 13.25 Q 204.81 13.37 204.98 13.37 Q 205.09 13.37 205.17 13.29 Q 205.25 13.21 205.25 13.10 Q 205.25 13.04 205.24 13.01 L 197.61 -2.91 Q 197.56 -3.03 197.40 -3.03 L 197.10 -3.03 Z M 208.72 -0.05 Q 207.93 -0.05 207.47 0.55 Q 207.02 1.14 207.02 1.96 Q 207.02 2.76 207.43 3.62 Q 207.85 4.48 208.55 5.05 Q 209.26 5.62 210.07 5.62 Q 210.44 5.62 210.73 5.41 Q 211.03 5.21 211.19 4.87 L 211.90 7.66 Q 211.94 7.87 211.96 7.99 Q 211.96 8.19 211.14 8.19 Q 211.02 8.19 211.02 8.36 Q 211.02 8.39 211.04 8.47 Q 211.07 8.55 211.10 8.59 Q 211.13 8.63 211.19 8.63 L 212.88 8.77 Q 213.03 8.77 213.03 8.61 L 211.23 1.42 Q 211.14 1.21 211.14 0.82 Q 211.14 0.28 211.51 0.28 Q 211.90 0.28 212.10 0.78 Q 212.30 1.28 212.44 1.93 Q 212.47 2.00 212.54 2.00 L 212.69 2.00 Q 212.74 2.00 212.77 1.96 Q 212.80 1.92 212.80 1.88 Q 212.59 1.01 212.33 0.48 Q 212.07 -0.05 211.48 -0.05 Q 211.06 -0.05 210.74 0.20 Q 210.41 0.45 210.33 0.86 Q 209.53 -0.05 208.72 -0.05 Z M 208.73 0.28 Q 209.18 0.28 209.60 0.62 Q 210.03 0.96 210.33 1.42 Q 210.35 1.43 210.35 1.47 L 211.03 4.22 Q 210.95 4.66 210.70 4.98 Q 210.45 5.29 210.04 5.29 Q 209.62 5.29 209.26 4.95 Q 208.89 4.60 208.64 4.13 Q 208.40 3.63 208.18 2.76 Q 207.95 1.89 207.95 1.41 Q 207.95 0.97 208.14 0.63 Q 208.33 0.28 208.73 0.28 Z M 213.98 -1.04 Q 213.98 -0.85 214.02 -0.61 Q 214.07 -0.38 214.12 -0.23 Q 214.17 -0.08 214.33 0.36 Q 214.50 0.80 214.50 0.82 Q 214.62 1.14 214.62 1.35 Q 214.62 1.61 214.43 1.61 Q 214.08 1.61 213.86 1.25 Q 213.63 0.90 213.53 0.45 Q 213.51 0.40 213.45 0.40 L 213.35 0.40 Q 213.28 0.40 213.28 0.48 L 213.28 0.51 Q 213.42 1.03 213.71 1.43 Q 214.00 1.83 214.44 1.83 Q 214.76 1.83 214.97 1.63 Q 215.19 1.42 215.19 1.11 Q 215.19 0.95 215.12 0.77 Q 214.94 0.32 214.85 0.05 Q 214.75 -0.21 214.66 -0.54 Q 214.58 -0.87 214.58 -1.16 Q 214.58 -1.49 214.73 -1.69 Q 214.88 -1.90 215.20 -1.90 Q 215.81 -1.90 216.30 -0.96 Q 216.45 -0.66 216.59 -0.25 Q 216.73 0.16 216.73 0.42 Q 216.73 0.68 216.64 0.83 Q 216.55 0.98 216.42 1.14 Q 216.28 1.30 216.28 1.39 Q 216.28 1.56 216.42 1.70 Q 216.56 1.84 216.73 1.84 Q 216.94 1.84 217.03 1.65 Q 217.13 1.46 217.13 1.22 Q 217.13 0.93 217.04 0.52 Q 216.96 0.12 216.81 -0.31 Q 216.67 -0.74 216.54 -0.99 Q 215.97 -2.13 215.20 -2.13 Q 214.64 -2.13 214.31 -1.86 Q 213.98 -1.58 213.98 -1.04 Z M 218.77 -2.78 Q 218.77 -2.74 218.79 -2.73 L 223.13 9.32 Q 223.16 9.39 223.22 9.43 Q 223.28 9.47 223.36 9.47 Q 223.47 9.47 223.54 9.40 Q 223.61 9.33 223.61 9.22 L 223.61 9.17 L 219.26 -2.88 Q 219.19 -3.03 219.03 -3.03 Q 218.92 -3.03 218.85 -2.96 Q 218.77 -2.88 218.77 -2.78 Z M 226.50 -0.05 Q 225.71 -0.05 225.25 0.55 Q 224.80 1.14 224.80 1.96 Q 224.80 2.76 225.21 3.62 Q 225.63 4.48 226.34 5.05 Q 227.04 5.62 227.85 5.62 Q 228.22 5.62 228.51 5.41 Q 228.81 5.21 228.97 4.87 L 229.68 7.66 Q 229.73 7.87 229.74 7.99 Q 229.74 8.19 228.93 8.19 Q 228.80 8.19 228.80 8.36 Q 228.80 8.39 228.83 8.47 Q 228.85 8.55 228.88 8.59 Q 228.91 8.63 228.97 8.63 L 230.66 8.77 Q 230.81 8.77 230.81 8.61 L 229.01 1.42 Q 228.93 1.21 228.93 0.82 Q 228.93 0.28 229.29 0.28 Q 229.68 0.28 229.88 0.78 Q 230.09 1.28 230.23 1.93 Q 230.25 2.00 230.32 2.00 L 230.48 2.00 Q 230.52 2.00 230.55 1.96 Q 230.59 1.92 230.59 1.88 Q 230.37 1.01 230.11 0.48 Q 229.85 -0.05 229.26 -0.05 Q 228.84 -0.05 228.52 0.20 Q 228.19 0.45 228.11 0.86 Q 227.31 -0.05 226.50 -0.05 Z M 226.51 0.28 Q 226.96 0.28 227.38 0.62 Q 227.81 0.96 228.11 1.42 Q 228.13 1.43 228.13 1.47 L 228.81 4.22 Q 228.74 4.66 228.49 4.98 Q 228.24 5.29 227.82 5.29 Q 227.40 5.29 227.04 4.95 Q 226.67 4.60 226.42 4.13 Q 226.18 3.63 225.96 2.76 Q 225.73 1.89 225.73 1.41 Q 225.73 0.97 225.92 0.63 Q 226.11 0.28 226.51 0.28 Z M 232.35 -2.13 Q 231.79 -2.13 231.47 -1.71 Q 231.16 -1.30 231.16 -0.73 Q 231.16 -0.17 231.45 0.43 Q 231.74 1.04 232.23 1.44 Q 232.73 1.83 233.29 1.83 Q 233.55 1.83 233.76 1.69 Q 233.96 1.55 234.08 1.31 Q 234.18 1.66 234.46 1.66 Q 234.58 1.66 234.65 1.59 Q 234.72 1.53 234.72 1.42 Q 234.72 1.39 234.72 1.38 Q 234.72 1.36 234.72 1.35 L 234.11 -1.10 Q 234.05 -1.36 234.05 -1.52 Q 234.05 -1.90 234.30 -1.90 Q 234.57 -1.90 234.71 -1.55 Q 234.86 -1.20 234.96 -0.75 Q 234.97 -0.69 235.02 -0.69 L 235.13 -0.69 Q 235.16 -0.69 235.19 -0.72 Q 235.21 -0.76 235.21 -0.78 Q 235.05 -1.39 234.87 -1.76 Q 234.69 -2.13 234.28 -2.13 Q 233.99 -2.13 233.76 -1.96 Q 233.53 -1.78 233.48 -1.50 Q 232.91 -2.13 232.35 -2.13 Z M 232.35 -1.90 Q 232.67 -1.90 232.97 -1.66 Q 233.26 -1.42 233.48 -1.11 Q 233.49 -1.10 233.49 -1.08 L 233.96 0.82 L 233.96 0.85 Q 233.91 1.16 233.74 1.38 Q 233.57 1.61 233.27 1.61 Q 232.98 1.61 232.72 1.37 Q 232.47 1.12 232.29 0.80 Q 232.12 0.45 231.97 -0.16 Q 231.81 -0.78 231.81 -1.11 Q 231.81 -1.42 231.94 -1.66 Q 232.07 -1.90 232.35 -1.90 Z M 240.94 1.75 Q 240.83 1.75 240.76 1.83 Q 240.70 1.91 240.70 2.00 Q 240.70 2.11 240.76 2.18 Q 240.83 2.25 240.94 2.25 L 248.79 2.25 Q 248.88 2.25 248.94 2.18 Q 249.01 2.11 249.01 2.00 Q 249.01 1.91 248.94 1.83 Q 248.88 1.75 248.79 1.75 L 240.94 1.75 Z M 240.94 4.18 Q 240.83 4.18 240.76 4.26 Q 240.70 4.33 240.70 4.43 Q 240.70 4.53 240.76 4.60 Q 240.83 4.68 240.94 4.68 L 248.79 4.68 Q 248.88 4.68 248.94 4.60 Q 249.01 4.53 249.01 4.43 Q 249.01 4.33 248.94 4.26 Q 248.88 4.18 248.79 4.18 L 240.94 4.18 Z M 252.53 0.09 L 252.53 0.43 Q 252.53 0.46 252.55 0.50 L 254.49 2.64 Q 254.93 3.12 255.20 3.44 Q 255.48 3.77 255.75 4.19 Q 256.02 4.61 256.17 5.05 Q 256.33 5.48 256.33 5.97 Q 256.33 6.48 256.14 6.95 Q 255.95 7.42 255.57 7.70 Q 255.20 7.98 254.67 7.98 Q 254.13 7.98 253.69 7.65 Q 253.26 7.33 253.08 6.81 Q 253.13 6.82 253.22 6.82 Q 253.50 6.82 253.69 6.63 Q 253.89 6.44 253.89 6.14 Q 253.89 5.86 253.69 5.66 Q 253.50 5.46 253.22 5.46 Q 252.92 5.46 252.72 5.66 Q 252.53 5.87 252.53 6.14 Q 252.53 6.61 252.70 7.02 Q 252.88 7.44 253.21 7.76 Q 253.55 8.08 253.96 8.25 Q 254.38 8.42 254.85 8.42 Q 255.56 8.42 256.18 8.12 Q 256.80 7.81 257.16 7.26 Q 257.52 6.71 257.52 5.97 Q 257.52 5.43 257.28 4.94 Q 257.04 4.45 256.67 4.05 Q 256.30 3.65 255.72 3.14 Q 255.14 2.64 254.96 2.47 L 253.54 1.11 L 254.74 1.11 Q 255.63 1.11 256.22 1.12 Q 256.82 1.14 256.85 1.17 Q 257.00 1.33 257.15 2.32 L 257.52 2.32 L 257.16 0.09 L 252.53 0.09 Z M 204.98 12.56 L 204.98 13.34 L 237.80 13.34 L 237.80 12.56 L 204.98 12.56 Z" fill="#0F172A"/></g><text x="386.9" y="820.9" font-family="Helvetica Neue, Helvetica, Arial, sans-serif" font-size="10.0px" fill="#475569" text-anchor="middle">random init → unstable (high grad norms); sharing video weights → stable but suboptimal; interpolated copy +</text><text x="386.9" y="834.7" font-family="Helvetica Neue, Helvetica, Arial, sans-serif" font-size="10.0px" fill="#475569" text-anchor="middle">variance-preserving scale works best.</text></g><g id="labels"><text x="190.0" y="30.0" font-family="Helvetica Neue, Helvetica, Arial, sans-serif" font-size="10.0px" fill="#94A3B8" text-anchor="start">interleaved sequence: one video frame z_t, then its τ=4 actions (video runs at 1/4 of the action rate)</text><text x="563.0" y="56.0" font-family="Helvetica Neue, Helvetica, Arial, sans-serif" font-size="9.5px" fill="#94A3B8" text-anchor="start">route by modality</text><text x="281.0" y="312.8" font-family="SF Mono, Menlo, Consolas, monospace" font-size="9.5px" fill="#475569" text-anchor="end" paint-order="stroke" stroke="#FFFFFF" stroke-width="3px">q,k,v (3072)</text><text x="661.0" y="342.3" font-family="SF Mono, Menlo, Consolas, monospace" font-size="9.5px" fill="#475569" text-anchor="start" paint-order="stroke" stroke="#FFFFFF" stroke-width="3px">q,k,v (3072)</text><text x="824.0" y="560.0" font-family="Helvetica Neue, Helvetica, Arial, sans-serif" font-size="9.5px" fill="#94A3B8" text-anchor="start">residual keeps the action</text><text x="824.0" y="573.0" font-family="Helvetica Neue, Helvetica, Arial, sans-serif" font-size="9.5px" fill="#94A3B8" text-anchor="start">stream in its 768-d space</text><text x="984.0" y="260.0" font-family="Helvetica Neue, Helvetica, Arial, sans-serif" font-size="11.5px" fill="#0F172A" text-anchor="start" font-weight="600">× 30 layers</text><text x="984.0" y="276.0" font-family="Helvetica Neue, Helvetica, Arial, sans-serif" font-size="9.5px" fill="#475569" text-anchor="start">same depth in both streams</text><text x="110.0" y="860.5" font-family="Helvetica Neue, Helvetica, Arial, sans-serif" font-size="10.0px" fill="#94A3B8" text-anchor="start">Language is NOT a third stream: a frozen UMT5 encoder is injected via cross-attention. MoT citation: Liang et al., TMLR</text><text x="110.0" y="874.5" font-family="Helvetica Neue, Helvetica, Arial, sans-serif" font-size="10.0px" fill="#94A3B8" text-anchor="start">2025 (arXiv:2411.04996).</text><text x="110.0" y="4.0" font-family="Helvetica Neue, Helvetica, Arial, sans-serif" font-size="11.5px" fill="#475569" text-anchor="start">Wan2.2-5B), action stream d=768 (~350M params, same depth 30). NOTE: this is NOT what the released code implements — see Fig 7.</text><text x="110.0" y="-12.7" font-family="Helvetica Neue, Helvetica, Arial, sans-serif" font-size="11.5px" fill="#475569" text-anchor="start">Dual-stream MoT: every non-attention parameter (QKV/O, FFN, norms) is modality-specific; only the self-attention computation is shared. Video stream d=3072 (init from</text><text x="110.0" y="-29.4" font-family="Helvetica Neue, Helvetica, Arial, sans-serif" font-size="17px" fill="#0F172A" text-anchor="start" font-weight="600">Fig 6 · Mixture-of-Transformers block — as described in the paper (§3.3)</text></g></svg>