<svg xmlns="http://www.w3.org/2000/svg" viewBox="14.0 -32.4 1050.5 581.4" width="1050" height="581"><defs><pattern id="hatch-E0F2FE-0284C7" width="5.5" height="5.5" patternUnits="userSpaceOnUse" patternTransform="rotate(45)"><rect width="5.5" height="5.5" fill="#E0F2FE"/><line x1="0" y1="0" x2="0" y2="5.5" stroke="#0284C7" stroke-width="1.4" stroke-opacity="0.55"/></pattern><pattern id="hatch-D1FAE5-059669" width="5.5" height="5.5" patternUnits="userSpaceOnUse" patternTransform="rotate(45)"><rect width="5.5" height="5.5" fill="#D1FAE5"/><line x1="0" y1="0" x2="0" y2="5.5" stroke="#059669" stroke-width="1.4" stroke-opacity="0.55"/></pattern></defs><rect x="14.0" y="-32.4" width="1050.5" height="581.4" fill="#FFFFFF"/><g id="frames"><rect x="56.2" y="60.0" width="470.0" height="179.9" rx="10" fill="#FFFFFF" stroke="#CBD5E1" stroke-width="1.2"/><text x="69.2" y="76.5" font-family="Helvetica Neue, Helvetica, Arial, sans-serif" font-size="11.0px" fill="#475569" text-anchor="start" font-weight="600">1 · Flow-matching objective (both modalities)</text><rect x="552.2" y="60.0" width="470.0" height="205.9" rx="10" fill="#FFFFFF" stroke="#CBD5E1" stroke-width="1.2"/><text x="565.2" y="76.5" font-family="Helvetica Neue, Helvetica, Arial, sans-serif" font-size="11.0px" fill="#475569" text-anchor="start" font-weight="600">2 · Independent per-frame timesteps</text><rect x="40.0" y="291.9" width="502.5" height="205.2" rx="10" fill="#FFFFFF" stroke="#CBD5E1" stroke-width="1.2"/><text x="53.0" y="308.4" font-family="Helvetica Neue, Helvetica, Arial, sans-serif" font-size="11.0px" fill="#475569" text-anchor="start" font-weight="600">3 · Teacher forcing + noisy-history augmentation</text><rect x="568.5" y="291.9" width="470.0" height="231.2" rx="10" fill="#FFFFFF" stroke="#CBD5E1" stroke-width="1.2"/><text x="581.5" y="308.4" font-family="Helvetica Neue, Helvetica, Arial, sans-serif" font-size="11.0px" fill="#475569" text-anchor="start" font-weight="600">4 · Losses + structural augmentation</text></g><g id="edges"></g><g id="nodes"><g transform="translate(187.34,109.12) scale(1,-1)"><path d="M 1.05 0.39 Q 1.29 0.20 1.73 0.20 Q 2.15 0.20 2.47 0.61 Q 2.79 1.01 2.91 1.50 L 3.53 3.89 Q 3.67 4.54 3.67 4.78 Q 3.67 5.12 3.48 5.37 Q 3.30 5.62 2.96 5.62 Q 2.53 5.62 2.16 5.35 Q 1.78 5.08 1.52 4.67 Q 1.27 4.26 1.16 3.84 Q 1.13 3.75 1.05 3.75 L 0.89 3.75 Q 0.78 3.75 0.78 3.88 L 0.78 3.92 Q 0.92 4.42 1.23 4.89 Q 1.55 5.37 2.01 5.67 Q 2.47 5.97 2.99 5.97 Q 3.48 5.97 3.88 5.70 Q 4.28 5.44 4.44 4.98 Q 4.67 5.40 5.03 5.68 Q 5.39 5.97 5.82 5.97 Q 6.11 5.97 6.41 5.86 Q 6.72 5.76 6.91 5.55 Q 7.10 5.34 7.10 5.02 Q 7.10 4.68 6.88 4.43 Q 6.66 4.19 6.32 4.19 Q 6.10 4.19 5.95 4.32 Q 5.81 4.46 5.81 4.67 Q 5.81 4.96 6.00 5.17 Q 6.20 5.39 6.47 5.43 Q 6.22 5.62 5.79 5.62 Q 5.36 5.62 5.04 5.21 Q 4.72 4.81 4.59 4.32 L 4.00 1.93 Q 3.85 1.39 3.85 1.04 Q 3.85 0.70 4.04 0.45 Q 4.24 0.20 4.56 0.20 Q 5.20 0.20 5.69 0.76 Q 6.19 1.32 6.35 1.98 Q 6.37 2.06 6.45 2.06 L 6.62 2.06 Q 6.67 2.06 6.70 2.03 Q 6.74 1.99 6.74 1.94 Q 6.74 1.93 6.72 1.90 Q 6.53 1.10 5.92 0.47 Q 5.31 -0.15 4.54 -0.15 Q 4.04 -0.15 3.64 0.11 Q 3.24 0.38 3.08 0.84 Q 2.87 0.44 2.49 0.14 Q 2.12 -0.15 1.70 -0.15 Q 1.41 -0.15 1.10 -0.05 Q 0.80 0.05 0.61 0.26 Q 0.42 0.47 0.42 0.80 Q 0.42 1.11 0.63 1.37 Q 0.86 1.63 1.19 1.63 Q 1.41 1.63 1.56 1.50 Q 1.71 1.36 1.71 1.15 Q 1.71 0.86 1.53 0.65 Q 1.34 0.44 1.05 0.39 Z M 9.47 -2.40 Q 9.05 -2.40 8.73 -2.20 Q 8.40 -2.00 8.22 -1.66 Q 8.05 -1.32 8.05 -0.91 Q 8.05 -0.47 8.24 0.02 Q 8.44 0.50 8.79 0.90 Q 9.13 1.30 9.56 1.54 Q 10.00 1.78 10.46 1.78 L 12.84 1.78 Q 12.93 1.78 13.00 1.71 Q 13.07 1.65 13.07 1.54 Q 13.07 1.40 12.97 1.30 Q 12.87 1.19 12.73 1.19 L 11.58 1.19 Q 11.85 0.79 11.85 0.21 Q 11.85 -0.27 11.67 -0.73 Q 11.48 -1.19 11.16 -1.57 Q 10.83 -1.95 10.39 -2.18 Q 9.96 -2.40 9.47 -2.40 Z M 9.48 -2.15 Q 10.00 -2.15 10.40 -1.75 Q 10.80 -1.34 11.01 -0.76 Q 11.22 -0.18 11.22 0.32 Q 11.22 0.73 11.00 0.96 Q 10.77 1.19 10.37 1.19 Q 9.82 1.19 9.44 0.82 Q 9.05 0.45 8.86 -0.10 Q 8.67 -0.66 8.67 -1.18 Q 8.67 -1.59 8.88 -1.87 Q 9.10 -2.15 9.48 -2.15 Z M 17.35 1.79 Q 17.23 1.79 17.16 1.88 Q 17.09 1.96 17.09 2.06 Q 17.09 2.17 17.16 2.25 Q 17.23 2.33 17.35 2.33 L 25.82 2.33 Q 25.92 2.33 25.99 2.25 Q 26.07 2.17 26.07 2.06 Q 26.07 1.96 25.99 1.88 Q 25.92 1.79 25.82 1.79 L 17.35 1.79 Z M 17.35 4.42 Q 17.23 4.42 17.16 4.50 Q 17.09 4.58 17.09 4.69 Q 17.09 4.79 17.16 4.87 Q 17.23 4.96 17.35 4.96 L 25.82 4.96 Q 25.92 4.96 25.99 4.87 Q 26.07 4.79 26.07 4.69 Q 26.07 4.58 25.99 4.50 Q 25.92 4.42 25.82 4.42 L 17.35 4.42 Z M 33.37 -3.35 Q 32.62 -2.75 32.08 -1.99 Q 31.54 -1.22 31.19 -0.35 Q 30.84 0.52 30.67 1.47 Q 30.50 2.42 30.50 3.38 Q 30.50 4.34 30.67 5.29 Q 30.84 6.24 31.20 7.12 Q 31.55 8.00 32.10 8.76 Q 32.64 9.53 33.37 10.10 Q 33.37 10.12 33.44 10.12 L 33.57 10.12 Q 33.61 10.12 33.64 10.09 Q 33.67 10.05 33.67 10.01 Q 33.67 9.95 33.65 9.92 Q 32.99 9.27 32.55 8.54 Q 32.11 7.80 31.84 6.96 Q 31.57 6.13 31.46 5.24 Q 31.34 4.34 31.34 3.38 Q 31.34 -0.92 33.63 -3.15 Q 33.67 -3.18 33.67 -3.26 Q 33.67 -3.29 33.64 -3.33 Q 33.60 -3.38 33.57 -3.38 L 33.44 -3.38 Q 33.37 -3.38 33.37 -3.35 Z M 35.68 0.00 L 35.68 0.47 Q 37.37 0.47 37.37 0.90 L 37.37 7.99 Q 36.67 7.65 35.60 7.65 L 35.60 8.13 Q 37.26 8.13 38.10 8.99 L 38.29 8.99 Q 38.34 8.99 38.38 8.95 Q 38.42 8.92 38.42 8.87 L 38.42 0.90 Q 38.42 0.47 40.11 0.47 L 40.11 0.00 L 35.68 0.00 Z M 44.93 3.11 Q 44.82 3.11 44.74 3.19 Q 44.67 3.28 44.67 3.38 Q 44.67 3.47 44.74 3.56 Q 44.82 3.65 44.93 3.65 L 52.67 3.65 Q 52.78 3.65 52.85 3.56 Q 52.92 3.47 52.92 3.38 Q 52.92 3.28 52.85 3.19 Q 52.78 3.11 52.67 3.11 L 44.93 3.11 Z M 58.93 -0.15 Q 58.33 -0.15 57.87 0.14 Q 57.40 0.42 57.15 0.91 Q 56.90 1.40 56.90 1.98 Q 56.90 2.61 57.18 3.30 Q 57.46 4.00 57.95 4.57 Q 58.45 5.14 59.06 5.48 Q 59.68 5.82 60.34 5.82 L 63.74 5.82 Q 63.88 5.82 63.97 5.73 Q 64.07 5.64 64.07 5.48 Q 64.07 5.28 63.93 5.13 Q 63.79 4.98 63.59 4.98 L 61.95 4.98 Q 62.33 4.40 62.33 3.58 Q 62.33 2.90 62.07 2.24 Q 61.81 1.58 61.34 1.04 Q 60.87 0.49 60.25 0.17 Q 59.62 -0.15 58.93 -0.15 Z M 58.95 0.20 Q 59.68 0.20 60.25 0.78 Q 60.83 1.36 61.13 2.19 Q 61.43 3.02 61.43 3.74 Q 61.43 4.32 61.11 4.65 Q 60.79 4.98 60.22 4.98 Q 59.43 4.98 58.88 4.46 Q 58.33 3.93 58.06 3.13 Q 57.79 2.33 57.79 1.59 Q 57.79 1.01 58.09 0.61 Q 58.40 0.20 58.95 0.20 Z M 64.99 -3.38 Q 64.87 -3.38 64.87 -3.26 Q 64.87 -3.20 64.90 -3.17 Q 67.21 -0.92 67.21 3.38 Q 67.21 7.67 64.92 9.90 Q 64.87 9.93 64.87 10.01 Q 64.87 10.05 64.91 10.09 Q 64.94 10.12 64.99 10.12 L 65.12 10.12 Q 65.16 10.12 65.18 10.10 Q 66.15 9.33 66.80 8.24 Q 67.44 7.15 67.74 5.91 Q 68.04 4.67 68.04 3.38 Q 68.04 2.42 67.88 1.49 Q 67.72 0.57 67.37 -0.33 Q 67.01 -1.23 66.47 -1.99 Q 65.93 -2.75 65.18 -3.35 Q 65.16 -3.38 65.12 -3.38 L 64.99 -3.38 Z M 72.38 0.39 Q 72.62 0.20 73.06 0.20 Q 73.48 0.20 73.80 0.61 Q 74.12 1.01 74.24 1.50 L 74.86 3.89 Q 75.00 4.54 75.00 4.78 Q 75.00 5.12 74.81 5.37 Q 74.63 5.62 74.29 5.62 Q 73.86 5.62 73.49 5.35 Q 73.11 5.08 72.85 4.67 Q 72.60 4.26 72.49 3.84 Q 72.46 3.75 72.38 3.75 L 72.22 3.75 Q 72.11 3.75 72.11 3.88 L 72.11 3.92 Q 72.25 4.42 72.56 4.89 Q 72.88 5.37 73.34 5.67 Q 73.80 5.97 74.32 5.97 Q 74.81 5.97 75.21 5.70 Q 75.61 5.44 75.77 4.98 Q 76.00 5.40 76.36 5.68 Q 76.72 5.97 77.15 5.97 Q 77.44 5.97 77.74 5.86 Q 78.05 5.76 78.24 5.55 Q 78.43 5.34 78.43 5.02 Q 78.43 4.68 78.21 4.43 Q 77.99 4.19 77.65 4.19 Q 77.43 4.19 77.28 4.32 Q 77.14 4.46 77.14 4.67 Q 77.14 4.96 77.33 5.17 Q 77.53 5.39 77.80 5.43 Q 77.55 5.62 77.12 5.62 Q 76.69 5.62 76.37 5.21 Q 76.05 4.81 75.92 4.32 L 75.32 1.93 Q 75.18 1.39 75.18 1.04 Q 75.18 0.70 75.37 0.45 Q 75.57 0.20 75.89 0.20 Q 76.53 0.20 77.02 0.76 Q 77.52 1.32 77.68 1.98 Q 77.70 2.06 77.78 2.06 L 77.95 2.06 Q 78.00 2.06 78.03 2.03 Q 78.07 1.99 78.07 1.94 Q 78.07 1.93 78.05 1.90 Q 77.86 1.10 77.25 0.47 Q 76.64 -0.15 75.86 -0.15 Q 75.37 -0.15 74.97 0.11 Q 74.57 0.38 74.41 0.84 Q 74.20 0.44 73.82 0.14 Q 73.45 -0.15 73.03 -0.15 Q 72.74 -0.15 72.43 -0.05 Q 72.13 0.05 71.94 0.26 Q 71.75 0.47 71.75 0.80 Q 71.75 1.11 71.96 1.37 Q 72.19 1.63 72.52 1.63 Q 72.74 1.63 72.89 1.50 Q 73.04 1.36 73.04 1.15 Q 73.04 0.86 72.85 0.65 Q 72.67 0.44 72.38 0.39 Z M 81.40 -2.50 Q 80.24 -2.50 79.82 -1.55 Q 79.40 -0.60 79.40 0.72 Q 79.40 1.54 79.55 2.26 Q 79.70 2.99 80.15 3.49 Q 80.59 4.00 81.40 4.00 Q 82.02 4.00 82.42 3.69 Q 82.81 3.39 83.02 2.91 Q 83.23 2.42 83.31 1.87 Q 83.38 1.32 83.38 0.72 Q 83.38 -0.09 83.23 -0.80 Q 83.08 -1.51 82.64 -2.01 Q 82.21 -2.50 81.40 -2.50 Z M 81.40 -2.26 Q 81.92 -2.26 82.18 -1.72 Q 82.44 -1.18 82.50 -0.52 Q 82.56 0.13 82.56 0.87 Q 82.56 1.58 82.50 2.18 Q 82.44 2.78 82.18 3.27 Q 81.93 3.75 81.40 3.75 Q 80.86 3.75 80.61 3.26 Q 80.35 2.77 80.29 2.18 Q 80.23 1.58 80.23 0.87 Q 80.23 0.34 80.25 -0.12 Q 80.28 -0.59 80.39 -1.09 Q 80.50 -1.58 80.75 -1.92 Q 80.99 -2.26 81.40 -2.26 Z M 88.01 3.11 Q 87.89 3.11 87.82 3.19 Q 87.75 3.28 87.75 3.38 Q 87.75 3.47 87.82 3.56 Q 87.89 3.65 88.01 3.65 L 91.98 3.65 L 91.98 7.63 Q 91.98 7.73 92.05 7.80 Q 92.13 7.87 92.25 7.87 Q 92.35 7.87 92.43 7.80 Q 92.52 7.73 92.52 7.63 L 92.52 3.65 L 96.48 3.65 Q 96.58 3.65 96.65 3.56 Q 96.73 3.47 96.73 3.38 Q 96.73 3.28 96.65 3.19 Q 96.58 3.11 96.48 3.11 L 92.52 3.11 L 92.52 -0.88 Q 92.52 -0.98 92.43 -1.05 Q 92.35 -1.12 92.25 -1.12 Q 92.13 -1.12 92.05 -1.05 Q 91.98 -0.98 91.98 -0.88 L 91.98 3.11 L 88.01 3.11 Z M 102.37 -0.15 Q 101.78 -0.15 101.31 0.14 Q 100.85 0.42 100.59 0.91 Q 100.34 1.40 100.34 1.98 Q 100.34 2.61 100.62 3.30 Q 100.90 4.00 101.40 4.57 Q 101.89 5.14 102.51 5.48 Q 103.13 5.82 103.78 5.82 L 107.18 5.82 Q 107.32 5.82 107.42 5.73 Q 107.52 5.64 107.52 5.48 Q 107.52 5.28 107.37 5.13 Q 107.23 4.98 107.03 4.98 L 105.39 4.98 Q 105.78 4.40 105.78 3.58 Q 105.78 2.90 105.51 2.24 Q 105.25 1.58 104.78 1.04 Q 104.31 0.49 103.69 0.17 Q 103.07 -0.15 102.37 -0.15 Z M 102.39 0.20 Q 103.13 0.20 103.70 0.78 Q 104.27 1.36 104.57 2.19 Q 104.87 3.02 104.87 3.74 Q 104.87 4.32 104.55 4.65 Q 104.23 4.98 103.66 4.98 Q 102.87 4.98 102.32 4.46 Q 101.78 3.93 101.50 3.13 Q 101.23 2.33 101.23 1.59 Q 101.23 1.01 101.53 0.61 Q 101.84 0.20 102.39 0.20 Z M 109.89 1.40 Q 109.89 1.77 110.05 2.12 Q 110.22 2.47 110.48 2.75 Q 110.74 3.02 111.09 3.24 Q 110.57 3.60 110.57 4.16 Q 110.57 4.76 111.07 5.21 Q 111.58 5.66 112.30 5.89 Q 113.02 6.12 113.60 6.12 Q 113.85 6.12 114.26 6.01 Q 114.67 5.90 114.98 5.72 Q 115.29 5.54 115.29 5.33 Q 115.29 5.17 115.17 5.05 Q 115.05 4.93 114.90 4.93 Q 114.84 4.93 114.60 5.07 Q 114.36 5.21 114.09 5.33 Q 113.82 5.44 113.50 5.44 Q 113.01 5.44 112.43 5.32 Q 111.85 5.21 111.40 4.92 Q 110.96 4.63 110.96 4.17 Q 110.96 3.73 111.46 3.43 Q 112.03 3.69 112.62 3.69 Q 113.68 3.69 113.68 3.31 Q 113.68 3.01 113.32 2.93 Q 112.96 2.85 112.49 2.85 Q 111.86 2.85 111.45 3.04 Q 111.00 2.80 110.65 2.37 Q 110.30 1.94 110.30 1.48 Q 110.30 1.05 110.60 0.80 Q 110.89 0.56 111.32 0.47 Q 111.75 0.38 112.17 0.38 Q 112.92 0.38 113.49 0.54 Q 114.07 0.70 114.32 1.21 Q 114.36 1.30 114.48 1.30 Q 114.62 1.25 114.62 1.12 Q 114.62 1.11 114.58 0.99 Q 114.36 0.56 113.96 0.27 Q 113.57 -0.02 113.07 -0.16 Q 112.58 -0.30 112.07 -0.30 Q 111.23 -0.30 110.56 0.15 Q 109.89 0.60 109.89 1.40 Z M 111.98 3.24 Q 112.21 3.20 112.52 3.20 Q 113.11 3.20 113.26 3.28 Q 113.07 3.33 112.61 3.33 Q 112.27 3.33 111.98 3.24 Z M 117.16 -2.43 Q 117.16 -2.37 117.21 -2.32 Q 117.70 -1.85 117.97 -1.24 Q 118.24 -0.63 118.24 0.05 L 118.24 0.22 Q 118.02 0.00 117.70 0.00 Q 117.39 0.00 117.17 0.22 Q 116.95 0.43 116.95 0.74 Q 116.95 1.06 117.17 1.27 Q 117.39 1.48 117.70 1.48 Q 118.18 1.48 118.38 1.04 Q 118.59 0.59 118.59 0.05 Q 118.59 -0.70 118.29 -1.37 Q 117.99 -2.05 117.44 -2.59 Q 117.39 -2.62 117.36 -2.62 Q 117.29 -2.62 117.22 -2.56 Q 117.16 -2.50 117.16 -2.43 Z M 147.07 1.52 Q 147.07 1.83 147.15 2.19 Q 147.22 2.55 147.29 2.78 Q 147.37 3.02 147.62 3.70 Q 147.88 4.38 147.89 4.40 Q 148.06 4.90 148.06 5.21 Q 148.06 5.62 147.77 5.62 Q 147.23 5.62 146.89 5.07 Q 146.54 4.52 146.38 3.84 Q 146.35 3.75 146.26 3.75 L 146.11 3.75 Q 145.99 3.75 145.99 3.88 L 145.99 3.92 Q 146.21 4.72 146.66 5.34 Q 147.11 5.97 147.79 5.97 Q 148.27 5.97 148.61 5.65 Q 148.94 5.33 148.94 4.85 Q 148.94 4.59 148.83 4.32 Q 148.57 3.63 148.41 3.22 Q 148.26 2.81 148.13 2.30 Q 148.00 1.79 148.00 1.35 Q 148.00 0.84 148.24 0.52 Q 148.47 0.20 148.97 0.20 Q 149.90 0.20 150.65 1.65 Q 150.89 2.12 151.10 2.75 Q 151.31 3.38 151.31 3.78 Q 151.31 4.19 151.18 4.41 Q 151.05 4.64 150.84 4.89 Q 150.63 5.13 150.63 5.28 Q 150.63 5.54 150.85 5.76 Q 151.06 5.98 151.33 5.98 Q 151.65 5.98 151.79 5.68 Q 151.93 5.39 151.93 5.01 Q 151.93 4.56 151.81 3.94 Q 151.68 3.32 151.45 2.66 Q 151.22 1.99 151.03 1.61 Q 150.14 -0.15 148.95 -0.15 Q 148.10 -0.15 147.59 0.27 Q 147.07 0.70 147.07 1.52 Z M 153.91 6.37 Q 153.80 6.37 153.72 6.45 Q 153.63 6.54 153.63 6.65 Q 153.63 6.81 153.76 6.88 L 155.13 7.53 L 153.76 8.17 Q 153.63 8.23 153.63 8.40 Q 153.63 8.50 153.72 8.59 Q 153.80 8.68 153.91 8.68 Q 153.98 8.68 154.04 8.64 L 155.25 7.75 L 155.11 9.30 Q 155.11 9.41 155.19 9.48 Q 155.27 9.56 155.38 9.56 Q 155.49 9.56 155.57 9.49 Q 155.64 9.42 155.64 9.31 L 155.64 9.30 L 155.50 7.75 L 156.71 8.64 Q 156.77 8.68 156.84 8.68 Q 156.96 8.68 157.04 8.59 Q 157.12 8.50 157.12 8.40 Q 157.12 8.23 156.99 8.17 L 155.63 7.53 L 156.99 6.88 Q 157.12 6.81 157.12 6.65 Q 157.12 6.54 157.04 6.45 Q 156.96 6.37 156.84 6.37 Q 156.77 6.37 156.71 6.41 L 155.50 7.29 L 155.64 5.76 L 155.64 5.73 Q 155.64 5.63 155.56 5.56 Q 155.48 5.49 155.38 5.49 Q 155.27 5.49 155.19 5.56 Q 155.11 5.64 155.11 5.75 L 155.25 7.29 L 154.04 6.41 Q 153.98 6.37 153.91 6.37 Z M 161.99 1.79 Q 161.88 1.79 161.80 1.88 Q 161.73 1.96 161.73 2.06 Q 161.73 2.17 161.80 2.25 Q 161.88 2.33 161.99 2.33 L 170.47 2.33 Q 170.57 2.33 170.64 2.25 Q 170.71 2.17 170.71 2.06 Q 170.71 1.96 170.64 1.88 Q 170.57 1.79 170.47 1.79 L 161.99 1.79 Z M 161.99 4.42 Q 161.88 4.42 161.80 4.50 Q 161.73 4.58 161.73 4.69 Q 161.73 4.79 161.80 4.87 Q 161.88 4.96 161.99 4.96 L 170.47 4.96 Q 170.57 4.96 170.64 4.87 Q 170.71 4.79 170.71 4.69 Q 170.71 4.58 170.64 4.50 Q 170.57 4.42 170.47 4.42 L 161.99 4.42 Z M 174.19 1.40 Q 174.19 1.77 174.36 2.12 Q 174.52 2.47 174.78 2.75 Q 175.04 3.02 175.39 3.24 Q 174.87 3.60 174.87 4.16 Q 174.87 4.76 175.37 5.21 Q 175.88 5.66 176.60 5.89 Q 177.33 6.12 177.91 6.12 Q 178.15 6.12 178.56 6.01 Q 178.97 5.90 179.28 5.72 Q 179.59 5.54 179.59 5.33 Q 179.59 5.17 179.47 5.05 Q 179.35 4.93 179.20 4.93 Q 179.15 4.93 178.91 5.07 Q 178.66 5.21 178.39 5.33 Q 178.12 5.44 177.80 5.44 Q 177.31 5.44 176.73 5.32 Q 176.15 5.21 175.70 4.92 Q 175.26 4.63 175.26 4.17 Q 175.26 3.73 175.76 3.43 Q 176.33 3.69 176.92 3.69 Q 177.98 3.69 177.98 3.31 Q 177.98 3.01 177.62 2.93 Q 177.26 2.85 176.79 2.85 Q 176.16 2.85 175.75 3.04 Q 175.30 2.80 174.95 2.37 Q 174.60 1.94 174.60 1.48 Q 174.60 1.05 174.90 0.80 Q 175.19 0.56 175.62 0.47 Q 176.05 0.38 176.48 0.38 Q 177.22 0.38 177.79 0.54 Q 178.37 0.70 178.62 1.21 Q 178.66 1.30 178.78 1.30 Q 178.92 1.25 178.92 1.12 Q 178.92 1.11 178.88 0.99 Q 178.66 0.56 178.27 0.27 Q 177.87 -0.02 177.38 -0.16 Q 176.88 -0.30 176.37 -0.30 Q 175.53 -0.30 174.86 0.15 Q 174.19 0.60 174.19 1.40 Z M 176.28 3.24 Q 176.52 3.20 176.82 3.20 Q 177.41 3.20 177.56 3.28 Q 177.37 3.33 176.91 3.33 Q 176.57 3.33 176.28 3.24 Z M 183.87 3.11 Q 183.76 3.11 183.68 3.19 Q 183.61 3.28 183.61 3.38 Q 183.61 3.47 183.68 3.56 Q 183.76 3.65 183.87 3.65 L 191.61 3.65 Q 191.72 3.65 191.79 3.56 Q 191.86 3.47 191.86 3.38 Q 191.86 3.28 191.79 3.19 Q 191.72 3.11 191.61 3.11 L 183.87 3.11 Z M 196.40 0.39 Q 196.64 0.20 197.08 0.20 Q 197.50 0.20 197.82 0.61 Q 198.14 1.01 198.26 1.50 L 198.88 3.89 Q 199.02 4.54 199.02 4.78 Q 199.02 5.12 198.83 5.37 Q 198.65 5.62 198.31 5.62 Q 197.88 5.62 197.50 5.35 Q 197.13 5.08 196.87 4.67 Q 196.61 4.26 196.51 3.84 Q 196.48 3.75 196.40 3.75 L 196.24 3.75 Q 196.13 3.75 196.13 3.88 L 196.13 3.92 Q 196.26 4.42 196.58 4.89 Q 196.90 5.37 197.35 5.67 Q 197.81 5.97 198.34 5.97 Q 198.83 5.97 199.23 5.70 Q 199.63 5.44 199.79 4.98 Q 200.02 5.40 200.38 5.68 Q 200.74 5.97 201.17 5.97 Q 201.46 5.97 201.76 5.86 Q 202.07 5.76 202.26 5.55 Q 202.45 5.34 202.45 5.02 Q 202.45 4.68 202.23 4.43 Q 202.01 4.19 201.66 4.19 Q 201.45 4.19 201.30 4.32 Q 201.16 4.46 201.16 4.67 Q 201.16 4.96 201.35 5.17 Q 201.55 5.39 201.82 5.43 Q 201.57 5.62 201.14 5.62 Q 200.71 5.62 200.39 5.21 Q 200.07 4.81 199.94 4.32 L 199.34 1.93 Q 199.20 1.39 199.20 1.04 Q 199.20 0.70 199.39 0.45 Q 199.59 0.20 199.91 0.20 Q 200.54 0.20 201.04 0.76 Q 201.54 1.32 201.70 1.98 Q 201.72 2.06 201.80 2.06 L 201.97 2.06 Q 202.02 2.06 202.05 2.03 Q 202.09 1.99 202.09 1.94 Q 202.09 1.93 202.07 1.90 Q 201.88 1.10 201.27 0.47 Q 200.66 -0.15 199.88 -0.15 Q 199.39 -0.15 198.99 0.11 Q 198.59 0.38 198.43 0.84 Q 198.22 0.44 197.84 0.14 Q 197.47 -0.15 197.05 -0.15 Q 196.76 -0.15 196.45 -0.05 Q 196.15 0.05 195.95 0.26 Q 195.76 0.47 195.76 0.80 Q 195.76 1.11 195.98 1.37 Q 196.21 1.63 196.54 1.63 Q 196.76 1.63 196.91 1.50 Q 197.06 1.36 197.06 1.15 Q 197.06 0.86 196.87 0.65 Q 196.69 0.44 196.40 0.39 Z M 205.42 -2.50 Q 204.26 -2.50 203.84 -1.55 Q 203.42 -0.60 203.42 0.72 Q 203.42 1.54 203.57 2.26 Q 203.72 2.99 204.17 3.49 Q 204.61 4.00 205.42 4.00 Q 206.04 4.00 206.44 3.69 Q 206.83 3.39 207.04 2.91 Q 207.25 2.42 207.33 1.87 Q 207.40 1.32 207.40 0.72 Q 207.40 -0.09 207.25 -0.80 Q 207.10 -1.51 206.66 -2.01 Q 206.22 -2.50 205.42 -2.50 Z M 205.42 -2.26 Q 205.94 -2.26 206.20 -1.72 Q 206.46 -1.18 206.52 -0.52 Q 206.58 0.13 206.58 0.87 Q 206.58 1.58 206.52 2.18 Q 206.46 2.78 206.20 3.27 Q 205.95 3.75 205.42 3.75 Q 204.88 3.75 204.62 3.26 Q 204.37 2.77 204.31 2.18 Q 204.24 1.58 204.24 0.87 Q 204.24 0.34 204.27 -0.12 Q 204.30 -0.59 204.41 -1.09 Q 204.52 -1.58 204.76 -1.92 Q 205.01 -2.26 205.42 -2.26 Z" fill="#0F172A"/></g><text x="291.2" y="135.0" font-family="Helvetica Neue, Helvetica, Arial, sans-serif" font-size="10.5px" fill="#475569" text-anchor="middle">the model predicts the velocity v(x_σ, σ); one Euler step is x ← x + v·Δσ</text><text x="291.2" y="149.5" font-family="Helvetica Neue, Helvetica, Arial, sans-serif" font-size="10.5px" fill="#475569" text-anchor="middle">(scheduler.py:88-113).</text><g transform="translate(215.77,176.95) scale(1,-1)"><path d="M 0.50 -0.28 Q 0.42 -0.28 0.42 -0.19 Q 0.42 -0.14 0.46 -0.07 Q 0.56 0.09 0.76 0.29 Q 0.96 0.48 1.04 0.59 Q 1.38 1.09 1.58 1.47 Q 1.93 2.18 2.17 3.11 Q 2.54 4.58 2.84 5.49 Q 3.15 6.41 3.63 7.23 Q 4.01 7.86 4.57 8.38 Q 5.13 8.91 5.82 9.22 Q 6.50 9.53 7.21 9.53 L 7.29 9.53 Q 7.64 9.53 7.88 9.36 Q 8.11 9.18 8.24 8.89 Q 8.36 8.60 8.36 8.26 Q 8.36 7.75 8.19 7.55 Q 7.73 7.04 7.09 6.96 L 7.01 6.96 Q 6.93 6.96 6.93 7.05 Q 6.93 7.06 6.96 7.25 Q 6.99 7.44 6.99 7.57 Q 6.99 8.01 6.78 8.33 Q 6.56 8.66 6.13 8.66 Q 5.63 8.66 5.63 8.57 Q 5.26 8.31 4.92 7.72 Q 4.58 7.12 4.33 6.43 Q 4.07 5.73 3.87 5.03 Q 3.68 4.33 3.53 3.71 Q 3.36 3.05 3.10 2.44 Q 2.84 1.83 2.48 1.29 Q 2.64 1.34 2.88 1.34 L 2.96 1.34 Q 3.43 1.34 3.90 1.24 Q 4.36 1.15 5.02 0.96 Q 5.67 0.78 6.10 0.69 Q 6.54 0.60 7.02 0.59 Q 7.17 0.59 7.26 0.73 Q 7.35 0.86 7.44 1.09 Q 7.53 1.33 7.59 1.40 Q 7.79 1.63 8.09 1.80 Q 8.38 1.96 8.68 2.00 L 8.76 2.00 Q 8.80 2.00 8.83 1.97 Q 8.85 1.95 8.85 1.91 Q 8.85 1.91 8.84 1.87 Q 8.71 1.34 8.22 0.83 Q 7.73 0.32 7.11 0.02 Q 6.49 -0.28 5.97 -0.28 L 5.89 -0.28 Q 5.42 -0.28 4.97 -0.20 Q 4.52 -0.11 3.87 0.07 Q 3.22 0.26 2.75 0.36 Q 2.29 0.46 1.82 0.46 Q 1.22 -0.20 0.58 -0.28 L 0.50 -0.28 Z M 12.69 1.81 Q 12.57 1.81 12.50 1.89 Q 12.43 1.98 12.43 2.08 Q 12.43 2.19 12.50 2.27 Q 12.57 2.35 12.69 2.35 L 21.16 2.35 Q 21.26 2.35 21.33 2.27 Q 21.41 2.19 21.41 2.08 Q 21.41 1.98 21.33 1.89 Q 21.26 1.81 21.16 1.81 L 12.69 1.81 Z M 12.69 4.43 Q 12.57 4.43 12.50 4.51 Q 12.43 4.59 12.43 4.70 Q 12.43 4.80 12.50 4.89 Q 12.57 4.97 12.69 4.97 L 21.16 4.97 Q 21.26 4.97 21.33 4.89 Q 21.41 4.80 21.41 4.70 Q 21.41 4.59 21.33 4.51 Q 21.26 4.43 21.16 4.43 L 12.69 4.43 Z M 26.32 -3.12 L 26.32 9.90 Q 26.32 10.00 26.41 10.07 Q 26.49 10.14 26.59 10.14 Q 26.70 10.14 26.78 10.07 Q 26.86 10.00 26.86 9.90 L 26.86 -3.12 Q 26.86 -3.22 26.78 -3.29 Q 26.70 -3.36 26.59 -3.36 Q 26.49 -3.36 26.41 -3.29 Q 26.32 -3.22 26.32 -3.12 Z M 28.95 -3.12 L 28.95 9.90 Q 28.95 10.00 29.02 10.07 Q 29.10 10.14 29.22 10.14 Q 29.32 10.14 29.40 10.07 Q 29.49 10.00 29.49 9.90 L 29.49 -3.12 Q 29.49 -3.22 29.40 -3.29 Q 29.32 -3.36 29.22 -3.36 Q 29.10 -3.36 29.02 -3.29 Q 28.95 -3.22 28.95 -3.12 Z M 32.72 1.54 Q 32.72 1.84 32.79 2.20 Q 32.87 2.57 32.94 2.80 Q 33.01 3.03 33.27 3.71 Q 33.53 4.39 33.53 4.42 Q 33.71 4.91 33.71 5.23 Q 33.71 5.63 33.42 5.63 Q 32.88 5.63 32.53 5.08 Q 32.19 4.53 32.02 3.85 Q 32.00 3.77 31.91 3.77 L 31.75 3.77 Q 31.64 3.77 31.64 3.89 L 31.64 3.93 Q 31.86 4.74 32.31 5.36 Q 32.76 5.98 33.44 5.98 Q 33.92 5.98 34.26 5.66 Q 34.59 5.35 34.59 4.86 Q 34.59 4.61 34.48 4.33 Q 34.21 3.65 34.06 3.23 Q 33.91 2.82 33.78 2.31 Q 33.65 1.80 33.65 1.37 Q 33.65 0.86 33.89 0.54 Q 34.12 0.22 34.61 0.22 Q 35.55 0.22 36.30 1.66 Q 36.54 2.13 36.75 2.76 Q 36.96 3.40 36.96 3.79 Q 36.96 4.20 36.83 4.43 Q 36.70 4.66 36.49 4.90 Q 36.28 5.15 36.28 5.29 Q 36.28 5.56 36.49 5.78 Q 36.71 5.99 36.97 5.99 Q 37.30 5.99 37.44 5.70 Q 37.58 5.40 37.58 5.02 Q 37.58 4.58 37.45 3.96 Q 37.32 3.34 37.10 2.67 Q 36.87 2.01 36.68 1.62 Q 35.79 -0.14 34.60 -0.14 Q 33.75 -0.14 33.24 0.29 Q 32.72 0.71 32.72 1.54 Z M 39.33 -2.39 Q 38.91 -2.39 38.65 -2.07 Q 38.39 -1.76 38.29 -1.32 Q 38.19 -0.87 38.19 -0.44 L 38.19 -0.43 Q 38.19 0.04 38.28 0.55 Q 38.37 1.05 38.54 1.56 Q 38.71 2.07 38.91 2.46 Q 39.05 2.74 39.27 3.08 Q 39.49 3.42 39.76 3.72 Q 40.03 4.02 40.34 4.20 Q 40.65 4.38 40.97 4.38 L 40.98 4.38 Q 41.32 4.38 41.55 4.19 Q 41.77 4.00 41.90 3.71 Q 42.03 3.41 42.08 3.08 Q 42.13 2.74 42.13 2.44 Q 42.13 1.72 41.94 0.97 Q 41.74 0.23 41.40 -0.47 Q 41.27 -0.73 41.04 -1.09 Q 40.82 -1.44 40.56 -1.72 Q 40.30 -2.00 39.99 -2.20 Q 39.67 -2.39 39.34 -2.39 L 39.33 -2.39 Z M 39.35 -2.14 Q 39.67 -2.14 39.95 -1.80 Q 40.24 -1.47 40.46 -0.99 Q 40.68 -0.51 40.84 -0.01 Q 41.01 0.49 41.08 0.84 L 39.15 0.84 Q 39.01 0.24 38.92 -0.19 Q 38.84 -0.62 38.84 -1.03 Q 38.84 -2.14 39.35 -2.14 Z M 39.23 1.17 L 41.17 1.17 Q 41.27 1.59 41.33 1.87 Q 41.39 2.14 41.43 2.45 Q 41.47 2.76 41.47 3.03 Q 41.47 4.14 40.97 4.14 Q 40.37 4.14 39.93 3.17 Q 39.50 2.20 39.23 1.17 Z M 46.85 3.12 Q 46.74 3.12 46.67 3.20 Q 46.60 3.29 46.60 3.39 Q 46.60 3.49 46.67 3.57 Q 46.74 3.66 46.85 3.66 L 54.60 3.66 Q 54.71 3.66 54.78 3.57 Q 54.85 3.49 54.85 3.39 Q 54.85 3.29 54.78 3.20 Q 54.71 3.12 54.60 3.12 L 46.85 3.12 Z M 59.78 1.54 Q 59.78 1.84 59.85 2.20 Q 59.92 2.57 60.00 2.80 Q 60.07 3.03 60.33 3.71 Q 60.58 4.39 60.59 4.42 Q 60.77 4.91 60.77 5.23 Q 60.77 5.63 60.47 5.63 Q 59.94 5.63 59.59 5.08 Q 59.24 4.53 59.08 3.85 Q 59.05 3.77 58.97 3.77 L 58.81 3.77 Q 58.70 3.77 58.70 3.89 L 58.70 3.93 Q 58.92 4.74 59.36 5.36 Q 59.81 5.98 60.50 5.98 Q 60.98 5.98 61.31 5.66 Q 61.65 5.35 61.65 4.86 Q 61.65 4.61 61.53 4.33 Q 61.27 3.65 61.12 3.23 Q 60.97 2.82 60.84 2.31 Q 60.71 1.80 60.71 1.37 Q 60.71 0.86 60.94 0.54 Q 61.18 0.22 61.67 0.22 Q 62.61 0.22 63.36 1.66 Q 63.60 2.13 63.81 2.76 Q 64.02 3.40 64.02 3.79 Q 64.02 4.20 63.89 4.43 Q 63.75 4.66 63.54 4.90 Q 63.33 5.15 63.33 5.29 Q 63.33 5.56 63.55 5.78 Q 63.77 5.99 64.03 5.99 Q 64.35 5.99 64.49 5.70 Q 64.64 5.40 64.64 5.02 Q 64.64 4.58 64.51 3.96 Q 64.38 3.34 64.15 2.67 Q 63.93 2.01 63.73 1.62 Q 62.85 -0.14 61.66 -0.14 Q 60.81 -0.14 60.29 0.29 Q 59.78 0.71 59.78 1.54 Z M 66.61 6.38 Q 66.51 6.38 66.42 6.47 Q 66.34 6.56 66.34 6.67 Q 66.34 6.83 66.47 6.89 L 67.83 7.54 L 66.47 8.18 Q 66.34 8.24 66.34 8.41 Q 66.34 8.52 66.42 8.61 Q 66.51 8.70 66.61 8.70 Q 66.68 8.70 66.74 8.65 L 67.95 7.77 L 67.81 9.31 Q 67.81 9.43 67.89 9.50 Q 67.97 9.57 68.08 9.57 Q 68.19 9.57 68.27 9.50 Q 68.35 9.43 68.35 9.33 L 68.35 9.31 L 68.21 7.77 L 69.42 8.65 Q 69.48 8.70 69.55 8.70 Q 69.66 8.70 69.74 8.61 Q 69.82 8.52 69.82 8.41 Q 69.82 8.24 69.69 8.18 L 68.33 7.54 L 69.69 6.89 Q 69.82 6.83 69.82 6.67 Q 69.82 6.56 69.74 6.47 Q 69.66 6.38 69.55 6.38 Q 69.48 6.38 69.42 6.43 L 68.21 7.31 L 68.35 5.78 L 68.35 5.75 Q 68.35 5.64 68.27 5.57 Q 68.19 5.50 68.08 5.50 Q 67.97 5.50 67.89 5.58 Q 67.81 5.66 67.81 5.77 L 67.95 7.31 L 66.74 6.43 Q 66.68 6.38 66.61 6.38 Z M 73.10 -3.12 L 73.10 9.90 Q 73.10 10.00 73.18 10.07 Q 73.27 10.14 73.37 10.14 Q 73.48 10.14 73.56 10.07 Q 73.64 10.00 73.64 9.90 L 73.64 -3.12 Q 73.64 -3.22 73.56 -3.29 Q 73.48 -3.36 73.37 -3.36 Q 73.27 -3.36 73.18 -3.29 Q 73.10 -3.22 73.10 -3.12 Z M 75.72 -3.12 L 75.72 9.90 Q 75.72 10.00 75.80 10.07 Q 75.88 10.14 75.99 10.14 Q 76.09 10.14 76.18 10.07 Q 76.26 10.00 76.26 9.90 L 76.26 -3.12 Q 76.26 -3.22 76.18 -3.29 Q 76.09 -3.36 75.99 -3.36 Q 75.88 -3.36 75.80 -3.29 Q 75.72 -3.22 75.72 -3.12 Z M 79.13 5.18 L 79.13 5.43 Q 79.13 5.46 79.15 5.48 L 80.62 7.11 Q 80.95 7.47 81.16 7.71 Q 81.36 7.96 81.57 8.28 Q 81.77 8.60 81.89 8.92 Q 82.01 9.25 82.01 9.62 Q 82.01 10.01 81.86 10.36 Q 81.72 10.72 81.44 10.93 Q 81.15 11.14 80.75 11.14 Q 80.34 11.14 80.01 10.89 Q 79.68 10.65 79.55 10.26 Q 79.59 10.27 79.65 10.27 Q 79.87 10.27 80.01 10.12 Q 80.16 9.98 80.16 9.75 Q 80.16 9.54 80.01 9.39 Q 79.87 9.24 79.65 9.24 Q 79.43 9.24 79.28 9.39 Q 79.13 9.55 79.13 9.75 Q 79.13 10.11 79.26 10.42 Q 79.40 10.73 79.65 10.97 Q 79.90 11.22 80.22 11.35 Q 80.53 11.48 80.89 11.48 Q 81.43 11.48 81.89 11.25 Q 82.36 11.02 82.63 10.60 Q 82.91 10.18 82.91 9.62 Q 82.91 9.21 82.73 8.84 Q 82.54 8.47 82.26 8.17 Q 81.98 7.87 81.54 7.49 Q 81.11 7.10 80.97 6.98 L 79.90 5.95 L 80.81 5.95 Q 81.47 5.95 81.92 5.96 Q 82.38 5.97 82.40 5.99 Q 82.51 6.11 82.63 6.87 L 82.91 6.87 L 82.64 5.18 L 79.13 5.18 Z M 80.35 -3.43 L 80.35 -3.10 Q 80.67 -3.10 80.87 -3.05 Q 81.08 -2.99 81.08 -2.80 L 81.08 0.31 L 80.36 0.31 L 80.36 0.64 L 81.08 0.64 L 81.08 1.78 Q 81.08 2.08 81.21 2.35 Q 81.33 2.61 81.55 2.81 Q 81.76 3.01 82.04 3.12 Q 82.32 3.23 82.62 3.23 Q 82.94 3.23 83.20 3.04 Q 83.45 2.86 83.45 2.54 Q 83.45 2.36 83.33 2.24 Q 83.21 2.12 83.03 2.12 Q 82.85 2.12 82.72 2.24 Q 82.59 2.36 82.59 2.54 Q 82.59 2.84 82.85 2.94 Q 82.70 2.99 82.58 2.99 Q 82.30 2.99 82.10 2.79 Q 81.91 2.60 81.81 2.31 Q 81.71 2.03 81.71 1.76 L 81.71 0.64 L 82.80 0.64 L 82.80 0.31 L 81.75 0.31 L 81.75 -2.80 Q 81.75 -2.99 82.02 -3.04 Q 82.30 -3.10 82.66 -3.10 L 82.66 -3.43 L 80.35 -3.43 Z M 83.17 -3.43 L 83.17 -3.10 Q 83.49 -3.10 83.70 -3.05 Q 83.91 -2.99 83.91 -2.80 L 83.91 -0.22 Q 83.91 0.04 83.83 0.15 Q 83.76 0.26 83.61 0.29 Q 83.47 0.31 83.17 0.31 L 83.17 0.64 L 84.52 0.75 L 84.52 -0.18 Q 84.68 0.23 84.96 0.49 Q 85.24 0.75 85.64 0.75 Q 85.92 0.75 86.14 0.58 Q 86.36 0.41 86.36 0.14 Q 86.36 -0.03 86.24 -0.16 Q 86.12 -0.28 85.94 -0.28 Q 85.76 -0.28 85.64 -0.16 Q 85.52 -0.03 85.52 0.14 Q 85.52 0.40 85.70 0.50 L 85.64 0.50 Q 85.26 0.50 85.01 0.23 Q 84.77 -0.05 84.67 -0.46 Q 84.57 -0.87 84.57 -1.25 L 84.57 -2.80 Q 84.57 -3.10 85.49 -3.10 L 85.49 -3.43 L 83.17 -3.43 Z M 87.00 -2.50 Q 87.00 -1.94 87.44 -1.59 Q 87.89 -1.23 88.51 -1.09 Q 89.13 -0.94 89.69 -0.94 L 89.69 -0.55 Q 89.69 -0.28 89.57 -0.03 Q 89.45 0.23 89.22 0.39 Q 88.99 0.56 88.72 0.56 Q 88.09 0.56 87.77 0.28 Q 87.95 0.28 88.06 0.14 Q 88.18 0.00 88.18 -0.18 Q 88.18 -0.37 88.05 -0.50 Q 87.91 -0.63 87.73 -0.63 Q 87.54 -0.63 87.41 -0.50 Q 87.27 -0.37 87.27 -0.18 Q 87.27 0.32 87.73 0.57 Q 88.18 0.81 88.72 0.81 Q 89.10 0.81 89.49 0.64 Q 89.88 0.48 90.13 0.17 Q 90.37 -0.13 90.37 -0.54 L 90.37 -2.66 Q 90.37 -2.85 90.45 -3.00 Q 90.53 -3.16 90.70 -3.16 Q 90.85 -3.16 90.93 -3.00 Q 91.01 -2.84 91.01 -2.66 L 91.01 -2.06 L 91.28 -2.06 L 91.28 -2.66 Q 91.28 -2.88 91.17 -3.07 Q 91.06 -3.26 90.87 -3.37 Q 90.69 -3.49 90.47 -3.49 Q 90.19 -3.49 89.99 -3.27 Q 89.79 -3.06 89.77 -2.76 Q 89.60 -3.11 89.25 -3.33 Q 88.91 -3.54 88.52 -3.54 Q 88.16 -3.54 87.82 -3.43 Q 87.47 -3.32 87.23 -3.10 Q 87.00 -2.87 87.00 -2.50 Z M 87.77 -2.50 Q 87.77 -2.83 88.01 -3.06 Q 88.26 -3.29 88.59 -3.29 Q 88.89 -3.29 89.14 -3.13 Q 89.39 -2.98 89.54 -2.72 Q 89.69 -2.46 89.69 -2.17 L 89.69 -1.18 Q 89.26 -1.18 88.81 -1.32 Q 88.36 -1.46 88.06 -1.76 Q 87.77 -2.06 87.77 -2.50 Z M 91.63 -3.43 L 91.63 -3.10 Q 91.95 -3.10 92.16 -3.05 Q 92.37 -2.99 92.37 -2.80 L 92.37 -0.22 Q 92.37 0.04 92.29 0.15 Q 92.22 0.26 92.07 0.29 Q 91.93 0.31 91.63 0.31 L 91.63 0.64 L 93.00 0.75 L 93.00 -0.18 Q 93.19 0.23 93.56 0.49 Q 93.93 0.75 94.37 0.75 Q 95.46 0.75 95.65 -0.14 Q 95.84 0.26 96.20 0.50 Q 96.57 0.75 97.00 0.75 Q 97.43 0.75 97.72 0.61 Q 98.02 0.47 98.16 0.19 Q 98.31 -0.10 98.31 -0.53 L 98.31 -2.80 Q 98.31 -2.99 98.52 -3.05 Q 98.73 -3.10 99.05 -3.10 L 99.05 -3.43 L 96.88 -3.43 L 96.88 -3.10 Q 97.21 -3.10 97.42 -3.05 Q 97.62 -2.99 97.62 -2.80 L 97.62 -0.55 Q 97.62 -0.08 97.49 0.21 Q 97.36 0.50 96.94 0.50 Q 96.40 0.50 96.04 0.06 Q 95.69 -0.37 95.69 -0.93 L 95.69 -2.80 Q 95.69 -2.99 95.89 -3.05 Q 96.10 -3.10 96.42 -3.10 L 96.42 -3.43 L 94.26 -3.43 L 94.26 -3.10 Q 94.58 -3.10 94.79 -3.05 Q 95.00 -2.99 95.00 -2.80 L 95.00 -0.55 Q 95.00 -0.09 94.86 0.20 Q 94.73 0.50 94.31 0.50 Q 93.77 0.50 93.41 0.06 Q 93.06 -0.37 93.06 -0.93 L 93.06 -2.80 Q 93.06 -2.99 93.27 -3.05 Q 93.48 -3.10 93.79 -3.10 L 93.79 -3.43 L 91.63 -3.43 Z M 101.57 -3.54 Q 101.00 -3.54 100.51 -3.23 Q 100.03 -2.93 99.76 -2.42 Q 99.48 -1.92 99.48 -1.36 Q 99.48 -0.80 99.73 -0.31 Q 99.99 0.19 100.43 0.50 Q 100.89 0.81 101.44 0.81 Q 101.87 0.81 102.19 0.66 Q 102.51 0.52 102.72 0.26 Q 102.93 -0.00 103.04 -0.35 Q 103.14 -0.70 103.14 -1.12 Q 103.14 -1.25 103.05 -1.25 L 100.31 -1.25 L 100.31 -1.35 Q 100.31 -2.13 100.63 -2.70 Q 100.94 -3.26 101.66 -3.26 Q 101.95 -3.26 102.19 -3.13 Q 102.44 -3.00 102.62 -2.77 Q 102.80 -2.54 102.87 -2.28 Q 102.88 -2.24 102.90 -2.22 Q 102.93 -2.19 102.96 -2.19 L 103.05 -2.19 Q 103.14 -2.19 103.14 -2.31 Q 103.01 -2.85 102.57 -3.19 Q 102.12 -3.54 101.57 -3.54 Z M 100.32 -1.01 L 102.47 -1.01 Q 102.47 -0.66 102.37 -0.29 Q 102.27 0.07 102.04 0.32 Q 101.81 0.56 101.44 0.56 Q 100.90 0.56 100.61 0.06 Q 100.32 -0.44 100.32 -1.01 Z M 106.04 -1.26 Q 105.96 -1.26 105.91 -1.20 Q 105.86 -1.14 105.86 -1.07 Q 105.86 -1.00 105.91 -0.94 Q 105.96 -0.88 106.04 -0.88 L 111.46 -0.88 Q 111.53 -0.88 111.58 -0.94 Q 111.63 -1.00 111.63 -1.07 Q 111.63 -1.14 111.58 -1.20 Q 111.53 -1.26 111.46 -1.26 L 106.04 -1.26 Z M 116.16 -3.43 L 114.94 0.01 Q 114.86 0.22 114.70 0.26 Q 114.55 0.31 114.25 0.31 L 114.25 0.64 L 116.19 0.64 L 116.19 0.31 Q 115.63 0.31 115.63 0.08 Q 115.64 0.06 115.64 0.05 Q 115.64 0.04 115.64 0.01 L 116.55 -2.54 L 117.34 -0.32 L 117.21 0.01 Q 117.14 0.22 116.98 0.26 Q 116.81 0.31 116.52 0.31 L 116.52 0.64 L 118.38 0.64 L 118.38 0.31 Q 117.83 0.31 117.83 0.08 Q 117.83 0.04 117.83 0.01 L 118.78 -2.65 L 119.64 -0.25 Q 119.66 -0.17 119.66 -0.11 Q 119.66 0.09 119.49 0.20 Q 119.32 0.31 119.11 0.31 L 119.11 0.64 L 120.72 0.64 L 120.72 0.31 Q 120.43 0.31 120.23 0.16 Q 120.02 0.01 119.93 -0.25 L 118.80 -3.43 Q 118.77 -3.54 118.66 -3.54 L 118.58 -3.54 Q 118.47 -3.54 118.44 -3.43 L 117.48 -0.73 L 116.53 -3.43 Q 116.48 -3.54 116.38 -3.54 L 116.31 -3.54 Q 116.20 -3.54 116.16 -3.43 Z M 123.25 -3.54 Q 122.67 -3.54 122.19 -3.23 Q 121.71 -2.93 121.44 -2.42 Q 121.16 -1.92 121.16 -1.36 Q 121.16 -0.80 121.41 -0.31 Q 121.66 0.19 122.11 0.50 Q 122.56 0.81 123.12 0.81 Q 123.55 0.81 123.87 0.66 Q 124.19 0.52 124.40 0.26 Q 124.61 -0.00 124.71 -0.35 Q 124.82 -0.70 124.82 -1.12 Q 124.82 -1.25 124.72 -1.25 L 121.99 -1.25 L 121.99 -1.35 Q 121.99 -2.13 122.30 -2.70 Q 122.62 -3.26 123.33 -3.26 Q 123.63 -3.26 123.87 -3.13 Q 124.12 -3.00 124.30 -2.77 Q 124.48 -2.54 124.55 -2.28 Q 124.56 -2.24 124.58 -2.22 Q 124.61 -2.19 124.64 -2.19 L 124.72 -2.19 Q 124.82 -2.19 124.82 -2.31 Q 124.69 -2.85 124.24 -3.19 Q 123.80 -3.54 123.25 -3.54 Z M 122.00 -1.01 L 124.15 -1.01 Q 124.15 -0.66 124.05 -0.29 Q 123.95 0.07 123.72 0.32 Q 123.49 0.56 123.12 0.56 Q 122.58 0.56 122.29 0.06 Q 122.00 -0.44 122.00 -1.01 Z M 125.38 -3.43 L 125.38 -3.10 Q 125.71 -3.10 125.91 -3.05 Q 126.12 -2.99 126.12 -2.80 L 126.12 -0.22 Q 126.12 0.15 125.98 0.23 Q 125.84 0.31 125.43 0.31 L 125.43 0.64 L 126.79 0.75 L 126.79 -2.80 Q 126.79 -2.99 126.97 -3.05 Q 127.15 -3.10 127.45 -3.10 L 127.45 -3.43 L 125.38 -3.43 Z M 125.79 2.37 Q 125.79 2.58 125.94 2.74 Q 126.10 2.89 126.30 2.89 Q 126.44 2.89 126.56 2.82 Q 126.68 2.75 126.75 2.63 Q 126.82 2.51 126.82 2.37 Q 126.82 2.17 126.67 2.01 Q 126.51 1.85 126.30 1.85 Q 126.10 1.85 125.94 2.01 Q 125.79 2.17 125.79 2.37 Z M 127.97 -4.17 Q 127.97 -3.83 128.22 -3.58 Q 128.46 -3.33 128.80 -3.22 Q 128.61 -3.08 128.51 -2.86 Q 128.41 -2.64 128.41 -2.40 Q 128.41 -1.96 128.69 -1.62 Q 128.26 -1.19 128.26 -0.64 Q 128.26 -0.35 128.39 -0.09 Q 128.51 0.17 128.74 0.36 Q 128.96 0.55 129.24 0.65 Q 129.52 0.75 129.81 0.75 Q 130.37 0.75 130.82 0.42 Q 131.01 0.63 131.28 0.74 Q 131.54 0.85 131.83 0.85 Q 132.03 0.85 132.16 0.71 Q 132.29 0.56 132.29 0.36 Q 132.29 0.24 132.20 0.16 Q 132.12 0.07 132.00 0.07 Q 131.88 0.07 131.79 0.16 Q 131.70 0.24 131.70 0.36 Q 131.70 0.53 131.82 0.60 Q 131.33 0.60 130.98 0.27 Q 131.15 0.10 131.25 -0.15 Q 131.36 -0.40 131.36 -0.64 Q 131.36 -1.04 131.14 -1.36 Q 130.92 -1.69 130.55 -1.86 Q 130.19 -2.04 129.81 -2.04 Q 129.29 -2.04 128.86 -1.76 Q 128.73 -1.94 128.73 -2.17 Q 128.73 -2.42 128.89 -2.61 Q 129.06 -2.80 129.31 -2.80 L 130.08 -2.80 Q 130.64 -2.80 131.10 -2.90 Q 131.55 -3.00 131.86 -3.30 Q 132.16 -3.61 132.16 -4.17 Q 132.16 -4.58 131.81 -4.86 Q 131.46 -5.13 130.97 -5.25 Q 130.49 -5.38 130.07 -5.38 Q 129.65 -5.38 129.16 -5.25 Q 128.67 -5.13 128.32 -4.86 Q 127.97 -4.58 127.97 -4.17 Z M 128.50 -4.17 Q 128.50 -4.49 128.76 -4.70 Q 129.02 -4.91 129.38 -5.02 Q 129.75 -5.12 130.07 -5.12 Q 130.39 -5.12 130.75 -5.02 Q 131.12 -4.91 131.37 -4.70 Q 131.63 -4.49 131.63 -4.17 Q 131.63 -3.67 131.18 -3.53 Q 130.73 -3.38 130.08 -3.38 L 129.31 -3.38 Q 129.09 -3.38 128.91 -3.49 Q 128.72 -3.59 128.61 -3.78 Q 128.50 -3.96 128.50 -4.17 Z M 129.81 -1.79 Q 130.61 -1.79 130.61 -0.64 Q 130.61 -0.15 130.44 0.17 Q 130.27 0.49 129.81 0.49 Q 129.35 0.49 129.18 0.17 Q 129.01 -0.15 129.01 -0.64 Q 129.01 -0.96 129.07 -1.21 Q 129.14 -1.46 129.31 -1.62 Q 129.49 -1.79 129.81 -1.79 Z M 132.72 -3.43 L 132.72 -3.10 Q 133.04 -3.10 133.25 -3.05 Q 133.45 -2.99 133.45 -2.80 L 133.45 2.16 Q 133.45 2.42 133.38 2.53 Q 133.30 2.64 133.16 2.67 Q 133.02 2.69 132.72 2.69 L 132.72 3.03 L 134.12 3.13 L 134.12 -0.12 Q 134.32 0.27 134.67 0.51 Q 135.03 0.75 135.46 0.75 Q 136.11 0.75 136.44 0.43 Q 136.77 0.12 136.77 -0.53 L 136.77 -2.80 Q 136.77 -2.99 136.98 -3.05 Q 137.19 -3.10 137.51 -3.10 L 137.51 -3.43 L 135.35 -3.43 L 135.35 -3.10 Q 135.67 -3.10 135.88 -3.05 Q 136.08 -2.99 136.08 -2.80 L 136.08 -0.55 Q 136.08 -0.09 135.95 0.20 Q 135.82 0.50 135.40 0.50 Q 134.85 0.50 134.50 0.06 Q 134.15 -0.37 134.15 -0.93 L 134.15 -2.80 Q 134.15 -2.99 134.35 -3.05 Q 134.56 -3.10 134.88 -3.10 L 134.88 -3.43 L 132.72 -3.43 Z M 138.64 -2.29 L 138.64 0.31 L 137.86 0.31 L 137.86 0.56 Q 138.48 0.56 138.77 1.13 Q 139.06 1.71 139.06 2.39 L 139.33 2.39 L 139.33 0.64 L 140.67 0.64 L 140.67 0.31 L 139.33 0.31 L 139.33 -2.28 Q 139.33 -2.67 139.46 -2.96 Q 139.60 -3.26 139.94 -3.26 Q 140.26 -3.26 140.40 -2.95 Q 140.55 -2.63 140.55 -2.28 L 140.55 -1.72 L 140.82 -1.72 L 140.82 -2.29 Q 140.82 -2.59 140.71 -2.88 Q 140.60 -3.17 140.39 -3.35 Q 140.18 -3.54 139.87 -3.54 Q 139.30 -3.54 138.97 -3.20 Q 138.64 -2.86 138.64 -2.29 Z M 143.70 -3.54 Q 143.13 -3.54 142.64 -3.23 Q 142.16 -2.93 141.89 -2.42 Q 141.61 -1.92 141.61 -1.36 Q 141.61 -0.80 141.86 -0.31 Q 142.12 0.19 142.56 0.50 Q 143.01 0.81 143.57 0.81 Q 144.00 0.81 144.32 0.66 Q 144.64 0.52 144.85 0.26 Q 145.06 -0.00 145.16 -0.35 Q 145.27 -0.70 145.27 -1.12 Q 145.27 -1.25 145.17 -1.25 L 142.44 -1.25 L 142.44 -1.35 Q 142.44 -2.13 142.75 -2.70 Q 143.07 -3.26 143.79 -3.26 Q 144.08 -3.26 144.32 -3.13 Q 144.57 -3.00 144.75 -2.77 Q 144.93 -2.54 145.00 -2.28 Q 145.01 -2.24 145.03 -2.22 Q 145.06 -2.19 145.09 -2.19 L 145.17 -2.19 Q 145.27 -2.19 145.27 -2.31 Q 145.14 -2.85 144.69 -3.19 Q 144.25 -3.54 143.70 -3.54 Z M 142.45 -1.01 L 144.60 -1.01 Q 144.60 -0.66 144.50 -0.29 Q 144.40 0.07 144.17 0.32 Q 143.94 0.56 143.57 0.56 Q 143.03 0.56 142.74 0.06 Q 142.45 -0.44 142.45 -1.01 Z M 147.85 -3.54 Q 147.29 -3.54 146.83 -3.23 Q 146.37 -2.93 146.11 -2.44 Q 145.86 -1.94 145.86 -1.39 Q 145.86 -0.82 146.14 -0.33 Q 146.42 0.16 146.90 0.46 Q 147.38 0.75 147.95 0.75 Q 148.30 0.75 148.61 0.60 Q 148.92 0.46 149.14 0.20 L 149.14 2.16 Q 149.14 2.42 149.07 2.53 Q 148.99 2.64 148.85 2.67 Q 148.71 2.69 148.41 2.69 L 148.41 3.03 L 149.81 3.13 L 149.81 -2.57 Q 149.81 -2.82 149.88 -2.93 Q 149.96 -3.05 150.10 -3.07 Q 150.24 -3.10 150.54 -3.10 L 150.54 -3.43 L 149.12 -3.54 L 149.12 -2.94 Q 148.87 -3.22 148.53 -3.38 Q 148.20 -3.54 147.85 -3.54 Z M 146.89 -2.61 Q 147.05 -2.92 147.32 -3.10 Q 147.59 -3.29 147.91 -3.29 Q 148.30 -3.29 148.62 -3.06 Q 148.95 -2.83 149.12 -2.47 L 149.12 -0.21 Q 149.00 -0.00 148.84 0.16 Q 148.67 0.33 148.46 0.41 Q 148.25 0.50 148.01 0.50 Q 147.52 0.50 147.22 0.22 Q 146.92 -0.06 146.80 -0.49 Q 146.68 -0.92 146.68 -1.40 Q 146.68 -1.78 146.72 -2.06 Q 146.76 -2.34 146.89 -2.61 Z" fill="#0F172A"/></g><text x="291.2" y="204.3" font-family="Helvetica Neue, Helvetica, Arial, sans-serif" font-size="10.0px" fill="#94A3B8" text-anchor="middle">paper convention maps as s = 1 − σ (s=1 is data): x⁽ˢ⁾ = (1−s)ε + s·x₁, target x₁</text><text x="291.2" y="218.1" font-family="Helvetica Neue, Helvetica, Arial, sans-serif" font-size="10.0px" fill="#94A3B8" text-anchor="middle">− ε. Same objective, opposite sign.</text><rect x="670.5" y="99.0" width="34.0" height="26.0" rx="4.5" fill="url(#hatch-E0F2FE-0284C7)" stroke="#0284C7" stroke-width="1.1"/><text x="687.5" y="115.4" font-family="Helvetica Neue, Helvetica, Arial, sans-serif" font-size="10.0px" fill="#0C4A6E" text-anchor="middle" font-weight="500" paint-order="stroke" stroke="#FFFFFF" stroke-width="3px">z₀</text><text x="687.5" y="136.0" font-family="SF Mono, Menlo, Consolas, monospace" font-size="8.5px" fill="#94A3B8" text-anchor="middle">σ=.92</text><rect x="708.0" y="99.0" width="34.0" height="26.0" rx="4.5" fill="url(#hatch-E0F2FE-0284C7)" stroke="#0284C7" stroke-width="1.1"/><text x="725.0" y="115.4" font-family="Helvetica Neue, Helvetica, Arial, sans-serif" font-size="10.0px" fill="#0C4A6E" text-anchor="middle" font-weight="500" paint-order="stroke" stroke="#FFFFFF" stroke-width="3px">z₁</text><text x="725.0" y="136.0" font-family="SF Mono, Menlo, Consolas, monospace" font-size="8.5px" fill="#94A3B8" text-anchor="middle">σ=.31</text><rect x="745.5" y="99.0" width="34.0" height="26.0" rx="4.5" fill="url(#hatch-E0F2FE-0284C7)" stroke="#0284C7" stroke-width="1.1"/><text x="762.5" y="115.4" font-family="Helvetica Neue, Helvetica, Arial, sans-serif" font-size="10.0px" fill="#0C4A6E" text-anchor="middle" font-weight="500" paint-order="stroke" stroke="#FFFFFF" stroke-width="3px">z₂</text><text x="762.5" y="136.0" font-family="SF Mono, Menlo, Consolas, monospace" font-size="8.5px" fill="#94A3B8" text-anchor="middle">σ=.77</text><rect x="795.0" y="99.0" width="34.0" height="26.0" rx="4.5" fill="url(#hatch-D1FAE5-059669)" stroke="#059669" stroke-width="1.1"/><text x="812.0" y="115.4" font-family="Helvetica Neue, Helvetica, Arial, sans-serif" font-size="10.0px" fill="#064E3B" text-anchor="middle" font-weight="500" paint-order="stroke" stroke="#FFFFFF" stroke-width="3px">a₀</text><text x="812.0" y="136.0" font-family="SF Mono, Menlo, Consolas, monospace" font-size="8.5px" fill="#94A3B8" text-anchor="middle">σ=.55</text><rect x="832.5" y="99.0" width="34.0" height="26.0" rx="4.5" fill="url(#hatch-D1FAE5-059669)" stroke="#059669" stroke-width="1.1"/><text x="849.5" y="115.4" font-family="Helvetica Neue, Helvetica, Arial, sans-serif" font-size="10.0px" fill="#064E3B" text-anchor="middle" font-weight="500" paint-order="stroke" stroke="#FFFFFF" stroke-width="3px">a₁</text><text x="849.5" y="136.0" font-family="SF Mono, Menlo, Consolas, monospace" font-size="8.5px" fill="#94A3B8" text-anchor="middle">σ=.08</text><rect x="870.0" y="99.0" width="34.0" height="26.0" rx="4.5" fill="url(#hatch-D1FAE5-059669)" stroke="#059669" stroke-width="1.1"/><text x="887.0" y="115.4" font-family="Helvetica Neue, Helvetica, Arial, sans-serif" font-size="10.0px" fill="#064E3B" text-anchor="middle" font-weight="500" paint-order="stroke" stroke="#FFFFFF" stroke-width="3px">a₂</text><text x="887.0" y="136.0" font-family="SF Mono, Menlo, Consolas, monospace" font-size="8.5px" fill="#94A3B8" text-anchor="middle">σ=.63</text><text x="787.2" y="161.5" font-family="Helvetica Neue, Helvetica, Arial, sans-serif" font-size="10.5px" fill="#475569" text-anchor="middle">every frame draws its own σ (train.py:167-217) — diffusion-forcing style. The</text><text x="787.2" y="176.0" font-family="Helvetica Neue, Helvetica, Arial, sans-serif" font-size="10.5px" fill="#475569" text-anchor="middle">per-token AdaLN (Fig 3) is what makes mixed noise levels in one sequence</text><text x="787.2" y="190.5" font-family="Helvetica Neue, Helvetica, Arial, sans-serif" font-size="10.5px" fill="#475569" text-anchor="middle">possible.</text><text x="787.2" y="216.5" font-family="Helvetica Neue, Helvetica, Arial, sans-serif" font-size="10.0px" fill="#94A3B8" text-anchor="middle">timestep sampling is SNR-shifted per modality: video shift 5.0 (biased toward</text><text x="787.2" y="230.3" font-family="Helvetica Neue, Helvetica, Arial, sans-serif" font-size="10.0px" fill="#94A3B8" text-anchor="middle">high noise), action shift 1.0 (uniform); loss weighted by a mid-σ Gaussian bell</text><text x="787.2" y="244.1" font-family="Helvetica Neue, Helvetica, Arial, sans-serif" font-size="10.0px" fill="#94A3B8" text-anchor="middle">(scheduler.py:56-73).</text><rect x="58.0" y="330.9" width="50.0" height="26.0" rx="4.5" fill="url(#hatch-E0F2FE-0284C7)" stroke="#0284C7" stroke-width="1.1"/><text x="83.0" y="347.3" font-family="Helvetica Neue, Helvetica, Arial, sans-serif" font-size="10.0px" fill="#0C4A6E" text-anchor="middle" font-weight="500" paint-order="stroke" stroke="#FFFFFF" stroke-width="3px">~z</text><text x="83.0" y="367.9" font-family="SF Mono, Menlo, Consolas, monospace" font-size="8.5px" fill="#94A3B8" text-anchor="middle">target</text><rect x="111.5" y="330.9" width="50.0" height="26.0" rx="4.5" fill="url(#hatch-E0F2FE-0284C7)" stroke="#0284C7" stroke-width="1.1"/><text x="136.5" y="347.3" font-family="Helvetica Neue, Helvetica, Arial, sans-serif" font-size="10.0px" fill="#0C4A6E" text-anchor="middle" font-weight="500" paint-order="stroke" stroke="#FFFFFF" stroke-width="3px">~z</text><rect x="179.0" y="330.9" width="50.0" height="26.0" rx="4.5" fill="url(#hatch-E0F2FE-0284C7)" stroke="#0284C7" stroke-width="1.1"/><text x="204.0" y="347.3" font-family="Helvetica Neue, Helvetica, Arial, sans-serif" font-size="10.0px" fill="#0C4A6E" text-anchor="middle" font-weight="500" paint-order="stroke" stroke="#FFFFFF" stroke-width="3px">~z</text><text x="204.0" y="367.9" font-family="SF Mono, Menlo, Consolas, monospace" font-size="8.5px" fill="#94A3B8" text-anchor="middle">hist .5</text><rect x="232.5" y="330.9" width="50.0" height="26.0" rx="4.5" fill="#E0F2FE" stroke="#0284C7" stroke-width="1.1"/><text x="257.5" y="347.3" font-family="Helvetica Neue, Helvetica, Arial, sans-serif" font-size="10.0px" fill="#0C4A6E" text-anchor="middle" font-weight="500">z</text><text x="257.5" y="367.9" font-family="SF Mono, Menlo, Consolas, monospace" font-size="8.5px" fill="#94A3B8" text-anchor="middle">clean</text><rect x="300.0" y="330.9" width="50.0" height="26.0" rx="4.5" fill="url(#hatch-D1FAE5-059669)" stroke="#059669" stroke-width="1.1"/><text x="325.0" y="347.3" font-family="Helvetica Neue, Helvetica, Arial, sans-serif" font-size="10.0px" fill="#064E3B" text-anchor="middle" font-weight="500" paint-order="stroke" stroke="#FFFFFF" stroke-width="3px">~a</text><text x="325.0" y="367.9" font-family="SF Mono, Menlo, Consolas, monospace" font-size="8.5px" fill="#94A3B8" text-anchor="middle">target</text><rect x="353.5" y="330.9" width="50.0" height="26.0" rx="4.5" fill="url(#hatch-D1FAE5-059669)" stroke="#059669" stroke-width="1.1"/><text x="378.5" y="347.3" font-family="Helvetica Neue, Helvetica, Arial, sans-serif" font-size="10.0px" fill="#064E3B" text-anchor="middle" font-weight="500" paint-order="stroke" stroke="#FFFFFF" stroke-width="3px">~a</text><rect x="421.0" y="330.9" width="50.0" height="26.0" rx="4.5" fill="#D1FAE5" stroke="#059669" stroke-width="1.1"/><text x="446.0" y="347.3" font-family="Helvetica Neue, Helvetica, Arial, sans-serif" font-size="10.0px" fill="#064E3B" text-anchor="middle" font-weight="500">a</text><text x="446.0" y="367.9" font-family="SF Mono, Menlo, Consolas, monospace" font-size="8.5px" fill="#94A3B8" text-anchor="middle">clean</text><rect x="474.5" y="330.9" width="50.0" height="26.0" rx="4.5" fill="#D1FAE5" stroke="#059669" stroke-width="1.1"/><text x="499.5" y="347.3" font-family="Helvetica Neue, Helvetica, Arial, sans-serif" font-size="10.0px" fill="#064E3B" text-anchor="middle" font-weight="500">a</text><text x="291.2" y="393.4" font-family="Helvetica Neue, Helvetica, Arial, sans-serif" font-size="10.5px" fill="#475569" text-anchor="middle">teacher forcing: ground-truth history rides along as the clean segments (Fig</text><text x="291.2" y="407.9" font-family="Helvetica Neue, Helvetica, Arial, sans-serif" font-size="10.5px" fill="#475569" text-anchor="middle">2), so all chunks train in parallel under the causal mask (Fig 5).</text><text x="291.2" y="433.9" font-family="Helvetica Neue, Helvetica, Arial, sans-serif" font-size="10.0px" fill="#94A3B8" text-anchor="middle">noisy-history augmentation: with p=0.5 the clean VIDEO history is re-noised with</text><text x="291.2" y="447.7" font-family="Helvetica Neue, Helvetica, Arial, sans-serif" font-size="10.0px" fill="#94A3B8" text-anchor="middle">σ_aug ∈ [0.5, 1.0] (train.py:229) — so inverse dynamics learns to read</text><text x="291.2" y="461.5" font-family="Helvetica Neue, Helvetica, Arial, sans-serif" font-size="10.0px" fill="#94A3B8" text-anchor="middle">half-denoised frames, and inference can stop video at σ≈0.5 (3 Euler steps).</text><text x="291.2" y="475.2" font-family="Helvetica Neue, Helvetica, Arial, sans-serif" font-size="10.0px" fill="#94A3B8" text-anchor="middle">Action history is never noised (train.py:236).</text><g transform="translate(749.36,340.45) scale(1,-1)"><path d="M 0.50 -0.23 Q 0.42 -0.23 0.42 -0.14 Q 0.42 -0.09 0.46 -0.01 Q 0.56 0.15 0.76 0.34 Q 0.96 0.53 1.04 0.65 Q 1.38 1.14 1.58 1.52 Q 1.93 2.23 2.17 3.16 Q 2.54 4.63 2.84 5.54 Q 3.15 6.46 3.63 7.28 Q 4.01 7.91 4.57 8.43 Q 5.13 8.96 5.82 9.27 Q 6.50 9.59 7.21 9.59 L 7.29 9.59 Q 7.64 9.59 7.88 9.41 Q 8.11 9.23 8.24 8.94 Q 8.36 8.65 8.36 8.31 Q 8.36 7.80 8.19 7.60 Q 7.73 7.09 7.09 7.01 L 7.01 7.01 Q 6.93 7.01 6.93 7.10 Q 6.93 7.11 6.96 7.30 Q 6.99 7.49 6.99 7.63 Q 6.99 8.06 6.78 8.38 Q 6.56 8.71 6.13 8.71 Q 5.63 8.71 5.63 8.62 Q 5.26 8.36 4.92 7.77 Q 4.58 7.17 4.33 6.48 Q 4.07 5.78 3.87 5.08 Q 3.68 4.38 3.53 3.76 Q 3.36 3.10 3.10 2.49 Q 2.84 1.88 2.48 1.34 Q 2.64 1.39 2.88 1.39 L 2.96 1.39 Q 3.43 1.39 3.90 1.30 Q 4.36 1.20 5.02 1.01 Q 5.67 0.83 6.10 0.74 Q 6.54 0.65 7.02 0.65 Q 7.17 0.65 7.26 0.78 Q 7.35 0.91 7.44 1.14 Q 7.53 1.38 7.59 1.46 Q 7.79 1.68 8.09 1.85 Q 8.38 2.01 8.68 2.05 L 8.76 2.05 Q 8.80 2.05 8.83 2.02 Q 8.85 2.00 8.85 1.96 Q 8.85 1.96 8.84 1.92 Q 8.71 1.39 8.22 0.88 Q 7.73 0.37 7.11 0.07 Q 6.49 -0.23 5.97 -0.23 L 5.89 -0.23 Q 5.42 -0.23 4.97 -0.15 Q 4.52 -0.06 3.87 0.12 Q 3.22 0.31 2.75 0.41 Q 2.29 0.51 1.82 0.51 Q 1.22 -0.15 0.58 -0.23 L 0.50 -0.23 Z M 12.69 1.86 Q 12.57 1.86 12.50 1.94 Q 12.43 2.03 12.43 2.13 Q 12.43 2.24 12.50 2.32 Q 12.57 2.40 12.69 2.40 L 21.16 2.40 Q 21.26 2.40 21.33 2.32 Q 21.41 2.24 21.41 2.13 Q 21.41 2.03 21.33 1.94 Q 21.26 1.86 21.16 1.86 L 12.69 1.86 Z M 12.69 4.48 Q 12.57 4.48 12.50 4.56 Q 12.43 4.64 12.43 4.75 Q 12.43 4.85 12.50 4.94 Q 12.57 5.02 12.69 5.02 L 21.16 5.02 Q 21.26 5.02 21.33 4.94 Q 21.41 4.85 21.41 4.75 Q 21.41 4.64 21.33 4.56 Q 21.26 4.48 21.16 4.48 L 12.69 4.48 Z M 25.03 -0.23 Q 24.94 -0.23 24.94 -0.14 Q 24.94 -0.09 24.99 -0.01 Q 25.09 0.15 25.29 0.34 Q 25.48 0.53 25.57 0.65 Q 25.91 1.14 26.11 1.52 Q 26.46 2.23 26.70 3.16 Q 27.07 4.63 27.37 5.54 Q 27.67 6.46 28.16 7.28 Q 28.54 7.91 29.10 8.43 Q 29.66 8.96 30.34 9.27 Q 31.03 9.59 31.74 9.59 L 31.82 9.59 Q 32.17 9.59 32.41 9.41 Q 32.64 9.23 32.77 8.94 Q 32.89 8.65 32.89 8.31 Q 32.89 7.80 32.72 7.60 Q 32.26 7.09 31.61 7.01 L 31.54 7.01 Q 31.46 7.01 31.46 7.10 Q 31.46 7.11 31.49 7.30 Q 31.52 7.49 31.52 7.63 Q 31.52 8.06 31.30 8.38 Q 31.09 8.71 30.66 8.71 Q 30.16 8.71 30.16 8.62 Q 29.79 8.36 29.45 7.77 Q 29.11 7.17 28.86 6.48 Q 28.60 5.78 28.40 5.08 Q 28.21 4.38 28.06 3.76 Q 27.89 3.10 27.63 2.49 Q 27.37 1.88 27.01 1.34 Q 27.17 1.39 27.40 1.39 L 27.49 1.39 Q 27.96 1.39 28.43 1.30 Q 28.89 1.20 29.55 1.01 Q 30.20 0.83 30.63 0.74 Q 31.07 0.65 31.55 0.65 Q 31.69 0.65 31.79 0.78 Q 31.88 0.91 31.97 1.14 Q 32.06 1.38 32.12 1.46 Q 32.32 1.68 32.62 1.85 Q 32.91 2.01 33.21 2.05 L 33.29 2.05 Q 33.33 2.05 33.36 2.02 Q 33.38 2.00 33.38 1.96 Q 33.38 1.96 33.37 1.92 Q 33.24 1.39 32.75 0.88 Q 32.26 0.37 31.64 0.07 Q 31.02 -0.23 30.49 -0.23 L 30.42 -0.23 Q 29.95 -0.23 29.50 -0.15 Q 29.05 -0.06 28.40 0.12 Q 27.75 0.31 27.28 0.41 Q 26.82 0.51 26.35 0.51 Q 25.75 -0.15 25.11 -0.23 L 25.03 -0.23 Z M 35.44 -1.16 Q 35.44 -0.95 35.49 -0.70 Q 35.54 -0.45 35.60 -0.28 Q 35.65 -0.12 35.83 0.36 Q 36.01 0.83 36.01 0.85 Q 36.14 1.20 36.14 1.42 Q 36.14 1.70 35.93 1.70 Q 35.55 1.70 35.31 1.32 Q 35.07 0.93 34.95 0.46 Q 34.94 0.39 34.88 0.39 L 34.77 0.39 Q 34.69 0.39 34.69 0.48 L 34.69 0.51 Q 34.84 1.07 35.15 1.51 Q 35.47 1.95 35.95 1.95 Q 36.28 1.95 36.52 1.72 Q 36.75 1.50 36.75 1.16 Q 36.75 0.99 36.67 0.79 Q 36.49 0.31 36.38 0.02 Q 36.27 -0.27 36.18 -0.62 Q 36.09 -0.98 36.09 -1.28 Q 36.09 -1.64 36.26 -1.86 Q 36.42 -2.09 36.77 -2.09 Q 37.42 -2.09 37.95 -1.08 Q 38.12 -0.75 38.26 -0.31 Q 38.41 0.14 38.41 0.41 Q 38.41 0.70 38.32 0.86 Q 38.23 1.02 38.08 1.19 Q 37.93 1.36 37.93 1.47 Q 37.93 1.65 38.08 1.80 Q 38.24 1.95 38.42 1.95 Q 38.65 1.95 38.74 1.75 Q 38.85 1.54 38.85 1.28 Q 38.85 0.96 38.75 0.53 Q 38.66 0.10 38.51 -0.37 Q 38.35 -0.84 38.21 -1.10 Q 37.59 -2.34 36.76 -2.34 Q 36.16 -2.34 35.80 -2.04 Q 35.44 -1.74 35.44 -1.16 Z M 39.74 -1.55 Q 39.74 -1.38 39.82 -1.18 L 40.58 0.85 Q 40.71 1.20 40.71 1.42 Q 40.71 1.70 40.50 1.70 Q 40.13 1.70 39.88 1.32 Q 39.64 0.93 39.53 0.46 Q 39.51 0.39 39.45 0.39 L 39.34 0.39 Q 39.26 0.39 39.26 0.48 L 39.26 0.51 Q 39.41 1.07 39.72 1.51 Q 40.04 1.95 40.52 1.95 Q 40.86 1.95 41.09 1.72 Q 41.32 1.50 41.32 1.16 Q 41.32 0.99 41.24 0.79 L 40.48 -1.24 Q 40.35 -1.55 40.35 -1.81 Q 40.35 -2.09 40.57 -2.09 Q 40.93 -2.09 41.18 -1.69 Q 41.43 -1.30 41.53 -0.84 Q 41.55 -0.79 41.60 -0.79 L 41.72 -0.79 Q 41.76 -0.79 41.78 -0.81 Q 41.80 -0.84 41.80 -0.87 Q 41.80 -0.88 41.79 -0.90 Q 41.66 -1.43 41.34 -1.88 Q 41.02 -2.34 40.55 -2.34 Q 40.22 -2.34 39.98 -2.11 Q 39.74 -1.88 39.74 -1.55 Z M 40.81 3.50 Q 40.81 3.69 40.98 3.86 Q 41.14 4.02 41.34 4.02 Q 41.50 4.02 41.61 3.92 Q 41.71 3.82 41.71 3.67 Q 41.71 3.45 41.54 3.29 Q 41.37 3.14 41.17 3.14 Q 41.02 3.14 40.91 3.24 Q 40.81 3.34 40.81 3.50 Z M 43.90 -2.34 Q 43.31 -2.34 42.96 -1.89 Q 42.62 -1.44 42.62 -0.82 Q 42.62 -0.22 42.93 0.43 Q 43.25 1.08 43.78 1.51 Q 44.31 1.95 44.93 1.95 Q 45.20 1.95 45.43 1.79 Q 45.65 1.64 45.77 1.38 L 46.31 3.49 Q 46.34 3.65 46.35 3.74 Q 46.35 3.89 45.74 3.89 Q 45.64 3.89 45.64 4.02 Q 45.65 4.04 45.66 4.10 Q 45.68 4.16 45.70 4.19 Q 45.73 4.23 45.77 4.23 L 47.05 4.33 Q 47.16 4.33 47.16 4.21 L 45.80 -1.23 Q 45.74 -1.39 45.74 -1.68 Q 45.74 -2.09 46.01 -2.09 Q 46.31 -2.09 46.46 -1.71 Q 46.61 -1.34 46.72 -0.84 Q 46.74 -0.79 46.79 -0.79 L 46.91 -0.79 Q 46.95 -0.79 46.97 -0.82 Q 46.99 -0.85 46.99 -0.88 Q 46.83 -1.54 46.63 -1.94 Q 46.43 -2.34 45.99 -2.34 Q 45.67 -2.34 45.43 -2.15 Q 45.18 -1.96 45.12 -1.65 Q 44.52 -2.34 43.90 -2.34 Z M 43.91 -2.09 Q 44.25 -2.09 44.57 -1.83 Q 44.89 -1.57 45.12 -1.23 Q 45.13 -1.22 45.13 -1.19 L 45.65 0.89 Q 45.59 1.22 45.41 1.46 Q 45.22 1.70 44.90 1.70 Q 44.58 1.70 44.31 1.44 Q 44.04 1.18 43.85 0.82 Q 43.66 0.45 43.49 -0.21 Q 43.32 -0.87 43.32 -1.24 Q 43.32 -1.57 43.47 -1.83 Q 43.61 -2.09 43.91 -2.09 Z M 49.07 -2.34 Q 48.62 -2.34 48.28 -2.10 Q 47.94 -1.87 47.77 -1.47 Q 47.59 -1.07 47.59 -0.62 Q 47.59 0.05 47.93 0.64 Q 48.27 1.24 48.85 1.59 Q 49.43 1.95 50.09 1.95 Q 50.50 1.95 50.80 1.74 Q 51.11 1.53 51.11 1.13 Q 51.11 0.59 50.67 0.32 Q 50.24 0.06 49.69 -0.00 Q 49.15 -0.07 48.49 -0.07 L 48.46 -0.07 Q 48.31 -0.63 48.31 -1.03 Q 48.31 -1.45 48.50 -1.77 Q 48.70 -2.09 49.09 -2.09 Q 49.66 -2.09 50.17 -1.83 Q 50.69 -1.57 51.02 -1.11 Q 51.05 -1.09 51.09 -1.09 Q 51.14 -1.09 51.19 -1.14 Q 51.24 -1.19 51.24 -1.24 Q 51.24 -1.28 51.22 -1.29 Q 50.87 -1.78 50.29 -2.06 Q 49.70 -2.34 49.07 -2.34 Z M 48.52 0.18 Q 49.06 0.18 49.53 0.23 Q 50.00 0.28 50.38 0.48 Q 50.75 0.69 50.75 1.12 Q 50.75 1.30 50.66 1.43 Q 50.56 1.56 50.41 1.63 Q 50.25 1.70 50.08 1.70 Q 49.68 1.70 49.36 1.48 Q 49.04 1.27 48.83 0.92 Q 48.63 0.57 48.52 0.18 Z M 53.47 -2.34 Q 53.02 -2.34 52.67 -2.12 Q 52.32 -1.91 52.13 -1.55 Q 51.94 -1.19 51.94 -0.73 Q 51.94 -0.09 52.30 0.53 Q 52.66 1.16 53.25 1.55 Q 53.85 1.95 54.50 1.95 Q 54.85 1.95 55.12 1.83 Q 55.40 1.71 55.60 1.49 Q 55.80 1.27 55.91 0.98 Q 56.02 0.69 56.02 0.35 Q 56.02 -0.14 55.81 -0.62 Q 55.60 -1.10 55.24 -1.49 Q 54.88 -1.88 54.41 -2.11 Q 53.95 -2.34 53.47 -2.34 Z M 53.49 -2.09 Q 53.90 -2.09 54.25 -1.80 Q 54.60 -1.52 54.82 -1.08 Q 55.05 -0.64 55.17 -0.16 Q 55.29 0.33 55.29 0.72 Q 55.29 1.13 55.08 1.42 Q 54.88 1.70 54.48 1.70 Q 53.92 1.70 53.51 1.23 Q 53.09 0.76 52.88 0.10 Q 52.67 -0.56 52.67 -1.10 Q 52.67 -1.52 52.88 -1.80 Q 53.09 -2.09 53.49 -2.09 Z M 60.38 3.17 Q 60.27 3.17 60.20 3.25 Q 60.13 3.34 60.13 3.44 Q 60.13 3.54 60.20 3.62 Q 60.27 3.71 60.38 3.71 L 64.35 3.71 L 64.35 7.69 Q 64.35 7.80 64.43 7.87 Q 64.51 7.94 64.62 7.94 Q 64.72 7.94 64.81 7.87 Q 64.89 7.80 64.89 7.69 L 64.89 3.71 L 68.86 3.71 Q 68.96 3.71 69.03 3.62 Q 69.11 3.54 69.11 3.44 Q 69.11 3.34 69.03 3.25 Q 68.96 3.17 68.86 3.17 L 64.89 3.17 L 64.89 -0.81 Q 64.89 -0.92 64.81 -0.99 Q 64.72 -1.05 64.62 -1.05 Q 64.51 -1.05 64.43 -0.99 Q 64.35 -0.92 64.35 -0.81 L 64.35 3.17 L 60.38 3.17 Z M 72.73 -0.23 Q 72.64 -0.23 72.64 -0.14 Q 72.64 -0.09 72.69 -0.01 Q 72.79 0.15 72.99 0.34 Q 73.18 0.53 73.27 0.65 Q 73.61 1.14 73.81 1.52 Q 74.15 2.23 74.40 3.16 Q 74.77 4.63 75.07 5.54 Q 75.37 6.46 75.86 7.28 Q 76.24 7.91 76.80 8.43 Q 77.36 8.96 78.04 9.27 Q 78.73 9.59 79.44 9.59 L 79.52 9.59 Q 79.87 9.59 80.10 9.41 Q 80.34 9.23 80.46 8.94 Q 80.59 8.65 80.59 8.31 Q 80.59 7.80 80.42 7.60 Q 79.95 7.09 79.31 7.01 L 79.24 7.01 Q 79.16 7.01 79.16 7.10 Q 79.16 7.11 79.19 7.30 Q 79.22 7.49 79.22 7.63 Q 79.22 8.06 79.00 8.38 Q 78.79 8.71 78.36 8.71 Q 77.86 8.71 77.86 8.62 Q 77.49 8.36 77.15 7.77 Q 76.81 7.17 76.55 6.48 Q 76.30 5.78 76.10 5.08 Q 75.91 4.38 75.75 3.76 Q 75.59 3.10 75.33 2.49 Q 75.07 1.88 74.71 1.34 Q 74.87 1.39 75.10 1.39 L 75.19 1.39 Q 75.66 1.39 76.12 1.30 Q 76.59 1.20 77.24 1.01 Q 77.90 0.83 78.33 0.74 Q 78.77 0.65 79.25 0.65 Q 79.39 0.65 79.48 0.78 Q 79.58 0.91 79.67 1.14 Q 79.76 1.38 79.82 1.46 Q 80.02 1.68 80.32 1.85 Q 80.61 2.01 80.91 2.05 L 80.99 2.05 Q 81.03 2.05 81.05 2.02 Q 81.08 2.00 81.08 1.96 Q 81.08 1.96 81.07 1.92 Q 80.94 1.39 80.45 0.88 Q 79.96 0.37 79.34 0.07 Q 78.71 -0.23 78.19 -0.23 L 78.12 -0.23 Q 77.65 -0.23 77.20 -0.15 Q 76.75 -0.06 76.10 0.12 Q 75.44 0.31 74.98 0.41 Q 74.51 0.51 74.05 0.51 Q 73.45 -0.15 72.81 -0.23 L 72.73 -0.23 Z M 83.77 -2.34 Q 83.18 -2.34 82.83 -1.89 Q 82.49 -1.44 82.49 -0.82 Q 82.49 -0.22 82.80 0.43 Q 83.12 1.08 83.65 1.51 Q 84.19 1.95 84.80 1.95 Q 85.08 1.95 85.30 1.79 Q 85.52 1.64 85.65 1.38 Q 85.75 1.76 86.06 1.76 Q 86.18 1.76 86.26 1.68 Q 86.34 1.61 86.34 1.49 Q 86.34 1.47 86.34 1.45 Q 86.34 1.44 86.34 1.42 L 85.68 -1.22 Q 85.61 -1.50 85.61 -1.68 Q 85.61 -2.09 85.88 -2.09 Q 86.18 -2.09 86.33 -1.71 Q 86.49 -1.34 86.59 -0.84 Q 86.61 -0.79 86.67 -0.79 L 86.78 -0.79 Q 86.82 -0.79 86.84 -0.82 Q 86.87 -0.85 86.87 -0.88 Q 86.70 -1.54 86.50 -1.94 Q 86.31 -2.34 85.86 -2.34 Q 85.55 -2.34 85.30 -2.15 Q 85.06 -1.96 85.00 -1.65 Q 84.39 -2.34 83.77 -2.34 Z M 83.78 -2.09 Q 84.12 -2.09 84.45 -1.83 Q 84.77 -1.57 85.00 -1.23 Q 85.01 -1.22 85.01 -1.20 L 85.51 0.85 L 85.52 0.88 Q 85.47 1.22 85.28 1.46 Q 85.09 1.70 84.78 1.70 Q 84.46 1.70 84.18 1.44 Q 83.91 1.18 83.72 0.82 Q 83.53 0.45 83.37 -0.21 Q 83.20 -0.87 83.20 -1.24 Q 83.20 -1.57 83.34 -1.83 Q 83.48 -2.09 83.78 -2.09 Z M 88.23 -1.10 Q 88.23 -1.52 88.44 -1.80 Q 88.65 -2.09 89.04 -2.09 Q 89.60 -2.09 90.12 -1.83 Q 90.64 -1.57 90.97 -1.11 Q 91.00 -1.09 91.04 -1.09 Q 91.09 -1.09 91.14 -1.14 Q 91.18 -1.19 91.18 -1.24 Q 91.18 -1.28 91.17 -1.29 Q 90.82 -1.78 90.23 -2.06 Q 89.65 -2.34 89.02 -2.34 Q 88.57 -2.34 88.22 -2.12 Q 87.88 -1.91 87.69 -1.55 Q 87.50 -1.19 87.50 -0.73 Q 87.50 -0.10 87.85 0.53 Q 88.21 1.16 88.80 1.55 Q 89.39 1.95 90.04 1.95 Q 90.47 1.95 90.80 1.74 Q 91.14 1.53 91.14 1.13 Q 91.14 0.87 90.99 0.69 Q 90.84 0.51 90.59 0.51 Q 90.44 0.51 90.33 0.60 Q 90.23 0.70 90.23 0.85 Q 90.23 1.07 90.39 1.23 Q 90.55 1.39 90.77 1.39 L 90.79 1.39 Q 90.68 1.55 90.47 1.62 Q 90.26 1.70 90.03 1.70 Q 89.48 1.70 89.06 1.23 Q 88.65 0.76 88.44 0.10 Q 88.23 -0.56 88.23 -1.10 Z M 91.79 -1.46 Q 91.79 -1.33 91.82 -1.20 L 92.50 1.51 L 91.51 1.51 Q 91.41 1.51 91.41 1.64 Q 91.45 1.84 91.54 1.84 L 92.58 1.84 L 92.96 3.38 Q 93.00 3.51 93.11 3.60 Q 93.22 3.68 93.36 3.68 Q 93.48 3.68 93.56 3.61 Q 93.64 3.54 93.64 3.42 Q 93.64 3.39 93.64 3.38 Q 93.64 3.36 93.63 3.34 L 93.25 1.84 L 94.23 1.84 Q 94.32 1.84 94.32 1.72 Q 94.32 1.70 94.30 1.64 Q 94.29 1.58 94.27 1.55 Q 94.24 1.51 94.20 1.51 L 93.17 1.51 L 92.49 -1.22 Q 92.42 -1.49 92.42 -1.68 Q 92.42 -2.09 92.70 -2.09 Q 93.11 -2.09 93.43 -1.70 Q 93.75 -1.31 93.93 -0.84 Q 93.96 -0.79 94.00 -0.79 L 94.11 -0.79 Q 94.15 -0.79 94.17 -0.81 Q 94.20 -0.84 94.20 -0.87 Q 94.20 -0.89 94.19 -0.90 Q 93.98 -1.47 93.58 -1.90 Q 93.19 -2.34 92.68 -2.34 Q 92.30 -2.34 92.04 -2.09 Q 91.79 -1.85 91.79 -1.46 Z M 95.35 -1.55 Q 95.35 -1.38 95.43 -1.18 L 96.19 0.85 Q 96.32 1.20 96.32 1.42 Q 96.32 1.70 96.11 1.70 Q 95.73 1.70 95.49 1.32 Q 95.25 0.93 95.13 0.46 Q 95.12 0.39 95.06 0.39 L 94.95 0.39 Q 94.87 0.39 94.87 0.48 L 94.87 0.51 Q 95.02 1.07 95.33 1.51 Q 95.65 1.95 96.13 1.95 Q 96.46 1.95 96.70 1.72 Q 96.93 1.50 96.93 1.16 Q 96.93 0.99 96.85 0.79 L 96.09 -1.24 Q 95.96 -1.55 95.96 -1.81 Q 95.96 -2.09 96.17 -2.09 Q 96.54 -2.09 96.79 -1.69 Q 97.04 -1.30 97.14 -0.84 Q 97.16 -0.79 97.21 -0.79 L 97.33 -0.79 Q 97.36 -0.79 97.39 -0.81 Q 97.41 -0.84 97.41 -0.87 Q 97.41 -0.88 97.40 -0.90 Q 97.27 -1.43 96.95 -1.88 Q 96.63 -2.34 96.15 -2.34 Q 95.82 -2.34 95.59 -2.11 Q 95.35 -1.88 95.35 -1.55 Z M 96.42 3.50 Q 96.42 3.69 96.58 3.86 Q 96.75 4.02 96.95 4.02 Q 97.11 4.02 97.21 3.92 Q 97.32 3.82 97.32 3.67 Q 97.32 3.45 97.15 3.29 Q 96.98 3.14 96.78 3.14 Q 96.63 3.14 96.52 3.24 Q 96.42 3.34 96.42 3.50 Z M 99.77 -2.34 Q 99.32 -2.34 98.97 -2.12 Q 98.62 -1.91 98.43 -1.55 Q 98.24 -1.19 98.24 -0.73 Q 98.24 -0.09 98.60 0.53 Q 98.96 1.16 99.55 1.55 Q 100.15 1.95 100.80 1.95 Q 101.15 1.95 101.42 1.83 Q 101.70 1.71 101.90 1.49 Q 102.10 1.27 102.21 0.98 Q 102.32 0.69 102.32 0.35 Q 102.32 -0.14 102.11 -0.62 Q 101.90 -1.10 101.54 -1.49 Q 101.18 -1.88 100.71 -2.11 Q 100.25 -2.34 99.77 -2.34 Z M 99.79 -2.09 Q 100.21 -2.09 100.55 -1.80 Q 100.90 -1.52 101.12 -1.08 Q 101.35 -0.64 101.47 -0.16 Q 101.59 0.33 101.59 0.72 Q 101.59 1.13 101.38 1.42 Q 101.18 1.70 100.78 1.70 Q 100.22 1.70 99.81 1.23 Q 99.39 0.76 99.18 0.10 Q 98.97 -0.56 98.97 -1.10 Q 98.97 -1.52 99.18 -1.80 Q 99.39 -2.09 99.79 -2.09 Z M 103.17 -2.07 Q 103.17 -2.01 103.18 -1.99 L 103.88 0.83 Q 103.95 1.10 103.95 1.30 Q 103.95 1.70 103.68 1.70 Q 103.38 1.70 103.24 1.35 Q 103.09 0.99 102.96 0.46 Q 102.96 0.43 102.93 0.41 Q 102.91 0.39 102.88 0.39 L 102.77 0.39 Q 102.74 0.39 102.72 0.43 Q 102.69 0.46 102.69 0.49 Q 102.79 0.90 102.89 1.19 Q 102.98 1.47 103.18 1.71 Q 103.39 1.95 103.69 1.95 Q 104.04 1.95 104.31 1.72 Q 104.58 1.50 104.58 1.15 Q 104.87 1.52 105.24 1.73 Q 105.62 1.95 106.05 1.95 Q 106.38 1.95 106.63 1.83 Q 106.87 1.71 107.01 1.48 Q 107.15 1.25 107.15 0.93 Q 107.15 0.54 106.97 -0.01 Q 106.80 -0.56 106.54 -1.24 Q 106.41 -1.55 106.41 -1.81 Q 106.41 -2.09 106.62 -2.09 Q 106.99 -2.09 107.24 -1.69 Q 107.49 -1.29 107.59 -0.84 Q 107.61 -0.79 107.67 -0.79 L 107.78 -0.79 Q 107.82 -0.79 107.84 -0.81 Q 107.87 -0.83 107.87 -0.87 Q 107.87 -0.88 107.86 -0.90 Q 107.73 -1.43 107.41 -1.88 Q 107.09 -2.34 106.61 -2.34 Q 106.27 -2.34 106.04 -2.11 Q 105.80 -1.88 105.80 -1.55 Q 105.80 -1.38 105.88 -1.18 Q 106.00 -0.87 106.15 -0.45 Q 106.31 -0.02 106.40 0.38 Q 106.50 0.77 106.50 1.07 Q 106.50 1.33 106.39 1.52 Q 106.29 1.70 106.03 1.70 Q 105.68 1.70 105.39 1.55 Q 105.10 1.40 104.88 1.14 Q 104.67 0.89 104.49 0.55 L 103.85 -2.02 Q 103.81 -2.15 103.70 -2.24 Q 103.59 -2.34 103.45 -2.34 Q 103.33 -2.34 103.25 -2.26 Q 103.17 -2.19 103.17 -2.07 Z" fill="#0F172A"/></g><text x="803.5" y="365.3" font-family="Helvetica Neue, Helvetica, Arial, sans-serif" font-size="10.5px" fill="#475569" text-anchor="middle">both are per-frame-averaged MSE on v, with the Gaussian σ-weight; the</text><text x="803.5" y="379.8" font-family="Helvetica Neue, Helvetica, Arial, sans-serif" font-size="10.5px" fill="#475569" text-anchor="middle">action loss is additionally masked to the 16 real dims of the padded 30-dim</text><text x="803.5" y="394.3" font-family="Helvetica Neue, Helvetica, Arial, sans-serif" font-size="10.5px" fill="#475569" text-anchor="middle">dual-arm action space (train.py:256-295).</text><text x="803.5" y="420.3" font-family="Helvetica Neue, Helvetica, Arial, sans-serif" font-size="10.0px" fill="#94A3B8" text-anchor="middle">structural augmentation: chunk size K ~ U{1..4} and attention window ~</text><text x="803.5" y="434.1" font-family="Helvetica Neue, Helvetica, Arial, sans-serif" font-size="10.0px" fill="#94A3B8" text-anchor="middle">U{4..64} are re-rolled EVERY step, rebuilding the mask (train.py:245-247) — the</text><text x="803.5" y="447.9" font-family="Helvetica Neue, Helvetica, Arial, sans-serif" font-size="10.0px" fill="#94A3B8" text-anchor="middle">model must work at any chunking/context length.</text><text x="803.5" y="473.7" font-family="Helvetica Neue, Helvetica, Arial, sans-serif" font-size="10.0px" fill="#94A3B8" text-anchor="middle">paper adds, in post-training only, an FDM loss: re-imagine the next latent from</text><text x="803.5" y="487.5" font-family="Helvetica Neue, Helvetica, Arial, sans-serif" font-size="10.0px" fill="#94A3B8" text-anchor="middle">real feedback and the executing action — used to ground asynchronous inference</text><text x="803.5" y="501.3" font-family="Helvetica Neue, Helvetica, Arial, sans-serif" font-size="10.0px" fill="#94A3B8" text-anchor="middle">(paper Eq. 13).</text></g><g id="labels"><text x="40.0" y="44.0" font-family="Helvetica Neue, Helvetica, Arial, sans-serif" font-size="11.5px" fill="#475569" text-anchor="start">wan_va/utils/scheduler.py</text><text x="40.0" y="27.3" font-family="Helvetica Neue, Helvetica, Arial, sans-serif" font-size="11.5px" fill="#475569" text-anchor="start">Everything below is one forward pass per step: teacher-forced clean history plus noisy targets, per-frame timesteps, two masked MSE losses. wan_va/train.py ·</text><text x="40.0" y="10.6" font-family="Helvetica Neue, Helvetica, Arial, sans-serif" font-size="17px" fill="#0F172A" text-anchor="start" font-weight="600">Fig 8 · Training method — flow matching on an interleaved video-action sequence</text></g></svg>