<svg xmlns="http://www.w3.org/2000/svg" viewBox="57.0 -21.8 835.5 577.4" width="836" height="577"><defs><pattern id="hatch-E0F2FE-0284C7" width="5.5" height="5.5" patternUnits="userSpaceOnUse" patternTransform="rotate(45)"><rect width="5.5" height="5.5" fill="#E0F2FE"/><line x1="0" y1="0" x2="0" y2="5.5" stroke="#0284C7" stroke-width="1.4" stroke-opacity="0.55"/></pattern><pattern id="hatch-D1FAE5-059669" width="5.5" height="5.5" patternUnits="userSpaceOnUse" patternTransform="rotate(45)"><rect width="5.5" height="5.5" fill="#D1FAE5"/><line x1="0" y1="0" x2="0" y2="5.5" stroke="#059669" stroke-width="1.4" stroke-opacity="0.55"/></pattern></defs><rect x="57.0" y="-21.8" width="835.5" height="577.4" fill="#FFFFFF"/><g id="frames"></g><g id="edges"></g><g id="nodes"><text x="273.3" y="80.0" font-family="Helvetica Neue, Helvetica, Arial, sans-serif" font-size="9.5px" fill="#475569" text-anchor="middle" font-weight="600">Key / Value</text><text x="115.8" y="109.0" font-family="SF Mono, Menlo, Consolas, monospace" font-size="9.0px" fill="#475569" text-anchor="middle">~z0</text><text x="136.8" y="109.0" font-family="SF Mono, Menlo, Consolas, monospace" font-size="9.0px" fill="#475569" text-anchor="middle">~z1</text><text x="157.8" y="109.0" font-family="SF Mono, Menlo, Consolas, monospace" font-size="9.0px" fill="#475569" text-anchor="middle">~z2</text><text x="178.8" y="109.0" font-family="SF Mono, Menlo, Consolas, monospace" font-size="9.0px" fill="#475569" text-anchor="middle">~z3</text><text x="199.8" y="109.0" font-family="SF Mono, Menlo, Consolas, monospace" font-size="9.0px" fill="#475569" text-anchor="middle">z0</text><text x="220.8" y="109.0" font-family="SF Mono, Menlo, Consolas, monospace" font-size="9.0px" fill="#475569" text-anchor="middle">z1</text><text x="241.8" y="109.0" font-family="SF Mono, Menlo, Consolas, monospace" font-size="9.0px" fill="#475569" text-anchor="middle">z2</text><text x="262.8" y="109.0" font-family="SF Mono, Menlo, Consolas, monospace" font-size="9.0px" fill="#475569" text-anchor="middle">z3</text><text x="283.8" y="109.0" font-family="SF Mono, Menlo, Consolas, monospace" font-size="9.0px" fill="#475569" text-anchor="middle">~a0</text><text x="304.8" y="109.0" font-family="SF Mono, Menlo, Consolas, monospace" font-size="9.0px" fill="#475569" text-anchor="middle">~a1</text><text x="325.8" y="109.0" font-family="SF Mono, Menlo, Consolas, monospace" font-size="9.0px" fill="#475569" text-anchor="middle">~a2</text><text x="346.8" y="109.0" font-family="SF Mono, Menlo, Consolas, monospace" font-size="9.0px" fill="#475569" text-anchor="middle">~a3</text><text x="367.8" y="109.0" font-family="SF Mono, Menlo, Consolas, monospace" font-size="9.0px" fill="#475569" text-anchor="middle">a0</text><text x="388.8" y="109.0" font-family="SF Mono, Menlo, Consolas, monospace" font-size="9.0px" fill="#475569" text-anchor="middle">a1</text><text x="409.8" y="109.0" font-family="SF Mono, Menlo, Consolas, monospace" font-size="9.0px" fill="#475569" text-anchor="middle">a2</text><text x="430.8" y="109.0" font-family="SF Mono, Menlo, Consolas, monospace" font-size="9.0px" fill="#475569" text-anchor="middle">a3</text><text x="98.3" y="127.7" font-family="SF Mono, Menlo, Consolas, monospace" font-size="9.0px" fill="#475569" text-anchor="end">~z0</text><rect x="105.3" y="114.0" width="19.6" height="19.6" rx="2.5" fill="#A7F3D0" stroke="#CBD5E1" stroke-width="0.7"/><rect x="126.3" y="114.0" width="19.6" height="19.6" rx="2.5" fill="#A7F3D0" stroke="#CBD5E1" stroke-width="0.7"/><rect x="147.3" y="114.0" width="19.6" height="19.6" rx="2.5" fill="#FFFFFF" stroke="#CBD5E1" stroke-width="0.7"/><rect x="168.3" y="114.0" width="19.6" height="19.6" rx="2.5" fill="#FFFFFF" stroke="#CBD5E1" stroke-width="0.7"/><rect x="189.3" y="114.0" width="19.6" height="19.6" rx="2.5" fill="#FFFFFF" stroke="#CBD5E1" stroke-width="0.7"/><rect x="210.3" y="114.0" width="19.6" height="19.6" rx="2.5" fill="#FFFFFF" stroke="#CBD5E1" stroke-width="0.7"/><rect x="231.3" y="114.0" width="19.6" height="19.6" rx="2.5" fill="#FFFFFF" stroke="#CBD5E1" stroke-width="0.7"/><rect x="252.3" y="114.0" width="19.6" height="19.6" rx="2.5" fill="#FFFFFF" stroke="#CBD5E1" stroke-width="0.7"/><rect x="273.3" y="114.0" width="19.6" height="19.6" rx="2.5" fill="#FFFFFF" stroke="#CBD5E1" stroke-width="0.7"/><rect x="294.3" y="114.0" width="19.6" height="19.6" rx="2.5" fill="#FFFFFF" stroke="#CBD5E1" stroke-width="0.7"/><rect x="315.3" y="114.0" width="19.6" height="19.6" rx="2.5" fill="#FFFFFF" stroke="#CBD5E1" stroke-width="0.7"/><rect x="336.3" y="114.0" width="19.6" height="19.6" rx="2.5" fill="#FFFFFF" stroke="#CBD5E1" stroke-width="0.7"/><rect x="357.3" y="114.0" width="19.6" height="19.6" rx="2.5" fill="#FFFFFF" stroke="#CBD5E1" stroke-width="0.7"/><rect x="378.3" y="114.0" width="19.6" height="19.6" rx="2.5" fill="#FFFFFF" stroke="#CBD5E1" stroke-width="0.7"/><rect x="399.3" y="114.0" width="19.6" height="19.6" rx="2.5" fill="#FFFFFF" stroke="#CBD5E1" stroke-width="0.7"/><rect x="420.3" y="114.0" width="19.6" height="19.6" rx="2.5" fill="#FFFFFF" stroke="#CBD5E1" stroke-width="0.7"/><text x="98.3" y="148.7" font-family="SF Mono, Menlo, Consolas, monospace" font-size="9.0px" fill="#475569" text-anchor="end">~z1</text><rect x="105.3" y="135.0" width="19.6" height="19.6" rx="2.5" fill="#A7F3D0" stroke="#CBD5E1" stroke-width="0.7"/><rect x="126.3" y="135.0" width="19.6" height="19.6" rx="2.5" fill="#A7F3D0" stroke="#CBD5E1" stroke-width="0.7"/><rect x="147.3" y="135.0" width="19.6" height="19.6" rx="2.5" fill="#FFFFFF" stroke="#CBD5E1" stroke-width="0.7"/><rect x="168.3" y="135.0" width="19.6" height="19.6" rx="2.5" fill="#FFFFFF" stroke="#CBD5E1" stroke-width="0.7"/><rect x="189.3" y="135.0" width="19.6" height="19.6" rx="2.5" fill="#FFFFFF" stroke="#CBD5E1" stroke-width="0.7"/><rect x="210.3" y="135.0" width="19.6" height="19.6" rx="2.5" fill="#FFFFFF" stroke="#CBD5E1" stroke-width="0.7"/><rect x="231.3" y="135.0" width="19.6" height="19.6" rx="2.5" fill="#FFFFFF" stroke="#CBD5E1" stroke-width="0.7"/><rect x="252.3" y="135.0" width="19.6" height="19.6" rx="2.5" fill="#FFFFFF" stroke="#CBD5E1" stroke-width="0.7"/><rect x="273.3" y="135.0" width="19.6" height="19.6" rx="2.5" fill="#FFFFFF" stroke="#CBD5E1" stroke-width="0.7"/><rect x="294.3" y="135.0" width="19.6" height="19.6" rx="2.5" fill="#FFFFFF" stroke="#CBD5E1" stroke-width="0.7"/><rect x="315.3" y="135.0" width="19.6" height="19.6" rx="2.5" fill="#FFFFFF" stroke="#CBD5E1" stroke-width="0.7"/><rect x="336.3" y="135.0" width="19.6" height="19.6" rx="2.5" fill="#FFFFFF" stroke="#CBD5E1" stroke-width="0.7"/><rect x="357.3" y="135.0" width="19.6" height="19.6" rx="2.5" fill="#FFFFFF" stroke="#CBD5E1" stroke-width="0.7"/><rect x="378.3" y="135.0" width="19.6" height="19.6" rx="2.5" fill="#FFFFFF" stroke="#CBD5E1" stroke-width="0.7"/><rect x="399.3" y="135.0" width="19.6" height="19.6" rx="2.5" fill="#FFFFFF" stroke="#CBD5E1" stroke-width="0.7"/><rect x="420.3" y="135.0" width="19.6" height="19.6" rx="2.5" fill="#FFFFFF" stroke="#CBD5E1" stroke-width="0.7"/><text x="98.3" y="169.7" font-family="SF Mono, Menlo, Consolas, monospace" font-size="9.0px" fill="#475569" text-anchor="end">~z2</text><rect x="105.3" y="156.0" width="19.6" height="19.6" rx="2.5" fill="#FFFFFF" stroke="#CBD5E1" stroke-width="0.7"/><rect x="126.3" y="156.0" width="19.6" height="19.6" rx="2.5" fill="#FFFFFF" stroke="#CBD5E1" stroke-width="0.7"/><rect x="147.3" y="156.0" width="19.6" height="19.6" rx="2.5" fill="#A7F3D0" stroke="#CBD5E1" stroke-width="0.7"/><rect x="168.3" y="156.0" width="19.6" height="19.6" rx="2.5" fill="#A7F3D0" stroke="#CBD5E1" stroke-width="0.7"/><rect x="189.3" y="156.0" width="19.6" height="19.6" rx="2.5" fill="#BAE6FD" stroke="#CBD5E1" stroke-width="0.7"/><rect x="210.3" y="156.0" width="19.6" height="19.6" rx="2.5" fill="#BAE6FD" stroke="#CBD5E1" stroke-width="0.7"/><rect x="231.3" y="156.0" width="19.6" height="19.6" rx="2.5" fill="#FFFFFF" stroke="#CBD5E1" stroke-width="0.7"/><rect x="252.3" y="156.0" width="19.6" height="19.6" rx="2.5" fill="#FFFFFF" stroke="#CBD5E1" stroke-width="0.7"/><rect x="273.3" y="156.0" width="19.6" height="19.6" rx="2.5" fill="#FFFFFF" stroke="#CBD5E1" stroke-width="0.7"/><rect x="294.3" y="156.0" width="19.6" height="19.6" rx="2.5" fill="#FFFFFF" stroke="#CBD5E1" stroke-width="0.7"/><rect x="315.3" y="156.0" width="19.6" height="19.6" rx="2.5" fill="#FFFFFF" stroke="#CBD5E1" stroke-width="0.7"/><rect x="336.3" y="156.0" width="19.6" height="19.6" rx="2.5" fill="#FFFFFF" stroke="#CBD5E1" stroke-width="0.7"/><rect x="357.3" y="156.0" width="19.6" height="19.6" rx="2.5" fill="#BAE6FD" stroke="#CBD5E1" stroke-width="0.7"/><rect x="378.3" y="156.0" width="19.6" height="19.6" rx="2.5" fill="#BAE6FD" stroke="#CBD5E1" stroke-width="0.7"/><rect x="399.3" y="156.0" width="19.6" height="19.6" rx="2.5" fill="#FFFFFF" stroke="#CBD5E1" stroke-width="0.7"/><rect x="420.3" y="156.0" width="19.6" height="19.6" rx="2.5" fill="#FFFFFF" stroke="#CBD5E1" stroke-width="0.7"/><text x="98.3" y="190.7" font-family="SF Mono, Menlo, Consolas, monospace" font-size="9.0px" fill="#475569" text-anchor="end">~z3</text><rect x="105.3" y="177.0" width="19.6" height="19.6" rx="2.5" fill="#FFFFFF" stroke="#CBD5E1" stroke-width="0.7"/><rect x="126.3" y="177.0" width="19.6" height="19.6" rx="2.5" fill="#FFFFFF" stroke="#CBD5E1" stroke-width="0.7"/><rect x="147.3" y="177.0" width="19.6" height="19.6" rx="2.5" fill="#A7F3D0" stroke="#CBD5E1" stroke-width="0.7"/><rect x="168.3" y="177.0" width="19.6" height="19.6" rx="2.5" fill="#A7F3D0" stroke="#CBD5E1" stroke-width="0.7"/><rect x="189.3" y="177.0" width="19.6" height="19.6" rx="2.5" fill="#BAE6FD" stroke="#CBD5E1" stroke-width="0.7"/><rect x="210.3" y="177.0" width="19.6" height="19.6" rx="2.5" fill="#BAE6FD" stroke="#CBD5E1" stroke-width="0.7"/><rect x="231.3" y="177.0" width="19.6" height="19.6" rx="2.5" fill="#FFFFFF" stroke="#CBD5E1" stroke-width="0.7"/><rect x="252.3" y="177.0" width="19.6" height="19.6" rx="2.5" fill="#FFFFFF" stroke="#CBD5E1" stroke-width="0.7"/><rect x="273.3" y="177.0" width="19.6" height="19.6" rx="2.5" fill="#FFFFFF" stroke="#CBD5E1" stroke-width="0.7"/><rect x="294.3" y="177.0" width="19.6" height="19.6" rx="2.5" fill="#FFFFFF" stroke="#CBD5E1" stroke-width="0.7"/><rect x="315.3" y="177.0" width="19.6" height="19.6" rx="2.5" fill="#FFFFFF" stroke="#CBD5E1" stroke-width="0.7"/><rect x="336.3" y="177.0" width="19.6" height="19.6" rx="2.5" fill="#FFFFFF" stroke="#CBD5E1" stroke-width="0.7"/><rect x="357.3" y="177.0" width="19.6" height="19.6" rx="2.5" fill="#BAE6FD" stroke="#CBD5E1" stroke-width="0.7"/><rect x="378.3" y="177.0" width="19.6" height="19.6" rx="2.5" fill="#BAE6FD" stroke="#CBD5E1" stroke-width="0.7"/><rect x="399.3" y="177.0" width="19.6" height="19.6" rx="2.5" fill="#FFFFFF" stroke="#CBD5E1" stroke-width="0.7"/><rect x="420.3" y="177.0" width="19.6" height="19.6" rx="2.5" fill="#FFFFFF" stroke="#CBD5E1" stroke-width="0.7"/><text x="98.3" y="211.7" font-family="SF Mono, Menlo, Consolas, monospace" font-size="9.0px" fill="#475569" text-anchor="end">z0</text><rect x="105.3" y="198.0" width="19.6" height="19.6" rx="2.5" fill="#FFFFFF" stroke="#CBD5E1" stroke-width="0.7"/><rect x="126.3" y="198.0" width="19.6" height="19.6" rx="2.5" fill="#FFFFFF" stroke="#CBD5E1" stroke-width="0.7"/><rect x="147.3" y="198.0" width="19.6" height="19.6" rx="2.5" fill="#FFFFFF" stroke="#CBD5E1" stroke-width="0.7"/><rect x="168.3" y="198.0" width="19.6" height="19.6" rx="2.5" fill="#FFFFFF" stroke="#CBD5E1" stroke-width="0.7"/><rect x="189.3" y="198.0" width="19.6" height="19.6" rx="2.5" fill="#FDE68A" stroke="#CBD5E1" stroke-width="0.7"/><rect x="210.3" y="198.0" width="19.6" height="19.6" rx="2.5" fill="#FDE68A" stroke="#CBD5E1" stroke-width="0.7"/><rect x="231.3" y="198.0" width="19.6" height="19.6" rx="2.5" fill="#FFFFFF" stroke="#CBD5E1" stroke-width="0.7"/><rect x="252.3" y="198.0" width="19.6" height="19.6" rx="2.5" fill="#FFFFFF" stroke="#CBD5E1" stroke-width="0.7"/><rect x="273.3" y="198.0" width="19.6" height="19.6" rx="2.5" fill="#FFFFFF" stroke="#CBD5E1" stroke-width="0.7"/><rect x="294.3" y="198.0" width="19.6" height="19.6" rx="2.5" fill="#FFFFFF" stroke="#CBD5E1" stroke-width="0.7"/><rect x="315.3" y="198.0" width="19.6" height="19.6" rx="2.5" fill="#FFFFFF" stroke="#CBD5E1" stroke-width="0.7"/><rect x="336.3" y="198.0" width="19.6" height="19.6" rx="2.5" fill="#FFFFFF" stroke="#CBD5E1" stroke-width="0.7"/><rect x="357.3" y="198.0" width="19.6" height="19.6" rx="2.5" fill="#FFFFFF" stroke="#CBD5E1" stroke-width="0.7"/><rect x="378.3" y="198.0" width="19.6" height="19.6" rx="2.5" fill="#FFFFFF" stroke="#CBD5E1" stroke-width="0.7"/><rect x="399.3" y="198.0" width="19.6" height="19.6" rx="2.5" fill="#FFFFFF" stroke="#CBD5E1" stroke-width="0.7"/><rect x="420.3" y="198.0" width="19.6" height="19.6" rx="2.5" fill="#FFFFFF" stroke="#CBD5E1" stroke-width="0.7"/><text x="98.3" y="232.7" font-family="SF Mono, Menlo, Consolas, monospace" font-size="9.0px" fill="#475569" text-anchor="end">z1</text><rect x="105.3" y="219.0" width="19.6" height="19.6" rx="2.5" fill="#FFFFFF" stroke="#CBD5E1" stroke-width="0.7"/><rect x="126.3" y="219.0" width="19.6" height="19.6" rx="2.5" fill="#FFFFFF" stroke="#CBD5E1" stroke-width="0.7"/><rect x="147.3" y="219.0" width="19.6" height="19.6" rx="2.5" fill="#FFFFFF" stroke="#CBD5E1" stroke-width="0.7"/><rect x="168.3" y="219.0" width="19.6" height="19.6" rx="2.5" fill="#FFFFFF" stroke="#CBD5E1" stroke-width="0.7"/><rect x="189.3" y="219.0" width="19.6" height="19.6" rx="2.5" fill="#FDE68A" stroke="#CBD5E1" stroke-width="0.7"/><rect x="210.3" y="219.0" width="19.6" height="19.6" rx="2.5" fill="#FDE68A" stroke="#CBD5E1" stroke-width="0.7"/><rect x="231.3" y="219.0" width="19.6" height="19.6" rx="2.5" fill="#FFFFFF" stroke="#CBD5E1" stroke-width="0.7"/><rect x="252.3" y="219.0" width="19.6" height="19.6" rx="2.5" fill="#FFFFFF" stroke="#CBD5E1" stroke-width="0.7"/><rect x="273.3" y="219.0" width="19.6" height="19.6" rx="2.5" fill="#FFFFFF" stroke="#CBD5E1" stroke-width="0.7"/><rect x="294.3" y="219.0" width="19.6" height="19.6" rx="2.5" fill="#FFFFFF" stroke="#CBD5E1" stroke-width="0.7"/><rect x="315.3" y="219.0" width="19.6" height="19.6" rx="2.5" fill="#FFFFFF" stroke="#CBD5E1" stroke-width="0.7"/><rect x="336.3" y="219.0" width="19.6" height="19.6" rx="2.5" fill="#FFFFFF" stroke="#CBD5E1" stroke-width="0.7"/><rect x="357.3" y="219.0" width="19.6" height="19.6" rx="2.5" fill="#FFFFFF" stroke="#CBD5E1" stroke-width="0.7"/><rect x="378.3" y="219.0" width="19.6" height="19.6" rx="2.5" fill="#FFFFFF" stroke="#CBD5E1" stroke-width="0.7"/><rect x="399.3" y="219.0" width="19.6" height="19.6" rx="2.5" fill="#FFFFFF" stroke="#CBD5E1" stroke-width="0.7"/><rect x="420.3" y="219.0" width="19.6" height="19.6" rx="2.5" fill="#FFFFFF" stroke="#CBD5E1" stroke-width="0.7"/><text x="98.3" y="253.7" font-family="SF Mono, Menlo, Consolas, monospace" font-size="9.0px" fill="#475569" text-anchor="end">z2</text><rect x="105.3" y="240.0" width="19.6" height="19.6" rx="2.5" fill="#FFFFFF" stroke="#CBD5E1" stroke-width="0.7"/><rect x="126.3" y="240.0" width="19.6" height="19.6" rx="2.5" fill="#FFFFFF" stroke="#CBD5E1" stroke-width="0.7"/><rect x="147.3" y="240.0" width="19.6" height="19.6" rx="2.5" fill="#FFFFFF" stroke="#CBD5E1" stroke-width="0.7"/><rect x="168.3" y="240.0" width="19.6" height="19.6" rx="2.5" fill="#FFFFFF" stroke="#CBD5E1" stroke-width="0.7"/><rect x="189.3" y="240.0" width="19.6" height="19.6" rx="2.5" fill="#FDE68A" stroke="#CBD5E1" stroke-width="0.7"/><rect x="210.3" y="240.0" width="19.6" height="19.6" rx="2.5" fill="#FDE68A" stroke="#CBD5E1" stroke-width="0.7"/><rect x="231.3" y="240.0" width="19.6" height="19.6" rx="2.5" fill="#FDE68A" stroke="#CBD5E1" stroke-width="0.7"/><rect x="252.3" y="240.0" width="19.6" height="19.6" rx="2.5" fill="#FDE68A" stroke="#CBD5E1" stroke-width="0.7"/><rect x="273.3" y="240.0" width="19.6" height="19.6" rx="2.5" fill="#FFFFFF" stroke="#CBD5E1" stroke-width="0.7"/><rect x="294.3" y="240.0" width="19.6" height="19.6" rx="2.5" fill="#FFFFFF" stroke="#CBD5E1" stroke-width="0.7"/><rect x="315.3" y="240.0" width="19.6" height="19.6" rx="2.5" fill="#FFFFFF" stroke="#CBD5E1" stroke-width="0.7"/><rect x="336.3" y="240.0" width="19.6" height="19.6" rx="2.5" fill="#FFFFFF" stroke="#CBD5E1" stroke-width="0.7"/><rect x="357.3" y="240.0" width="19.6" height="19.6" rx="2.5" fill="#FDE68A" stroke="#CBD5E1" stroke-width="0.7"/><rect x="378.3" y="240.0" width="19.6" height="19.6" rx="2.5" fill="#FDE68A" stroke="#CBD5E1" stroke-width="0.7"/><rect x="399.3" y="240.0" width="19.6" height="19.6" rx="2.5" fill="#FFFFFF" stroke="#CBD5E1" stroke-width="0.7"/><rect x="420.3" y="240.0" width="19.6" height="19.6" rx="2.5" fill="#FFFFFF" stroke="#CBD5E1" stroke-width="0.7"/><text x="98.3" y="274.7" font-family="SF Mono, Menlo, Consolas, monospace" font-size="9.0px" fill="#475569" text-anchor="end">z3</text><rect x="105.3" y="261.0" width="19.6" height="19.6" rx="2.5" fill="#FFFFFF" stroke="#CBD5E1" stroke-width="0.7"/><rect x="126.3" y="261.0" width="19.6" height="19.6" rx="2.5" fill="#FFFFFF" stroke="#CBD5E1" stroke-width="0.7"/><rect x="147.3" y="261.0" width="19.6" height="19.6" rx="2.5" fill="#FFFFFF" stroke="#CBD5E1" stroke-width="0.7"/><rect x="168.3" y="261.0" width="19.6" height="19.6" rx="2.5" fill="#FFFFFF" stroke="#CBD5E1" stroke-width="0.7"/><rect x="189.3" y="261.0" width="19.6" height="19.6" rx="2.5" fill="#FDE68A" stroke="#CBD5E1" stroke-width="0.7"/><rect x="210.3" y="261.0" width="19.6" height="19.6" rx="2.5" fill="#FDE68A" stroke="#CBD5E1" stroke-width="0.7"/><rect x="231.3" y="261.0" width="19.6" height="19.6" rx="2.5" fill="#FDE68A" stroke="#CBD5E1" stroke-width="0.7"/><rect x="252.3" y="261.0" width="19.6" height="19.6" rx="2.5" fill="#FDE68A" stroke="#CBD5E1" stroke-width="0.7"/><rect x="273.3" y="261.0" width="19.6" height="19.6" rx="2.5" fill="#FFFFFF" stroke="#CBD5E1" stroke-width="0.7"/><rect x="294.3" y="261.0" width="19.6" height="19.6" rx="2.5" fill="#FFFFFF" stroke="#CBD5E1" stroke-width="0.7"/><rect x="315.3" y="261.0" width="19.6" height="19.6" rx="2.5" fill="#FFFFFF" stroke="#CBD5E1" stroke-width="0.7"/><rect x="336.3" y="261.0" width="19.6" height="19.6" rx="2.5" fill="#FFFFFF" stroke="#CBD5E1" stroke-width="0.7"/><rect x="357.3" y="261.0" width="19.6" height="19.6" rx="2.5" fill="#FDE68A" stroke="#CBD5E1" stroke-width="0.7"/><rect x="378.3" y="261.0" width="19.6" height="19.6" rx="2.5" fill="#FDE68A" stroke="#CBD5E1" stroke-width="0.7"/><rect x="399.3" y="261.0" width="19.6" height="19.6" rx="2.5" fill="#FFFFFF" stroke="#CBD5E1" stroke-width="0.7"/><rect x="420.3" y="261.0" width="19.6" height="19.6" rx="2.5" fill="#FFFFFF" stroke="#CBD5E1" stroke-width="0.7"/><text x="98.3" y="295.7" font-family="SF Mono, Menlo, Consolas, monospace" font-size="9.0px" fill="#475569" text-anchor="end">~a0</text><rect x="105.3" y="282.0" width="19.6" height="19.6" rx="2.5" fill="#FFFFFF" stroke="#CBD5E1" stroke-width="0.7"/><rect x="126.3" y="282.0" width="19.6" height="19.6" rx="2.5" fill="#FFFFFF" stroke="#CBD5E1" stroke-width="0.7"/><rect x="147.3" y="282.0" width="19.6" height="19.6" rx="2.5" fill="#FFFFFF" stroke="#CBD5E1" stroke-width="0.7"/><rect x="168.3" y="282.0" width="19.6" height="19.6" rx="2.5" fill="#FFFFFF" stroke="#CBD5E1" stroke-width="0.7"/><rect x="189.3" y="282.0" width="19.6" height="19.6" rx="2.5" fill="#BAE6FD" stroke="#CBD5E1" stroke-width="0.7"/><rect x="210.3" y="282.0" width="19.6" height="19.6" rx="2.5" fill="#BAE6FD" stroke="#CBD5E1" stroke-width="0.7"/><rect x="231.3" y="282.0" width="19.6" height="19.6" rx="2.5" fill="#FFFFFF" stroke="#CBD5E1" stroke-width="0.7"/><rect x="252.3" y="282.0" width="19.6" height="19.6" rx="2.5" fill="#FFFFFF" stroke="#CBD5E1" stroke-width="0.7"/><rect x="273.3" y="282.0" width="19.6" height="19.6" rx="2.5" fill="#A7F3D0" stroke="#CBD5E1" stroke-width="0.7"/><rect x="294.3" y="282.0" width="19.6" height="19.6" rx="2.5" fill="#A7F3D0" stroke="#CBD5E1" stroke-width="0.7"/><rect x="315.3" y="282.0" width="19.6" height="19.6" rx="2.5" fill="#FFFFFF" stroke="#CBD5E1" stroke-width="0.7"/><rect x="336.3" y="282.0" width="19.6" height="19.6" rx="2.5" fill="#FFFFFF" stroke="#CBD5E1" stroke-width="0.7"/><rect x="357.3" y="282.0" width="19.6" height="19.6" rx="2.5" fill="#FFFFFF" stroke="#CBD5E1" stroke-width="0.7"/><rect x="378.3" y="282.0" width="19.6" height="19.6" rx="2.5" fill="#FFFFFF" stroke="#CBD5E1" stroke-width="0.7"/><rect x="399.3" y="282.0" width="19.6" height="19.6" rx="2.5" fill="#FFFFFF" stroke="#CBD5E1" stroke-width="0.7"/><rect x="420.3" y="282.0" width="19.6" height="19.6" rx="2.5" fill="#FFFFFF" stroke="#CBD5E1" stroke-width="0.7"/><text x="98.3" y="316.7" font-family="SF Mono, Menlo, Consolas, monospace" font-size="9.0px" fill="#475569" text-anchor="end">~a1</text><rect x="105.3" y="303.0" width="19.6" height="19.6" rx="2.5" fill="#FFFFFF" stroke="#CBD5E1" stroke-width="0.7"/><rect x="126.3" y="303.0" width="19.6" height="19.6" rx="2.5" fill="#FFFFFF" stroke="#CBD5E1" stroke-width="0.7"/><rect x="147.3" y="303.0" width="19.6" height="19.6" rx="2.5" fill="#FFFFFF" stroke="#CBD5E1" stroke-width="0.7"/><rect x="168.3" y="303.0" width="19.6" height="19.6" rx="2.5" fill="#FFFFFF" stroke="#CBD5E1" stroke-width="0.7"/><rect x="189.3" y="303.0" width="19.6" height="19.6" rx="2.5" fill="#BAE6FD" stroke="#CBD5E1" stroke-width="0.7"/><rect x="210.3" y="303.0" width="19.6" height="19.6" rx="2.5" fill="#BAE6FD" stroke="#CBD5E1" stroke-width="0.7"/><rect x="231.3" y="303.0" width="19.6" height="19.6" rx="2.5" fill="#FFFFFF" stroke="#CBD5E1" stroke-width="0.7"/><rect x="252.3" y="303.0" width="19.6" height="19.6" rx="2.5" fill="#FFFFFF" stroke="#CBD5E1" stroke-width="0.7"/><rect x="273.3" y="303.0" width="19.6" height="19.6" rx="2.5" fill="#A7F3D0" stroke="#CBD5E1" stroke-width="0.7"/><rect x="294.3" y="303.0" width="19.6" height="19.6" rx="2.5" fill="#A7F3D0" stroke="#CBD5E1" stroke-width="0.7"/><rect x="315.3" y="303.0" width="19.6" height="19.6" rx="2.5" fill="#FFFFFF" stroke="#CBD5E1" stroke-width="0.7"/><rect x="336.3" y="303.0" width="19.6" height="19.6" rx="2.5" fill="#FFFFFF" stroke="#CBD5E1" stroke-width="0.7"/><rect x="357.3" y="303.0" width="19.6" height="19.6" rx="2.5" fill="#FFFFFF" stroke="#CBD5E1" stroke-width="0.7"/><rect x="378.3" y="303.0" width="19.6" height="19.6" rx="2.5" fill="#FFFFFF" stroke="#CBD5E1" stroke-width="0.7"/><rect x="399.3" y="303.0" width="19.6" height="19.6" rx="2.5" fill="#FFFFFF" stroke="#CBD5E1" stroke-width="0.7"/><rect x="420.3" y="303.0" width="19.6" height="19.6" rx="2.5" fill="#FFFFFF" stroke="#CBD5E1" stroke-width="0.7"/><text x="98.3" y="337.7" font-family="SF Mono, Menlo, Consolas, monospace" font-size="9.0px" fill="#475569" text-anchor="end">~a2</text><rect x="105.3" y="324.0" width="19.6" height="19.6" rx="2.5" fill="#FFFFFF" stroke="#CBD5E1" stroke-width="0.7"/><rect x="126.3" y="324.0" width="19.6" height="19.6" rx="2.5" fill="#FFFFFF" stroke="#CBD5E1" stroke-width="0.7"/><rect x="147.3" y="324.0" width="19.6" height="19.6" rx="2.5" fill="#FFFFFF" stroke="#CBD5E1" stroke-width="0.7"/><rect x="168.3" y="324.0" width="19.6" height="19.6" rx="2.5" fill="#FFFFFF" stroke="#CBD5E1" stroke-width="0.7"/><rect x="189.3" y="324.0" width="19.6" height="19.6" rx="2.5" fill="#BAE6FD" stroke="#CBD5E1" stroke-width="0.7"/><rect x="210.3" y="324.0" width="19.6" height="19.6" rx="2.5" fill="#BAE6FD" stroke="#CBD5E1" stroke-width="0.7"/><rect x="231.3" y="324.0" width="19.6" height="19.6" rx="2.5" fill="#BAE6FD" stroke="#CBD5E1" stroke-width="0.7"/><rect x="252.3" y="324.0" width="19.6" height="19.6" rx="2.5" fill="#BAE6FD" stroke="#CBD5E1" stroke-width="0.7"/><rect x="273.3" y="324.0" width="19.6" height="19.6" rx="2.5" fill="#FFFFFF" stroke="#CBD5E1" stroke-width="0.7"/><rect x="294.3" y="324.0" width="19.6" height="19.6" rx="2.5" fill="#FFFFFF" stroke="#CBD5E1" stroke-width="0.7"/><rect x="315.3" y="324.0" width="19.6" height="19.6" rx="2.5" fill="#A7F3D0" stroke="#CBD5E1" stroke-width="0.7"/><rect x="336.3" y="324.0" width="19.6" height="19.6" rx="2.5" fill="#A7F3D0" stroke="#CBD5E1" stroke-width="0.7"/><rect x="357.3" y="324.0" width="19.6" height="19.6" rx="2.5" fill="#BAE6FD" stroke="#CBD5E1" stroke-width="0.7"/><rect x="378.3" y="324.0" width="19.6" height="19.6" rx="2.5" fill="#BAE6FD" stroke="#CBD5E1" stroke-width="0.7"/><rect x="399.3" y="324.0" width="19.6" height="19.6" rx="2.5" fill="#FFFFFF" stroke="#CBD5E1" stroke-width="0.7"/><rect x="420.3" y="324.0" width="19.6" height="19.6" rx="2.5" fill="#FFFFFF" stroke="#CBD5E1" stroke-width="0.7"/><text x="98.3" y="358.7" font-family="SF Mono, Menlo, Consolas, monospace" font-size="9.0px" fill="#475569" text-anchor="end">~a3</text><rect x="105.3" y="345.0" width="19.6" height="19.6" rx="2.5" fill="#FFFFFF" stroke="#CBD5E1" stroke-width="0.7"/><rect x="126.3" y="345.0" width="19.6" height="19.6" rx="2.5" fill="#FFFFFF" stroke="#CBD5E1" stroke-width="0.7"/><rect x="147.3" y="345.0" width="19.6" height="19.6" rx="2.5" fill="#FFFFFF" stroke="#CBD5E1" stroke-width="0.7"/><rect x="168.3" y="345.0" width="19.6" height="19.6" rx="2.5" fill="#FFFFFF" stroke="#CBD5E1" stroke-width="0.7"/><rect x="189.3" y="345.0" width="19.6" height="19.6" rx="2.5" fill="#BAE6FD" stroke="#CBD5E1" stroke-width="0.7"/><rect x="210.3" y="345.0" width="19.6" height="19.6" rx="2.5" fill="#BAE6FD" stroke="#CBD5E1" stroke-width="0.7"/><rect x="231.3" y="345.0" width="19.6" height="19.6" rx="2.5" fill="#BAE6FD" stroke="#CBD5E1" stroke-width="0.7"/><rect x="252.3" y="345.0" width="19.6" height="19.6" rx="2.5" fill="#BAE6FD" stroke="#CBD5E1" stroke-width="0.7"/><rect x="273.3" y="345.0" width="19.6" height="19.6" rx="2.5" fill="#FFFFFF" stroke="#CBD5E1" stroke-width="0.7"/><rect x="294.3" y="345.0" width="19.6" height="19.6" rx="2.5" fill="#FFFFFF" stroke="#CBD5E1" stroke-width="0.7"/><rect x="315.3" y="345.0" width="19.6" height="19.6" rx="2.5" fill="#A7F3D0" stroke="#CBD5E1" stroke-width="0.7"/><rect x="336.3" y="345.0" width="19.6" height="19.6" rx="2.5" fill="#A7F3D0" stroke="#CBD5E1" stroke-width="0.7"/><rect x="357.3" y="345.0" width="19.6" height="19.6" rx="2.5" fill="#BAE6FD" stroke="#CBD5E1" stroke-width="0.7"/><rect x="378.3" y="345.0" width="19.6" height="19.6" rx="2.5" fill="#BAE6FD" stroke="#CBD5E1" stroke-width="0.7"/><rect x="399.3" y="345.0" width="19.6" height="19.6" rx="2.5" fill="#FFFFFF" stroke="#CBD5E1" stroke-width="0.7"/><rect x="420.3" y="345.0" width="19.6" height="19.6" rx="2.5" fill="#FFFFFF" stroke="#CBD5E1" stroke-width="0.7"/><text x="98.3" y="379.7" font-family="SF Mono, Menlo, Consolas, monospace" font-size="9.0px" fill="#475569" text-anchor="end">a0</text><rect x="105.3" y="366.0" width="19.6" height="19.6" rx="2.5" fill="#FFFFFF" stroke="#CBD5E1" stroke-width="0.7"/><rect x="126.3" y="366.0" width="19.6" height="19.6" rx="2.5" fill="#FFFFFF" stroke="#CBD5E1" stroke-width="0.7"/><rect x="147.3" y="366.0" width="19.6" height="19.6" rx="2.5" fill="#FFFFFF" stroke="#CBD5E1" stroke-width="0.7"/><rect x="168.3" y="366.0" width="19.6" height="19.6" rx="2.5" fill="#FFFFFF" stroke="#CBD5E1" stroke-width="0.7"/><rect x="189.3" y="366.0" width="19.6" height="19.6" rx="2.5" fill="#FDE68A" stroke="#CBD5E1" stroke-width="0.7"/><rect x="210.3" y="366.0" width="19.6" height="19.6" rx="2.5" fill="#FDE68A" stroke="#CBD5E1" stroke-width="0.7"/><rect x="231.3" y="366.0" width="19.6" height="19.6" rx="2.5" fill="#FFFFFF" stroke="#CBD5E1" stroke-width="0.7"/><rect x="252.3" y="366.0" width="19.6" height="19.6" rx="2.5" fill="#FFFFFF" stroke="#CBD5E1" stroke-width="0.7"/><rect x="273.3" y="366.0" width="19.6" height="19.6" rx="2.5" fill="#FFFFFF" stroke="#CBD5E1" stroke-width="0.7"/><rect x="294.3" y="366.0" width="19.6" height="19.6" rx="2.5" fill="#FFFFFF" stroke="#CBD5E1" stroke-width="0.7"/><rect x="315.3" y="366.0" width="19.6" height="19.6" rx="2.5" fill="#FFFFFF" stroke="#CBD5E1" stroke-width="0.7"/><rect x="336.3" y="366.0" width="19.6" height="19.6" rx="2.5" fill="#FFFFFF" stroke="#CBD5E1" stroke-width="0.7"/><rect x="357.3" y="366.0" width="19.6" height="19.6" rx="2.5" fill="#FDE68A" stroke="#CBD5E1" stroke-width="0.7"/><rect x="378.3" y="366.0" width="19.6" height="19.6" rx="2.5" fill="#FDE68A" stroke="#CBD5E1" stroke-width="0.7"/><rect x="399.3" y="366.0" width="19.6" height="19.6" rx="2.5" fill="#FFFFFF" stroke="#CBD5E1" stroke-width="0.7"/><rect x="420.3" y="366.0" width="19.6" height="19.6" rx="2.5" fill="#FFFFFF" stroke="#CBD5E1" stroke-width="0.7"/><text x="98.3" y="400.7" font-family="SF Mono, Menlo, Consolas, monospace" font-size="9.0px" fill="#475569" text-anchor="end">a1</text><rect x="105.3" y="387.0" width="19.6" height="19.6" rx="2.5" fill="#FFFFFF" stroke="#CBD5E1" stroke-width="0.7"/><rect x="126.3" y="387.0" width="19.6" height="19.6" rx="2.5" fill="#FFFFFF" stroke="#CBD5E1" stroke-width="0.7"/><rect x="147.3" y="387.0" width="19.6" height="19.6" rx="2.5" fill="#FFFFFF" stroke="#CBD5E1" stroke-width="0.7"/><rect x="168.3" y="387.0" width="19.6" height="19.6" rx="2.5" fill="#FFFFFF" stroke="#CBD5E1" stroke-width="0.7"/><rect x="189.3" y="387.0" width="19.6" height="19.6" rx="2.5" fill="#FDE68A" stroke="#CBD5E1" stroke-width="0.7"/><rect x="210.3" y="387.0" width="19.6" height="19.6" rx="2.5" fill="#FDE68A" stroke="#CBD5E1" stroke-width="0.7"/><rect x="231.3" y="387.0" width="19.6" height="19.6" rx="2.5" fill="#FFFFFF" stroke="#CBD5E1" stroke-width="0.7"/><rect x="252.3" y="387.0" width="19.6" height="19.6" rx="2.5" fill="#FFFFFF" stroke="#CBD5E1" stroke-width="0.7"/><rect x="273.3" y="387.0" width="19.6" height="19.6" rx="2.5" fill="#FFFFFF" stroke="#CBD5E1" stroke-width="0.7"/><rect x="294.3" y="387.0" width="19.6" height="19.6" rx="2.5" fill="#FFFFFF" stroke="#CBD5E1" stroke-width="0.7"/><rect x="315.3" y="387.0" width="19.6" height="19.6" rx="2.5" fill="#FFFFFF" stroke="#CBD5E1" stroke-width="0.7"/><rect x="336.3" y="387.0" width="19.6" height="19.6" rx="2.5" fill="#FFFFFF" stroke="#CBD5E1" stroke-width="0.7"/><rect x="357.3" y="387.0" width="19.6" height="19.6" rx="2.5" fill="#FDE68A" stroke="#CBD5E1" stroke-width="0.7"/><rect x="378.3" y="387.0" width="19.6" height="19.6" rx="2.5" fill="#FDE68A" stroke="#CBD5E1" stroke-width="0.7"/><rect x="399.3" y="387.0" width="19.6" height="19.6" rx="2.5" fill="#FFFFFF" stroke="#CBD5E1" stroke-width="0.7"/><rect x="420.3" y="387.0" width="19.6" height="19.6" rx="2.5" fill="#FFFFFF" stroke="#CBD5E1" stroke-width="0.7"/><text x="98.3" y="421.7" font-family="SF Mono, Menlo, Consolas, monospace" font-size="9.0px" fill="#475569" text-anchor="end">a2</text><rect x="105.3" y="408.0" width="19.6" height="19.6" rx="2.5" fill="#FFFFFF" stroke="#CBD5E1" stroke-width="0.7"/><rect x="126.3" y="408.0" width="19.6" height="19.6" rx="2.5" fill="#FFFFFF" stroke="#CBD5E1" stroke-width="0.7"/><rect x="147.3" y="408.0" width="19.6" height="19.6" rx="2.5" fill="#FFFFFF" stroke="#CBD5E1" stroke-width="0.7"/><rect x="168.3" y="408.0" width="19.6" height="19.6" rx="2.5" fill="#FFFFFF" stroke="#CBD5E1" stroke-width="0.7"/><rect x="189.3" y="408.0" width="19.6" height="19.6" rx="2.5" fill="#FDE68A" stroke="#CBD5E1" stroke-width="0.7"/><rect x="210.3" y="408.0" width="19.6" height="19.6" rx="2.5" fill="#FDE68A" stroke="#CBD5E1" stroke-width="0.7"/><rect x="231.3" y="408.0" width="19.6" height="19.6" rx="2.5" fill="#FDE68A" stroke="#CBD5E1" stroke-width="0.7"/><rect x="252.3" y="408.0" width="19.6" height="19.6" rx="2.5" fill="#FDE68A" stroke="#CBD5E1" stroke-width="0.7"/><rect x="273.3" y="408.0" width="19.6" height="19.6" rx="2.5" fill="#FFFFFF" stroke="#CBD5E1" stroke-width="0.7"/><rect x="294.3" y="408.0" width="19.6" height="19.6" rx="2.5" fill="#FFFFFF" stroke="#CBD5E1" stroke-width="0.7"/><rect x="315.3" y="408.0" width="19.6" height="19.6" rx="2.5" fill="#FFFFFF" stroke="#CBD5E1" stroke-width="0.7"/><rect x="336.3" y="408.0" width="19.6" height="19.6" rx="2.5" fill="#FFFFFF" stroke="#CBD5E1" stroke-width="0.7"/><rect x="357.3" y="408.0" width="19.6" height="19.6" rx="2.5" fill="#FDE68A" stroke="#CBD5E1" stroke-width="0.7"/><rect x="378.3" y="408.0" width="19.6" height="19.6" rx="2.5" fill="#FDE68A" stroke="#CBD5E1" stroke-width="0.7"/><rect x="399.3" y="408.0" width="19.6" height="19.6" rx="2.5" fill="#FDE68A" stroke="#CBD5E1" stroke-width="0.7"/><rect x="420.3" y="408.0" width="19.6" height="19.6" rx="2.5" fill="#FDE68A" stroke="#CBD5E1" stroke-width="0.7"/><text x="98.3" y="442.7" font-family="SF Mono, Menlo, Consolas, monospace" font-size="9.0px" fill="#475569" text-anchor="end">a3</text><rect x="105.3" y="429.0" width="19.6" height="19.6" rx="2.5" fill="#FFFFFF" stroke="#CBD5E1" stroke-width="0.7"/><rect x="126.3" y="429.0" width="19.6" height="19.6" rx="2.5" fill="#FFFFFF" stroke="#CBD5E1" stroke-width="0.7"/><rect x="147.3" y="429.0" width="19.6" height="19.6" rx="2.5" fill="#FFFFFF" stroke="#CBD5E1" stroke-width="0.7"/><rect x="168.3" y="429.0" width="19.6" height="19.6" rx="2.5" fill="#FFFFFF" stroke="#CBD5E1" stroke-width="0.7"/><rect x="189.3" y="429.0" width="19.6" height="19.6" rx="2.5" fill="#FDE68A" stroke="#CBD5E1" stroke-width="0.7"/><rect x="210.3" y="429.0" width="19.6" height="19.6" rx="2.5" fill="#FDE68A" stroke="#CBD5E1" stroke-width="0.7"/><rect x="231.3" y="429.0" width="19.6" height="19.6" rx="2.5" fill="#FDE68A" stroke="#CBD5E1" stroke-width="0.7"/><rect x="252.3" y="429.0" width="19.6" height="19.6" rx="2.5" fill="#FDE68A" stroke="#CBD5E1" stroke-width="0.7"/><rect x="273.3" y="429.0" width="19.6" height="19.6" rx="2.5" fill="#FFFFFF" stroke="#CBD5E1" stroke-width="0.7"/><rect x="294.3" y="429.0" width="19.6" height="19.6" rx="2.5" fill="#FFFFFF" stroke="#CBD5E1" stroke-width="0.7"/><rect x="315.3" y="429.0" width="19.6" height="19.6" rx="2.5" fill="#FFFFFF" stroke="#CBD5E1" stroke-width="0.7"/><rect x="336.3" y="429.0" width="19.6" height="19.6" rx="2.5" fill="#FFFFFF" stroke="#CBD5E1" stroke-width="0.7"/><rect x="357.3" y="429.0" width="19.6" height="19.6" rx="2.5" fill="#FDE68A" stroke="#CBD5E1" stroke-width="0.7"/><rect x="378.3" y="429.0" width="19.6" height="19.6" rx="2.5" fill="#FDE68A" stroke="#CBD5E1" stroke-width="0.7"/><rect x="399.3" y="429.0" width="19.6" height="19.6" rx="2.5" fill="#FDE68A" stroke="#CBD5E1" stroke-width="0.7"/><rect x="420.3" y="429.0" width="19.6" height="19.6" rx="2.5" fill="#FDE68A" stroke="#CBD5E1" stroke-width="0.7"/><line x1="272.6" y1="112.0" x2="272.6" y2="450.0" stroke="#475569" stroke-width="1.3" stroke-linecap="butt" /><line x1="103.3" y1="281.3" x2="441.3" y2="281.3" stroke="#475569" stroke-width="1.3" stroke-linecap="butt" /><line x1="188.6" y1="112.0" x2="188.6" y2="450.0" stroke="#475569" stroke-width="1.3" stroke-linecap="butt" /><line x1="103.3" y1="197.3" x2="441.3" y2="197.3" stroke="#475569" stroke-width="1.3" stroke-linecap="butt" /><line x1="356.6" y1="112.0" x2="356.6" y2="450.0" stroke="#475569" stroke-width="1.3" stroke-linecap="butt" /><line x1="103.3" y1="365.3" x2="441.3" y2="365.3" stroke="#475569" stroke-width="1.3" stroke-linecap="butt" /><text x="68.0" y="282.0" font-family="Helvetica Neue, Helvetica, Arial, sans-serif" font-size="9.5px" fill="#475569" font-weight="600" text-anchor="middle" transform="rotate(-90 68.0 282.0)">Query</text><rect x="96.0" y="490.0" width="30.0" height="26.0" rx="4.5" fill="url(#hatch-E0F2FE-0284C7)" stroke="#0284C7" stroke-width="1.1"/><text x="111.0" y="506.4" font-family="Helvetica Neue, Helvetica, Arial, sans-serif" font-size="10.0px" fill="#0C4A6E" text-anchor="middle" font-weight="500" paint-order="stroke" stroke="#FFFFFF" stroke-width="3px">~z0</text><text x="111.0" y="527.0" font-family="SF Mono, Menlo, Consolas, monospace" font-size="8.5px" fill="#94A3B8" text-anchor="middle">fid 0</text><rect x="129.5" y="490.0" width="30.0" height="26.0" rx="4.5" fill="url(#hatch-E0F2FE-0284C7)" stroke="#0284C7" stroke-width="1.1"/><text x="144.5" y="506.4" font-family="Helvetica Neue, Helvetica, Arial, sans-serif" font-size="10.0px" fill="#0C4A6E" text-anchor="middle" font-weight="500" paint-order="stroke" stroke="#FFFFFF" stroke-width="3px">~z1</text><text x="144.5" y="527.0" font-family="SF Mono, Menlo, Consolas, monospace" font-size="8.5px" fill="#94A3B8" text-anchor="middle">fid 0</text><rect x="163.0" y="490.0" width="30.0" height="26.0" rx="4.5" fill="url(#hatch-E0F2FE-0284C7)" stroke="#0284C7" stroke-width="1.1"/><text x="178.0" y="506.4" font-family="Helvetica Neue, Helvetica, Arial, sans-serif" font-size="10.0px" fill="#0C4A6E" text-anchor="middle" font-weight="500" paint-order="stroke" stroke="#FFFFFF" stroke-width="3px">~z2</text><text x="178.0" y="527.0" font-family="SF Mono, Menlo, Consolas, monospace" font-size="8.5px" fill="#94A3B8" text-anchor="middle">fid 2</text><rect x="196.5" y="490.0" width="30.0" height="26.0" rx="4.5" fill="url(#hatch-E0F2FE-0284C7)" stroke="#0284C7" stroke-width="1.1"/><text x="211.5" y="506.4" font-family="Helvetica Neue, Helvetica, Arial, sans-serif" font-size="10.0px" fill="#0C4A6E" text-anchor="middle" font-weight="500" paint-order="stroke" stroke="#FFFFFF" stroke-width="3px">~z3</text><text x="211.5" y="527.0" font-family="SF Mono, Menlo, Consolas, monospace" font-size="8.5px" fill="#94A3B8" text-anchor="middle">fid 2</text><rect x="240.0" y="490.0" width="30.0" height="26.0" rx="4.5" fill="#E0F2FE" stroke="#0284C7" stroke-width="1.1"/><text x="255.0" y="506.4" font-family="Helvetica Neue, Helvetica, Arial, sans-serif" font-size="10.0px" fill="#0C4A6E" text-anchor="middle" font-weight="500">z0</text><text x="255.0" y="527.0" font-family="SF Mono, Menlo, Consolas, monospace" font-size="8.5px" fill="#94A3B8" text-anchor="middle">fid 0</text><rect x="273.5" y="490.0" width="30.0" height="26.0" rx="4.5" fill="#E0F2FE" stroke="#0284C7" stroke-width="1.1"/><text x="288.5" y="506.4" font-family="Helvetica Neue, Helvetica, Arial, sans-serif" font-size="10.0px" fill="#0C4A6E" text-anchor="middle" font-weight="500">z1</text><text x="288.5" y="527.0" font-family="SF Mono, Menlo, Consolas, monospace" font-size="8.5px" fill="#94A3B8" text-anchor="middle">fid 0</text><rect x="307.0" y="490.0" width="30.0" height="26.0" rx="4.5" fill="#E0F2FE" stroke="#0284C7" stroke-width="1.1"/><text x="322.0" y="506.4" font-family="Helvetica Neue, Helvetica, Arial, sans-serif" font-size="10.0px" fill="#0C4A6E" text-anchor="middle" font-weight="500">z2</text><text x="322.0" y="527.0" font-family="SF Mono, Menlo, Consolas, monospace" font-size="8.5px" fill="#94A3B8" text-anchor="middle">fid 2</text><rect x="340.5" y="490.0" width="30.0" height="26.0" rx="4.5" fill="#E0F2FE" stroke="#0284C7" stroke-width="1.1"/><text x="355.5" y="506.4" font-family="Helvetica Neue, Helvetica, Arial, sans-serif" font-size="10.0px" fill="#0C4A6E" text-anchor="middle" font-weight="500">z3</text><text x="355.5" y="527.0" font-family="SF Mono, Menlo, Consolas, monospace" font-size="8.5px" fill="#94A3B8" text-anchor="middle">fid 2</text><rect x="384.0" y="490.0" width="30.0" height="26.0" rx="4.5" fill="url(#hatch-D1FAE5-059669)" stroke="#059669" stroke-width="1.1"/><text x="399.0" y="506.4" font-family="Helvetica Neue, Helvetica, Arial, sans-serif" font-size="10.0px" fill="#064E3B" text-anchor="middle" font-weight="500" paint-order="stroke" stroke="#FFFFFF" stroke-width="3px">~a0</text><text x="399.0" y="527.0" font-family="SF Mono, Menlo, Consolas, monospace" font-size="8.5px" fill="#94A3B8" text-anchor="middle">fid 1</text><rect x="417.5" y="490.0" width="30.0" height="26.0" rx="4.5" fill="url(#hatch-D1FAE5-059669)" stroke="#059669" stroke-width="1.1"/><text x="432.5" y="506.4" font-family="Helvetica Neue, Helvetica, Arial, sans-serif" font-size="10.0px" fill="#064E3B" text-anchor="middle" font-weight="500" paint-order="stroke" stroke="#FFFFFF" stroke-width="3px">~a1</text><text x="432.5" y="527.0" font-family="SF Mono, Menlo, Consolas, monospace" font-size="8.5px" fill="#94A3B8" text-anchor="middle">fid 1</text><rect x="451.0" y="490.0" width="30.0" height="26.0" rx="4.5" fill="url(#hatch-D1FAE5-059669)" stroke="#059669" stroke-width="1.1"/><text x="466.0" y="506.4" font-family="Helvetica Neue, Helvetica, Arial, sans-serif" font-size="10.0px" fill="#064E3B" text-anchor="middle" font-weight="500" paint-order="stroke" stroke="#FFFFFF" stroke-width="3px">~a2</text><text x="466.0" y="527.0" font-family="SF Mono, Menlo, Consolas, monospace" font-size="8.5px" fill="#94A3B8" text-anchor="middle">fid 3</text><rect x="484.5" y="490.0" width="30.0" height="26.0" rx="4.5" fill="url(#hatch-D1FAE5-059669)" stroke="#059669" stroke-width="1.1"/><text x="499.5" y="506.4" font-family="Helvetica Neue, Helvetica, Arial, sans-serif" font-size="10.0px" fill="#064E3B" text-anchor="middle" font-weight="500" paint-order="stroke" stroke="#FFFFFF" stroke-width="3px">~a3</text><text x="499.5" y="527.0" font-family="SF Mono, Menlo, Consolas, monospace" font-size="8.5px" fill="#94A3B8" text-anchor="middle">fid 3</text><rect x="528.0" y="490.0" width="30.0" height="26.0" rx="4.5" fill="#D1FAE5" stroke="#059669" stroke-width="1.1"/><text x="543.0" y="506.4" font-family="Helvetica Neue, Helvetica, Arial, sans-serif" font-size="10.0px" fill="#064E3B" text-anchor="middle" font-weight="500">a0</text><text x="543.0" y="527.0" font-family="SF Mono, Menlo, Consolas, monospace" font-size="8.5px" fill="#94A3B8" text-anchor="middle">fid 1</text><rect x="561.5" y="490.0" width="30.0" height="26.0" rx="4.5" fill="#D1FAE5" stroke="#059669" stroke-width="1.1"/><text x="576.5" y="506.4" font-family="Helvetica Neue, Helvetica, Arial, sans-serif" font-size="10.0px" fill="#064E3B" text-anchor="middle" font-weight="500">a1</text><text x="576.5" y="527.0" font-family="SF Mono, Menlo, Consolas, monospace" font-size="8.5px" fill="#94A3B8" text-anchor="middle">fid 1</text><rect x="595.0" y="490.0" width="30.0" height="26.0" rx="4.5" fill="#D1FAE5" stroke="#059669" stroke-width="1.1"/><text x="610.0" y="506.4" font-family="Helvetica Neue, Helvetica, Arial, sans-serif" font-size="10.0px" fill="#064E3B" text-anchor="middle" font-weight="500">a2</text><text x="610.0" y="527.0" font-family="SF Mono, Menlo, Consolas, monospace" font-size="8.5px" fill="#94A3B8" text-anchor="middle">fid 3</text><rect x="628.5" y="490.0" width="30.0" height="26.0" rx="4.5" fill="#D1FAE5" stroke="#059669" stroke-width="1.1"/><text x="643.5" y="506.4" font-family="Helvetica Neue, Helvetica, Arial, sans-serif" font-size="10.0px" fill="#064E3B" text-anchor="middle" font-weight="500">a3</text><text x="643.5" y="527.0" font-family="SF Mono, Menlo, Consolas, monospace" font-size="8.5px" fill="#94A3B8" text-anchor="middle">fid 3</text><text x="613.3" y="101.5" font-family="Helvetica Neue, Helvetica, Arial, sans-serif" font-size="11.5px" fill="#0F172A" text-anchor="middle" font-weight="600">Three OR-ed rules (model.py:195-197)</text><rect x="489.3" y="118.9" width="13.0" height="13.0" rx="3.5" fill="#FDE68A" stroke="#CA8A04" stroke-width="1.1"/><text x="508.3" y="129.2" font-family="Helvetica Neue, Helvetica, Arial, sans-serif" font-size="10.5px" fill="#475569" text-anchor="start">clean → clean   (fid_kv ≤ fid_q): causal history</text><rect x="489.3" y="139.9" width="13.0" height="13.0" rx="3.5" fill="#BAE6FD" stroke="#0284C7" stroke-width="1.1"/><text x="508.3" y="150.2" font-family="Helvetica Neue, Helvetica, Arial, sans-serif" font-size="10.5px" fill="#475569" text-anchor="start">noise → clean   (fid_kv &lt; fid_q): denoise from strictly-past context</text><rect x="489.3" y="160.9" width="13.0" height="13.0" rx="3.5" fill="#A7F3D0" stroke="#059669" stroke-width="1.1"/><text x="508.3" y="171.2" font-family="Helvetica Neue, Helvetica, Arial, sans-serif" font-size="10.5px" fill="#475569" text-anchor="start">noise → noise   (fid_kv = fid_q): bidirectional within own chunk</text><text x="672.6" y="199.4" font-family="Helvetica Neue, Helvetica, Arial, sans-serif" font-size="10.5px" fill="#475569" text-anchor="middle">then AND same-batch (packed sequences) and AND |fid_q − fid_kv| ≤</text><text x="672.6" y="213.9" font-family="Helvetica Neue, Helvetica, Arial, sans-serif" font-size="10.5px" fill="#475569" text-anchor="middle">window (sliding window, randomized 4–64 at training).</text><text x="633.6" y="242.3" font-family="Helvetica Neue, Helvetica, Arial, sans-serif" font-size="11.5px" fill="#0F172A" text-anchor="middle" font-weight="600">What the interleave buys (read off the grid):</text><text x="677.9" y="270.2" font-family="Helvetica Neue, Helvetica, Arial, sans-serif" font-size="10.5px" fill="#475569" text-anchor="middle">· inverse dynamics — noisy ~a of chunk c attends clean z of chunks ≤ c</text><text x="677.9" y="284.7" font-family="Helvetica Neue, Helvetica, Arial, sans-serif" font-size="10.5px" fill="#475569" text-anchor="middle">(its own observations) but never future video;</text><text x="677.7" y="312.2" font-family="Helvetica Neue, Helvetica, Arial, sans-serif" font-size="10.5px" fill="#475569" text-anchor="middle">· forward dynamics — noisy ~z of chunk c+1 attends clean a of chunk c</text><text x="677.7" y="326.7" font-family="Helvetica Neue, Helvetica, Arial, sans-serif" font-size="10.5px" fill="#475569" text-anchor="middle">(the just-executed actions);</text><text x="669.0" y="354.2" font-family="Helvetica Neue, Helvetica, Arial, sans-serif" font-size="10.5px" fill="#475569" text-anchor="middle">· noisy video and noisy action never attend each other (fids differ by</text><text x="669.0" y="368.7" font-family="Helvetica Neue, Helvetica, Arial, sans-serif" font-size="10.5px" fill="#475569" text-anchor="middle">construction) — denoising targets stay independent given clean</text><text x="669.0" y="383.2" font-family="Helvetica Neue, Helvetica, Arial, sans-serif" font-size="10.5px" fill="#475569" text-anchor="middle">context;</text><text x="677.5" y="410.6" font-family="Helvetica Neue, Helvetica, Arial, sans-serif" font-size="10.5px" fill="#475569" text-anchor="middle">· within a chunk, noisy tokens are bidirectional (parallel generation),</text><text x="677.5" y="425.1" font-family="Helvetica Neue, Helvetica, Arial, sans-serif" font-size="10.5px" fill="#475569" text-anchor="middle">across chunks strictly causal — the paper's “causality without giving up</text><text x="677.5" y="439.6" font-family="Helvetica Neue, Helvetica, Arial, sans-serif" font-size="10.5px" fill="#475569" text-anchor="middle">chunk parallelism”.</text></g><g id="labels"><text x="96.0" y="480.0" font-family="Helvetica Neue, Helvetica, Arial, sans-serif" font-size="10.0px" fill="#94A3B8" text-anchor="start">the same 16 tokens as a sequence (hatched / ~ = noisy, being denoised):</text><text x="83.0" y="54.5" font-family="Helvetica Neue, Helvetica, Arial, sans-serif" font-size="11.5px" fill="#475569" text-anchor="start">sit strictly between video chunks c and c+1. Example: F=4 frames, chunk K=2, 1 token per frame. wan_va/modules/model.py:93-201</text><text x="83.0" y="37.8" font-family="Helvetica Neue, Helvetica, Arial, sans-serif" font-size="11.5px" fill="#475569" text-anchor="start">Sequence layout [noisy z | clean z | noisy a | clean a], frame ids interleaved as fid_z = 2·(f//K), fid_a = 2·(f//K)+1 — actions of chunk c</text><text x="83.0" y="21.2" font-family="Helvetica Neue, Helvetica, Arial, sans-serif" font-size="17px" fill="#0F172A" text-anchor="start" font-weight="600">Fig 5 · One attention mask does the routing (code version)</text></g></svg>